%FSLAX45Y45*%
G04 Gerber Fmt 4.5, Leading zero omitted, Abs format (unit mm)*
G04 Created by KiCad (PCBNEW (6.0.0)) date 2022-01-10 13:14:15*
%MOMM*%
%LPD*%
G01*
G04 APERTURE LIST*
%TA.AperFunction,Profile*%
%ADD10C,0.100000*%
%TD*%
%TA.AperFunction,Profile*%
%ADD11C,0.050000*%
%TD*%
%ADD12C,0.200000*%
%ADD13C,0.065000*%
%ADD14C,0.175000*%
%ADD15C,0.220000*%
%ADD16C,0.300000*%
%ADD17C,0.304800*%
%ADD18C,0.398780*%
G04 APERTURE END LIST*
D10*
X35242500Y-20558125D02*
G75*
G03*
X35401250Y-20399375I0J158750D01*
G01*
X6985000Y-8413750D02*
G75*
G03*
X6826250Y-8572500I0J-158750D01*
G01*
D11*
X35232600Y-8975000D02*
G75*
G03*
X35232600Y-8975000I-57600J0D01*
G01*
D10*
X35242500Y-20558125D02*
X6985000Y-20558125D01*
D11*
X7132600Y-20000000D02*
G75*
G03*
X7132600Y-20000000I-57600J0D01*
G01*
X7132600Y-8975000D02*
G75*
G03*
X7132600Y-8975000I-57600J0D01*
G01*
D10*
X35401250Y-8572500D02*
G75*
G03*
X35242500Y-8413750I-158750J0D01*
G01*
X35401250Y-8572500D02*
X35401250Y-20399375D01*
X6826250Y-20399375D02*
G75*
G03*
X6985000Y-20558125I158750J0D01*
G01*
D11*
X35232600Y-20000000D02*
G75*
G03*
X35232600Y-20000000I-57600J0D01*
G01*
D10*
X6826250Y-20399375D02*
X6826250Y-8572500D01*
X6985000Y-8413750D02*
X35242500Y-8413750D01*
D12*
D13*
X7492500Y-8984875D02*
X7557500Y-9049875D01*
X7557500Y-8984875D02*
X7492500Y-9049875D01*
X8070500Y-8984875D02*
X8135500Y-9049875D01*
X8135500Y-8984875D02*
X8070500Y-9049875D01*
D14*
X7358250Y-11985625D02*
G75*
G03*
X7358250Y-11985625I-87500J0D01*
G01*
X7596375Y-19605625D02*
G75*
G03*
X7596375Y-19605625I-87500J0D01*
G01*
X7834500Y-13890625D02*
G75*
G03*
X7834500Y-13890625I-87500J0D01*
G01*
X8072625Y-15795625D02*
G75*
G03*
X8072625Y-15795625I-87500J0D01*
G01*
X8374250Y-11985625D02*
G75*
G03*
X8374250Y-11985625I-87500J0D01*
G01*
X8548875Y-17700625D02*
G75*
G03*
X8548875Y-17700625I-87500J0D01*
G01*
X8612375Y-19605625D02*
G75*
G03*
X8612375Y-19605625I-87500J0D01*
G01*
X8850500Y-13890625D02*
G75*
G03*
X8850500Y-13890625I-87500J0D01*
G01*
X9088625Y-15795625D02*
G75*
G03*
X9088625Y-15795625I-87500J0D01*
G01*
X9263250Y-11985625D02*
G75*
G03*
X9263250Y-11985625I-87500J0D01*
G01*
X9564875Y-17700625D02*
G75*
G03*
X9564875Y-17700625I-87500J0D01*
G01*
X9977625Y-19605625D02*
G75*
G03*
X9977625Y-19605625I-87500J0D01*
G01*
X10215750Y-13890625D02*
G75*
G03*
X10215750Y-13890625I-87500J0D01*
G01*
X10279250Y-11985625D02*
G75*
G03*
X10279250Y-11985625I-87500J0D01*
G01*
X10692000Y-15795625D02*
G75*
G03*
X10692000Y-15795625I-87500J0D01*
G01*
X10993625Y-19605625D02*
G75*
G03*
X10993625Y-19605625I-87500J0D01*
G01*
X11168250Y-11985625D02*
G75*
G03*
X11168250Y-11985625I-87500J0D01*
G01*
X11231750Y-13890625D02*
G75*
G03*
X11231750Y-13890625I-87500J0D01*
G01*
X11644500Y-17700625D02*
G75*
G03*
X11644500Y-17700625I-87500J0D01*
G01*
X11708000Y-15795625D02*
G75*
G03*
X11708000Y-15795625I-87500J0D01*
G01*
X12120750Y-13890625D02*
G75*
G03*
X12120750Y-13890625I-87500J0D01*
G01*
X12184250Y-11985625D02*
G75*
G03*
X12184250Y-11985625I-87500J0D01*
G01*
X12358875Y-19605625D02*
G75*
G03*
X12358875Y-19605625I-87500J0D01*
G01*
X12597000Y-15795625D02*
G75*
G03*
X12597000Y-15795625I-87500J0D01*
G01*
X12660500Y-17700625D02*
G75*
G03*
X12660500Y-17700625I-87500J0D01*
G01*
X13073250Y-11985625D02*
G75*
G03*
X13073250Y-11985625I-87500J0D01*
G01*
X13136750Y-13890625D02*
G75*
G03*
X13136750Y-13890625I-87500J0D01*
G01*
X13374875Y-19605625D02*
G75*
G03*
X13374875Y-19605625I-87500J0D01*
G01*
X13549500Y-17700625D02*
G75*
G03*
X13549500Y-17700625I-87500J0D01*
G01*
X13613000Y-15795625D02*
G75*
G03*
X13613000Y-15795625I-87500J0D01*
G01*
X14025750Y-13890625D02*
G75*
G03*
X14025750Y-13890625I-87500J0D01*
G01*
X14089250Y-11985625D02*
G75*
G03*
X14089250Y-11985625I-87500J0D01*
G01*
X14502000Y-15795625D02*
G75*
G03*
X14502000Y-15795625I-87500J0D01*
G01*
X14565500Y-17700625D02*
G75*
G03*
X14565500Y-17700625I-87500J0D01*
G01*
X14978250Y-11985625D02*
G75*
G03*
X14978250Y-11985625I-87500J0D01*
G01*
X15041750Y-13890625D02*
G75*
G03*
X15041750Y-13890625I-87500J0D01*
G01*
X15454500Y-17700625D02*
G75*
G03*
X15454500Y-17700625I-87500J0D01*
G01*
X15518000Y-15795625D02*
G75*
G03*
X15518000Y-15795625I-87500J0D01*
G01*
X15930750Y-13890625D02*
G75*
G03*
X15930750Y-13890625I-87500J0D01*
G01*
X15994250Y-11985625D02*
G75*
G03*
X15994250Y-11985625I-87500J0D01*
G01*
X16407000Y-15795625D02*
G75*
G03*
X16407000Y-15795625I-87500J0D01*
G01*
X16470500Y-17700625D02*
G75*
G03*
X16470500Y-17700625I-87500J0D01*
G01*
X16883250Y-11985625D02*
G75*
G03*
X16883250Y-11985625I-87500J0D01*
G01*
X16946750Y-13890625D02*
G75*
G03*
X16946750Y-13890625I-87500J0D01*
G01*
X17359500Y-17700625D02*
G75*
G03*
X17359500Y-17700625I-87500J0D01*
G01*
X17423000Y-15795625D02*
G75*
G03*
X17423000Y-15795625I-87500J0D01*
G01*
X17835750Y-13890625D02*
G75*
G03*
X17835750Y-13890625I-87500J0D01*
G01*
X17899250Y-11985625D02*
G75*
G03*
X17899250Y-11985625I-87500J0D01*
G01*
X18312000Y-15795625D02*
G75*
G03*
X18312000Y-15795625I-87500J0D01*
G01*
X18375500Y-17700625D02*
G75*
G03*
X18375500Y-17700625I-87500J0D01*
G01*
X18788250Y-11985625D02*
G75*
G03*
X18788250Y-11985625I-87500J0D01*
G01*
X18851750Y-13890625D02*
G75*
G03*
X18851750Y-13890625I-87500J0D01*
G01*
X19264500Y-17700625D02*
G75*
G03*
X19264500Y-17700625I-87500J0D01*
G01*
X19328000Y-15795625D02*
G75*
G03*
X19328000Y-15795625I-87500J0D01*
G01*
X19502625Y-19605625D02*
G75*
G03*
X19502625Y-19605625I-87500J0D01*
G01*
X19740750Y-13890625D02*
G75*
G03*
X19740750Y-13890625I-87500J0D01*
G01*
X19804250Y-11985625D02*
G75*
G03*
X19804250Y-11985625I-87500J0D01*
G01*
X20217000Y-15795625D02*
G75*
G03*
X20217000Y-15795625I-87500J0D01*
G01*
X20280500Y-17700625D02*
G75*
G03*
X20280500Y-17700625I-87500J0D01*
G01*
X20518625Y-19605625D02*
G75*
G03*
X20518625Y-19605625I-87500J0D01*
G01*
X20693250Y-11985625D02*
G75*
G03*
X20693250Y-11985625I-87500J0D01*
G01*
X20756750Y-13890625D02*
G75*
G03*
X20756750Y-13890625I-87500J0D01*
G01*
X21169500Y-17700625D02*
G75*
G03*
X21169500Y-17700625I-87500J0D01*
G01*
X21233000Y-15795625D02*
G75*
G03*
X21233000Y-15795625I-87500J0D01*
G01*
X21645750Y-13890625D02*
G75*
G03*
X21645750Y-13890625I-87500J0D01*
G01*
X21709250Y-11985625D02*
G75*
G03*
X21709250Y-11985625I-87500J0D01*
G01*
X22122000Y-15795625D02*
G75*
G03*
X22122000Y-15795625I-87500J0D01*
G01*
X22185500Y-17700625D02*
G75*
G03*
X22185500Y-17700625I-87500J0D01*
G01*
X22598250Y-11985625D02*
G75*
G03*
X22598250Y-11985625I-87500J0D01*
G01*
X22661750Y-13890625D02*
G75*
G03*
X22661750Y-13890625I-87500J0D01*
G01*
X23074500Y-17700625D02*
G75*
G03*
X23074500Y-17700625I-87500J0D01*
G01*
X23138000Y-15795625D02*
G75*
G03*
X23138000Y-15795625I-87500J0D01*
G01*
X23550750Y-13890625D02*
G75*
G03*
X23550750Y-13890625I-87500J0D01*
G01*
X23614250Y-11985625D02*
G75*
G03*
X23614250Y-11985625I-87500J0D01*
G01*
X24027000Y-15795625D02*
G75*
G03*
X24027000Y-15795625I-87500J0D01*
G01*
X24090500Y-17700625D02*
G75*
G03*
X24090500Y-17700625I-87500J0D01*
G01*
X24503250Y-11985625D02*
G75*
G03*
X24503250Y-11985625I-87500J0D01*
G01*
X24566750Y-13890625D02*
G75*
G03*
X24566750Y-13890625I-87500J0D01*
G01*
X24979500Y-17700625D02*
G75*
G03*
X24979500Y-17700625I-87500J0D01*
G01*
X25043000Y-15795625D02*
G75*
G03*
X25043000Y-15795625I-87500J0D01*
G01*
X25455750Y-13890625D02*
G75*
G03*
X25455750Y-13890625I-87500J0D01*
G01*
X25519250Y-11985625D02*
G75*
G03*
X25519250Y-11985625I-87500J0D01*
G01*
X25932000Y-15795625D02*
G75*
G03*
X25932000Y-15795625I-87500J0D01*
G01*
X25995500Y-17700625D02*
G75*
G03*
X25995500Y-17700625I-87500J0D01*
G01*
X26408250Y-11985625D02*
G75*
G03*
X26408250Y-11985625I-87500J0D01*
G01*
X26408250Y-19605625D02*
G75*
G03*
X26408250Y-19605625I-87500J0D01*
G01*
X26471750Y-13890625D02*
G75*
G03*
X26471750Y-13890625I-87500J0D01*
G01*
X26884500Y-17700625D02*
G75*
G03*
X26884500Y-17700625I-87500J0D01*
G01*
X26948000Y-15795625D02*
G75*
G03*
X26948000Y-15795625I-87500J0D01*
G01*
X27360750Y-13890625D02*
G75*
G03*
X27360750Y-13890625I-87500J0D01*
G01*
X27424250Y-11985625D02*
G75*
G03*
X27424250Y-11985625I-87500J0D01*
G01*
X27424250Y-19605625D02*
G75*
G03*
X27424250Y-19605625I-87500J0D01*
G01*
X27837000Y-15795625D02*
G75*
G03*
X27837000Y-15795625I-87500J0D01*
G01*
X27900500Y-17700625D02*
G75*
G03*
X27900500Y-17700625I-87500J0D01*
G01*
X28313250Y-11985625D02*
G75*
G03*
X28313250Y-11985625I-87500J0D01*
G01*
X28313250Y-19605625D02*
G75*
G03*
X28313250Y-19605625I-87500J0D01*
G01*
X28376750Y-13890625D02*
G75*
G03*
X28376750Y-13890625I-87500J0D01*
G01*
X28853000Y-15795625D02*
G75*
G03*
X28853000Y-15795625I-87500J0D01*
G01*
X29265750Y-13890625D02*
G75*
G03*
X29265750Y-13890625I-87500J0D01*
G01*
X29329250Y-11985625D02*
G75*
G03*
X29329250Y-11985625I-87500J0D01*
G01*
X29329250Y-19605625D02*
G75*
G03*
X29329250Y-19605625I-87500J0D01*
G01*
X29503875Y-17700625D02*
G75*
G03*
X29503875Y-17700625I-87500J0D01*
G01*
X29742000Y-15795625D02*
G75*
G03*
X29742000Y-15795625I-87500J0D01*
G01*
X30218250Y-11985625D02*
G75*
G03*
X30218250Y-11985625I-87500J0D01*
G01*
X30218250Y-19605625D02*
G75*
G03*
X30218250Y-19605625I-87500J0D01*
G01*
X30281750Y-13890625D02*
G75*
G03*
X30281750Y-13890625I-87500J0D01*
G01*
X30519875Y-17700625D02*
G75*
G03*
X30519875Y-17700625I-87500J0D01*
G01*
X30758000Y-15795625D02*
G75*
G03*
X30758000Y-15795625I-87500J0D01*
G01*
X31170750Y-13890625D02*
G75*
G03*
X31170750Y-13890625I-87500J0D01*
G01*
X31234250Y-11985625D02*
G75*
G03*
X31234250Y-11985625I-87500J0D01*
G01*
X31234250Y-19605625D02*
G75*
G03*
X31234250Y-19605625I-87500J0D01*
G01*
X32123250Y-17700625D02*
G75*
G03*
X32123250Y-17700625I-87500J0D01*
G01*
X32123250Y-19605625D02*
G75*
G03*
X32123250Y-19605625I-87500J0D01*
G01*
X32186750Y-13890625D02*
G75*
G03*
X32186750Y-13890625I-87500J0D01*
G01*
X32837625Y-15795625D02*
G75*
G03*
X32837625Y-15795625I-87500J0D01*
G01*
X33075750Y-11985625D02*
G75*
G03*
X33075750Y-11985625I-87500J0D01*
G01*
X33139250Y-17700625D02*
G75*
G03*
X33139250Y-17700625I-87500J0D01*
G01*
X33139250Y-19605625D02*
G75*
G03*
X33139250Y-19605625I-87500J0D01*
G01*
X33552000Y-13890625D02*
G75*
G03*
X33552000Y-13890625I-87500J0D01*
G01*
X33853625Y-15795625D02*
G75*
G03*
X33853625Y-15795625I-87500J0D01*
G01*
X34028250Y-17700625D02*
G75*
G03*
X34028250Y-17700625I-87500J0D01*
G01*
X34028250Y-19605625D02*
G75*
G03*
X34028250Y-19605625I-87500J0D01*
G01*
X34091750Y-11985625D02*
G75*
G03*
X34091750Y-11985625I-87500J0D01*
G01*
X34568000Y-13890625D02*
G75*
G03*
X34568000Y-13890625I-87500J0D01*
G01*
X35044250Y-17700625D02*
G75*
G03*
X35044250Y-17700625I-87500J0D01*
G01*
X35044250Y-19605625D02*
G75*
G03*
X35044250Y-19605625I-87500J0D01*
G01*
D15*
X7075000Y-8540000D02*
X7075000Y-8760000D01*
X6965000Y-8650000D02*
X7185000Y-8650000D01*
X7075000Y-20215000D02*
X7075000Y-20435000D01*
X6965000Y-20325000D02*
X7185000Y-20325000D01*
X35175000Y-8540000D02*
X35175000Y-8760000D01*
X35065000Y-8650000D02*
X35285000Y-8650000D01*
X35175000Y-20215000D02*
X35175000Y-20435000D01*
X35065000Y-20325000D02*
X35285000Y-20325000D01*
D16*
X7503817Y-11837692D02*
X7503817Y-11625558D01*
X7291683Y-11625558D01*
X7291683Y-11837692D01*
X7503817Y-11837692D01*
X7741942Y-19457692D02*
X7741942Y-19245558D01*
X7529808Y-19245558D01*
X7529808Y-19457692D01*
X7741942Y-19457692D01*
X7980067Y-13742692D02*
X7980067Y-13530558D01*
X7767933Y-13530558D01*
X7767933Y-13742692D01*
X7980067Y-13742692D01*
X8138817Y-11583692D02*
X8138817Y-11371558D01*
X7926683Y-11371558D01*
X7926683Y-11583692D01*
X8138817Y-11583692D01*
X8218192Y-15647692D02*
X8218192Y-15435558D01*
X8006058Y-15435558D01*
X8006058Y-15647692D01*
X8218192Y-15647692D01*
X8376942Y-19203692D02*
X8376942Y-18991558D01*
X8164808Y-18991558D01*
X8164808Y-19203692D01*
X8376942Y-19203692D01*
X8615067Y-13488692D02*
X8615067Y-13276558D01*
X8402933Y-13276558D01*
X8402933Y-13488692D01*
X8615067Y-13488692D01*
X8694442Y-17552692D02*
X8694442Y-17340558D01*
X8482308Y-17340558D01*
X8482308Y-17552692D01*
X8694442Y-17552692D01*
X8853192Y-15393692D02*
X8853192Y-15181558D01*
X8641058Y-15181558D01*
X8641058Y-15393692D01*
X8853192Y-15393692D01*
X9329442Y-17298692D02*
X9329442Y-17086558D01*
X9117308Y-17086558D01*
X9117308Y-17298692D01*
X9329442Y-17298692D01*
X9408817Y-11837692D02*
X9408817Y-11625558D01*
X9196683Y-11625558D01*
X9196683Y-11837692D01*
X9408817Y-11837692D01*
X10043817Y-11583692D02*
X10043817Y-11371558D01*
X9831683Y-11371558D01*
X9831683Y-11583692D01*
X10043817Y-11583692D01*
X10123192Y-19457692D02*
X10123192Y-19245558D01*
X9911058Y-19245558D01*
X9911058Y-19457692D01*
X10123192Y-19457692D01*
X10361317Y-13742692D02*
X10361317Y-13530558D01*
X10149183Y-13530558D01*
X10149183Y-13742692D01*
X10361317Y-13742692D01*
X10758192Y-19203692D02*
X10758192Y-18991558D01*
X10546058Y-18991558D01*
X10546058Y-19203692D01*
X10758192Y-19203692D01*
X10837567Y-15647692D02*
X10837567Y-15435558D01*
X10625433Y-15435558D01*
X10625433Y-15647692D01*
X10837567Y-15647692D01*
X10996317Y-13488692D02*
X10996317Y-13276558D01*
X10784183Y-13276558D01*
X10784183Y-13488692D01*
X10996317Y-13488692D01*
X11313817Y-11837692D02*
X11313817Y-11625558D01*
X11101683Y-11625558D01*
X11101683Y-11837692D01*
X11313817Y-11837692D01*
X11472567Y-15393692D02*
X11472567Y-15181558D01*
X11260433Y-15181558D01*
X11260433Y-15393692D01*
X11472567Y-15393692D01*
X11790067Y-17552692D02*
X11790067Y-17340558D01*
X11577933Y-17340558D01*
X11577933Y-17552692D01*
X11790067Y-17552692D01*
X11948817Y-11583692D02*
X11948817Y-11371558D01*
X11736683Y-11371558D01*
X11736683Y-11583692D01*
X11948817Y-11583692D01*
X12266317Y-13742692D02*
X12266317Y-13530558D01*
X12054183Y-13530558D01*
X12054183Y-13742692D01*
X12266317Y-13742692D01*
X12425067Y-17298692D02*
X12425067Y-17086558D01*
X12212933Y-17086558D01*
X12212933Y-17298692D01*
X12425067Y-17298692D01*
X12504442Y-19457692D02*
X12504442Y-19245558D01*
X12292308Y-19245558D01*
X12292308Y-19457692D01*
X12504442Y-19457692D01*
X12742567Y-15647692D02*
X12742567Y-15435558D01*
X12530433Y-15435558D01*
X12530433Y-15647692D01*
X12742567Y-15647692D01*
X12901317Y-13488692D02*
X12901317Y-13276558D01*
X12689183Y-13276558D01*
X12689183Y-13488692D01*
X12901317Y-13488692D01*
X13139442Y-19203692D02*
X13139442Y-18991558D01*
X12927308Y-18991558D01*
X12927308Y-19203692D01*
X13139442Y-19203692D01*
X13218817Y-11837692D02*
X13218817Y-11625558D01*
X13006683Y-11625558D01*
X13006683Y-11837692D01*
X13218817Y-11837692D01*
X13377567Y-15393692D02*
X13377567Y-15181558D01*
X13165433Y-15181558D01*
X13165433Y-15393692D01*
X13377567Y-15393692D01*
X13695067Y-17552692D02*
X13695067Y-17340558D01*
X13482933Y-17340558D01*
X13482933Y-17552692D01*
X13695067Y-17552692D01*
X13853817Y-11583692D02*
X13853817Y-11371558D01*
X13641683Y-11371558D01*
X13641683Y-11583692D01*
X13853817Y-11583692D01*
X14171317Y-13742692D02*
X14171317Y-13530558D01*
X13959183Y-13530558D01*
X13959183Y-13742692D01*
X14171317Y-13742692D01*
X14330067Y-17298692D02*
X14330067Y-17086558D01*
X14117933Y-17086558D01*
X14117933Y-17298692D01*
X14330067Y-17298692D01*
X14647567Y-15647692D02*
X14647567Y-15435558D01*
X14435433Y-15435558D01*
X14435433Y-15647692D01*
X14647567Y-15647692D01*
X14806317Y-13488692D02*
X14806317Y-13276558D01*
X14594183Y-13276558D01*
X14594183Y-13488692D01*
X14806317Y-13488692D01*
X15123817Y-11837692D02*
X15123817Y-11625558D01*
X14911683Y-11625558D01*
X14911683Y-11837692D01*
X15123817Y-11837692D01*
X15282567Y-15393692D02*
X15282567Y-15181558D01*
X15070433Y-15181558D01*
X15070433Y-15393692D01*
X15282567Y-15393692D01*
X15600067Y-17552692D02*
X15600067Y-17340558D01*
X15387933Y-17340558D01*
X15387933Y-17552692D01*
X15600067Y-17552692D01*
X15758817Y-11583692D02*
X15758817Y-11371558D01*
X15546683Y-11371558D01*
X15546683Y-11583692D01*
X15758817Y-11583692D01*
X16076317Y-13742692D02*
X16076317Y-13530558D01*
X15864183Y-13530558D01*
X15864183Y-13742692D01*
X16076317Y-13742692D01*
X16235067Y-17298692D02*
X16235067Y-17086558D01*
X16022933Y-17086558D01*
X16022933Y-17298692D01*
X16235067Y-17298692D01*
X16552567Y-15647692D02*
X16552567Y-15435558D01*
X16340433Y-15435558D01*
X16340433Y-15647692D01*
X16552567Y-15647692D01*
X16711317Y-13488692D02*
X16711317Y-13276558D01*
X16499183Y-13276558D01*
X16499183Y-13488692D01*
X16711317Y-13488692D01*
X17028817Y-11837692D02*
X17028817Y-11625558D01*
X16816683Y-11625558D01*
X16816683Y-11837692D01*
X17028817Y-11837692D01*
X17187567Y-15393692D02*
X17187567Y-15181558D01*
X16975433Y-15181558D01*
X16975433Y-15393692D01*
X17187567Y-15393692D01*
X17505067Y-17552692D02*
X17505067Y-17340558D01*
X17292933Y-17340558D01*
X17292933Y-17552692D01*
X17505067Y-17552692D01*
X17663817Y-11583692D02*
X17663817Y-11371558D01*
X17451683Y-11371558D01*
X17451683Y-11583692D01*
X17663817Y-11583692D01*
X17981317Y-13742692D02*
X17981317Y-13530558D01*
X17769183Y-13530558D01*
X17769183Y-13742692D01*
X17981317Y-13742692D01*
X18140067Y-17298692D02*
X18140067Y-17086558D01*
X17927933Y-17086558D01*
X17927933Y-17298692D01*
X18140067Y-17298692D01*
X18457567Y-15647692D02*
X18457567Y-15435558D01*
X18245433Y-15435558D01*
X18245433Y-15647692D01*
X18457567Y-15647692D01*
X18616317Y-13488692D02*
X18616317Y-13276558D01*
X18404183Y-13276558D01*
X18404183Y-13488692D01*
X18616317Y-13488692D01*
X18933817Y-11837692D02*
X18933817Y-11625558D01*
X18721683Y-11625558D01*
X18721683Y-11837692D01*
X18933817Y-11837692D01*
X19092567Y-15393692D02*
X19092567Y-15181558D01*
X18880433Y-15181558D01*
X18880433Y-15393692D01*
X19092567Y-15393692D01*
X19410067Y-17552692D02*
X19410067Y-17340558D01*
X19197933Y-17340558D01*
X19197933Y-17552692D01*
X19410067Y-17552692D01*
X19568817Y-11583692D02*
X19568817Y-11371558D01*
X19356683Y-11371558D01*
X19356683Y-11583692D01*
X19568817Y-11583692D01*
X19648192Y-19457692D02*
X19648192Y-19245558D01*
X19436058Y-19245558D01*
X19436058Y-19457692D01*
X19648192Y-19457692D01*
X19886317Y-13742692D02*
X19886317Y-13530558D01*
X19674183Y-13530558D01*
X19674183Y-13742692D01*
X19886317Y-13742692D01*
X20045067Y-17298692D02*
X20045067Y-17086558D01*
X19832933Y-17086558D01*
X19832933Y-17298692D01*
X20045067Y-17298692D01*
X20283192Y-19203692D02*
X20283192Y-18991558D01*
X20071058Y-18991558D01*
X20071058Y-19203692D01*
X20283192Y-19203692D01*
X20362567Y-15647692D02*
X20362567Y-15435558D01*
X20150433Y-15435558D01*
X20150433Y-15647692D01*
X20362567Y-15647692D01*
X20521317Y-13488692D02*
X20521317Y-13276558D01*
X20309183Y-13276558D01*
X20309183Y-13488692D01*
X20521317Y-13488692D01*
X20838817Y-11837692D02*
X20838817Y-11625558D01*
X20626683Y-11625558D01*
X20626683Y-11837692D01*
X20838817Y-11837692D01*
X20997567Y-15393692D02*
X20997567Y-15181558D01*
X20785433Y-15181558D01*
X20785433Y-15393692D01*
X20997567Y-15393692D01*
X21315067Y-17552692D02*
X21315067Y-17340558D01*
X21102933Y-17340558D01*
X21102933Y-17552692D01*
X21315067Y-17552692D01*
X21473817Y-11583692D02*
X21473817Y-11371558D01*
X21261683Y-11371558D01*
X21261683Y-11583692D01*
X21473817Y-11583692D01*
X21791317Y-13742692D02*
X21791317Y-13530558D01*
X21579183Y-13530558D01*
X21579183Y-13742692D01*
X21791317Y-13742692D01*
X21950067Y-17298692D02*
X21950067Y-17086558D01*
X21737933Y-17086558D01*
X21737933Y-17298692D01*
X21950067Y-17298692D01*
X22267567Y-15647692D02*
X22267567Y-15435558D01*
X22055433Y-15435558D01*
X22055433Y-15647692D01*
X22267567Y-15647692D01*
X22426317Y-13488692D02*
X22426317Y-13276558D01*
X22214183Y-13276558D01*
X22214183Y-13488692D01*
X22426317Y-13488692D01*
X22743817Y-11837692D02*
X22743817Y-11625558D01*
X22531683Y-11625558D01*
X22531683Y-11837692D01*
X22743817Y-11837692D01*
X22902567Y-15393692D02*
X22902567Y-15181558D01*
X22690433Y-15181558D01*
X22690433Y-15393692D01*
X22902567Y-15393692D01*
X23220067Y-17552692D02*
X23220067Y-17340558D01*
X23007933Y-17340558D01*
X23007933Y-17552692D01*
X23220067Y-17552692D01*
X23378817Y-11583692D02*
X23378817Y-11371558D01*
X23166683Y-11371558D01*
X23166683Y-11583692D01*
X23378817Y-11583692D01*
X23696317Y-13742692D02*
X23696317Y-13530558D01*
X23484183Y-13530558D01*
X23484183Y-13742692D01*
X23696317Y-13742692D01*
X23855067Y-17298692D02*
X23855067Y-17086558D01*
X23642933Y-17086558D01*
X23642933Y-17298692D01*
X23855067Y-17298692D01*
X24172567Y-15647692D02*
X24172567Y-15435558D01*
X23960433Y-15435558D01*
X23960433Y-15647692D01*
X24172567Y-15647692D01*
X24331317Y-13488692D02*
X24331317Y-13276558D01*
X24119183Y-13276558D01*
X24119183Y-13488692D01*
X24331317Y-13488692D01*
X24648817Y-11837692D02*
X24648817Y-11625558D01*
X24436683Y-11625558D01*
X24436683Y-11837692D01*
X24648817Y-11837692D01*
X24807567Y-15393692D02*
X24807567Y-15181558D01*
X24595433Y-15181558D01*
X24595433Y-15393692D01*
X24807567Y-15393692D01*
X25125067Y-17552692D02*
X25125067Y-17340558D01*
X24912933Y-17340558D01*
X24912933Y-17552692D01*
X25125067Y-17552692D01*
X25283817Y-11583692D02*
X25283817Y-11371558D01*
X25071683Y-11371558D01*
X25071683Y-11583692D01*
X25283817Y-11583692D01*
X25601317Y-13742692D02*
X25601317Y-13530558D01*
X25389183Y-13530558D01*
X25389183Y-13742692D01*
X25601317Y-13742692D01*
X25760067Y-17298692D02*
X25760067Y-17086558D01*
X25547933Y-17086558D01*
X25547933Y-17298692D01*
X25760067Y-17298692D01*
X26077567Y-15647692D02*
X26077567Y-15435558D01*
X25865433Y-15435558D01*
X25865433Y-15647692D01*
X26077567Y-15647692D01*
X26236317Y-13488692D02*
X26236317Y-13276558D01*
X26024183Y-13276558D01*
X26024183Y-13488692D01*
X26236317Y-13488692D01*
X26553817Y-11837692D02*
X26553817Y-11625558D01*
X26341683Y-11625558D01*
X26341683Y-11837692D01*
X26553817Y-11837692D01*
X26553817Y-19457692D02*
X26553817Y-19245558D01*
X26341683Y-19245558D01*
X26341683Y-19457692D01*
X26553817Y-19457692D01*
X26712567Y-15393692D02*
X26712567Y-15181558D01*
X26500433Y-15181558D01*
X26500433Y-15393692D01*
X26712567Y-15393692D01*
X27030067Y-17552692D02*
X27030067Y-17340558D01*
X26817933Y-17340558D01*
X26817933Y-17552692D01*
X27030067Y-17552692D01*
X27188817Y-11583692D02*
X27188817Y-11371558D01*
X26976683Y-11371558D01*
X26976683Y-11583692D01*
X27188817Y-11583692D01*
X27188817Y-19203692D02*
X27188817Y-18991558D01*
X26976683Y-18991558D01*
X26976683Y-19203692D01*
X27188817Y-19203692D01*
X27506317Y-13742692D02*
X27506317Y-13530558D01*
X27294183Y-13530558D01*
X27294183Y-13742692D01*
X27506317Y-13742692D01*
X27665067Y-17298692D02*
X27665067Y-17086558D01*
X27452933Y-17086558D01*
X27452933Y-17298692D01*
X27665067Y-17298692D01*
X27982567Y-15647692D02*
X27982567Y-15435558D01*
X27770433Y-15435558D01*
X27770433Y-15647692D01*
X27982567Y-15647692D01*
X28141317Y-13488692D02*
X28141317Y-13276558D01*
X27929183Y-13276558D01*
X27929183Y-13488692D01*
X28141317Y-13488692D01*
X28458817Y-11837692D02*
X28458817Y-11625558D01*
X28246683Y-11625558D01*
X28246683Y-11837692D01*
X28458817Y-11837692D01*
X28458817Y-19457692D02*
X28458817Y-19245558D01*
X28246683Y-19245558D01*
X28246683Y-19457692D01*
X28458817Y-19457692D01*
X28617567Y-15393692D02*
X28617567Y-15181558D01*
X28405433Y-15181558D01*
X28405433Y-15393692D01*
X28617567Y-15393692D01*
X29093817Y-11583692D02*
X29093817Y-11371558D01*
X28881683Y-11371558D01*
X28881683Y-11583692D01*
X29093817Y-11583692D01*
X29093817Y-19203692D02*
X29093817Y-18991558D01*
X28881683Y-18991558D01*
X28881683Y-19203692D01*
X29093817Y-19203692D01*
X29411317Y-13742692D02*
X29411317Y-13530558D01*
X29199183Y-13530558D01*
X29199183Y-13742692D01*
X29411317Y-13742692D01*
X29649442Y-17552692D02*
X29649442Y-17340558D01*
X29437308Y-17340558D01*
X29437308Y-17552692D01*
X29649442Y-17552692D01*
X29887567Y-15647692D02*
X29887567Y-15435558D01*
X29675433Y-15435558D01*
X29675433Y-15647692D01*
X29887567Y-15647692D01*
X30046317Y-13488692D02*
X30046317Y-13276558D01*
X29834183Y-13276558D01*
X29834183Y-13488692D01*
X30046317Y-13488692D01*
X30284442Y-17298692D02*
X30284442Y-17086558D01*
X30072308Y-17086558D01*
X30072308Y-17298692D01*
X30284442Y-17298692D01*
X30363817Y-11837692D02*
X30363817Y-11625558D01*
X30151683Y-11625558D01*
X30151683Y-11837692D01*
X30363817Y-11837692D01*
X30363817Y-19457692D02*
X30363817Y-19245558D01*
X30151683Y-19245558D01*
X30151683Y-19457692D01*
X30363817Y-19457692D01*
X30522567Y-15393692D02*
X30522567Y-15181558D01*
X30310433Y-15181558D01*
X30310433Y-15393692D01*
X30522567Y-15393692D01*
X30998817Y-11583692D02*
X30998817Y-11371558D01*
X30786683Y-11371558D01*
X30786683Y-11583692D01*
X30998817Y-11583692D01*
X30998817Y-19203692D02*
X30998817Y-18991558D01*
X30786683Y-18991558D01*
X30786683Y-19203692D01*
X30998817Y-19203692D01*
X31316317Y-13742692D02*
X31316317Y-13530558D01*
X31104183Y-13530558D01*
X31104183Y-13742692D01*
X31316317Y-13742692D01*
X31951317Y-13488692D02*
X31951317Y-13276558D01*
X31739183Y-13276558D01*
X31739183Y-13488692D01*
X31951317Y-13488692D01*
X32268817Y-17552692D02*
X32268817Y-17340558D01*
X32056683Y-17340558D01*
X32056683Y-17552692D01*
X32268817Y-17552692D01*
X32268817Y-19457692D02*
X32268817Y-19245558D01*
X32056683Y-19245558D01*
X32056683Y-19457692D01*
X32268817Y-19457692D01*
X32903817Y-17298692D02*
X32903817Y-17086558D01*
X32691683Y-17086558D01*
X32691683Y-17298692D01*
X32903817Y-17298692D01*
X32903817Y-19203692D02*
X32903817Y-18991558D01*
X32691683Y-18991558D01*
X32691683Y-19203692D01*
X32903817Y-19203692D01*
X32983192Y-15647692D02*
X32983192Y-15435558D01*
X32771058Y-15435558D01*
X32771058Y-15647692D01*
X32983192Y-15647692D01*
X33221317Y-11837692D02*
X33221317Y-11625558D01*
X33009183Y-11625558D01*
X33009183Y-11837692D01*
X33221317Y-11837692D01*
X33618192Y-15393692D02*
X33618192Y-15181558D01*
X33406058Y-15181558D01*
X33406058Y-15393692D01*
X33618192Y-15393692D01*
X33697567Y-13742692D02*
X33697567Y-13530558D01*
X33485433Y-13530558D01*
X33485433Y-13742692D01*
X33697567Y-13742692D01*
X33856317Y-11583692D02*
X33856317Y-11371558D01*
X33644183Y-11371558D01*
X33644183Y-11583692D01*
X33856317Y-11583692D01*
X34173817Y-17552692D02*
X34173817Y-17340558D01*
X33961683Y-17340558D01*
X33961683Y-17552692D01*
X34173817Y-17552692D01*
X34173817Y-19457692D02*
X34173817Y-19245558D01*
X33961683Y-19245558D01*
X33961683Y-19457692D01*
X34173817Y-19457692D01*
X34332567Y-13488692D02*
X34332567Y-13276558D01*
X34120433Y-13276558D01*
X34120433Y-13488692D01*
X34332567Y-13488692D01*
X34808817Y-17298692D02*
X34808817Y-17086558D01*
X34596683Y-17086558D01*
X34596683Y-17298692D01*
X34808817Y-17298692D01*
X34808817Y-19203692D02*
X34808817Y-18991558D01*
X34596683Y-18991558D01*
X34596683Y-19203692D01*
X34808817Y-19203692D01*
D17*
X7775575Y-17154525D02*
X7927975Y-17002125D01*
X7775575Y-16849725D01*
X7623175Y-17002125D01*
X7775575Y-17154525D01*
X10163175Y-17154525D02*
X10315575Y-17002125D01*
X10163175Y-16849725D01*
X10010775Y-17002125D01*
X10163175Y-17154525D01*
X14923135Y-20456525D02*
X15075535Y-20304125D01*
X14923135Y-20151725D01*
X14770735Y-20304125D01*
X14923135Y-20456525D01*
X24923115Y-20456525D02*
X25075515Y-20304125D01*
X24923115Y-20151725D01*
X24770715Y-20304125D01*
X24923115Y-20456525D01*
X32064325Y-15249525D02*
X32216725Y-15097125D01*
X32064325Y-14944725D01*
X31911925Y-15097125D01*
X32064325Y-15249525D01*
X32302450Y-11439525D02*
X32454850Y-11287125D01*
X32302450Y-11134725D01*
X32150050Y-11287125D01*
X32302450Y-11439525D01*
X34451925Y-15249525D02*
X34604325Y-15097125D01*
X34451925Y-14944725D01*
X34299525Y-15097125D01*
X34451925Y-15249525D01*
X34690050Y-11439525D02*
X34842450Y-11287125D01*
X34690050Y-11134725D01*
X34537650Y-11287125D01*
X34690050Y-11439525D01*
D18*
X7576185Y-18326735D02*
X7974965Y-18725515D01*
X7974965Y-18326735D02*
X7576185Y-18725515D01*
X7974965Y-18526125D02*
G75*
G03*
X7974965Y-18526125I-199390J0D01*
G01*
X7579360Y-11786235D02*
X7978140Y-12185015D01*
X7978140Y-11786235D02*
X7579360Y-12185015D01*
X7978140Y-11985625D02*
G75*
G03*
X7978140Y-11985625I-199390J0D01*
G01*
X7817485Y-19406235D02*
X8216265Y-19805015D01*
X8216265Y-19406235D02*
X7817485Y-19805015D01*
X8216265Y-19605625D02*
G75*
G03*
X8216265Y-19605625I-199390J0D01*
G01*
X8055610Y-13691235D02*
X8454390Y-14090015D01*
X8454390Y-13691235D02*
X8055610Y-14090015D01*
X8454390Y-13890625D02*
G75*
G03*
X8454390Y-13890625I-199390J0D01*
G01*
X8293735Y-15596235D02*
X8692515Y-15995015D01*
X8692515Y-15596235D02*
X8293735Y-15995015D01*
X8692515Y-15795625D02*
G75*
G03*
X8692515Y-15795625I-199390J0D01*
G01*
X8769985Y-17501235D02*
X9168765Y-17900015D01*
X9168765Y-17501235D02*
X8769985Y-17900015D01*
X9168765Y-17700625D02*
G75*
G03*
X9168765Y-17700625I-199390J0D01*
G01*
X9484360Y-11786235D02*
X9883140Y-12185015D01*
X9883140Y-11786235D02*
X9484360Y-12185015D01*
X9883140Y-11985625D02*
G75*
G03*
X9883140Y-11985625I-199390J0D01*
G01*
X9963785Y-18326735D02*
X10362565Y-18725515D01*
X10362565Y-18326735D02*
X9963785Y-18725515D01*
X10362565Y-18526125D02*
G75*
G03*
X10362565Y-18526125I-199390J0D01*
G01*
X10198735Y-19406235D02*
X10597515Y-19805015D01*
X10597515Y-19406235D02*
X10198735Y-19805015D01*
X10597515Y-19605625D02*
G75*
G03*
X10597515Y-19605625I-199390J0D01*
G01*
X10436860Y-13691235D02*
X10835640Y-14090015D01*
X10835640Y-13691235D02*
X10436860Y-14090015D01*
X10835640Y-13890625D02*
G75*
G03*
X10835640Y-13890625I-199390J0D01*
G01*
X10913110Y-15596235D02*
X11311890Y-15995015D01*
X11311890Y-15596235D02*
X10913110Y-15995015D01*
X11311890Y-15795625D02*
G75*
G03*
X11311890Y-15795625I-199390J0D01*
G01*
X11389360Y-11786235D02*
X11788140Y-12185015D01*
X11788140Y-11786235D02*
X11389360Y-12185015D01*
X11788140Y-11985625D02*
G75*
G03*
X11788140Y-11985625I-199390J0D01*
G01*
X11865610Y-17501235D02*
X12264390Y-17900015D01*
X12264390Y-17501235D02*
X11865610Y-17900015D01*
X12264390Y-17700625D02*
G75*
G03*
X12264390Y-17700625I-199390J0D01*
G01*
X12341860Y-13691235D02*
X12740640Y-14090015D01*
X12740640Y-13691235D02*
X12341860Y-14090015D01*
X12740640Y-13890625D02*
G75*
G03*
X12740640Y-13890625I-199390J0D01*
G01*
X12579985Y-19406235D02*
X12978765Y-19805015D01*
X12978765Y-19406235D02*
X12579985Y-19805015D01*
X12978765Y-19605625D02*
G75*
G03*
X12978765Y-19605625I-199390J0D01*
G01*
X12818110Y-15596235D02*
X13216890Y-15995015D01*
X13216890Y-15596235D02*
X12818110Y-15995015D01*
X13216890Y-15795625D02*
G75*
G03*
X13216890Y-15795625I-199390J0D01*
G01*
X13294360Y-11786235D02*
X13693140Y-12185015D01*
X13693140Y-11786235D02*
X13294360Y-12185015D01*
X13693140Y-11985625D02*
G75*
G03*
X13693140Y-11985625I-199390J0D01*
G01*
X13770610Y-17501235D02*
X14169390Y-17900015D01*
X14169390Y-17501235D02*
X13770610Y-17900015D01*
X14169390Y-17700625D02*
G75*
G03*
X14169390Y-17700625I-199390J0D01*
G01*
X14246860Y-13691235D02*
X14645640Y-14090015D01*
X14645640Y-13691235D02*
X14246860Y-14090015D01*
X14645640Y-13890625D02*
G75*
G03*
X14645640Y-13890625I-199390J0D01*
G01*
X14723110Y-15596235D02*
X15121890Y-15995015D01*
X15121890Y-15596235D02*
X14723110Y-15995015D01*
X15121890Y-15795625D02*
G75*
G03*
X15121890Y-15795625I-199390J0D01*
G01*
X14723745Y-18580735D02*
X15122525Y-18979515D01*
X15122525Y-18580735D02*
X14723745Y-18979515D01*
X15122525Y-18780125D02*
G75*
G03*
X15122525Y-18780125I-199390J0D01*
G01*
X15199360Y-11786235D02*
X15598140Y-12185015D01*
X15598140Y-11786235D02*
X15199360Y-12185015D01*
X15598140Y-11985625D02*
G75*
G03*
X15598140Y-11985625I-199390J0D01*
G01*
X15675610Y-17501235D02*
X16074390Y-17900015D01*
X16074390Y-17501235D02*
X15675610Y-17900015D01*
X16074390Y-17700625D02*
G75*
G03*
X16074390Y-17700625I-199390J0D01*
G01*
X16151860Y-13691235D02*
X16550640Y-14090015D01*
X16550640Y-13691235D02*
X16151860Y-14090015D01*
X16550640Y-13890625D02*
G75*
G03*
X16550640Y-13890625I-199390J0D01*
G01*
X16628110Y-15596235D02*
X17026890Y-15995015D01*
X17026890Y-15596235D02*
X16628110Y-15995015D01*
X17026890Y-15795625D02*
G75*
G03*
X17026890Y-15795625I-199390J0D01*
G01*
X17104360Y-11786235D02*
X17503140Y-12185015D01*
X17503140Y-11786235D02*
X17104360Y-12185015D01*
X17503140Y-11985625D02*
G75*
G03*
X17503140Y-11985625I-199390J0D01*
G01*
X17580610Y-17501235D02*
X17979390Y-17900015D01*
X17979390Y-17501235D02*
X17580610Y-17900015D01*
X17979390Y-17700625D02*
G75*
G03*
X17979390Y-17700625I-199390J0D01*
G01*
X18056860Y-13691235D02*
X18455640Y-14090015D01*
X18455640Y-13691235D02*
X18056860Y-14090015D01*
X18455640Y-13890625D02*
G75*
G03*
X18455640Y-13890625I-199390J0D01*
G01*
X18533110Y-15596235D02*
X18931890Y-15995015D01*
X18931890Y-15596235D02*
X18533110Y-15995015D01*
X18931890Y-15795625D02*
G75*
G03*
X18931890Y-15795625I-199390J0D01*
G01*
X19009360Y-11786235D02*
X19408140Y-12185015D01*
X19408140Y-11786235D02*
X19009360Y-12185015D01*
X19408140Y-11985625D02*
G75*
G03*
X19408140Y-11985625I-199390J0D01*
G01*
X19485610Y-17501235D02*
X19884390Y-17900015D01*
X19884390Y-17501235D02*
X19485610Y-17900015D01*
X19884390Y-17700625D02*
G75*
G03*
X19884390Y-17700625I-199390J0D01*
G01*
X19723735Y-19406235D02*
X20122515Y-19805015D01*
X20122515Y-19406235D02*
X19723735Y-19805015D01*
X20122515Y-19605625D02*
G75*
G03*
X20122515Y-19605625I-199390J0D01*
G01*
X19961860Y-13691235D02*
X20360640Y-14090015D01*
X20360640Y-13691235D02*
X19961860Y-14090015D01*
X20360640Y-13890625D02*
G75*
G03*
X20360640Y-13890625I-199390J0D01*
G01*
X20438110Y-15596235D02*
X20836890Y-15995015D01*
X20836890Y-15596235D02*
X20438110Y-15995015D01*
X20836890Y-15795625D02*
G75*
G03*
X20836890Y-15795625I-199390J0D01*
G01*
X20914360Y-11786235D02*
X21313140Y-12185015D01*
X21313140Y-11786235D02*
X20914360Y-12185015D01*
X21313140Y-11985625D02*
G75*
G03*
X21313140Y-11985625I-199390J0D01*
G01*
X21390610Y-17501235D02*
X21789390Y-17900015D01*
X21789390Y-17501235D02*
X21390610Y-17900015D01*
X21789390Y-17700625D02*
G75*
G03*
X21789390Y-17700625I-199390J0D01*
G01*
X21866860Y-13691235D02*
X22265640Y-14090015D01*
X22265640Y-13691235D02*
X21866860Y-14090015D01*
X22265640Y-13890625D02*
G75*
G03*
X22265640Y-13890625I-199390J0D01*
G01*
X22343110Y-15596235D02*
X22741890Y-15995015D01*
X22741890Y-15596235D02*
X22343110Y-15995015D01*
X22741890Y-15795625D02*
G75*
G03*
X22741890Y-15795625I-199390J0D01*
G01*
X22819360Y-11786235D02*
X23218140Y-12185015D01*
X23218140Y-11786235D02*
X22819360Y-12185015D01*
X23218140Y-11985625D02*
G75*
G03*
X23218140Y-11985625I-199390J0D01*
G01*
X23295610Y-17501235D02*
X23694390Y-17900015D01*
X23694390Y-17501235D02*
X23295610Y-17900015D01*
X23694390Y-17700625D02*
G75*
G03*
X23694390Y-17700625I-199390J0D01*
G01*
X23771860Y-13691235D02*
X24170640Y-14090015D01*
X24170640Y-13691235D02*
X23771860Y-14090015D01*
X24170640Y-13890625D02*
G75*
G03*
X24170640Y-13890625I-199390J0D01*
G01*
X24248110Y-15596235D02*
X24646890Y-15995015D01*
X24646890Y-15596235D02*
X24248110Y-15995015D01*
X24646890Y-15795625D02*
G75*
G03*
X24646890Y-15795625I-199390J0D01*
G01*
X24723725Y-18580735D02*
X25122505Y-18979515D01*
X25122505Y-18580735D02*
X24723725Y-18979515D01*
X25122505Y-18780125D02*
G75*
G03*
X25122505Y-18780125I-199390J0D01*
G01*
X24724360Y-11786235D02*
X25123140Y-12185015D01*
X25123140Y-11786235D02*
X24724360Y-12185015D01*
X25123140Y-11985625D02*
G75*
G03*
X25123140Y-11985625I-199390J0D01*
G01*
X25200610Y-17501235D02*
X25599390Y-17900015D01*
X25599390Y-17501235D02*
X25200610Y-17900015D01*
X25599390Y-17700625D02*
G75*
G03*
X25599390Y-17700625I-199390J0D01*
G01*
X25676860Y-13691235D02*
X26075640Y-14090015D01*
X26075640Y-13691235D02*
X25676860Y-14090015D01*
X26075640Y-13890625D02*
G75*
G03*
X26075640Y-13890625I-199390J0D01*
G01*
X26153110Y-15596235D02*
X26551890Y-15995015D01*
X26551890Y-15596235D02*
X26153110Y-15995015D01*
X26551890Y-15795625D02*
G75*
G03*
X26551890Y-15795625I-199390J0D01*
G01*
X26629360Y-11786235D02*
X27028140Y-12185015D01*
X27028140Y-11786235D02*
X26629360Y-12185015D01*
X27028140Y-11985625D02*
G75*
G03*
X27028140Y-11985625I-199390J0D01*
G01*
X26629360Y-19406235D02*
X27028140Y-19805015D01*
X27028140Y-19406235D02*
X26629360Y-19805015D01*
X27028140Y-19605625D02*
G75*
G03*
X27028140Y-19605625I-199390J0D01*
G01*
X27105610Y-17501235D02*
X27504390Y-17900015D01*
X27504390Y-17501235D02*
X27105610Y-17900015D01*
X27504390Y-17700625D02*
G75*
G03*
X27504390Y-17700625I-199390J0D01*
G01*
X27581860Y-13691235D02*
X27980640Y-14090015D01*
X27980640Y-13691235D02*
X27581860Y-14090015D01*
X27980640Y-13890625D02*
G75*
G03*
X27980640Y-13890625I-199390J0D01*
G01*
X28058110Y-15596235D02*
X28456890Y-15995015D01*
X28456890Y-15596235D02*
X28058110Y-15995015D01*
X28456890Y-15795625D02*
G75*
G03*
X28456890Y-15795625I-199390J0D01*
G01*
X28534360Y-11786235D02*
X28933140Y-12185015D01*
X28933140Y-11786235D02*
X28534360Y-12185015D01*
X28933140Y-11985625D02*
G75*
G03*
X28933140Y-11985625I-199390J0D01*
G01*
X28534360Y-19406235D02*
X28933140Y-19805015D01*
X28933140Y-19406235D02*
X28534360Y-19805015D01*
X28933140Y-19605625D02*
G75*
G03*
X28933140Y-19605625I-199390J0D01*
G01*
X29486860Y-13691235D02*
X29885640Y-14090015D01*
X29885640Y-13691235D02*
X29486860Y-14090015D01*
X29885640Y-13890625D02*
G75*
G03*
X29885640Y-13890625I-199390J0D01*
G01*
X29724985Y-17501235D02*
X30123765Y-17900015D01*
X30123765Y-17501235D02*
X29724985Y-17900015D01*
X30123765Y-17700625D02*
G75*
G03*
X30123765Y-17700625I-199390J0D01*
G01*
X29963110Y-15596235D02*
X30361890Y-15995015D01*
X30361890Y-15596235D02*
X29963110Y-15995015D01*
X30361890Y-15795625D02*
G75*
G03*
X30361890Y-15795625I-199390J0D01*
G01*
X30439360Y-11786235D02*
X30838140Y-12185015D01*
X30838140Y-11786235D02*
X30439360Y-12185015D01*
X30838140Y-11985625D02*
G75*
G03*
X30838140Y-11985625I-199390J0D01*
G01*
X30439360Y-19406235D02*
X30838140Y-19805015D01*
X30838140Y-19406235D02*
X30439360Y-19805015D01*
X30838140Y-19605625D02*
G75*
G03*
X30838140Y-19605625I-199390J0D01*
G01*
X31391860Y-13691235D02*
X31790640Y-14090015D01*
X31790640Y-13691235D02*
X31391860Y-14090015D01*
X31790640Y-13890625D02*
G75*
G03*
X31790640Y-13890625I-199390J0D01*
G01*
X31864935Y-16421735D02*
X32263715Y-16820515D01*
X32263715Y-16421735D02*
X31864935Y-16820515D01*
X32263715Y-16621125D02*
G75*
G03*
X32263715Y-16621125I-199390J0D01*
G01*
X32103060Y-12611735D02*
X32501840Y-13010515D01*
X32501840Y-12611735D02*
X32103060Y-13010515D01*
X32501840Y-12811125D02*
G75*
G03*
X32501840Y-12811125I-199390J0D01*
G01*
X32344360Y-17501235D02*
X32743140Y-17900015D01*
X32743140Y-17501235D02*
X32344360Y-17900015D01*
X32743140Y-17700625D02*
G75*
G03*
X32743140Y-17700625I-199390J0D01*
G01*
X32344360Y-19406235D02*
X32743140Y-19805015D01*
X32743140Y-19406235D02*
X32344360Y-19805015D01*
X32743140Y-19605625D02*
G75*
G03*
X32743140Y-19605625I-199390J0D01*
G01*
X33058735Y-15596235D02*
X33457515Y-15995015D01*
X33457515Y-15596235D02*
X33058735Y-15995015D01*
X33457515Y-15795625D02*
G75*
G03*
X33457515Y-15795625I-199390J0D01*
G01*
X33296860Y-11786235D02*
X33695640Y-12185015D01*
X33695640Y-11786235D02*
X33296860Y-12185015D01*
X33695640Y-11985625D02*
G75*
G03*
X33695640Y-11985625I-199390J0D01*
G01*
X33773110Y-13691235D02*
X34171890Y-14090015D01*
X34171890Y-13691235D02*
X33773110Y-14090015D01*
X34171890Y-13890625D02*
G75*
G03*
X34171890Y-13890625I-199390J0D01*
G01*
X34249360Y-17501235D02*
X34648140Y-17900015D01*
X34648140Y-17501235D02*
X34249360Y-17900015D01*
X34648140Y-17700625D02*
G75*
G03*
X34648140Y-17700625I-199390J0D01*
G01*
X34249360Y-19406235D02*
X34648140Y-19805015D01*
X34648140Y-19406235D02*
X34249360Y-19805015D01*
X34648140Y-19605625D02*
G75*
G03*
X34648140Y-19605625I-199390J0D01*
G01*
X34252535Y-16421735D02*
X34651315Y-16820515D01*
X34651315Y-16421735D02*
X34252535Y-16820515D01*
X34651315Y-16621125D02*
G75*
G03*
X34651315Y-16621125I-199390J0D01*
G01*
X34490660Y-12611735D02*
X34889440Y-13010515D01*
X34889440Y-12611735D02*
X34490660Y-13010515D01*
X34889440Y-12811125D02*
G75*
G03*
X34889440Y-12811125I-199390J0D01*
G01*
D12*
X7078869Y-20873601D02*
X7078869Y-20673601D01*
X7126488Y-20673601D01*
X7155059Y-20683125D01*
X7174107Y-20702173D01*
X7183631Y-20721220D01*
X7193155Y-20759315D01*
X7193155Y-20787887D01*
X7183631Y-20825982D01*
X7174107Y-20845030D01*
X7155059Y-20864077D01*
X7126488Y-20873601D01*
X7078869Y-20873601D01*
X7278869Y-20873601D02*
X7278869Y-20740268D01*
X7278869Y-20778363D02*
X7288393Y-20759315D01*
X7297917Y-20749792D01*
X7316964Y-20740268D01*
X7336012Y-20740268D01*
X7402678Y-20873601D02*
X7402678Y-20740268D01*
X7402678Y-20673601D02*
X7393155Y-20683125D01*
X7402678Y-20692649D01*
X7412202Y-20683125D01*
X7402678Y-20673601D01*
X7402678Y-20692649D01*
X7526488Y-20873601D02*
X7507440Y-20864077D01*
X7497917Y-20845030D01*
X7497917Y-20673601D01*
X7631250Y-20873601D02*
X7612202Y-20864077D01*
X7602678Y-20845030D01*
X7602678Y-20673601D01*
X7859821Y-20873601D02*
X7859821Y-20673601D01*
X7926488Y-20816458D01*
X7993155Y-20673601D01*
X7993155Y-20873601D01*
X8174107Y-20873601D02*
X8174107Y-20768839D01*
X8164583Y-20749792D01*
X8145536Y-20740268D01*
X8107440Y-20740268D01*
X8088393Y-20749792D01*
X8174107Y-20864077D02*
X8155059Y-20873601D01*
X8107440Y-20873601D01*
X8088393Y-20864077D01*
X8078869Y-20845030D01*
X8078869Y-20825982D01*
X8088393Y-20806935D01*
X8107440Y-20797411D01*
X8155059Y-20797411D01*
X8174107Y-20787887D01*
X8269345Y-20740268D02*
X8269345Y-20940268D01*
X8269345Y-20749792D02*
X8288393Y-20740268D01*
X8326488Y-20740268D01*
X8345536Y-20749792D01*
X8355059Y-20759315D01*
X8364583Y-20778363D01*
X8364583Y-20835506D01*
X8355059Y-20854554D01*
X8345536Y-20864077D01*
X8326488Y-20873601D01*
X8288393Y-20873601D01*
X8269345Y-20864077D01*
X8450298Y-20854554D02*
X8459821Y-20864077D01*
X8450298Y-20873601D01*
X8440774Y-20864077D01*
X8450298Y-20854554D01*
X8450298Y-20873601D01*
X8450298Y-20749792D02*
X8459821Y-20759315D01*
X8450298Y-20768839D01*
X8440774Y-20759315D01*
X8450298Y-20749792D01*
X8450298Y-20768839D01*
D13*
X6756250Y-21170625D02*
X6821250Y-21235625D01*
X6821250Y-21170625D02*
X6756250Y-21235625D01*
D12*
X7116964Y-21093601D02*
X7136012Y-21093601D01*
X7155059Y-21103125D01*
X7164583Y-21112649D01*
X7174107Y-21131696D01*
X7183631Y-21169792D01*
X7183631Y-21217411D01*
X7174107Y-21255506D01*
X7164583Y-21274554D01*
X7155059Y-21284077D01*
X7136012Y-21293601D01*
X7116964Y-21293601D01*
X7097917Y-21284077D01*
X7088393Y-21274554D01*
X7078869Y-21255506D01*
X7069345Y-21217411D01*
X7069345Y-21169792D01*
X7078869Y-21131696D01*
X7088393Y-21112649D01*
X7097917Y-21103125D01*
X7116964Y-21093601D01*
X7269345Y-21274554D02*
X7278869Y-21284077D01*
X7269345Y-21293601D01*
X7259821Y-21284077D01*
X7269345Y-21274554D01*
X7269345Y-21293601D01*
X7450298Y-21093601D02*
X7412202Y-21093601D01*
X7393155Y-21103125D01*
X7383631Y-21112649D01*
X7364583Y-21141220D01*
X7355059Y-21179315D01*
X7355059Y-21255506D01*
X7364583Y-21274554D01*
X7374107Y-21284077D01*
X7393155Y-21293601D01*
X7431250Y-21293601D01*
X7450298Y-21284077D01*
X7459821Y-21274554D01*
X7469345Y-21255506D01*
X7469345Y-21207887D01*
X7459821Y-21188839D01*
X7450298Y-21179315D01*
X7431250Y-21169792D01*
X7393155Y-21169792D01*
X7374107Y-21179315D01*
X7364583Y-21188839D01*
X7355059Y-21207887D01*
X7650298Y-21093601D02*
X7555059Y-21093601D01*
X7545536Y-21188839D01*
X7555059Y-21179315D01*
X7574107Y-21169792D01*
X7621726Y-21169792D01*
X7640774Y-21179315D01*
X7650298Y-21188839D01*
X7659821Y-21207887D01*
X7659821Y-21255506D01*
X7650298Y-21274554D01*
X7640774Y-21284077D01*
X7621726Y-21293601D01*
X7574107Y-21293601D01*
X7555059Y-21284077D01*
X7545536Y-21274554D01*
X7783631Y-21093601D02*
X7802678Y-21093601D01*
X7821726Y-21103125D01*
X7831250Y-21112649D01*
X7840774Y-21131696D01*
X7850298Y-21169792D01*
X7850298Y-21217411D01*
X7840774Y-21255506D01*
X7831250Y-21274554D01*
X7821726Y-21284077D01*
X7802678Y-21293601D01*
X7783631Y-21293601D01*
X7764583Y-21284077D01*
X7755059Y-21274554D01*
X7745536Y-21255506D01*
X7736012Y-21217411D01*
X7736012Y-21169792D01*
X7745536Y-21131696D01*
X7755059Y-21112649D01*
X7764583Y-21103125D01*
X7783631Y-21093601D01*
X7936012Y-21293601D02*
X7936012Y-21160268D01*
X7936012Y-21179315D02*
X7945536Y-21169792D01*
X7964583Y-21160268D01*
X7993155Y-21160268D01*
X8012202Y-21169792D01*
X8021726Y-21188839D01*
X8021726Y-21293601D01*
X8021726Y-21188839D02*
X8031250Y-21169792D01*
X8050298Y-21160268D01*
X8078869Y-21160268D01*
X8097917Y-21169792D01*
X8107440Y-21188839D01*
X8107440Y-21293601D01*
X8202678Y-21293601D02*
X8202678Y-21160268D01*
X8202678Y-21179315D02*
X8212202Y-21169792D01*
X8231250Y-21160268D01*
X8259821Y-21160268D01*
X8278869Y-21169792D01*
X8288393Y-21188839D01*
X8288393Y-21293601D01*
X8288393Y-21188839D02*
X8297917Y-21169792D01*
X8316964Y-21160268D01*
X8345536Y-21160268D01*
X8364583Y-21169792D01*
X8374107Y-21188839D01*
X8374107Y-21293601D01*
X8764583Y-21084077D02*
X8593155Y-21341220D01*
X9021726Y-21093601D02*
X9040774Y-21093601D01*
X9059821Y-21103125D01*
X9069345Y-21112649D01*
X9078869Y-21131696D01*
X9088393Y-21169792D01*
X9088393Y-21217411D01*
X9078869Y-21255506D01*
X9069345Y-21274554D01*
X9059821Y-21284077D01*
X9040774Y-21293601D01*
X9021726Y-21293601D01*
X9002679Y-21284077D01*
X8993155Y-21274554D01*
X8983631Y-21255506D01*
X8974107Y-21217411D01*
X8974107Y-21169792D01*
X8983631Y-21131696D01*
X8993155Y-21112649D01*
X9002679Y-21103125D01*
X9021726Y-21093601D01*
X9174107Y-21274554D02*
X9183631Y-21284077D01*
X9174107Y-21293601D01*
X9164583Y-21284077D01*
X9174107Y-21274554D01*
X9174107Y-21293601D01*
X9307440Y-21093601D02*
X9326488Y-21093601D01*
X9345536Y-21103125D01*
X9355060Y-21112649D01*
X9364583Y-21131696D01*
X9374107Y-21169792D01*
X9374107Y-21217411D01*
X9364583Y-21255506D01*
X9355060Y-21274554D01*
X9345536Y-21284077D01*
X9326488Y-21293601D01*
X9307440Y-21293601D01*
X9288393Y-21284077D01*
X9278869Y-21274554D01*
X9269345Y-21255506D01*
X9259821Y-21217411D01*
X9259821Y-21169792D01*
X9269345Y-21131696D01*
X9278869Y-21112649D01*
X9288393Y-21103125D01*
X9307440Y-21093601D01*
X9450298Y-21112649D02*
X9459821Y-21103125D01*
X9478869Y-21093601D01*
X9526488Y-21093601D01*
X9545536Y-21103125D01*
X9555060Y-21112649D01*
X9564583Y-21131696D01*
X9564583Y-21150744D01*
X9555060Y-21179315D01*
X9440774Y-21293601D01*
X9564583Y-21293601D01*
X9745536Y-21093601D02*
X9650298Y-21093601D01*
X9640774Y-21188839D01*
X9650298Y-21179315D01*
X9669345Y-21169792D01*
X9716964Y-21169792D01*
X9736012Y-21179315D01*
X9745536Y-21188839D01*
X9755060Y-21207887D01*
X9755060Y-21255506D01*
X9745536Y-21274554D01*
X9736012Y-21284077D01*
X9716964Y-21293601D01*
X9669345Y-21293601D01*
X9650298Y-21284077D01*
X9640774Y-21274554D01*
X9926488Y-21093601D02*
X9888393Y-21093601D01*
X9869345Y-21103125D01*
X9859821Y-21112649D01*
X9840774Y-21141220D01*
X9831250Y-21179315D01*
X9831250Y-21255506D01*
X9840774Y-21274554D01*
X9850298Y-21284077D01*
X9869345Y-21293601D01*
X9907440Y-21293601D01*
X9926488Y-21284077D01*
X9936012Y-21274554D01*
X9945536Y-21255506D01*
X9945536Y-21207887D01*
X9936012Y-21188839D01*
X9926488Y-21179315D01*
X9907440Y-21169792D01*
X9869345Y-21169792D01*
X9850298Y-21179315D01*
X9840774Y-21188839D01*
X9831250Y-21207887D01*
X10021726Y-21093601D02*
X10021726Y-21131696D01*
X10097917Y-21093601D02*
X10097917Y-21131696D01*
X10393155Y-21369792D02*
X10383631Y-21360268D01*
X10364583Y-21331696D01*
X10355060Y-21312649D01*
X10345536Y-21284077D01*
X10336012Y-21236458D01*
X10336012Y-21198363D01*
X10345536Y-21150744D01*
X10355060Y-21122173D01*
X10364583Y-21103125D01*
X10383631Y-21074554D01*
X10393155Y-21065030D01*
X10459821Y-21112649D02*
X10469345Y-21103125D01*
X10488393Y-21093601D01*
X10536012Y-21093601D01*
X10555060Y-21103125D01*
X10564583Y-21112649D01*
X10574107Y-21131696D01*
X10574107Y-21150744D01*
X10564583Y-21179315D01*
X10450298Y-21293601D01*
X10574107Y-21293601D01*
X10812202Y-21293601D02*
X10812202Y-21093601D01*
X10897917Y-21293601D02*
X10897917Y-21188839D01*
X10888393Y-21169792D01*
X10869345Y-21160268D01*
X10840774Y-21160268D01*
X10821726Y-21169792D01*
X10812202Y-21179315D01*
X11021726Y-21293601D02*
X11002679Y-21284077D01*
X10993155Y-21274554D01*
X10983631Y-21255506D01*
X10983631Y-21198363D01*
X10993155Y-21179315D01*
X11002679Y-21169792D01*
X11021726Y-21160268D01*
X11050298Y-21160268D01*
X11069345Y-21169792D01*
X11078869Y-21179315D01*
X11088393Y-21198363D01*
X11088393Y-21255506D01*
X11078869Y-21274554D01*
X11069345Y-21284077D01*
X11050298Y-21293601D01*
X11021726Y-21293601D01*
X11202678Y-21293601D02*
X11183631Y-21284077D01*
X11174107Y-21265030D01*
X11174107Y-21093601D01*
X11355059Y-21284077D02*
X11336012Y-21293601D01*
X11297917Y-21293601D01*
X11278869Y-21284077D01*
X11269345Y-21265030D01*
X11269345Y-21188839D01*
X11278869Y-21169792D01*
X11297917Y-21160268D01*
X11336012Y-21160268D01*
X11355059Y-21169792D01*
X11364583Y-21188839D01*
X11364583Y-21207887D01*
X11269345Y-21226935D01*
X11440774Y-21284077D02*
X11459821Y-21293601D01*
X11497917Y-21293601D01*
X11516964Y-21284077D01*
X11526488Y-21265030D01*
X11526488Y-21255506D01*
X11516964Y-21236458D01*
X11497917Y-21226935D01*
X11469345Y-21226935D01*
X11450298Y-21217411D01*
X11440774Y-21198363D01*
X11440774Y-21188839D01*
X11450298Y-21169792D01*
X11469345Y-21160268D01*
X11497917Y-21160268D01*
X11516964Y-21169792D01*
X11593155Y-21369792D02*
X11602678Y-21360268D01*
X11621726Y-21331696D01*
X11631250Y-21312649D01*
X11640774Y-21284077D01*
X11650298Y-21236458D01*
X11650298Y-21198363D01*
X11640774Y-21150744D01*
X11631250Y-21122173D01*
X11621726Y-21103125D01*
X11602678Y-21074554D01*
X11593155Y-21065030D01*
X11955059Y-21369792D02*
X11945536Y-21360268D01*
X11926488Y-21331696D01*
X11916964Y-21312649D01*
X11907440Y-21284077D01*
X11897917Y-21236458D01*
X11897917Y-21198363D01*
X11907440Y-21150744D01*
X11916964Y-21122173D01*
X11926488Y-21103125D01*
X11945536Y-21074554D01*
X11955059Y-21065030D01*
X12031250Y-21160268D02*
X12031250Y-21293601D01*
X12031250Y-21179315D02*
X12040774Y-21169792D01*
X12059821Y-21160268D01*
X12088393Y-21160268D01*
X12107440Y-21169792D01*
X12116964Y-21188839D01*
X12116964Y-21293601D01*
X12240774Y-21293601D02*
X12221726Y-21284077D01*
X12212202Y-21274554D01*
X12202678Y-21255506D01*
X12202678Y-21198363D01*
X12212202Y-21179315D01*
X12221726Y-21169792D01*
X12240774Y-21160268D01*
X12269345Y-21160268D01*
X12288393Y-21169792D01*
X12297917Y-21179315D01*
X12307440Y-21198363D01*
X12307440Y-21255506D01*
X12297917Y-21274554D01*
X12288393Y-21284077D01*
X12269345Y-21293601D01*
X12240774Y-21293601D01*
X12364583Y-21160268D02*
X12440774Y-21160268D01*
X12393155Y-21093601D02*
X12393155Y-21265030D01*
X12402678Y-21284077D01*
X12421726Y-21293601D01*
X12440774Y-21293601D01*
X12659821Y-21160268D02*
X12659821Y-21360268D01*
X12659821Y-21169792D02*
X12678869Y-21160268D01*
X12716964Y-21160268D01*
X12736012Y-21169792D01*
X12745536Y-21179315D01*
X12755059Y-21198363D01*
X12755059Y-21255506D01*
X12745536Y-21274554D01*
X12736012Y-21284077D01*
X12716964Y-21293601D01*
X12678869Y-21293601D01*
X12659821Y-21284077D01*
X12869345Y-21293601D02*
X12850298Y-21284077D01*
X12840774Y-21265030D01*
X12840774Y-21093601D01*
X13031250Y-21293601D02*
X13031250Y-21188839D01*
X13021726Y-21169792D01*
X13002678Y-21160268D01*
X12964583Y-21160268D01*
X12945536Y-21169792D01*
X13031250Y-21284077D02*
X13012202Y-21293601D01*
X12964583Y-21293601D01*
X12945536Y-21284077D01*
X12936012Y-21265030D01*
X12936012Y-21245982D01*
X12945536Y-21226935D01*
X12964583Y-21217411D01*
X13012202Y-21217411D01*
X13031250Y-21207887D01*
X13097917Y-21160268D02*
X13174107Y-21160268D01*
X13126488Y-21093601D02*
X13126488Y-21265030D01*
X13136012Y-21284077D01*
X13155059Y-21293601D01*
X13174107Y-21293601D01*
X13316964Y-21284077D02*
X13297917Y-21293601D01*
X13259821Y-21293601D01*
X13240774Y-21284077D01*
X13231250Y-21265030D01*
X13231250Y-21188839D01*
X13240774Y-21169792D01*
X13259821Y-21160268D01*
X13297917Y-21160268D01*
X13316964Y-21169792D01*
X13326488Y-21188839D01*
X13326488Y-21207887D01*
X13231250Y-21226935D01*
X13497917Y-21293601D02*
X13497917Y-21093601D01*
X13497917Y-21284077D02*
X13478869Y-21293601D01*
X13440774Y-21293601D01*
X13421726Y-21284077D01*
X13412202Y-21274554D01*
X13402678Y-21255506D01*
X13402678Y-21198363D01*
X13412202Y-21179315D01*
X13421726Y-21169792D01*
X13440774Y-21160268D01*
X13478869Y-21160268D01*
X13497917Y-21169792D01*
X13574107Y-21369792D02*
X13583631Y-21360268D01*
X13602678Y-21331696D01*
X13612202Y-21312649D01*
X13621726Y-21284077D01*
X13631250Y-21236458D01*
X13631250Y-21198363D01*
X13621726Y-21150744D01*
X13612202Y-21122173D01*
X13602678Y-21103125D01*
X13583631Y-21074554D01*
X13574107Y-21065030D01*
D14*
X6821250Y-21467125D02*
G75*
G03*
X6821250Y-21467125I-87500J0D01*
G01*
D12*
X7183631Y-21557601D02*
X7069345Y-21557601D01*
X7126488Y-21557601D02*
X7126488Y-21357601D01*
X7107440Y-21386173D01*
X7088393Y-21405220D01*
X7069345Y-21414744D01*
X7269345Y-21538554D02*
X7278869Y-21548077D01*
X7269345Y-21557601D01*
X7259821Y-21548077D01*
X7269345Y-21538554D01*
X7269345Y-21557601D01*
X7345536Y-21357601D02*
X7478869Y-21357601D01*
X7393155Y-21557601D01*
X7650298Y-21357601D02*
X7555059Y-21357601D01*
X7545536Y-21452839D01*
X7555059Y-21443315D01*
X7574107Y-21433792D01*
X7621726Y-21433792D01*
X7640774Y-21443315D01*
X7650298Y-21452839D01*
X7659821Y-21471887D01*
X7659821Y-21519506D01*
X7650298Y-21538554D01*
X7640774Y-21548077D01*
X7621726Y-21557601D01*
X7574107Y-21557601D01*
X7555059Y-21548077D01*
X7545536Y-21538554D01*
X7783631Y-21357601D02*
X7802678Y-21357601D01*
X7821726Y-21367125D01*
X7831250Y-21376649D01*
X7840774Y-21395696D01*
X7850298Y-21433792D01*
X7850298Y-21481411D01*
X7840774Y-21519506D01*
X7831250Y-21538554D01*
X7821726Y-21548077D01*
X7802678Y-21557601D01*
X7783631Y-21557601D01*
X7764583Y-21548077D01*
X7755059Y-21538554D01*
X7745536Y-21519506D01*
X7736012Y-21481411D01*
X7736012Y-21433792D01*
X7745536Y-21395696D01*
X7755059Y-21376649D01*
X7764583Y-21367125D01*
X7783631Y-21357601D01*
X7936012Y-21557601D02*
X7936012Y-21424268D01*
X7936012Y-21443315D02*
X7945536Y-21433792D01*
X7964583Y-21424268D01*
X7993155Y-21424268D01*
X8012202Y-21433792D01*
X8021726Y-21452839D01*
X8021726Y-21557601D01*
X8021726Y-21452839D02*
X8031250Y-21433792D01*
X8050298Y-21424268D01*
X8078869Y-21424268D01*
X8097917Y-21433792D01*
X8107440Y-21452839D01*
X8107440Y-21557601D01*
X8202678Y-21557601D02*
X8202678Y-21424268D01*
X8202678Y-21443315D02*
X8212202Y-21433792D01*
X8231250Y-21424268D01*
X8259821Y-21424268D01*
X8278869Y-21433792D01*
X8288393Y-21452839D01*
X8288393Y-21557601D01*
X8288393Y-21452839D02*
X8297917Y-21433792D01*
X8316964Y-21424268D01*
X8345536Y-21424268D01*
X8364583Y-21433792D01*
X8374107Y-21452839D01*
X8374107Y-21557601D01*
X8764583Y-21348077D02*
X8593155Y-21605220D01*
X9021726Y-21357601D02*
X9040774Y-21357601D01*
X9059821Y-21367125D01*
X9069345Y-21376649D01*
X9078869Y-21395696D01*
X9088393Y-21433792D01*
X9088393Y-21481411D01*
X9078869Y-21519506D01*
X9069345Y-21538554D01*
X9059821Y-21548077D01*
X9040774Y-21557601D01*
X9021726Y-21557601D01*
X9002679Y-21548077D01*
X8993155Y-21538554D01*
X8983631Y-21519506D01*
X8974107Y-21481411D01*
X8974107Y-21433792D01*
X8983631Y-21395696D01*
X8993155Y-21376649D01*
X9002679Y-21367125D01*
X9021726Y-21357601D01*
X9174107Y-21538554D02*
X9183631Y-21548077D01*
X9174107Y-21557601D01*
X9164583Y-21548077D01*
X9174107Y-21538554D01*
X9174107Y-21557601D01*
X9307440Y-21357601D02*
X9326488Y-21357601D01*
X9345536Y-21367125D01*
X9355060Y-21376649D01*
X9364583Y-21395696D01*
X9374107Y-21433792D01*
X9374107Y-21481411D01*
X9364583Y-21519506D01*
X9355060Y-21538554D01*
X9345536Y-21548077D01*
X9326488Y-21557601D01*
X9307440Y-21557601D01*
X9288393Y-21548077D01*
X9278869Y-21538554D01*
X9269345Y-21519506D01*
X9259821Y-21481411D01*
X9259821Y-21433792D01*
X9269345Y-21395696D01*
X9278869Y-21376649D01*
X9288393Y-21367125D01*
X9307440Y-21357601D01*
X9545536Y-21357601D02*
X9507440Y-21357601D01*
X9488393Y-21367125D01*
X9478869Y-21376649D01*
X9459821Y-21405220D01*
X9450298Y-21443315D01*
X9450298Y-21519506D01*
X9459821Y-21538554D01*
X9469345Y-21548077D01*
X9488393Y-21557601D01*
X9526488Y-21557601D01*
X9545536Y-21548077D01*
X9555060Y-21538554D01*
X9564583Y-21519506D01*
X9564583Y-21471887D01*
X9555060Y-21452839D01*
X9545536Y-21443315D01*
X9526488Y-21433792D01*
X9488393Y-21433792D01*
X9469345Y-21443315D01*
X9459821Y-21452839D01*
X9450298Y-21471887D01*
X9678869Y-21443315D02*
X9659821Y-21433792D01*
X9650298Y-21424268D01*
X9640774Y-21405220D01*
X9640774Y-21395696D01*
X9650298Y-21376649D01*
X9659821Y-21367125D01*
X9678869Y-21357601D01*
X9716964Y-21357601D01*
X9736012Y-21367125D01*
X9745536Y-21376649D01*
X9755060Y-21395696D01*
X9755060Y-21405220D01*
X9745536Y-21424268D01*
X9736012Y-21433792D01*
X9716964Y-21443315D01*
X9678869Y-21443315D01*
X9659821Y-21452839D01*
X9650298Y-21462363D01*
X9640774Y-21481411D01*
X9640774Y-21519506D01*
X9650298Y-21538554D01*
X9659821Y-21548077D01*
X9678869Y-21557601D01*
X9716964Y-21557601D01*
X9736012Y-21548077D01*
X9745536Y-21538554D01*
X9755060Y-21519506D01*
X9755060Y-21481411D01*
X9745536Y-21462363D01*
X9736012Y-21452839D01*
X9716964Y-21443315D01*
X9850298Y-21557601D02*
X9888393Y-21557601D01*
X9907440Y-21548077D01*
X9916964Y-21538554D01*
X9936012Y-21509982D01*
X9945536Y-21471887D01*
X9945536Y-21395696D01*
X9936012Y-21376649D01*
X9926488Y-21367125D01*
X9907440Y-21357601D01*
X9869345Y-21357601D01*
X9850298Y-21367125D01*
X9840774Y-21376649D01*
X9831250Y-21395696D01*
X9831250Y-21443315D01*
X9840774Y-21462363D01*
X9850298Y-21471887D01*
X9869345Y-21481411D01*
X9907440Y-21481411D01*
X9926488Y-21471887D01*
X9936012Y-21462363D01*
X9945536Y-21443315D01*
X10021726Y-21357601D02*
X10021726Y-21395696D01*
X10097917Y-21357601D02*
X10097917Y-21395696D01*
X10393155Y-21633792D02*
X10383631Y-21624268D01*
X10364583Y-21595696D01*
X10355060Y-21576649D01*
X10345536Y-21548077D01*
X10336012Y-21500458D01*
X10336012Y-21462363D01*
X10345536Y-21414744D01*
X10355060Y-21386173D01*
X10364583Y-21367125D01*
X10383631Y-21338554D01*
X10393155Y-21329030D01*
X10574107Y-21557601D02*
X10459821Y-21557601D01*
X10516964Y-21557601D02*
X10516964Y-21357601D01*
X10497917Y-21386173D01*
X10478869Y-21405220D01*
X10459821Y-21414744D01*
X10650298Y-21376649D02*
X10659821Y-21367125D01*
X10678869Y-21357601D01*
X10726488Y-21357601D01*
X10745536Y-21367125D01*
X10755060Y-21376649D01*
X10764583Y-21395696D01*
X10764583Y-21414744D01*
X10755060Y-21443315D01*
X10640774Y-21557601D01*
X10764583Y-21557601D01*
X10936012Y-21357601D02*
X10897917Y-21357601D01*
X10878869Y-21367125D01*
X10869345Y-21376649D01*
X10850298Y-21405220D01*
X10840774Y-21443315D01*
X10840774Y-21519506D01*
X10850298Y-21538554D01*
X10859821Y-21548077D01*
X10878869Y-21557601D01*
X10916964Y-21557601D01*
X10936012Y-21548077D01*
X10945536Y-21538554D01*
X10955060Y-21519506D01*
X10955060Y-21471887D01*
X10945536Y-21452839D01*
X10936012Y-21443315D01*
X10916964Y-21433792D01*
X10878869Y-21433792D01*
X10859821Y-21443315D01*
X10850298Y-21452839D01*
X10840774Y-21471887D01*
X11193155Y-21557601D02*
X11193155Y-21357601D01*
X11278869Y-21557601D02*
X11278869Y-21452839D01*
X11269345Y-21433792D01*
X11250298Y-21424268D01*
X11221726Y-21424268D01*
X11202678Y-21433792D01*
X11193155Y-21443315D01*
X11402678Y-21557601D02*
X11383631Y-21548077D01*
X11374107Y-21538554D01*
X11364583Y-21519506D01*
X11364583Y-21462363D01*
X11374107Y-21443315D01*
X11383631Y-21433792D01*
X11402678Y-21424268D01*
X11431250Y-21424268D01*
X11450298Y-21433792D01*
X11459821Y-21443315D01*
X11469345Y-21462363D01*
X11469345Y-21519506D01*
X11459821Y-21538554D01*
X11450298Y-21548077D01*
X11431250Y-21557601D01*
X11402678Y-21557601D01*
X11583631Y-21557601D02*
X11564583Y-21548077D01*
X11555059Y-21529030D01*
X11555059Y-21357601D01*
X11736012Y-21548077D02*
X11716964Y-21557601D01*
X11678869Y-21557601D01*
X11659821Y-21548077D01*
X11650298Y-21529030D01*
X11650298Y-21452839D01*
X11659821Y-21433792D01*
X11678869Y-21424268D01*
X11716964Y-21424268D01*
X11736012Y-21433792D01*
X11745536Y-21452839D01*
X11745536Y-21471887D01*
X11650298Y-21490935D01*
X11821726Y-21548077D02*
X11840774Y-21557601D01*
X11878869Y-21557601D01*
X11897917Y-21548077D01*
X11907440Y-21529030D01*
X11907440Y-21519506D01*
X11897917Y-21500458D01*
X11878869Y-21490935D01*
X11850298Y-21490935D01*
X11831250Y-21481411D01*
X11821726Y-21462363D01*
X11821726Y-21452839D01*
X11831250Y-21433792D01*
X11850298Y-21424268D01*
X11878869Y-21424268D01*
X11897917Y-21433792D01*
X11974107Y-21633792D02*
X11983631Y-21624268D01*
X12002678Y-21595696D01*
X12012202Y-21576649D01*
X12021726Y-21548077D01*
X12031250Y-21500458D01*
X12031250Y-21462363D01*
X12021726Y-21414744D01*
X12012202Y-21386173D01*
X12002678Y-21367125D01*
X11983631Y-21338554D01*
X11974107Y-21329030D01*
X12336012Y-21633792D02*
X12326488Y-21624268D01*
X12307440Y-21595696D01*
X12297917Y-21576649D01*
X12288393Y-21548077D01*
X12278869Y-21500458D01*
X12278869Y-21462363D01*
X12288393Y-21414744D01*
X12297917Y-21386173D01*
X12307440Y-21367125D01*
X12326488Y-21338554D01*
X12336012Y-21329030D01*
X12412202Y-21424268D02*
X12412202Y-21557601D01*
X12412202Y-21443315D02*
X12421726Y-21433792D01*
X12440774Y-21424268D01*
X12469345Y-21424268D01*
X12488393Y-21433792D01*
X12497917Y-21452839D01*
X12497917Y-21557601D01*
X12621726Y-21557601D02*
X12602678Y-21548077D01*
X12593155Y-21538554D01*
X12583631Y-21519506D01*
X12583631Y-21462363D01*
X12593155Y-21443315D01*
X12602678Y-21433792D01*
X12621726Y-21424268D01*
X12650298Y-21424268D01*
X12669345Y-21433792D01*
X12678869Y-21443315D01*
X12688393Y-21462363D01*
X12688393Y-21519506D01*
X12678869Y-21538554D01*
X12669345Y-21548077D01*
X12650298Y-21557601D01*
X12621726Y-21557601D01*
X12745536Y-21424268D02*
X12821726Y-21424268D01*
X12774107Y-21357601D02*
X12774107Y-21529030D01*
X12783631Y-21548077D01*
X12802678Y-21557601D01*
X12821726Y-21557601D01*
X13040774Y-21424268D02*
X13040774Y-21624268D01*
X13040774Y-21433792D02*
X13059821Y-21424268D01*
X13097917Y-21424268D01*
X13116964Y-21433792D01*
X13126488Y-21443315D01*
X13136012Y-21462363D01*
X13136012Y-21519506D01*
X13126488Y-21538554D01*
X13116964Y-21548077D01*
X13097917Y-21557601D01*
X13059821Y-21557601D01*
X13040774Y-21548077D01*
X13250298Y-21557601D02*
X13231250Y-21548077D01*
X13221726Y-21529030D01*
X13221726Y-21357601D01*
X13412202Y-21557601D02*
X13412202Y-21452839D01*
X13402678Y-21433792D01*
X13383631Y-21424268D01*
X13345536Y-21424268D01*
X13326488Y-21433792D01*
X13412202Y-21548077D02*
X13393155Y-21557601D01*
X13345536Y-21557601D01*
X13326488Y-21548077D01*
X13316964Y-21529030D01*
X13316964Y-21509982D01*
X13326488Y-21490935D01*
X13345536Y-21481411D01*
X13393155Y-21481411D01*
X13412202Y-21471887D01*
X13478869Y-21424268D02*
X13555059Y-21424268D01*
X13507440Y-21357601D02*
X13507440Y-21529030D01*
X13516964Y-21548077D01*
X13536012Y-21557601D01*
X13555059Y-21557601D01*
X13697917Y-21548077D02*
X13678869Y-21557601D01*
X13640774Y-21557601D01*
X13621726Y-21548077D01*
X13612202Y-21529030D01*
X13612202Y-21452839D01*
X13621726Y-21433792D01*
X13640774Y-21424268D01*
X13678869Y-21424268D01*
X13697917Y-21433792D01*
X13707440Y-21452839D01*
X13707440Y-21471887D01*
X13612202Y-21490935D01*
X13878869Y-21557601D02*
X13878869Y-21357601D01*
X13878869Y-21548077D02*
X13859821Y-21557601D01*
X13821726Y-21557601D01*
X13802678Y-21548077D01*
X13793155Y-21538554D01*
X13783631Y-21519506D01*
X13783631Y-21462363D01*
X13793155Y-21443315D01*
X13802678Y-21433792D01*
X13821726Y-21424268D01*
X13859821Y-21424268D01*
X13878869Y-21433792D01*
X13955059Y-21633792D02*
X13964583Y-21624268D01*
X13983631Y-21595696D01*
X13993155Y-21576649D01*
X14002678Y-21548077D01*
X14012202Y-21500458D01*
X14012202Y-21462363D01*
X14002678Y-21414744D01*
X13993155Y-21386173D01*
X13983631Y-21367125D01*
X13964583Y-21338554D01*
X13955059Y-21329030D01*
X6721250Y-21662125D02*
X6721250Y-21862125D01*
X6621250Y-21762125D02*
X6821250Y-21762125D01*
X7069345Y-21671649D02*
X7078869Y-21662125D01*
X7097917Y-21652601D01*
X7145536Y-21652601D01*
X7164583Y-21662125D01*
X7174107Y-21671649D01*
X7183631Y-21690696D01*
X7183631Y-21709744D01*
X7174107Y-21738315D01*
X7059821Y-21852601D01*
X7183631Y-21852601D01*
X7269345Y-21833554D02*
X7278869Y-21843077D01*
X7269345Y-21852601D01*
X7259821Y-21843077D01*
X7269345Y-21833554D01*
X7269345Y-21852601D01*
X7355059Y-21671649D02*
X7364583Y-21662125D01*
X7383631Y-21652601D01*
X7431250Y-21652601D01*
X7450298Y-21662125D01*
X7459821Y-21671649D01*
X7469345Y-21690696D01*
X7469345Y-21709744D01*
X7459821Y-21738315D01*
X7345536Y-21852601D01*
X7469345Y-21852601D01*
X7593155Y-21652601D02*
X7612202Y-21652601D01*
X7631250Y-21662125D01*
X7640774Y-21671649D01*
X7650298Y-21690696D01*
X7659821Y-21728792D01*
X7659821Y-21776411D01*
X7650298Y-21814506D01*
X7640774Y-21833554D01*
X7631250Y-21843077D01*
X7612202Y-21852601D01*
X7593155Y-21852601D01*
X7574107Y-21843077D01*
X7564583Y-21833554D01*
X7555059Y-21814506D01*
X7545536Y-21776411D01*
X7545536Y-21728792D01*
X7555059Y-21690696D01*
X7564583Y-21671649D01*
X7574107Y-21662125D01*
X7593155Y-21652601D01*
X7783631Y-21652601D02*
X7802678Y-21652601D01*
X7821726Y-21662125D01*
X7831250Y-21671649D01*
X7840774Y-21690696D01*
X7850298Y-21728792D01*
X7850298Y-21776411D01*
X7840774Y-21814506D01*
X7831250Y-21833554D01*
X7821726Y-21843077D01*
X7802678Y-21852601D01*
X7783631Y-21852601D01*
X7764583Y-21843077D01*
X7755059Y-21833554D01*
X7745536Y-21814506D01*
X7736012Y-21776411D01*
X7736012Y-21728792D01*
X7745536Y-21690696D01*
X7755059Y-21671649D01*
X7764583Y-21662125D01*
X7783631Y-21652601D01*
X7936012Y-21852601D02*
X7936012Y-21719268D01*
X7936012Y-21738315D02*
X7945536Y-21728792D01*
X7964583Y-21719268D01*
X7993155Y-21719268D01*
X8012202Y-21728792D01*
X8021726Y-21747839D01*
X8021726Y-21852601D01*
X8021726Y-21747839D02*
X8031250Y-21728792D01*
X8050298Y-21719268D01*
X8078869Y-21719268D01*
X8097917Y-21728792D01*
X8107440Y-21747839D01*
X8107440Y-21852601D01*
X8202678Y-21852601D02*
X8202678Y-21719268D01*
X8202678Y-21738315D02*
X8212202Y-21728792D01*
X8231250Y-21719268D01*
X8259821Y-21719268D01*
X8278869Y-21728792D01*
X8288393Y-21747839D01*
X8288393Y-21852601D01*
X8288393Y-21747839D02*
X8297917Y-21728792D01*
X8316964Y-21719268D01*
X8345536Y-21719268D01*
X8364583Y-21728792D01*
X8374107Y-21747839D01*
X8374107Y-21852601D01*
X8764583Y-21643077D02*
X8593155Y-21900220D01*
X9021726Y-21652601D02*
X9040774Y-21652601D01*
X9059821Y-21662125D01*
X9069345Y-21671649D01*
X9078869Y-21690696D01*
X9088393Y-21728792D01*
X9088393Y-21776411D01*
X9078869Y-21814506D01*
X9069345Y-21833554D01*
X9059821Y-21843077D01*
X9040774Y-21852601D01*
X9021726Y-21852601D01*
X9002679Y-21843077D01*
X8993155Y-21833554D01*
X8983631Y-21814506D01*
X8974107Y-21776411D01*
X8974107Y-21728792D01*
X8983631Y-21690696D01*
X8993155Y-21671649D01*
X9002679Y-21662125D01*
X9021726Y-21652601D01*
X9174107Y-21833554D02*
X9183631Y-21843077D01*
X9174107Y-21852601D01*
X9164583Y-21843077D01*
X9174107Y-21833554D01*
X9174107Y-21852601D01*
X9307440Y-21652601D02*
X9326488Y-21652601D01*
X9345536Y-21662125D01*
X9355060Y-21671649D01*
X9364583Y-21690696D01*
X9374107Y-21728792D01*
X9374107Y-21776411D01*
X9364583Y-21814506D01*
X9355060Y-21833554D01*
X9345536Y-21843077D01*
X9326488Y-21852601D01*
X9307440Y-21852601D01*
X9288393Y-21843077D01*
X9278869Y-21833554D01*
X9269345Y-21814506D01*
X9259821Y-21776411D01*
X9259821Y-21728792D01*
X9269345Y-21690696D01*
X9278869Y-21671649D01*
X9288393Y-21662125D01*
X9307440Y-21652601D01*
X9488393Y-21738315D02*
X9469345Y-21728792D01*
X9459821Y-21719268D01*
X9450298Y-21700220D01*
X9450298Y-21690696D01*
X9459821Y-21671649D01*
X9469345Y-21662125D01*
X9488393Y-21652601D01*
X9526488Y-21652601D01*
X9545536Y-21662125D01*
X9555060Y-21671649D01*
X9564583Y-21690696D01*
X9564583Y-21700220D01*
X9555060Y-21719268D01*
X9545536Y-21728792D01*
X9526488Y-21738315D01*
X9488393Y-21738315D01*
X9469345Y-21747839D01*
X9459821Y-21757363D01*
X9450298Y-21776411D01*
X9450298Y-21814506D01*
X9459821Y-21833554D01*
X9469345Y-21843077D01*
X9488393Y-21852601D01*
X9526488Y-21852601D01*
X9545536Y-21843077D01*
X9555060Y-21833554D01*
X9564583Y-21814506D01*
X9564583Y-21776411D01*
X9555060Y-21757363D01*
X9545536Y-21747839D01*
X9526488Y-21738315D01*
X9736012Y-21652601D02*
X9697917Y-21652601D01*
X9678869Y-21662125D01*
X9669345Y-21671649D01*
X9650298Y-21700220D01*
X9640774Y-21738315D01*
X9640774Y-21814506D01*
X9650298Y-21833554D01*
X9659821Y-21843077D01*
X9678869Y-21852601D01*
X9716964Y-21852601D01*
X9736012Y-21843077D01*
X9745536Y-21833554D01*
X9755060Y-21814506D01*
X9755060Y-21766887D01*
X9745536Y-21747839D01*
X9736012Y-21738315D01*
X9716964Y-21728792D01*
X9678869Y-21728792D01*
X9659821Y-21738315D01*
X9650298Y-21747839D01*
X9640774Y-21766887D01*
X9926488Y-21652601D02*
X9888393Y-21652601D01*
X9869345Y-21662125D01*
X9859821Y-21671649D01*
X9840774Y-21700220D01*
X9831250Y-21738315D01*
X9831250Y-21814506D01*
X9840774Y-21833554D01*
X9850298Y-21843077D01*
X9869345Y-21852601D01*
X9907440Y-21852601D01*
X9926488Y-21843077D01*
X9936012Y-21833554D01*
X9945536Y-21814506D01*
X9945536Y-21766887D01*
X9936012Y-21747839D01*
X9926488Y-21738315D01*
X9907440Y-21728792D01*
X9869345Y-21728792D01*
X9850298Y-21738315D01*
X9840774Y-21747839D01*
X9831250Y-21766887D01*
X10021726Y-21652601D02*
X10021726Y-21690696D01*
X10097917Y-21652601D02*
X10097917Y-21690696D01*
X10393155Y-21928792D02*
X10383631Y-21919268D01*
X10364583Y-21890696D01*
X10355060Y-21871649D01*
X10345536Y-21843077D01*
X10336012Y-21795458D01*
X10336012Y-21757363D01*
X10345536Y-21709744D01*
X10355060Y-21681173D01*
X10364583Y-21662125D01*
X10383631Y-21633554D01*
X10393155Y-21624030D01*
X10555060Y-21719268D02*
X10555060Y-21852601D01*
X10507440Y-21643077D02*
X10459821Y-21785935D01*
X10583631Y-21785935D01*
X10812202Y-21852601D02*
X10812202Y-21652601D01*
X10897917Y-21852601D02*
X10897917Y-21747839D01*
X10888393Y-21728792D01*
X10869345Y-21719268D01*
X10840774Y-21719268D01*
X10821726Y-21728792D01*
X10812202Y-21738315D01*
X11021726Y-21852601D02*
X11002679Y-21843077D01*
X10993155Y-21833554D01*
X10983631Y-21814506D01*
X10983631Y-21757363D01*
X10993155Y-21738315D01*
X11002679Y-21728792D01*
X11021726Y-21719268D01*
X11050298Y-21719268D01*
X11069345Y-21728792D01*
X11078869Y-21738315D01*
X11088393Y-21757363D01*
X11088393Y-21814506D01*
X11078869Y-21833554D01*
X11069345Y-21843077D01*
X11050298Y-21852601D01*
X11021726Y-21852601D01*
X11202678Y-21852601D02*
X11183631Y-21843077D01*
X11174107Y-21824030D01*
X11174107Y-21652601D01*
X11355059Y-21843077D02*
X11336012Y-21852601D01*
X11297917Y-21852601D01*
X11278869Y-21843077D01*
X11269345Y-21824030D01*
X11269345Y-21747839D01*
X11278869Y-21728792D01*
X11297917Y-21719268D01*
X11336012Y-21719268D01*
X11355059Y-21728792D01*
X11364583Y-21747839D01*
X11364583Y-21766887D01*
X11269345Y-21785935D01*
X11440774Y-21843077D02*
X11459821Y-21852601D01*
X11497917Y-21852601D01*
X11516964Y-21843077D01*
X11526488Y-21824030D01*
X11526488Y-21814506D01*
X11516964Y-21795458D01*
X11497917Y-21785935D01*
X11469345Y-21785935D01*
X11450298Y-21776411D01*
X11440774Y-21757363D01*
X11440774Y-21747839D01*
X11450298Y-21728792D01*
X11469345Y-21719268D01*
X11497917Y-21719268D01*
X11516964Y-21728792D01*
X11593155Y-21928792D02*
X11602678Y-21919268D01*
X11621726Y-21890696D01*
X11631250Y-21871649D01*
X11640774Y-21843077D01*
X11650298Y-21795458D01*
X11650298Y-21757363D01*
X11640774Y-21709744D01*
X11631250Y-21681173D01*
X11621726Y-21662125D01*
X11602678Y-21633554D01*
X11593155Y-21624030D01*
X11955059Y-21928792D02*
X11945536Y-21919268D01*
X11926488Y-21890696D01*
X11916964Y-21871649D01*
X11907440Y-21843077D01*
X11897917Y-21795458D01*
X11897917Y-21757363D01*
X11907440Y-21709744D01*
X11916964Y-21681173D01*
X11926488Y-21662125D01*
X11945536Y-21633554D01*
X11955059Y-21624030D01*
X12031250Y-21719268D02*
X12031250Y-21852601D01*
X12031250Y-21738315D02*
X12040774Y-21728792D01*
X12059821Y-21719268D01*
X12088393Y-21719268D01*
X12107440Y-21728792D01*
X12116964Y-21747839D01*
X12116964Y-21852601D01*
X12240774Y-21852601D02*
X12221726Y-21843077D01*
X12212202Y-21833554D01*
X12202678Y-21814506D01*
X12202678Y-21757363D01*
X12212202Y-21738315D01*
X12221726Y-21728792D01*
X12240774Y-21719268D01*
X12269345Y-21719268D01*
X12288393Y-21728792D01*
X12297917Y-21738315D01*
X12307440Y-21757363D01*
X12307440Y-21814506D01*
X12297917Y-21833554D01*
X12288393Y-21843077D01*
X12269345Y-21852601D01*
X12240774Y-21852601D01*
X12364583Y-21719268D02*
X12440774Y-21719268D01*
X12393155Y-21652601D02*
X12393155Y-21824030D01*
X12402678Y-21843077D01*
X12421726Y-21852601D01*
X12440774Y-21852601D01*
X12659821Y-21719268D02*
X12659821Y-21919268D01*
X12659821Y-21728792D02*
X12678869Y-21719268D01*
X12716964Y-21719268D01*
X12736012Y-21728792D01*
X12745536Y-21738315D01*
X12755059Y-21757363D01*
X12755059Y-21814506D01*
X12745536Y-21833554D01*
X12736012Y-21843077D01*
X12716964Y-21852601D01*
X12678869Y-21852601D01*
X12659821Y-21843077D01*
X12869345Y-21852601D02*
X12850298Y-21843077D01*
X12840774Y-21824030D01*
X12840774Y-21652601D01*
X13031250Y-21852601D02*
X13031250Y-21747839D01*
X13021726Y-21728792D01*
X13002678Y-21719268D01*
X12964583Y-21719268D01*
X12945536Y-21728792D01*
X13031250Y-21843077D02*
X13012202Y-21852601D01*
X12964583Y-21852601D01*
X12945536Y-21843077D01*
X12936012Y-21824030D01*
X12936012Y-21804982D01*
X12945536Y-21785935D01*
X12964583Y-21776411D01*
X13012202Y-21776411D01*
X13031250Y-21766887D01*
X13097917Y-21719268D02*
X13174107Y-21719268D01*
X13126488Y-21652601D02*
X13126488Y-21824030D01*
X13136012Y-21843077D01*
X13155059Y-21852601D01*
X13174107Y-21852601D01*
X13316964Y-21843077D02*
X13297917Y-21852601D01*
X13259821Y-21852601D01*
X13240774Y-21843077D01*
X13231250Y-21824030D01*
X13231250Y-21747839D01*
X13240774Y-21728792D01*
X13259821Y-21719268D01*
X13297917Y-21719268D01*
X13316964Y-21728792D01*
X13326488Y-21747839D01*
X13326488Y-21766887D01*
X13231250Y-21785935D01*
X13497917Y-21852601D02*
X13497917Y-21652601D01*
X13497917Y-21843077D02*
X13478869Y-21852601D01*
X13440774Y-21852601D01*
X13421726Y-21843077D01*
X13412202Y-21833554D01*
X13402678Y-21814506D01*
X13402678Y-21757363D01*
X13412202Y-21738315D01*
X13421726Y-21728792D01*
X13440774Y-21719268D01*
X13478869Y-21719268D01*
X13497917Y-21728792D01*
X13574107Y-21928792D02*
X13583631Y-21919268D01*
X13602678Y-21890696D01*
X13612202Y-21871649D01*
X13621726Y-21843077D01*
X13631250Y-21795458D01*
X13631250Y-21757363D01*
X13621726Y-21709744D01*
X13612202Y-21681173D01*
X13602678Y-21662125D01*
X13583631Y-21633554D01*
X13574107Y-21624030D01*
X6791961Y-22152836D02*
X6791961Y-22011414D01*
X6650539Y-22011414D01*
X6650539Y-22152836D01*
X6791961Y-22152836D01*
X7059821Y-21972601D02*
X7183631Y-21972601D01*
X7116964Y-22048792D01*
X7145536Y-22048792D01*
X7164583Y-22058315D01*
X7174107Y-22067839D01*
X7183631Y-22086887D01*
X7183631Y-22134506D01*
X7174107Y-22153554D01*
X7164583Y-22163077D01*
X7145536Y-22172601D01*
X7088393Y-22172601D01*
X7069345Y-22163077D01*
X7059821Y-22153554D01*
X7269345Y-22153554D02*
X7278869Y-22163077D01*
X7269345Y-22172601D01*
X7259821Y-22163077D01*
X7269345Y-22153554D01*
X7269345Y-22172601D01*
X7402678Y-21972601D02*
X7421726Y-21972601D01*
X7440774Y-21982125D01*
X7450298Y-21991649D01*
X7459821Y-22010696D01*
X7469345Y-22048792D01*
X7469345Y-22096411D01*
X7459821Y-22134506D01*
X7450298Y-22153554D01*
X7440774Y-22163077D01*
X7421726Y-22172601D01*
X7402678Y-22172601D01*
X7383631Y-22163077D01*
X7374107Y-22153554D01*
X7364583Y-22134506D01*
X7355059Y-22096411D01*
X7355059Y-22048792D01*
X7364583Y-22010696D01*
X7374107Y-21991649D01*
X7383631Y-21982125D01*
X7402678Y-21972601D01*
X7593155Y-21972601D02*
X7612202Y-21972601D01*
X7631250Y-21982125D01*
X7640774Y-21991649D01*
X7650298Y-22010696D01*
X7659821Y-22048792D01*
X7659821Y-22096411D01*
X7650298Y-22134506D01*
X7640774Y-22153554D01*
X7631250Y-22163077D01*
X7612202Y-22172601D01*
X7593155Y-22172601D01*
X7574107Y-22163077D01*
X7564583Y-22153554D01*
X7555059Y-22134506D01*
X7545536Y-22096411D01*
X7545536Y-22048792D01*
X7555059Y-22010696D01*
X7564583Y-21991649D01*
X7574107Y-21982125D01*
X7593155Y-21972601D01*
X7783631Y-21972601D02*
X7802678Y-21972601D01*
X7821726Y-21982125D01*
X7831250Y-21991649D01*
X7840774Y-22010696D01*
X7850298Y-22048792D01*
X7850298Y-22096411D01*
X7840774Y-22134506D01*
X7831250Y-22153554D01*
X7821726Y-22163077D01*
X7802678Y-22172601D01*
X7783631Y-22172601D01*
X7764583Y-22163077D01*
X7755059Y-22153554D01*
X7745536Y-22134506D01*
X7736012Y-22096411D01*
X7736012Y-22048792D01*
X7745536Y-22010696D01*
X7755059Y-21991649D01*
X7764583Y-21982125D01*
X7783631Y-21972601D01*
X7936012Y-22172601D02*
X7936012Y-22039268D01*
X7936012Y-22058315D02*
X7945536Y-22048792D01*
X7964583Y-22039268D01*
X7993155Y-22039268D01*
X8012202Y-22048792D01*
X8021726Y-22067839D01*
X8021726Y-22172601D01*
X8021726Y-22067839D02*
X8031250Y-22048792D01*
X8050298Y-22039268D01*
X8078869Y-22039268D01*
X8097917Y-22048792D01*
X8107440Y-22067839D01*
X8107440Y-22172601D01*
X8202678Y-22172601D02*
X8202678Y-22039268D01*
X8202678Y-22058315D02*
X8212202Y-22048792D01*
X8231250Y-22039268D01*
X8259821Y-22039268D01*
X8278869Y-22048792D01*
X8288393Y-22067839D01*
X8288393Y-22172601D01*
X8288393Y-22067839D02*
X8297917Y-22048792D01*
X8316964Y-22039268D01*
X8345536Y-22039268D01*
X8364583Y-22048792D01*
X8374107Y-22067839D01*
X8374107Y-22172601D01*
X8764583Y-21963077D02*
X8593155Y-22220220D01*
X9021726Y-21972601D02*
X9040774Y-21972601D01*
X9059821Y-21982125D01*
X9069345Y-21991649D01*
X9078869Y-22010696D01*
X9088393Y-22048792D01*
X9088393Y-22096411D01*
X9078869Y-22134506D01*
X9069345Y-22153554D01*
X9059821Y-22163077D01*
X9040774Y-22172601D01*
X9021726Y-22172601D01*
X9002679Y-22163077D01*
X8993155Y-22153554D01*
X8983631Y-22134506D01*
X8974107Y-22096411D01*
X8974107Y-22048792D01*
X8983631Y-22010696D01*
X8993155Y-21991649D01*
X9002679Y-21982125D01*
X9021726Y-21972601D01*
X9174107Y-22153554D02*
X9183631Y-22163077D01*
X9174107Y-22172601D01*
X9164583Y-22163077D01*
X9174107Y-22153554D01*
X9174107Y-22172601D01*
X9374107Y-22172601D02*
X9259821Y-22172601D01*
X9316964Y-22172601D02*
X9316964Y-21972601D01*
X9297917Y-22001173D01*
X9278869Y-22020220D01*
X9259821Y-22029744D01*
X9564583Y-22172601D02*
X9450298Y-22172601D01*
X9507440Y-22172601D02*
X9507440Y-21972601D01*
X9488393Y-22001173D01*
X9469345Y-22020220D01*
X9450298Y-22029744D01*
X9678869Y-22058315D02*
X9659821Y-22048792D01*
X9650298Y-22039268D01*
X9640774Y-22020220D01*
X9640774Y-22010696D01*
X9650298Y-21991649D01*
X9659821Y-21982125D01*
X9678869Y-21972601D01*
X9716964Y-21972601D01*
X9736012Y-21982125D01*
X9745536Y-21991649D01*
X9755060Y-22010696D01*
X9755060Y-22020220D01*
X9745536Y-22039268D01*
X9736012Y-22048792D01*
X9716964Y-22058315D01*
X9678869Y-22058315D01*
X9659821Y-22067839D01*
X9650298Y-22077363D01*
X9640774Y-22096411D01*
X9640774Y-22134506D01*
X9650298Y-22153554D01*
X9659821Y-22163077D01*
X9678869Y-22172601D01*
X9716964Y-22172601D01*
X9736012Y-22163077D01*
X9745536Y-22153554D01*
X9755060Y-22134506D01*
X9755060Y-22096411D01*
X9745536Y-22077363D01*
X9736012Y-22067839D01*
X9716964Y-22058315D01*
X9945536Y-22172601D02*
X9831250Y-22172601D01*
X9888393Y-22172601D02*
X9888393Y-21972601D01*
X9869345Y-22001173D01*
X9850298Y-22020220D01*
X9831250Y-22029744D01*
X10021726Y-21972601D02*
X10021726Y-22010696D01*
X10097917Y-21972601D02*
X10097917Y-22010696D01*
X10393155Y-22248792D02*
X10383631Y-22239268D01*
X10364583Y-22210696D01*
X10355060Y-22191649D01*
X10345536Y-22163077D01*
X10336012Y-22115458D01*
X10336012Y-22077363D01*
X10345536Y-22029744D01*
X10355060Y-22001173D01*
X10364583Y-21982125D01*
X10383631Y-21953554D01*
X10393155Y-21944030D01*
X10574107Y-22172601D02*
X10459821Y-22172601D01*
X10516964Y-22172601D02*
X10516964Y-21972601D01*
X10497917Y-22001173D01*
X10478869Y-22020220D01*
X10459821Y-22029744D01*
X10650298Y-21991649D02*
X10659821Y-21982125D01*
X10678869Y-21972601D01*
X10726488Y-21972601D01*
X10745536Y-21982125D01*
X10755060Y-21991649D01*
X10764583Y-22010696D01*
X10764583Y-22029744D01*
X10755060Y-22058315D01*
X10640774Y-22172601D01*
X10764583Y-22172601D01*
X10936012Y-21972601D02*
X10897917Y-21972601D01*
X10878869Y-21982125D01*
X10869345Y-21991649D01*
X10850298Y-22020220D01*
X10840774Y-22058315D01*
X10840774Y-22134506D01*
X10850298Y-22153554D01*
X10859821Y-22163077D01*
X10878869Y-22172601D01*
X10916964Y-22172601D01*
X10936012Y-22163077D01*
X10945536Y-22153554D01*
X10955060Y-22134506D01*
X10955060Y-22086887D01*
X10945536Y-22067839D01*
X10936012Y-22058315D01*
X10916964Y-22048792D01*
X10878869Y-22048792D01*
X10859821Y-22058315D01*
X10850298Y-22067839D01*
X10840774Y-22086887D01*
X11193155Y-22172601D02*
X11193155Y-21972601D01*
X11278869Y-22172601D02*
X11278869Y-22067839D01*
X11269345Y-22048792D01*
X11250298Y-22039268D01*
X11221726Y-22039268D01*
X11202678Y-22048792D01*
X11193155Y-22058315D01*
X11402678Y-22172601D02*
X11383631Y-22163077D01*
X11374107Y-22153554D01*
X11364583Y-22134506D01*
X11364583Y-22077363D01*
X11374107Y-22058315D01*
X11383631Y-22048792D01*
X11402678Y-22039268D01*
X11431250Y-22039268D01*
X11450298Y-22048792D01*
X11459821Y-22058315D01*
X11469345Y-22077363D01*
X11469345Y-22134506D01*
X11459821Y-22153554D01*
X11450298Y-22163077D01*
X11431250Y-22172601D01*
X11402678Y-22172601D01*
X11583631Y-22172601D02*
X11564583Y-22163077D01*
X11555059Y-22144030D01*
X11555059Y-21972601D01*
X11736012Y-22163077D02*
X11716964Y-22172601D01*
X11678869Y-22172601D01*
X11659821Y-22163077D01*
X11650298Y-22144030D01*
X11650298Y-22067839D01*
X11659821Y-22048792D01*
X11678869Y-22039268D01*
X11716964Y-22039268D01*
X11736012Y-22048792D01*
X11745536Y-22067839D01*
X11745536Y-22086887D01*
X11650298Y-22105935D01*
X11821726Y-22163077D02*
X11840774Y-22172601D01*
X11878869Y-22172601D01*
X11897917Y-22163077D01*
X11907440Y-22144030D01*
X11907440Y-22134506D01*
X11897917Y-22115458D01*
X11878869Y-22105935D01*
X11850298Y-22105935D01*
X11831250Y-22096411D01*
X11821726Y-22077363D01*
X11821726Y-22067839D01*
X11831250Y-22048792D01*
X11850298Y-22039268D01*
X11878869Y-22039268D01*
X11897917Y-22048792D01*
X11974107Y-22248792D02*
X11983631Y-22239268D01*
X12002678Y-22210696D01*
X12012202Y-22191649D01*
X12021726Y-22163077D01*
X12031250Y-22115458D01*
X12031250Y-22077363D01*
X12021726Y-22029744D01*
X12012202Y-22001173D01*
X12002678Y-21982125D01*
X11983631Y-21953554D01*
X11974107Y-21944030D01*
X12336012Y-22248792D02*
X12326488Y-22239268D01*
X12307440Y-22210696D01*
X12297917Y-22191649D01*
X12288393Y-22163077D01*
X12278869Y-22115458D01*
X12278869Y-22077363D01*
X12288393Y-22029744D01*
X12297917Y-22001173D01*
X12307440Y-21982125D01*
X12326488Y-21953554D01*
X12336012Y-21944030D01*
X12412202Y-22039268D02*
X12412202Y-22172601D01*
X12412202Y-22058315D02*
X12421726Y-22048792D01*
X12440774Y-22039268D01*
X12469345Y-22039268D01*
X12488393Y-22048792D01*
X12497917Y-22067839D01*
X12497917Y-22172601D01*
X12621726Y-22172601D02*
X12602678Y-22163077D01*
X12593155Y-22153554D01*
X12583631Y-22134506D01*
X12583631Y-22077363D01*
X12593155Y-22058315D01*
X12602678Y-22048792D01*
X12621726Y-22039268D01*
X12650298Y-22039268D01*
X12669345Y-22048792D01*
X12678869Y-22058315D01*
X12688393Y-22077363D01*
X12688393Y-22134506D01*
X12678869Y-22153554D01*
X12669345Y-22163077D01*
X12650298Y-22172601D01*
X12621726Y-22172601D01*
X12745536Y-22039268D02*
X12821726Y-22039268D01*
X12774107Y-21972601D02*
X12774107Y-22144030D01*
X12783631Y-22163077D01*
X12802678Y-22172601D01*
X12821726Y-22172601D01*
X13040774Y-22039268D02*
X13040774Y-22239268D01*
X13040774Y-22048792D02*
X13059821Y-22039268D01*
X13097917Y-22039268D01*
X13116964Y-22048792D01*
X13126488Y-22058315D01*
X13136012Y-22077363D01*
X13136012Y-22134506D01*
X13126488Y-22153554D01*
X13116964Y-22163077D01*
X13097917Y-22172601D01*
X13059821Y-22172601D01*
X13040774Y-22163077D01*
X13250298Y-22172601D02*
X13231250Y-22163077D01*
X13221726Y-22144030D01*
X13221726Y-21972601D01*
X13412202Y-22172601D02*
X13412202Y-22067839D01*
X13402678Y-22048792D01*
X13383631Y-22039268D01*
X13345536Y-22039268D01*
X13326488Y-22048792D01*
X13412202Y-22163077D02*
X13393155Y-22172601D01*
X13345536Y-22172601D01*
X13326488Y-22163077D01*
X13316964Y-22144030D01*
X13316964Y-22124982D01*
X13326488Y-22105935D01*
X13345536Y-22096411D01*
X13393155Y-22096411D01*
X13412202Y-22086887D01*
X13478869Y-22039268D02*
X13555059Y-22039268D01*
X13507440Y-21972601D02*
X13507440Y-22144030D01*
X13516964Y-22163077D01*
X13536012Y-22172601D01*
X13555059Y-22172601D01*
X13697917Y-22163077D02*
X13678869Y-22172601D01*
X13640774Y-22172601D01*
X13621726Y-22163077D01*
X13612202Y-22144030D01*
X13612202Y-22067839D01*
X13621726Y-22048792D01*
X13640774Y-22039268D01*
X13678869Y-22039268D01*
X13697917Y-22048792D01*
X13707440Y-22067839D01*
X13707440Y-22086887D01*
X13612202Y-22105935D01*
X13878869Y-22172601D02*
X13878869Y-21972601D01*
X13878869Y-22163077D02*
X13859821Y-22172601D01*
X13821726Y-22172601D01*
X13802678Y-22163077D01*
X13793155Y-22153554D01*
X13783631Y-22134506D01*
X13783631Y-22077363D01*
X13793155Y-22058315D01*
X13802678Y-22048792D01*
X13821726Y-22039268D01*
X13859821Y-22039268D01*
X13878869Y-22048792D01*
X13955059Y-22248792D02*
X13964583Y-22239268D01*
X13983631Y-22210696D01*
X13993155Y-22191649D01*
X14002678Y-22163077D01*
X14012202Y-22115458D01*
X14012202Y-22077363D01*
X14002678Y-22029744D01*
X13993155Y-22001173D01*
X13983631Y-21982125D01*
X13964583Y-21953554D01*
X13955059Y-21944030D01*
X6721250Y-22502125D02*
X6821250Y-22402125D01*
X6721250Y-22302125D01*
X6621250Y-22402125D01*
X6721250Y-22502125D01*
X7059821Y-22292601D02*
X7183631Y-22292601D01*
X7116964Y-22368792D01*
X7145536Y-22368792D01*
X7164583Y-22378315D01*
X7174107Y-22387839D01*
X7183631Y-22406887D01*
X7183631Y-22454506D01*
X7174107Y-22473553D01*
X7164583Y-22483077D01*
X7145536Y-22492601D01*
X7088393Y-22492601D01*
X7069345Y-22483077D01*
X7059821Y-22473553D01*
X7269345Y-22473553D02*
X7278869Y-22483077D01*
X7269345Y-22492601D01*
X7259821Y-22483077D01*
X7269345Y-22473553D01*
X7269345Y-22492601D01*
X7402678Y-22292601D02*
X7421726Y-22292601D01*
X7440774Y-22302125D01*
X7450298Y-22311649D01*
X7459821Y-22330696D01*
X7469345Y-22368792D01*
X7469345Y-22416411D01*
X7459821Y-22454506D01*
X7450298Y-22473553D01*
X7440774Y-22483077D01*
X7421726Y-22492601D01*
X7402678Y-22492601D01*
X7383631Y-22483077D01*
X7374107Y-22473553D01*
X7364583Y-22454506D01*
X7355059Y-22416411D01*
X7355059Y-22368792D01*
X7364583Y-22330696D01*
X7374107Y-22311649D01*
X7383631Y-22302125D01*
X7402678Y-22292601D01*
X7640774Y-22359268D02*
X7640774Y-22492601D01*
X7593155Y-22283077D02*
X7545536Y-22425934D01*
X7669345Y-22425934D01*
X7774107Y-22378315D02*
X7755059Y-22368792D01*
X7745536Y-22359268D01*
X7736012Y-22340220D01*
X7736012Y-22330696D01*
X7745536Y-22311649D01*
X7755059Y-22302125D01*
X7774107Y-22292601D01*
X7812202Y-22292601D01*
X7831250Y-22302125D01*
X7840774Y-22311649D01*
X7850298Y-22330696D01*
X7850298Y-22340220D01*
X7840774Y-22359268D01*
X7831250Y-22368792D01*
X7812202Y-22378315D01*
X7774107Y-22378315D01*
X7755059Y-22387839D01*
X7745536Y-22397363D01*
X7736012Y-22416411D01*
X7736012Y-22454506D01*
X7745536Y-22473553D01*
X7755059Y-22483077D01*
X7774107Y-22492601D01*
X7812202Y-22492601D01*
X7831250Y-22483077D01*
X7840774Y-22473553D01*
X7850298Y-22454506D01*
X7850298Y-22416411D01*
X7840774Y-22397363D01*
X7831250Y-22387839D01*
X7812202Y-22378315D01*
X7936012Y-22492601D02*
X7936012Y-22359268D01*
X7936012Y-22378315D02*
X7945536Y-22368792D01*
X7964583Y-22359268D01*
X7993155Y-22359268D01*
X8012202Y-22368792D01*
X8021726Y-22387839D01*
X8021726Y-22492601D01*
X8021726Y-22387839D02*
X8031250Y-22368792D01*
X8050298Y-22359268D01*
X8078869Y-22359268D01*
X8097917Y-22368792D01*
X8107440Y-22387839D01*
X8107440Y-22492601D01*
X8202678Y-22492601D02*
X8202678Y-22359268D01*
X8202678Y-22378315D02*
X8212202Y-22368792D01*
X8231250Y-22359268D01*
X8259821Y-22359268D01*
X8278869Y-22368792D01*
X8288393Y-22387839D01*
X8288393Y-22492601D01*
X8288393Y-22387839D02*
X8297917Y-22368792D01*
X8316964Y-22359268D01*
X8345536Y-22359268D01*
X8364583Y-22368792D01*
X8374107Y-22387839D01*
X8374107Y-22492601D01*
X8764583Y-22283077D02*
X8593155Y-22540220D01*
X9021726Y-22292601D02*
X9040774Y-22292601D01*
X9059821Y-22302125D01*
X9069345Y-22311649D01*
X9078869Y-22330696D01*
X9088393Y-22368792D01*
X9088393Y-22416411D01*
X9078869Y-22454506D01*
X9069345Y-22473553D01*
X9059821Y-22483077D01*
X9040774Y-22492601D01*
X9021726Y-22492601D01*
X9002679Y-22483077D01*
X8993155Y-22473553D01*
X8983631Y-22454506D01*
X8974107Y-22416411D01*
X8974107Y-22368792D01*
X8983631Y-22330696D01*
X8993155Y-22311649D01*
X9002679Y-22302125D01*
X9021726Y-22292601D01*
X9174107Y-22473553D02*
X9183631Y-22483077D01*
X9174107Y-22492601D01*
X9164583Y-22483077D01*
X9174107Y-22473553D01*
X9174107Y-22492601D01*
X9374107Y-22492601D02*
X9259821Y-22492601D01*
X9316964Y-22492601D02*
X9316964Y-22292601D01*
X9297917Y-22321173D01*
X9278869Y-22340220D01*
X9259821Y-22349744D01*
X9450298Y-22311649D02*
X9459821Y-22302125D01*
X9478869Y-22292601D01*
X9526488Y-22292601D01*
X9545536Y-22302125D01*
X9555060Y-22311649D01*
X9564583Y-22330696D01*
X9564583Y-22349744D01*
X9555060Y-22378315D01*
X9440774Y-22492601D01*
X9564583Y-22492601D01*
X9688393Y-22292601D02*
X9707440Y-22292601D01*
X9726488Y-22302125D01*
X9736012Y-22311649D01*
X9745536Y-22330696D01*
X9755060Y-22368792D01*
X9755060Y-22416411D01*
X9745536Y-22454506D01*
X9736012Y-22473553D01*
X9726488Y-22483077D01*
X9707440Y-22492601D01*
X9688393Y-22492601D01*
X9669345Y-22483077D01*
X9659821Y-22473553D01*
X9650298Y-22454506D01*
X9640774Y-22416411D01*
X9640774Y-22368792D01*
X9650298Y-22330696D01*
X9659821Y-22311649D01*
X9669345Y-22302125D01*
X9688393Y-22292601D01*
X9878869Y-22292601D02*
X9897917Y-22292601D01*
X9916964Y-22302125D01*
X9926488Y-22311649D01*
X9936012Y-22330696D01*
X9945536Y-22368792D01*
X9945536Y-22416411D01*
X9936012Y-22454506D01*
X9926488Y-22473553D01*
X9916964Y-22483077D01*
X9897917Y-22492601D01*
X9878869Y-22492601D01*
X9859821Y-22483077D01*
X9850298Y-22473553D01*
X9840774Y-22454506D01*
X9831250Y-22416411D01*
X9831250Y-22368792D01*
X9840774Y-22330696D01*
X9850298Y-22311649D01*
X9859821Y-22302125D01*
X9878869Y-22292601D01*
X10021726Y-22292601D02*
X10021726Y-22330696D01*
X10097917Y-22292601D02*
X10097917Y-22330696D01*
X10393155Y-22568792D02*
X10383631Y-22559268D01*
X10364583Y-22530696D01*
X10355060Y-22511649D01*
X10345536Y-22483077D01*
X10336012Y-22435458D01*
X10336012Y-22397363D01*
X10345536Y-22349744D01*
X10355060Y-22321173D01*
X10364583Y-22302125D01*
X10383631Y-22273554D01*
X10393155Y-22264030D01*
X10497917Y-22378315D02*
X10478869Y-22368792D01*
X10469345Y-22359268D01*
X10459821Y-22340220D01*
X10459821Y-22330696D01*
X10469345Y-22311649D01*
X10478869Y-22302125D01*
X10497917Y-22292601D01*
X10536012Y-22292601D01*
X10555060Y-22302125D01*
X10564583Y-22311649D01*
X10574107Y-22330696D01*
X10574107Y-22340220D01*
X10564583Y-22359268D01*
X10555060Y-22368792D01*
X10536012Y-22378315D01*
X10497917Y-22378315D01*
X10478869Y-22387839D01*
X10469345Y-22397363D01*
X10459821Y-22416411D01*
X10459821Y-22454506D01*
X10469345Y-22473553D01*
X10478869Y-22483077D01*
X10497917Y-22492601D01*
X10536012Y-22492601D01*
X10555060Y-22483077D01*
X10564583Y-22473553D01*
X10574107Y-22454506D01*
X10574107Y-22416411D01*
X10564583Y-22397363D01*
X10555060Y-22387839D01*
X10536012Y-22378315D01*
X10812202Y-22492601D02*
X10812202Y-22292601D01*
X10897917Y-22492601D02*
X10897917Y-22387839D01*
X10888393Y-22368792D01*
X10869345Y-22359268D01*
X10840774Y-22359268D01*
X10821726Y-22368792D01*
X10812202Y-22378315D01*
X11021726Y-22492601D02*
X11002679Y-22483077D01*
X10993155Y-22473553D01*
X10983631Y-22454506D01*
X10983631Y-22397363D01*
X10993155Y-22378315D01*
X11002679Y-22368792D01*
X11021726Y-22359268D01*
X11050298Y-22359268D01*
X11069345Y-22368792D01*
X11078869Y-22378315D01*
X11088393Y-22397363D01*
X11088393Y-22454506D01*
X11078869Y-22473553D01*
X11069345Y-22483077D01*
X11050298Y-22492601D01*
X11021726Y-22492601D01*
X11202678Y-22492601D02*
X11183631Y-22483077D01*
X11174107Y-22464030D01*
X11174107Y-22292601D01*
X11355059Y-22483077D02*
X11336012Y-22492601D01*
X11297917Y-22492601D01*
X11278869Y-22483077D01*
X11269345Y-22464030D01*
X11269345Y-22387839D01*
X11278869Y-22368792D01*
X11297917Y-22359268D01*
X11336012Y-22359268D01*
X11355059Y-22368792D01*
X11364583Y-22387839D01*
X11364583Y-22406887D01*
X11269345Y-22425934D01*
X11440774Y-22483077D02*
X11459821Y-22492601D01*
X11497917Y-22492601D01*
X11516964Y-22483077D01*
X11526488Y-22464030D01*
X11526488Y-22454506D01*
X11516964Y-22435458D01*
X11497917Y-22425934D01*
X11469345Y-22425934D01*
X11450298Y-22416411D01*
X11440774Y-22397363D01*
X11440774Y-22387839D01*
X11450298Y-22368792D01*
X11469345Y-22359268D01*
X11497917Y-22359268D01*
X11516964Y-22368792D01*
X11593155Y-22568792D02*
X11602678Y-22559268D01*
X11621726Y-22530696D01*
X11631250Y-22511649D01*
X11640774Y-22483077D01*
X11650298Y-22435458D01*
X11650298Y-22397363D01*
X11640774Y-22349744D01*
X11631250Y-22321173D01*
X11621726Y-22302125D01*
X11602678Y-22273554D01*
X11593155Y-22264030D01*
X11955059Y-22568792D02*
X11945536Y-22559268D01*
X11926488Y-22530696D01*
X11916964Y-22511649D01*
X11907440Y-22483077D01*
X11897917Y-22435458D01*
X11897917Y-22397363D01*
X11907440Y-22349744D01*
X11916964Y-22321173D01*
X11926488Y-22302125D01*
X11945536Y-22273554D01*
X11955059Y-22264030D01*
X12031250Y-22359268D02*
X12031250Y-22492601D01*
X12031250Y-22378315D02*
X12040774Y-22368792D01*
X12059821Y-22359268D01*
X12088393Y-22359268D01*
X12107440Y-22368792D01*
X12116964Y-22387839D01*
X12116964Y-22492601D01*
X12240774Y-22492601D02*
X12221726Y-22483077D01*
X12212202Y-22473553D01*
X12202678Y-22454506D01*
X12202678Y-22397363D01*
X12212202Y-22378315D01*
X12221726Y-22368792D01*
X12240774Y-22359268D01*
X12269345Y-22359268D01*
X12288393Y-22368792D01*
X12297917Y-22378315D01*
X12307440Y-22397363D01*
X12307440Y-22454506D01*
X12297917Y-22473553D01*
X12288393Y-22483077D01*
X12269345Y-22492601D01*
X12240774Y-22492601D01*
X12364583Y-22359268D02*
X12440774Y-22359268D01*
X12393155Y-22292601D02*
X12393155Y-22464030D01*
X12402678Y-22483077D01*
X12421726Y-22492601D01*
X12440774Y-22492601D01*
X12659821Y-22359268D02*
X12659821Y-22559268D01*
X12659821Y-22368792D02*
X12678869Y-22359268D01*
X12716964Y-22359268D01*
X12736012Y-22368792D01*
X12745536Y-22378315D01*
X12755059Y-22397363D01*
X12755059Y-22454506D01*
X12745536Y-22473553D01*
X12736012Y-22483077D01*
X12716964Y-22492601D01*
X12678869Y-22492601D01*
X12659821Y-22483077D01*
X12869345Y-22492601D02*
X12850298Y-22483077D01*
X12840774Y-22464030D01*
X12840774Y-22292601D01*
X13031250Y-22492601D02*
X13031250Y-22387839D01*
X13021726Y-22368792D01*
X13002678Y-22359268D01*
X12964583Y-22359268D01*
X12945536Y-22368792D01*
X13031250Y-22483077D02*
X13012202Y-22492601D01*
X12964583Y-22492601D01*
X12945536Y-22483077D01*
X12936012Y-22464030D01*
X12936012Y-22444982D01*
X12945536Y-22425934D01*
X12964583Y-22416411D01*
X13012202Y-22416411D01*
X13031250Y-22406887D01*
X13097917Y-22359268D02*
X13174107Y-22359268D01*
X13126488Y-22292601D02*
X13126488Y-22464030D01*
X13136012Y-22483077D01*
X13155059Y-22492601D01*
X13174107Y-22492601D01*
X13316964Y-22483077D02*
X13297917Y-22492601D01*
X13259821Y-22492601D01*
X13240774Y-22483077D01*
X13231250Y-22464030D01*
X13231250Y-22387839D01*
X13240774Y-22368792D01*
X13259821Y-22359268D01*
X13297917Y-22359268D01*
X13316964Y-22368792D01*
X13326488Y-22387839D01*
X13326488Y-22406887D01*
X13231250Y-22425934D01*
X13497917Y-22492601D02*
X13497917Y-22292601D01*
X13497917Y-22483077D02*
X13478869Y-22492601D01*
X13440774Y-22492601D01*
X13421726Y-22483077D01*
X13412202Y-22473553D01*
X13402678Y-22454506D01*
X13402678Y-22397363D01*
X13412202Y-22378315D01*
X13421726Y-22368792D01*
X13440774Y-22359268D01*
X13478869Y-22359268D01*
X13497917Y-22368792D01*
X13574107Y-22568792D02*
X13583631Y-22559268D01*
X13602678Y-22530696D01*
X13612202Y-22511649D01*
X13621726Y-22483077D01*
X13631250Y-22435458D01*
X13631250Y-22397363D01*
X13621726Y-22349744D01*
X13612202Y-22321173D01*
X13602678Y-22302125D01*
X13583631Y-22273554D01*
X13574107Y-22264030D01*
X6621250Y-22622125D02*
X6821250Y-22822125D01*
X6821250Y-22622125D02*
X6621250Y-22822125D01*
X6821250Y-22722125D02*
G75*
G03*
X6821250Y-22722125I-100000J0D01*
G01*
X7059821Y-22612601D02*
X7183631Y-22612601D01*
X7116964Y-22688792D01*
X7145536Y-22688792D01*
X7164583Y-22698315D01*
X7174107Y-22707839D01*
X7183631Y-22726887D01*
X7183631Y-22774506D01*
X7174107Y-22793553D01*
X7164583Y-22803077D01*
X7145536Y-22812601D01*
X7088393Y-22812601D01*
X7069345Y-22803077D01*
X7059821Y-22793553D01*
X7269345Y-22793553D02*
X7278869Y-22803077D01*
X7269345Y-22812601D01*
X7259821Y-22803077D01*
X7269345Y-22793553D01*
X7269345Y-22812601D01*
X7374107Y-22812601D02*
X7412202Y-22812601D01*
X7431250Y-22803077D01*
X7440774Y-22793553D01*
X7459821Y-22764982D01*
X7469345Y-22726887D01*
X7469345Y-22650696D01*
X7459821Y-22631649D01*
X7450298Y-22622125D01*
X7431250Y-22612601D01*
X7393155Y-22612601D01*
X7374107Y-22622125D01*
X7364583Y-22631649D01*
X7355059Y-22650696D01*
X7355059Y-22698315D01*
X7364583Y-22717363D01*
X7374107Y-22726887D01*
X7393155Y-22736411D01*
X7431250Y-22736411D01*
X7450298Y-22726887D01*
X7459821Y-22717363D01*
X7469345Y-22698315D01*
X7583631Y-22698315D02*
X7564583Y-22688792D01*
X7555059Y-22679268D01*
X7545536Y-22660220D01*
X7545536Y-22650696D01*
X7555059Y-22631649D01*
X7564583Y-22622125D01*
X7583631Y-22612601D01*
X7621726Y-22612601D01*
X7640774Y-22622125D01*
X7650298Y-22631649D01*
X7659821Y-22650696D01*
X7659821Y-22660220D01*
X7650298Y-22679268D01*
X7640774Y-22688792D01*
X7621726Y-22698315D01*
X7583631Y-22698315D01*
X7564583Y-22707839D01*
X7555059Y-22717363D01*
X7545536Y-22736411D01*
X7545536Y-22774506D01*
X7555059Y-22793553D01*
X7564583Y-22803077D01*
X7583631Y-22812601D01*
X7621726Y-22812601D01*
X7640774Y-22803077D01*
X7650298Y-22793553D01*
X7659821Y-22774506D01*
X7659821Y-22736411D01*
X7650298Y-22717363D01*
X7640774Y-22707839D01*
X7621726Y-22698315D01*
X7774107Y-22698315D02*
X7755059Y-22688792D01*
X7745536Y-22679268D01*
X7736012Y-22660220D01*
X7736012Y-22650696D01*
X7745536Y-22631649D01*
X7755059Y-22622125D01*
X7774107Y-22612601D01*
X7812202Y-22612601D01*
X7831250Y-22622125D01*
X7840774Y-22631649D01*
X7850298Y-22650696D01*
X7850298Y-22660220D01*
X7840774Y-22679268D01*
X7831250Y-22688792D01*
X7812202Y-22698315D01*
X7774107Y-22698315D01*
X7755059Y-22707839D01*
X7745536Y-22717363D01*
X7736012Y-22736411D01*
X7736012Y-22774506D01*
X7745536Y-22793553D01*
X7755059Y-22803077D01*
X7774107Y-22812601D01*
X7812202Y-22812601D01*
X7831250Y-22803077D01*
X7840774Y-22793553D01*
X7850298Y-22774506D01*
X7850298Y-22736411D01*
X7840774Y-22717363D01*
X7831250Y-22707839D01*
X7812202Y-22698315D01*
X7936012Y-22812601D02*
X7936012Y-22679268D01*
X7936012Y-22698315D02*
X7945536Y-22688792D01*
X7964583Y-22679268D01*
X7993155Y-22679268D01*
X8012202Y-22688792D01*
X8021726Y-22707839D01*
X8021726Y-22812601D01*
X8021726Y-22707839D02*
X8031250Y-22688792D01*
X8050298Y-22679268D01*
X8078869Y-22679268D01*
X8097917Y-22688792D01*
X8107440Y-22707839D01*
X8107440Y-22812601D01*
X8202678Y-22812601D02*
X8202678Y-22679268D01*
X8202678Y-22698315D02*
X8212202Y-22688792D01*
X8231250Y-22679268D01*
X8259821Y-22679268D01*
X8278869Y-22688792D01*
X8288393Y-22707839D01*
X8288393Y-22812601D01*
X8288393Y-22707839D02*
X8297917Y-22688792D01*
X8316964Y-22679268D01*
X8345536Y-22679268D01*
X8364583Y-22688792D01*
X8374107Y-22707839D01*
X8374107Y-22812601D01*
X8764583Y-22603077D02*
X8593155Y-22860220D01*
X9021726Y-22612601D02*
X9040774Y-22612601D01*
X9059821Y-22622125D01*
X9069345Y-22631649D01*
X9078869Y-22650696D01*
X9088393Y-22688792D01*
X9088393Y-22736411D01*
X9078869Y-22774506D01*
X9069345Y-22793553D01*
X9059821Y-22803077D01*
X9040774Y-22812601D01*
X9021726Y-22812601D01*
X9002679Y-22803077D01*
X8993155Y-22793553D01*
X8983631Y-22774506D01*
X8974107Y-22736411D01*
X8974107Y-22688792D01*
X8983631Y-22650696D01*
X8993155Y-22631649D01*
X9002679Y-22622125D01*
X9021726Y-22612601D01*
X9174107Y-22793553D02*
X9183631Y-22803077D01*
X9174107Y-22812601D01*
X9164583Y-22803077D01*
X9174107Y-22793553D01*
X9174107Y-22812601D01*
X9374107Y-22812601D02*
X9259821Y-22812601D01*
X9316964Y-22812601D02*
X9316964Y-22612601D01*
X9297917Y-22641173D01*
X9278869Y-22660220D01*
X9259821Y-22669744D01*
X9555060Y-22612601D02*
X9459821Y-22612601D01*
X9450298Y-22707839D01*
X9459821Y-22698315D01*
X9478869Y-22688792D01*
X9526488Y-22688792D01*
X9545536Y-22698315D01*
X9555060Y-22707839D01*
X9564583Y-22726887D01*
X9564583Y-22774506D01*
X9555060Y-22793553D01*
X9545536Y-22803077D01*
X9526488Y-22812601D01*
X9478869Y-22812601D01*
X9459821Y-22803077D01*
X9450298Y-22793553D01*
X9631250Y-22612601D02*
X9764583Y-22612601D01*
X9678869Y-22812601D01*
X9878869Y-22612601D02*
X9897917Y-22612601D01*
X9916964Y-22622125D01*
X9926488Y-22631649D01*
X9936012Y-22650696D01*
X9945536Y-22688792D01*
X9945536Y-22736411D01*
X9936012Y-22774506D01*
X9926488Y-22793553D01*
X9916964Y-22803077D01*
X9897917Y-22812601D01*
X9878869Y-22812601D01*
X9859821Y-22803077D01*
X9850298Y-22793553D01*
X9840774Y-22774506D01*
X9831250Y-22736411D01*
X9831250Y-22688792D01*
X9840774Y-22650696D01*
X9850298Y-22631649D01*
X9859821Y-22622125D01*
X9878869Y-22612601D01*
X10021726Y-22612601D02*
X10021726Y-22650696D01*
X10097917Y-22612601D02*
X10097917Y-22650696D01*
X10393155Y-22888792D02*
X10383631Y-22879268D01*
X10364583Y-22850696D01*
X10355060Y-22831649D01*
X10345536Y-22803077D01*
X10336012Y-22755458D01*
X10336012Y-22717363D01*
X10345536Y-22669744D01*
X10355060Y-22641173D01*
X10364583Y-22622125D01*
X10383631Y-22593553D01*
X10393155Y-22584030D01*
X10450298Y-22612601D02*
X10583631Y-22612601D01*
X10497917Y-22812601D01*
X10764583Y-22812601D02*
X10650298Y-22812601D01*
X10707440Y-22812601D02*
X10707440Y-22612601D01*
X10688393Y-22641173D01*
X10669345Y-22660220D01*
X10650298Y-22669744D01*
X11002679Y-22812601D02*
X11002679Y-22612601D01*
X11088393Y-22812601D02*
X11088393Y-22707839D01*
X11078869Y-22688792D01*
X11059821Y-22679268D01*
X11031250Y-22679268D01*
X11012202Y-22688792D01*
X11002679Y-22698315D01*
X11212202Y-22812601D02*
X11193155Y-22803077D01*
X11183631Y-22793553D01*
X11174107Y-22774506D01*
X11174107Y-22717363D01*
X11183631Y-22698315D01*
X11193155Y-22688792D01*
X11212202Y-22679268D01*
X11240774Y-22679268D01*
X11259821Y-22688792D01*
X11269345Y-22698315D01*
X11278869Y-22717363D01*
X11278869Y-22774506D01*
X11269345Y-22793553D01*
X11259821Y-22803077D01*
X11240774Y-22812601D01*
X11212202Y-22812601D01*
X11393155Y-22812601D02*
X11374107Y-22803077D01*
X11364583Y-22784030D01*
X11364583Y-22612601D01*
X11545536Y-22803077D02*
X11526488Y-22812601D01*
X11488393Y-22812601D01*
X11469345Y-22803077D01*
X11459821Y-22784030D01*
X11459821Y-22707839D01*
X11469345Y-22688792D01*
X11488393Y-22679268D01*
X11526488Y-22679268D01*
X11545536Y-22688792D01*
X11555059Y-22707839D01*
X11555059Y-22726887D01*
X11459821Y-22745934D01*
X11631250Y-22803077D02*
X11650298Y-22812601D01*
X11688393Y-22812601D01*
X11707440Y-22803077D01*
X11716964Y-22784030D01*
X11716964Y-22774506D01*
X11707440Y-22755458D01*
X11688393Y-22745934D01*
X11659821Y-22745934D01*
X11640774Y-22736411D01*
X11631250Y-22717363D01*
X11631250Y-22707839D01*
X11640774Y-22688792D01*
X11659821Y-22679268D01*
X11688393Y-22679268D01*
X11707440Y-22688792D01*
X11783631Y-22888792D02*
X11793155Y-22879268D01*
X11812202Y-22850696D01*
X11821726Y-22831649D01*
X11831250Y-22803077D01*
X11840774Y-22755458D01*
X11840774Y-22717363D01*
X11831250Y-22669744D01*
X11821726Y-22641173D01*
X11812202Y-22622125D01*
X11793155Y-22593553D01*
X11783631Y-22584030D01*
X12145536Y-22888792D02*
X12136012Y-22879268D01*
X12116964Y-22850696D01*
X12107440Y-22831649D01*
X12097917Y-22803077D01*
X12088393Y-22755458D01*
X12088393Y-22717363D01*
X12097917Y-22669744D01*
X12107440Y-22641173D01*
X12116964Y-22622125D01*
X12136012Y-22593553D01*
X12145536Y-22584030D01*
X12221726Y-22679268D02*
X12221726Y-22812601D01*
X12221726Y-22698315D02*
X12231250Y-22688792D01*
X12250298Y-22679268D01*
X12278869Y-22679268D01*
X12297917Y-22688792D01*
X12307440Y-22707839D01*
X12307440Y-22812601D01*
X12431250Y-22812601D02*
X12412202Y-22803077D01*
X12402678Y-22793553D01*
X12393155Y-22774506D01*
X12393155Y-22717363D01*
X12402678Y-22698315D01*
X12412202Y-22688792D01*
X12431250Y-22679268D01*
X12459821Y-22679268D01*
X12478869Y-22688792D01*
X12488393Y-22698315D01*
X12497917Y-22717363D01*
X12497917Y-22774506D01*
X12488393Y-22793553D01*
X12478869Y-22803077D01*
X12459821Y-22812601D01*
X12431250Y-22812601D01*
X12555059Y-22679268D02*
X12631250Y-22679268D01*
X12583631Y-22612601D02*
X12583631Y-22784030D01*
X12593155Y-22803077D01*
X12612202Y-22812601D01*
X12631250Y-22812601D01*
X12850298Y-22679268D02*
X12850298Y-22879268D01*
X12850298Y-22688792D02*
X12869345Y-22679268D01*
X12907440Y-22679268D01*
X12926488Y-22688792D01*
X12936012Y-22698315D01*
X12945536Y-22717363D01*
X12945536Y-22774506D01*
X12936012Y-22793553D01*
X12926488Y-22803077D01*
X12907440Y-22812601D01*
X12869345Y-22812601D01*
X12850298Y-22803077D01*
X13059821Y-22812601D02*
X13040774Y-22803077D01*
X13031250Y-22784030D01*
X13031250Y-22612601D01*
X13221726Y-22812601D02*
X13221726Y-22707839D01*
X13212202Y-22688792D01*
X13193155Y-22679268D01*
X13155059Y-22679268D01*
X13136012Y-22688792D01*
X13221726Y-22803077D02*
X13202678Y-22812601D01*
X13155059Y-22812601D01*
X13136012Y-22803077D01*
X13126488Y-22784030D01*
X13126488Y-22764982D01*
X13136012Y-22745934D01*
X13155059Y-22736411D01*
X13202678Y-22736411D01*
X13221726Y-22726887D01*
X13288393Y-22679268D02*
X13364583Y-22679268D01*
X13316964Y-22612601D02*
X13316964Y-22784030D01*
X13326488Y-22803077D01*
X13345536Y-22812601D01*
X13364583Y-22812601D01*
X13507440Y-22803077D02*
X13488393Y-22812601D01*
X13450298Y-22812601D01*
X13431250Y-22803077D01*
X13421726Y-22784030D01*
X13421726Y-22707839D01*
X13431250Y-22688792D01*
X13450298Y-22679268D01*
X13488393Y-22679268D01*
X13507440Y-22688792D01*
X13516964Y-22707839D01*
X13516964Y-22726887D01*
X13421726Y-22745934D01*
X13688393Y-22812601D02*
X13688393Y-22612601D01*
X13688393Y-22803077D02*
X13669345Y-22812601D01*
X13631250Y-22812601D01*
X13612202Y-22803077D01*
X13602678Y-22793553D01*
X13593155Y-22774506D01*
X13593155Y-22717363D01*
X13602678Y-22698315D01*
X13612202Y-22688792D01*
X13631250Y-22679268D01*
X13669345Y-22679268D01*
X13688393Y-22688792D01*
X13764583Y-22888792D02*
X13774107Y-22879268D01*
X13793155Y-22850696D01*
X13802678Y-22831649D01*
X13812202Y-22803077D01*
X13821726Y-22755458D01*
X13821726Y-22717363D01*
X13812202Y-22669744D01*
X13802678Y-22641173D01*
X13793155Y-22622125D01*
X13774107Y-22593553D01*
X13764583Y-22584030D01*
M02*
