M48
; DRILL file {KiCad (6.0.0)} date Mon Jan 10 13:14:14 2022
; FORMAT={-:-/ absolute / metric / decimal}
; #@! TF.CreationDate,2022-01-10T13:14:14-08:00
; #@! TF.GenerationSoftware,Kicad,Pcbnew,(6.0.0)
; #@! TF.FileFunction,Plated,1,2,PTH
FMAT,2
METRIC
; #@! TA.AperFunction,Plated,PTH,ViaDrill
T1C0.300
; #@! TA.AperFunction,Plated,PTH,ComponentDrill
T2C0.600
; #@! TA.AperFunction,Plated,PTH,ComponentDrill
T3C0.700
; #@! TA.AperFunction,Plated,PTH,ComponentDrill
T4C0.800
; #@! TA.AperFunction,Plated,PTH,ComponentDrill
T5C0.900
; #@! TA.AperFunction,Plated,PTH,ComponentDrill
T6C1.000
; #@! TA.AperFunction,Plated,PTH,ComponentDrill
T7C1.100
%
G90
G05
T1
X76.88Y-94.77
X79.97Y-94.78
X81.545Y-101.045
X81.59Y-102.9
X83.76Y-100.49
X83.95Y-99.47
X84.77Y-94.88
X85.4Y-96.31
X85.411Y-101.3
X85.964Y-102.695
X86.19Y-101.047
X86.822Y-103.803
X87.013Y-96.312
X87.7Y-107.7
X88.239Y-105.08
X88.4Y-109.974
X88.4Y-111.026
X88.6Y-95.65
X89.921Y-105.685
X91.54Y-104.94
X92.14Y-104.52
X92.873Y-130.707
X94.1Y-96.6
X94.363Y-130.707
X94.4Y-108.68
X96.639Y-102.301
X96.7Y-101.45
X97.787Y-103.159
X98.513Y-103.147
X99.239Y-103.151
X100.447Y-145.94
X100.447Y-152.09
X101.311Y-100.981
X101.698Y-188.208
X105.597Y-105.283
X105.64Y-188.21
X105.666Y-101.535
X106.124Y-105.8
X106.193Y-102.061
X106.65Y-106.32
X106.719Y-102.591
X107.213Y-106.943
X107.248Y-103.11
X107.774Y-103.646
X107.778Y-107.465
X108.304Y-104.176
X108.323Y-107.995
X108.85Y-114.9
X109.603Y-167.447
X111.18Y-167.48
X111.918Y-130.702
X112.42Y-131.243
X118.37Y-146.83
X119.149Y-188.78
X119.17Y-188.053
X119.525Y-150.144
X124.747Y-167.343
X125.277Y-167.873
X127.25Y-113.127
X131.21Y-131.57
X133.65Y-189.11
X137.425Y-148.764
X138.9Y-150.47
X145.25Y-112.8
X146.0Y-168.194
X147.23Y-86.643
X148.424Y-87.846
X150.31Y-131.92
X156.525Y-148.725
X157.52Y-111.57
X158.21Y-112.016
X158.52Y-150.797
X158.921Y-112.343
X163.96Y-168.52
X169.36Y-131.927
X174.81Y-111.5
X175.5Y-148.764
X175.528Y-112.227
X177.89Y-151.124
X181.44Y-112.227
X184.5Y-168.847
X188.3Y-131.6
X189.5Y-86.643
X190.232Y-87.412
X194.5Y-148.764
X197.075Y-151.45
X200.25Y-111.5
X202.794Y-169.19
X206.97Y-131.273
X207.03Y-127.02
X207.06Y-191.32
X207.756Y-127.031
X208.483Y-127.055
X209.209Y-127.048
X209.935Y-127.061
X210.662Y-127.06
X211.388Y-127.073
X213.46Y-146.6
X215.8Y-148.96
X221.79Y-169.5
X225.5Y-130.947
X225.625Y-128.261
X226.375Y-128.261
X227.228Y-128.258
X227.965Y-128.251
X228.706Y-128.247
X229.435Y-128.232
X232.64Y-145.51
X236.61Y-149.526
X241.0Y-169.826
X244.61Y-130.62
X244.98Y-126.77
X245.706Y-126.782
X246.433Y-126.78
X246.59Y-130.638
X247.159Y-126.767
X247.334Y-130.637
X247.886Y-126.772
X248.077Y-130.635
X248.612Y-126.768
X248.818Y-130.632
X249.339Y-126.77
X249.56Y-130.629
X250.065Y-126.785
X250.295Y-130.62
X250.79Y-126.832
X251.022Y-130.62
X251.46Y-147.167
X251.748Y-130.62
X252.475Y-130.62
X253.35Y-149.2
X254.23Y-167.537
X261.199Y-200.257
X263.3Y-130.294
X263.32Y-128.261
X264.062Y-128.259
X264.799Y-128.251
X265.16Y-130.294
X265.525Y-128.261
X265.887Y-130.294
X266.613Y-130.294
X267.2Y-86.644
X267.34Y-130.294
X270.8Y-147.167
X272.475Y-148.873
X274.84Y-187.45
X278.539Y-166.441
X280.27Y-199.931
X281.55Y-129.967
X288.453Y-166.716
X289.18Y-166.716
X289.75Y-147.167
X289.906Y-166.716
X290.65Y-166.716
X290.67Y-163.57
X291.1Y-148.547
X291.397Y-163.57
X291.413Y-166.716
X292.123Y-163.591
X292.14Y-166.716
X292.848Y-163.625
X292.876Y-166.726
X293.575Y-163.617
X293.616Y-166.73
X294.09Y-188.046
X294.301Y-163.622
X294.358Y-166.732
X295.028Y-163.622
X295.754Y-163.606
X296.481Y-163.598
X298.98Y-128.261
X299.3Y-199.604
X299.923Y-128.261
X300.65Y-128.261
X300.884Y-129.985
X301.403Y-128.261
X301.628Y-129.984
X302.13Y-128.261
X302.37Y-129.991
X302.88Y-128.261
X303.12Y-129.996
X303.628Y-128.24
X303.874Y-129.976
X304.373Y-128.242
X304.61Y-129.967
X305.07Y-170.0
X305.119Y-128.242
X305.337Y-129.967
X306.063Y-129.967
X306.79Y-129.967
X307.516Y-129.958
X308.83Y-147.167
X311.05Y-149.58
X311.76Y-187.72
X316.61Y-199.278
X317.246Y-198.926
X317.772Y-198.418
X319.093Y-129.337
X328.51Y-150.74
X330.65Y-187.39
X331.161Y-85.992
X331.29Y-170.02
X331.62Y-85.36
X331.975Y-147.167
X341.584Y-93.896
X345.56Y-131.91
X350.3Y-186.98
X350.33Y-170.02
T3
X97.24Y-86.24
X97.24Y-91.32
X99.36Y-92.74
X104.44Y-92.74
T4
X113.74Y-97.19
X113.74Y-104.81
X116.24Y-96.19
X116.24Y-103.81
X118.74Y-95.19
X118.74Y-102.81
X121.24Y-94.18
X121.24Y-101.8
X123.74Y-93.18
X123.74Y-100.8
X126.24Y-92.19
X126.24Y-99.81
X128.74Y-91.19
X128.74Y-98.81
X131.24Y-97.19
X131.24Y-104.81
X133.74Y-96.19
X133.74Y-103.81
X136.24Y-95.19
X136.24Y-102.81
X138.74Y-94.18
X138.74Y-101.8
X141.24Y-93.18
X141.24Y-100.8
X143.74Y-92.19
X143.74Y-99.81
X146.24Y-91.19
X146.24Y-98.81
X155.98Y-97.19
X155.98Y-104.81
X158.49Y-96.19
X158.49Y-103.81
X160.99Y-95.19
X160.99Y-102.81
X163.49Y-94.19
X163.49Y-101.81
X165.99Y-93.19
X165.99Y-100.81
X168.49Y-92.19
X168.49Y-99.81
X170.99Y-91.19
X170.99Y-98.81
X173.49Y-97.19
X173.49Y-104.81
X175.99Y-96.19
X175.99Y-103.81
X178.49Y-95.19
X178.49Y-102.81
X180.99Y-94.2
X180.99Y-101.82
X183.49Y-93.09
X183.49Y-100.71
X185.99Y-92.09
X185.99Y-99.71
X188.49Y-91.09
X188.49Y-98.71
X198.22Y-97.17
X198.22Y-104.79
X200.73Y-96.19
X200.73Y-103.81
X203.23Y-95.18
X203.23Y-102.8
X205.73Y-94.18
X205.73Y-101.8
X208.23Y-93.18
X208.23Y-100.8
X210.73Y-92.18
X210.73Y-99.8
X213.23Y-97.19
X213.23Y-104.81
X215.73Y-96.19
X215.73Y-103.81
X218.23Y-95.19
X218.23Y-102.81
X220.73Y-94.2
X220.73Y-101.82
X223.23Y-93.19
X223.23Y-100.81
X225.73Y-92.19
X225.73Y-99.81
X228.27Y-91.21
X228.27Y-98.83
X238.0Y-97.19
X238.0Y-104.81
X240.5Y-96.2
X240.5Y-103.82
X243.0Y-95.19
X243.0Y-102.81
X245.5Y-94.19
X245.5Y-101.81
X248.0Y-93.19
X248.0Y-100.81
X250.5Y-92.19
X250.5Y-99.81
X253.0Y-97.19
X253.0Y-104.81
X255.5Y-96.19
X255.5Y-103.81
X258.0Y-95.19
X258.0Y-102.81
X260.5Y-94.19
X260.5Y-101.81
X263.0Y-93.19
X263.0Y-100.81
X265.5Y-92.19
X265.5Y-99.81
X268.0Y-91.18
X268.0Y-98.8
X277.74Y-97.19
X277.74Y-104.81
X280.24Y-96.19
X280.24Y-103.81
X282.74Y-95.19
X282.74Y-102.81
X285.24Y-94.19
X285.24Y-101.81
X287.74Y-93.19
X287.74Y-100.81
X290.24Y-92.19
X290.24Y-99.81
X292.74Y-91.19
X292.74Y-98.81
X295.25Y-90.19
X295.25Y-97.81
X297.77Y-89.19
X297.77Y-96.81
T5
X101.05Y-87.585
X101.05Y-90.125
T6
X76.04Y-99.28
X76.04Y-101.82
X76.04Y-104.36
X78.58Y-99.28
X78.58Y-101.82
X78.58Y-104.36
X345.42Y-91.32
X345.42Y-93.86
X345.42Y-96.4
X345.42Y-98.94
T7
X87.1Y-86.46
X87.1Y-90.96
X93.6Y-86.46
X93.6Y-90.96
T2
X73.82Y-86.824G85X73.82Y-86.224
G05
X73.82Y-91.254G85X73.82Y-90.154
G05
X82.46Y-86.824G85X82.46Y-86.224
G05
X82.46Y-91.254G85X82.46Y-90.154
G05
T0
M30
