M48
; DRILL file {KiCad (6.0.0)} date Sat Sep 10 03:34:02 2022
; FORMAT={-:-/ absolute / metric / decimal}
; #@! TF.CreationDate,2022-09-10T03:34:02-07:00
; #@! TF.GenerationSoftware,Kicad,Pcbnew,(6.0.0)
; #@! TF.FileFunction,Plated,1,2,PTH
FMAT,2
METRIC
; #@! TA.AperFunction,Plated,PTH,ViaDrill
T1C0.300
; #@! TA.AperFunction,Plated,PTH,ViaDrill
T2C0.400
; #@! TA.AperFunction,Plated,PTH,ComponentDrill
T3C0.600
; #@! TA.AperFunction,Plated,PTH,ComponentDrill
T4C0.800
; #@! TA.AperFunction,Plated,PTH,ComponentDrill
T5C0.900
; #@! TA.AperFunction,Plated,PTH,ComponentDrill
T6C1.000
; #@! TA.AperFunction,Plated,PTH,ComponentDrill
T7C1.100
%
G90
G05
T1
X76.075Y-103.521
X76.125Y-102.571
X76.15Y-98.221
X76.95Y-96.475
X77.025Y-105.075
X78.325Y-97.075
X78.85Y-94.621
X81.775Y-94.046
X83.375Y-92.425
X83.825Y-105.875
X85.525Y-114.8
X85.55Y-105.071
X85.9Y-96.995
X86.05Y-188.975
X86.225Y-93.525
X86.775Y-97.671
X87.175Y-96.55
X87.575Y-99.371
X87.6Y-100.871
X88.385Y-98.246
X88.475Y-131.9
X89.76Y-97.696
X89.95Y-94.673
X90.85Y-150.975
X91.163Y-89.163
X91.46Y-102.596
X95.55Y-169.95
X97.125Y-106.425
X104.725Y-114.775
X109.85Y-189.1
X111.725Y-97.5
X112.275Y-131.925
X116.975Y-151.0
X121.725Y-112.95
X126.45Y-170.025
X131.225Y-131.9
X133.725Y-189.05
X136.1Y-150.925
X140.825Y-112.9
X145.575Y-170.05
X150.35Y-131.85
X155.05Y-150.925
X159.775Y-112.85
X164.575Y-170.0
X169.375Y-131.85
X174.125Y-151.0
X174.35Y-111.274
X181.012Y-111.8
X181.012Y-112.6
X181.012Y-113.327
X181.012Y-114.053
X181.012Y-114.798
X181.012Y-115.525
X181.012Y-116.275
X181.012Y-117.025
X183.7Y-170.05
X187.7Y-110.609
X188.4Y-131.9
X193.175Y-150.975
X202.1Y-117.3
X202.725Y-170.025
X204.353Y-110.283
X205.125Y-189.075
X207.475Y-131.9
X212.225Y-150.95
X219.438Y-117.35
X221.725Y-169.975
X224.409Y-109.956
X225.517Y-128.283
X225.9Y-131.875
X226.031Y-128.807
X226.729Y-129.496
X227.375Y-130.249
X228.155Y-130.921
X228.775Y-131.575
X231.25Y-150.975
X232.57Y-128.305
X233.12Y-128.855
X233.775Y-129.5
X233.926Y-130.251
X233.926Y-131.025
X233.926Y-131.752
X240.1Y-117.35
X240.8Y-169.95
X240.9Y-109.644
X245.575Y-131.925
X250.325Y-150.95
X257.485Y-117.325
X259.875Y-170.0
X263.388Y-109.313
X263.707Y-128.418
X264.175Y-128.974
X264.625Y-131.95
X264.775Y-129.5
X265.45Y-130.275
X265.75Y-145.9
X269.375Y-150.975
X271.825Y-149.702
X271.826Y-148.225
X271.826Y-148.975
X271.952Y-130.5
X271.952Y-131.227
X271.952Y-132.725
X271.952Y-131.953
X274.2Y-189.05
X276.797Y-148.2
X276.797Y-148.927
X276.797Y-149.653
X278.375Y-117.425
X278.9Y-170.025
X281.05Y-108.977
X283.675Y-131.925
X288.425Y-150.95
X293.2Y-189.05
X293.786Y-117.316
X294.675Y-164.925
X295.95Y-88.425
X297.452Y-108.475
X302.7Y-131.9
X303.725Y-145.75
X305.1Y-170.025
X305.243Y-130.507
X305.956Y-131.219
X307.45Y-150.95
X307.511Y-148.125
X307.511Y-167.35
X307.511Y-168.15
X310.134Y-130.5
X310.134Y-131.227
X311.176Y-167.375
X311.176Y-168.15
X311.225Y-148.125
X312.225Y-189.075
X321.75Y-131.925
X328.025Y-115.025
X331.25Y-189.075
X331.325Y-170.025
X338.325Y-150.925
X345.575Y-131.95
X350.325Y-189.025
X350.375Y-170.025
T2
X127.325Y-95.925
X166.075Y-112.9
X172.0Y-113.05
T4
X113.74Y-97.19
X113.74Y-104.81
X116.24Y-96.19
X116.24Y-103.81
X118.74Y-95.19
X118.74Y-102.81
X121.24Y-94.18
X121.24Y-101.8
X123.74Y-93.18
X123.74Y-100.8
X126.24Y-92.19
X126.24Y-99.81
X128.74Y-91.19
X128.74Y-98.81
X131.24Y-97.19
X131.24Y-104.81
X133.74Y-96.19
X133.74Y-103.81
X136.24Y-95.19
X136.24Y-102.81
X138.74Y-94.18
X138.74Y-101.8
X141.24Y-93.18
X141.24Y-100.8
X143.74Y-92.19
X143.74Y-99.81
X146.24Y-91.19
X146.24Y-98.81
X155.98Y-97.19
X155.98Y-104.81
X158.49Y-96.19
X158.49Y-103.81
X160.99Y-95.19
X160.99Y-102.81
X163.49Y-94.19
X163.49Y-101.81
X165.99Y-93.19
X165.99Y-100.81
X168.49Y-92.19
X168.49Y-99.81
X170.99Y-91.19
X170.99Y-98.81
X173.49Y-97.19
X173.49Y-104.81
X175.99Y-96.19
X175.99Y-103.81
X178.49Y-95.19
X178.49Y-102.81
X180.99Y-94.2
X180.99Y-101.82
X183.49Y-93.09
X183.49Y-100.71
X185.99Y-92.09
X185.99Y-99.71
X188.49Y-91.09
X188.49Y-98.71
X198.22Y-97.17
X198.22Y-104.79
X200.73Y-96.19
X200.73Y-103.81
X203.23Y-95.18
X203.23Y-102.8
X205.73Y-94.18
X205.73Y-101.8
X208.23Y-93.18
X208.23Y-100.8
X210.73Y-92.18
X210.73Y-99.8
X213.23Y-97.19
X213.23Y-104.81
X215.73Y-96.19
X215.73Y-103.81
X218.23Y-95.19
X218.23Y-102.81
X220.73Y-94.2
X220.73Y-101.82
X223.23Y-93.19
X223.23Y-100.81
X225.73Y-92.19
X225.73Y-99.81
X228.27Y-91.21
X228.27Y-98.83
X238.0Y-97.19
X238.0Y-104.81
X240.5Y-96.2
X240.5Y-103.82
X243.0Y-95.19
X243.0Y-102.81
X245.5Y-94.19
X245.5Y-101.81
X248.0Y-93.19
X248.0Y-100.81
X250.5Y-92.19
X250.5Y-99.81
X253.0Y-97.19
X253.0Y-104.81
X255.5Y-96.19
X255.5Y-103.81
X258.0Y-95.19
X258.0Y-102.81
X260.5Y-94.19
X260.5Y-101.81
X263.0Y-93.19
X263.0Y-100.81
X265.5Y-92.19
X265.5Y-99.81
X268.0Y-91.18
X268.0Y-98.8
X277.74Y-97.19
X277.74Y-104.81
X280.24Y-96.19
X280.24Y-103.81
X282.74Y-95.19
X282.74Y-102.81
X285.24Y-94.19
X285.24Y-101.81
X287.74Y-93.19
X287.74Y-100.81
X290.24Y-92.19
X290.24Y-99.81
X292.74Y-91.19
X292.74Y-98.81
X295.25Y-90.19
X295.25Y-97.81
X297.77Y-89.19
X297.77Y-96.81
T5
X88.55Y-86.0
X88.55Y-88.54
T6
X71.375Y-99.0
X71.375Y-101.54
X92.82Y-86.625
X92.82Y-89.165
X95.36Y-86.625
X95.36Y-89.165
X97.9Y-86.625
X97.9Y-89.165
X345.65Y-92.925
X345.65Y-95.465
X345.65Y-98.005
X345.65Y-100.545
T7
X101.275Y-86.325
X101.275Y-90.825
X104.635Y-106.8
X107.175Y-106.8
X107.775Y-86.325
X107.775Y-90.825
X109.715Y-106.8
T3
X76.63Y-85.511G85X76.63Y-86.111
G05
X76.63Y-89.441G85X76.63Y-90.541
G05
X85.27Y-85.511G85X85.27Y-86.111
G05
X85.27Y-89.441G85X85.27Y-90.541
G05
T0
M30
