%TF.GenerationSoftware,KiCad,Pcbnew,(6.0.0)*%
%TF.CreationDate,2022-08-26T03:08:24-07:00*%
%TF.ProjectId,HandwireCustom,48616e64-7769-4726-9543-7573746f6d2e,rev?*%
%TF.SameCoordinates,Original*%
%TF.FileFunction,Soldermask,Bot*%
%TF.FilePolarity,Negative*%
%FSLAX46Y46*%
G04 Gerber Fmt 4.6, Leading zero omitted, Abs format (unit mm)*
G04 Created by KiCad (PCBNEW (6.0.0)) date 2022-08-26 03:08:24*
%MOMM*%
%LPD*%
G01*
G04 APERTURE LIST*
%ADD10C,3.000000*%
%ADD11C,1.750000*%
%ADD12C,3.987800*%
%ADD13R,2.550000X2.500000*%
%ADD14R,1.600000X1.600000*%
%ADD15O,1.600000X1.600000*%
%ADD16C,3.048000*%
%ADD17R,1.800000X1.800000*%
%ADD18C,1.800000*%
%ADD19C,1.400000*%
%ADD20O,1.400000X1.400000*%
%ADD21C,0.650000*%
%ADD22O,1.000000X1.600000*%
%ADD23O,1.000000X2.100000*%
%ADD24R,1.700000X1.700000*%
%ADD25O,1.700000X1.700000*%
%ADD26C,2.200000*%
%ADD27C,2.000000*%
G04 APERTURE END LIST*
D10*
%TO.C,K36*%
X218440000Y-171926250D03*
X212090000Y-174466250D03*
D11*
X210820000Y-177006250D03*
X220980000Y-177006250D03*
D12*
X215900000Y-177006250D03*
D13*
X208815000Y-174466250D03*
X221742000Y-171926250D03*
%TD*%
D14*
%TO.C,D50*%
X263000000Y-93190000D03*
D15*
X263000000Y-100810000D03*
%TD*%
D11*
%TO.C,K13*%
X340042500Y-119856250D03*
D16*
X323024500Y-112871250D03*
D11*
X329882500Y-119856250D03*
D10*
X331152500Y-117316250D03*
X337502500Y-114776250D03*
D12*
X334962500Y-119856250D03*
X346900500Y-128111250D03*
X323024500Y-128111250D03*
D16*
X346900500Y-112871250D03*
D13*
X327877500Y-117316250D03*
X340804500Y-114776250D03*
%TD*%
D11*
%TO.C,K2*%
X120967500Y-119856250D03*
D12*
X115887500Y-119856250D03*
D10*
X112077500Y-117316250D03*
D11*
X110807500Y-119856250D03*
D10*
X118427500Y-114776250D03*
D13*
X108802500Y-117316250D03*
X121729500Y-114776250D03*
%TD*%
D14*
%TO.C,D28*%
X285240000Y-94190000D03*
D15*
X285240000Y-101810000D03*
%TD*%
D14*
%TO.C,D52*%
X141240000Y-93180000D03*
D15*
X141240000Y-100800000D03*
%TD*%
D14*
%TO.C,D41*%
X287740000Y-93190000D03*
D15*
X287740000Y-100810000D03*
%TD*%
D14*
%TO.C,D27*%
X250500000Y-92190000D03*
D15*
X250500000Y-99810000D03*
%TD*%
D14*
%TO.C,D59*%
X146240000Y-91190000D03*
D15*
X146240000Y-98810000D03*
%TD*%
D14*
%TO.C,D63*%
X297770000Y-89190000D03*
D15*
X297770000Y-96810000D03*
%TD*%
D14*
%TO.C,D47*%
X138740000Y-94180000D03*
D15*
X138740000Y-101800000D03*
%TD*%
D14*
%TO.C,D55*%
X265500000Y-92190000D03*
D15*
X265500000Y-99810000D03*
%TD*%
D14*
%TO.C,D54*%
X225730000Y-92190000D03*
D15*
X225730000Y-99810000D03*
%TD*%
D14*
%TO.C,D36*%
X255500000Y-96190000D03*
D15*
X255500000Y-103810000D03*
%TD*%
D12*
%TO.C,K16*%
X201612500Y-138906250D03*
D10*
X204152500Y-133826250D03*
D11*
X196532500Y-138906250D03*
X206692500Y-138906250D03*
D10*
X197802500Y-136366250D03*
D13*
X194527500Y-136366250D03*
X207454500Y-133826250D03*
%TD*%
D11*
%TO.C,K113*%
X334645000Y-138906250D03*
D10*
X335915000Y-136366250D03*
D12*
X339725000Y-138906250D03*
D11*
X344805000Y-138906250D03*
D10*
X342265000Y-133826250D03*
D13*
X332640000Y-136366250D03*
X345567000Y-133826250D03*
%TD*%
D14*
%TO.C,D14*%
X243000000Y-95190000D03*
D15*
X243000000Y-102810000D03*
%TD*%
D11*
%TO.C,K211*%
X296545000Y-157956250D03*
D12*
X301625000Y-157956250D03*
D10*
X297815000Y-155416250D03*
X304165000Y-152876250D03*
D11*
X306705000Y-157956250D03*
D13*
X294540000Y-155416250D03*
X307467000Y-152876250D03*
%TD*%
D14*
%TO.C,D53*%
X183490000Y-93090000D03*
D15*
X183490000Y-100710000D03*
%TD*%
D14*
%TO.C,D58*%
X185990000Y-92090000D03*
D15*
X185990000Y-99710000D03*
%TD*%
D14*
%TO.C,D20*%
X123740000Y-93180000D03*
D15*
X123740000Y-100800000D03*
%TD*%
D14*
%TO.C,D21*%
X165990000Y-93190000D03*
D15*
X165990000Y-100810000D03*
%TD*%
D11*
%TO.C,K9*%
X244157500Y-119856250D03*
X254317500Y-119856250D03*
D10*
X245427500Y-117316250D03*
D12*
X249237500Y-119856250D03*
D10*
X251777500Y-114776250D03*
D13*
X242152500Y-117316250D03*
X255079500Y-114776250D03*
%TD*%
D10*
%TO.C,KK10*%
X85090000Y-133826250D03*
D11*
X87630000Y-138906250D03*
D10*
X78740000Y-136366250D03*
D11*
X77470000Y-138906250D03*
D12*
X82550000Y-138906250D03*
D13*
X75465000Y-136366250D03*
X88392000Y-133826250D03*
%TD*%
D17*
%TO.C,D64*%
X101050000Y-90125000D03*
D18*
X101050000Y-87585000D03*
%TD*%
D14*
%TO.C,D43*%
X178490000Y-95190000D03*
D15*
X178490000Y-102810000D03*
%TD*%
D10*
%TO.C,K25*%
X189865000Y-152876250D03*
D11*
X192405000Y-157956250D03*
X182245000Y-157956250D03*
D10*
X183515000Y-155416250D03*
D12*
X187325000Y-157956250D03*
D13*
X180240000Y-155416250D03*
X193167000Y-152876250D03*
%TD*%
D10*
%TO.C,K14*%
X159702500Y-136366250D03*
D11*
X168592500Y-138906250D03*
D12*
X163512500Y-138906250D03*
D11*
X158432500Y-138906250D03*
D10*
X166052500Y-133826250D03*
D13*
X156427500Y-136366250D03*
X169354500Y-133826250D03*
%TD*%
D11*
%TO.C,K38*%
X248920000Y-177006250D03*
X259080000Y-177006250D03*
D10*
X250190000Y-174466250D03*
D12*
X254000000Y-177006250D03*
D10*
X256540000Y-171926250D03*
D13*
X246915000Y-174466250D03*
X259842000Y-171926250D03*
%TD*%
D14*
%TO.C,D15*%
X282740000Y-95190000D03*
D15*
X282740000Y-102810000D03*
%TD*%
D14*
%TO.C,D16*%
X121240000Y-94180000D03*
D15*
X121240000Y-101800000D03*
%TD*%
D11*
%TO.C,K39*%
X267970000Y-177006250D03*
D12*
X273050000Y-177006250D03*
D11*
X278130000Y-177006250D03*
D10*
X275590000Y-171926250D03*
X269240000Y-174466250D03*
D13*
X265965000Y-174466250D03*
X278892000Y-171926250D03*
%TD*%
D12*
%TO.C,K0*%
X77787500Y-119856250D03*
D10*
X73977500Y-117316250D03*
D11*
X82867500Y-119856250D03*
D10*
X80327500Y-114776250D03*
D11*
X72707500Y-119856250D03*
D13*
X70702500Y-117316250D03*
X83629500Y-114776250D03*
%TD*%
D14*
%TO.C,D1*%
X113740000Y-97190000D03*
D15*
X113740000Y-104810000D03*
%TD*%
D19*
%TO.C,R5*%
X99360000Y-92740000D03*
D20*
X104440000Y-92740000D03*
%TD*%
D14*
%TO.C,D61*%
X228270000Y-91210000D03*
D15*
X228270000Y-98830000D03*
%TD*%
D11*
%TO.C,K45*%
X204311250Y-196056250D03*
D16*
X149231350Y-203041250D03*
D12*
X199231250Y-196056250D03*
X149231350Y-187801250D03*
D10*
X201771250Y-190976250D03*
D16*
X249231150Y-203041250D03*
D10*
X195421250Y-193516250D03*
D11*
X194151250Y-196056250D03*
D12*
X249231150Y-187801250D03*
D13*
X192146250Y-193516250D03*
X205073250Y-190976250D03*
%TD*%
D14*
%TO.C,D5*%
X277740000Y-97190000D03*
D15*
X277740000Y-104810000D03*
%TD*%
D10*
%TO.C,K33*%
X161290000Y-171926250D03*
D11*
X163830000Y-177006250D03*
X153670000Y-177006250D03*
D10*
X154940000Y-174466250D03*
D12*
X158750000Y-177006250D03*
D13*
X151665000Y-174466250D03*
X164592000Y-171926250D03*
%TD*%
D11*
%TO.C,K23*%
X154305000Y-157956250D03*
D12*
X149225000Y-157956250D03*
D10*
X151765000Y-152876250D03*
D11*
X144145000Y-157956250D03*
D10*
X145415000Y-155416250D03*
D13*
X142140000Y-155416250D03*
X155067000Y-152876250D03*
%TD*%
D14*
%TO.C,D57*%
X143740000Y-92190000D03*
D15*
X143740000Y-99810000D03*
%TD*%
D14*
%TO.C,D35*%
X215730000Y-96190000D03*
D15*
X215730000Y-103810000D03*
%TD*%
D10*
%TO.C,K412*%
X321627500Y-193516250D03*
X327977500Y-190976250D03*
D11*
X320357500Y-196056250D03*
X330517500Y-196056250D03*
D12*
X325437500Y-196056250D03*
D13*
X318352500Y-193516250D03*
X331279500Y-190976250D03*
%TD*%
D11*
%TO.C,K3*%
X129857500Y-119856250D03*
X140017500Y-119856250D03*
D12*
X134937500Y-119856250D03*
D10*
X137477500Y-114776250D03*
X131127500Y-117316250D03*
D13*
X127852500Y-117316250D03*
X140779500Y-114776250D03*
%TD*%
D11*
%TO.C,K29*%
X268605000Y-157956250D03*
D10*
X266065000Y-152876250D03*
D12*
X263525000Y-157956250D03*
D11*
X258445000Y-157956250D03*
D10*
X259715000Y-155416250D03*
D13*
X256440000Y-155416250D03*
X269367000Y-152876250D03*
%TD*%
D14*
%TO.C,D25*%
X168490000Y-92190000D03*
D15*
X168490000Y-99810000D03*
%TD*%
D14*
%TO.C,D24*%
X126240000Y-92190000D03*
D15*
X126240000Y-99810000D03*
%TD*%
D14*
%TO.C,D13*%
X203230000Y-95180000D03*
D15*
X203230000Y-102800000D03*
%TD*%
D21*
%TO.C,USB1*%
X75250000Y-90173750D03*
X81030000Y-90173750D03*
D22*
X82460000Y-86523750D03*
X73820000Y-86523750D03*
D23*
X82460000Y-90703750D03*
X73820000Y-90703750D03*
%TD*%
D24*
%TO.C,J2*%
X345420000Y-91320000D03*
D25*
X345420000Y-93860000D03*
X345420000Y-96400000D03*
X345420000Y-98940000D03*
%TD*%
D14*
%TO.C,D2*%
X155980000Y-97190000D03*
D15*
X155980000Y-104810000D03*
%TD*%
D12*
%TO.C,K5*%
X173037500Y-119856250D03*
D11*
X178117500Y-119856250D03*
D10*
X175577500Y-114776250D03*
D11*
X167957500Y-119856250D03*
D10*
X169227500Y-117316250D03*
D13*
X165952500Y-117316250D03*
X178879500Y-114776250D03*
%TD*%
D12*
%TO.C,K41*%
X103981250Y-196056250D03*
D10*
X100171250Y-193516250D03*
X106521250Y-190976250D03*
D11*
X98901250Y-196056250D03*
X109061250Y-196056250D03*
D13*
X96896250Y-193516250D03*
X109823250Y-190976250D03*
%TD*%
D14*
%TO.C,D38*%
X175990000Y-96190000D03*
D15*
X175990000Y-103810000D03*
%TD*%
D14*
%TO.C,D39*%
X218230000Y-95190000D03*
D15*
X218230000Y-102810000D03*
%TD*%
D14*
%TO.C,D46*%
X290240000Y-92190000D03*
D15*
X290240000Y-99810000D03*
%TD*%
D12*
%TO.C,K31*%
X120650000Y-177006250D03*
D10*
X123190000Y-171926250D03*
X116840000Y-174466250D03*
D11*
X115570000Y-177006250D03*
X125730000Y-177006250D03*
D13*
X113565000Y-174466250D03*
X126492000Y-171926250D03*
%TD*%
D14*
%TO.C,D7*%
X158490000Y-96190000D03*
D15*
X158490000Y-103810000D03*
%TD*%
D26*
%TO.C,H3*%
X70750000Y-203250000D03*
%TD*%
D24*
%TO.C,J1*%
X76040000Y-99280000D03*
D25*
X78580000Y-99280000D03*
X76040000Y-101820000D03*
X78580000Y-101820000D03*
X76040000Y-104360000D03*
X78580000Y-104360000D03*
%TD*%
D14*
%TO.C,D10*%
X280240000Y-96190000D03*
D15*
X280240000Y-103810000D03*
%TD*%
D14*
%TO.C,D3*%
X198220000Y-97170000D03*
D15*
X198220000Y-104790000D03*
%TD*%
D14*
%TO.C,D18*%
X205730000Y-94180000D03*
D15*
X205730000Y-101800000D03*
%TD*%
D14*
%TO.C,D29*%
X128740000Y-91190000D03*
D15*
X128740000Y-98810000D03*
%TD*%
D14*
%TO.C,D4*%
X238000000Y-97190000D03*
D15*
X238000000Y-104810000D03*
%TD*%
D11*
%TO.C,K22*%
X125095000Y-157956250D03*
D10*
X132715000Y-152876250D03*
X126365000Y-155416250D03*
D12*
X130175000Y-157956250D03*
D11*
X135255000Y-157956250D03*
D13*
X123090000Y-155416250D03*
X136017000Y-152876250D03*
%TD*%
D14*
%TO.C,D12*%
X160990000Y-95190000D03*
D15*
X160990000Y-102810000D03*
%TD*%
D10*
%TO.C,K15*%
X178752500Y-136366250D03*
D12*
X182562500Y-138906250D03*
D10*
X185102500Y-133826250D03*
D11*
X187642500Y-138906250D03*
X177482500Y-138906250D03*
D13*
X175477500Y-136366250D03*
X188404500Y-133826250D03*
%TD*%
D14*
%TO.C,D9*%
X240500000Y-96200000D03*
D15*
X240500000Y-103820000D03*
%TD*%
D14*
%TO.C,D40*%
X258000000Y-95190000D03*
D15*
X258000000Y-102810000D03*
%TD*%
D14*
%TO.C,D42*%
X136240000Y-95190000D03*
D15*
X136240000Y-102810000D03*
%TD*%
D12*
%TO.C,K24*%
X168275000Y-157956250D03*
D10*
X170815000Y-152876250D03*
D11*
X163195000Y-157956250D03*
D10*
X164465000Y-155416250D03*
D11*
X173355000Y-157956250D03*
D13*
X161190000Y-155416250D03*
X174117000Y-152876250D03*
%TD*%
D11*
%TO.C,K11*%
X292417500Y-119856250D03*
D12*
X287337500Y-119856250D03*
D11*
X282257500Y-119856250D03*
D10*
X289877500Y-114776250D03*
X283527500Y-117316250D03*
D13*
X280252500Y-117316250D03*
X293179500Y-114776250D03*
%TD*%
D14*
%TO.C,D23*%
X248000000Y-93190000D03*
D15*
X248000000Y-100810000D03*
%TD*%
D12*
%TO.C,K310*%
X299243750Y-177006250D03*
D11*
X304323750Y-177006250D03*
D10*
X301783750Y-171926250D03*
X295433750Y-174466250D03*
D11*
X294163750Y-177006250D03*
D13*
X292158750Y-174466250D03*
X305085750Y-171926250D03*
%TD*%
D11*
%TO.C,K6*%
X187007500Y-119856250D03*
D10*
X194627500Y-114776250D03*
D11*
X197167500Y-119856250D03*
D10*
X188277500Y-117316250D03*
D12*
X192087500Y-119856250D03*
D13*
X185002500Y-117316250D03*
X197929500Y-114776250D03*
%TD*%
D12*
%TO.C,K20*%
X84931250Y-157956250D03*
D11*
X79851250Y-157956250D03*
D10*
X81121250Y-155416250D03*
X87471250Y-152876250D03*
D11*
X90011250Y-157956250D03*
D13*
X77846250Y-155416250D03*
X90773250Y-152876250D03*
%TD*%
D10*
%TO.C,K8*%
X232727500Y-114776250D03*
X226377500Y-117316250D03*
D12*
X230187500Y-119856250D03*
D11*
X225107500Y-119856250D03*
X235267500Y-119856250D03*
D13*
X223102500Y-117316250D03*
X236029500Y-114776250D03*
%TD*%
D12*
%TO.C,K27*%
X225425000Y-157956250D03*
D10*
X221615000Y-155416250D03*
D11*
X220345000Y-157956250D03*
D10*
X227965000Y-152876250D03*
D11*
X230505000Y-157956250D03*
D13*
X218340000Y-155416250D03*
X231267000Y-152876250D03*
%TD*%
D14*
%TO.C,D8*%
X200730000Y-96190000D03*
D15*
X200730000Y-103810000D03*
%TD*%
D14*
%TO.C,D60*%
X188490000Y-91090000D03*
D15*
X188490000Y-98710000D03*
%TD*%
D14*
%TO.C,D33*%
X131240000Y-97190000D03*
D15*
X131240000Y-104810000D03*
%TD*%
D14*
%TO.C,D6*%
X116240000Y-96190000D03*
D15*
X116240000Y-103810000D03*
%TD*%
D27*
%TO.C,SW1*%
X87100000Y-86460000D03*
X93600000Y-86460000D03*
X87100000Y-90960000D03*
X93600000Y-90960000D03*
%TD*%
D11*
%TO.C,K37*%
X229870000Y-177006250D03*
D10*
X231140000Y-174466250D03*
D11*
X240030000Y-177006250D03*
D12*
X234950000Y-177006250D03*
D10*
X237490000Y-171926250D03*
D13*
X227865000Y-174466250D03*
X240792000Y-171926250D03*
%TD*%
D12*
%TO.C,K111*%
X296862500Y-138906250D03*
D10*
X299402500Y-133826250D03*
D11*
X301942500Y-138906250D03*
D10*
X293052500Y-136366250D03*
D11*
X291782500Y-138906250D03*
D13*
X289777500Y-136366250D03*
X302704500Y-133826250D03*
%TD*%
D14*
%TO.C,D22*%
X208230000Y-93180000D03*
D15*
X208230000Y-100800000D03*
%TD*%
D11*
%TO.C,K17*%
X225742500Y-138906250D03*
D12*
X220662500Y-138906250D03*
D10*
X223202500Y-133826250D03*
X216852500Y-136366250D03*
D11*
X215582500Y-138906250D03*
D13*
X213577500Y-136366250D03*
X226504500Y-133826250D03*
%TD*%
D14*
%TO.C,D11*%
X118740000Y-95190000D03*
D15*
X118740000Y-102810000D03*
%TD*%
D10*
%TO.C,K313*%
X340677500Y-174466250D03*
D12*
X344487500Y-177006250D03*
D10*
X347027500Y-171926250D03*
D11*
X349567500Y-177006250D03*
X339407500Y-177006250D03*
D13*
X337402500Y-174466250D03*
X350329500Y-171926250D03*
%TD*%
D11*
%TO.C,KK11*%
X101282500Y-138906250D03*
D12*
X106362500Y-138906250D03*
D10*
X102552500Y-136366250D03*
X108902500Y-133826250D03*
D11*
X111442500Y-138906250D03*
D13*
X99277500Y-136366250D03*
X112204500Y-133826250D03*
%TD*%
D12*
%TO.C,K413*%
X344487500Y-196056250D03*
D11*
X339407500Y-196056250D03*
X349567500Y-196056250D03*
D10*
X347027500Y-190976250D03*
X340677500Y-193516250D03*
D13*
X337402500Y-193516250D03*
X350329500Y-190976250D03*
%TD*%
D10*
%TO.C,K7*%
X207327500Y-117316250D03*
D11*
X206057500Y-119856250D03*
D12*
X211137500Y-119856250D03*
D10*
X213677500Y-114776250D03*
D11*
X216217500Y-119856250D03*
D13*
X204052500Y-117316250D03*
X216979500Y-114776250D03*
%TD*%
D14*
%TO.C,D48*%
X180990000Y-94200000D03*
D15*
X180990000Y-101820000D03*
%TD*%
D12*
%TO.C,K213*%
X320643250Y-166211250D03*
D10*
X335121250Y-152876250D03*
D16*
X344519250Y-150971250D03*
D10*
X328771250Y-155416250D03*
D12*
X332581250Y-157956250D03*
X344519250Y-166211250D03*
D11*
X337661250Y-157956250D03*
D16*
X320643250Y-150971250D03*
D11*
X327501250Y-157956250D03*
D13*
X325496250Y-155416250D03*
X338423250Y-152876250D03*
%TD*%
D11*
%TO.C,K112*%
X310832500Y-138906250D03*
D10*
X312102500Y-136366250D03*
D12*
X315912500Y-138906250D03*
D10*
X318452500Y-133826250D03*
D11*
X320992500Y-138906250D03*
D13*
X308827500Y-136366250D03*
X321754500Y-133826250D03*
%TD*%
D11*
%TO.C,K30*%
X84613750Y-177006250D03*
D12*
X77755750Y-185261250D03*
X89693750Y-177006250D03*
D10*
X85883750Y-174466250D03*
D12*
X101631750Y-185261250D03*
D16*
X101631750Y-170021250D03*
D10*
X92233750Y-171926250D03*
D11*
X94773750Y-177006250D03*
D16*
X77755750Y-170021250D03*
D13*
X82608750Y-174466250D03*
X95535750Y-171926250D03*
%TD*%
D10*
%TO.C,K210*%
X285115000Y-152876250D03*
D12*
X282575000Y-157956250D03*
D10*
X278765000Y-155416250D03*
D11*
X287655000Y-157956250D03*
X277495000Y-157956250D03*
D13*
X275490000Y-155416250D03*
X288417000Y-152876250D03*
%TD*%
D14*
%TO.C,D26*%
X210730000Y-92180000D03*
D15*
X210730000Y-99800000D03*
%TD*%
D14*
%TO.C,D30*%
X170990000Y-91190000D03*
D15*
X170990000Y-98810000D03*
%TD*%
D11*
%TO.C,K34*%
X172720000Y-177006250D03*
D10*
X173990000Y-174466250D03*
D11*
X182880000Y-177006250D03*
D10*
X180340000Y-171926250D03*
D12*
X177800000Y-177006250D03*
D13*
X170715000Y-174466250D03*
X183642000Y-171926250D03*
%TD*%
D14*
%TO.C,D62*%
X268000000Y-91180000D03*
D15*
X268000000Y-98800000D03*
%TD*%
D11*
%TO.C,K1*%
X91757500Y-119856250D03*
D10*
X99377500Y-114776250D03*
D11*
X101917500Y-119856250D03*
D12*
X96837500Y-119856250D03*
D10*
X93027500Y-117316250D03*
D13*
X89752500Y-117316250D03*
X102679500Y-114776250D03*
%TD*%
D26*
%TO.C,H2*%
X351750000Y-203250000D03*
%TD*%
D14*
%TO.C,D32*%
X253000000Y-97190000D03*
D15*
X253000000Y-104810000D03*
%TD*%
D14*
%TO.C,D56*%
X295250000Y-90190000D03*
D15*
X295250000Y-97810000D03*
%TD*%
D11*
%TO.C,K4*%
X159067500Y-119856250D03*
D10*
X156527500Y-114776250D03*
D11*
X148907500Y-119856250D03*
D10*
X150177500Y-117316250D03*
D12*
X153987500Y-119856250D03*
D13*
X146902500Y-117316250D03*
X159829500Y-114776250D03*
%TD*%
D14*
%TO.C,D31*%
X213230000Y-97190000D03*
D15*
X213230000Y-104810000D03*
%TD*%
D10*
%TO.C,K32*%
X142240000Y-171926250D03*
D11*
X144780000Y-177006250D03*
D10*
X135890000Y-174466250D03*
D12*
X139700000Y-177006250D03*
D11*
X134620000Y-177006250D03*
D13*
X132615000Y-174466250D03*
X145542000Y-171926250D03*
%TD*%
D14*
%TO.C,D19*%
X245500000Y-94190000D03*
D15*
X245500000Y-101810000D03*
%TD*%
D14*
%TO.C,D49*%
X223230000Y-93190000D03*
D15*
X223230000Y-100810000D03*
%TD*%
D11*
%TO.C,K410*%
X311467500Y-196056250D03*
X301307500Y-196056250D03*
D12*
X306387500Y-196056250D03*
D10*
X308927500Y-190976250D03*
X302577500Y-193516250D03*
D13*
X299302500Y-193516250D03*
X312229500Y-190976250D03*
%TD*%
D11*
%TO.C,K28*%
X239395000Y-157956250D03*
X249555000Y-157956250D03*
D10*
X240665000Y-155416250D03*
X247015000Y-152876250D03*
D12*
X244475000Y-157956250D03*
D13*
X237390000Y-155416250D03*
X250317000Y-152876250D03*
%TD*%
D12*
%TO.C,K21*%
X111125000Y-157956250D03*
D10*
X113665000Y-152876250D03*
D11*
X106045000Y-157956250D03*
X116205000Y-157956250D03*
D10*
X107315000Y-155416250D03*
D13*
X104040000Y-155416250D03*
X116967000Y-152876250D03*
%TD*%
D14*
%TO.C,D34*%
X173490000Y-97190000D03*
D15*
X173490000Y-104810000D03*
%TD*%
D10*
%TO.C,K18*%
X235902500Y-136366250D03*
D11*
X234632500Y-138906250D03*
D10*
X242252500Y-133826250D03*
D12*
X239712500Y-138906250D03*
D11*
X244792500Y-138906250D03*
D13*
X232627500Y-136366250D03*
X245554500Y-133826250D03*
%TD*%
D12*
%TO.C,K49*%
X287337500Y-196056250D03*
D10*
X283527500Y-193516250D03*
D11*
X282257500Y-196056250D03*
X292417500Y-196056250D03*
D10*
X289877500Y-190976250D03*
D13*
X280252500Y-193516250D03*
X293179500Y-190976250D03*
%TD*%
D26*
%TO.C,H4*%
X70750000Y-86500000D03*
%TD*%
D14*
%TO.C,D17*%
X163490000Y-94190000D03*
D15*
X163490000Y-101810000D03*
%TD*%
D10*
%TO.C,KK12*%
X127952500Y-133826250D03*
D12*
X125412500Y-138906250D03*
D10*
X121602500Y-136366250D03*
D11*
X120332500Y-138906250D03*
X130492500Y-138906250D03*
D13*
X118327500Y-136366250D03*
X131254500Y-133826250D03*
%TD*%
D11*
%TO.C,K42*%
X122713750Y-196056250D03*
D10*
X123983750Y-193516250D03*
D12*
X127793750Y-196056250D03*
D11*
X132873750Y-196056250D03*
D10*
X130333750Y-190976250D03*
D13*
X120708750Y-193516250D03*
X133635750Y-190976250D03*
%TD*%
D19*
%TO.C,R7*%
X97240000Y-91320000D03*
D20*
X97240000Y-86240000D03*
%TD*%
D11*
%TO.C,K19*%
X263842500Y-138906250D03*
X253682500Y-138906250D03*
D12*
X258762500Y-138906250D03*
D10*
X254952500Y-136366250D03*
X261302500Y-133826250D03*
D13*
X251677500Y-136366250D03*
X264604500Y-133826250D03*
%TD*%
D10*
%TO.C,K48*%
X264477500Y-193516250D03*
D11*
X263207500Y-196056250D03*
D12*
X268287500Y-196056250D03*
D10*
X270827500Y-190976250D03*
D11*
X273367500Y-196056250D03*
D13*
X261202500Y-193516250D03*
X274129500Y-190976250D03*
%TD*%
D10*
%TO.C,K35*%
X199390000Y-171926250D03*
D12*
X196850000Y-177006250D03*
D10*
X193040000Y-174466250D03*
D11*
X191770000Y-177006250D03*
X201930000Y-177006250D03*
D13*
X189765000Y-174466250D03*
X202692000Y-171926250D03*
%TD*%
D12*
%TO.C,K26*%
X206375000Y-157956250D03*
D11*
X201295000Y-157956250D03*
D10*
X208915000Y-152876250D03*
D11*
X211455000Y-157956250D03*
D10*
X202565000Y-155416250D03*
D13*
X199290000Y-155416250D03*
X212217000Y-152876250D03*
%TD*%
D12*
%TO.C,K40*%
X80168750Y-196056250D03*
D11*
X75088750Y-196056250D03*
X85248750Y-196056250D03*
D10*
X76358750Y-193516250D03*
X82708750Y-190976250D03*
D13*
X73083750Y-193516250D03*
X86010750Y-190976250D03*
%TD*%
D14*
%TO.C,D44*%
X220730000Y-94200000D03*
D15*
X220730000Y-101820000D03*
%TD*%
D11*
%TO.C,K312*%
X320357500Y-177006250D03*
D10*
X321627500Y-174466250D03*
D12*
X325437500Y-177006250D03*
D10*
X327977500Y-171926250D03*
D11*
X330517500Y-177006250D03*
D13*
X318352500Y-174466250D03*
X331279500Y-171926250D03*
%TD*%
D12*
%TO.C,K12*%
X306387500Y-119856250D03*
D11*
X311467500Y-119856250D03*
D10*
X302577500Y-117316250D03*
D11*
X301307500Y-119856250D03*
D10*
X308927500Y-114776250D03*
D13*
X299302500Y-117316250D03*
X312229500Y-114776250D03*
%TD*%
D14*
%TO.C,D37*%
X133740000Y-96190000D03*
D15*
X133740000Y-103810000D03*
%TD*%
D14*
%TO.C,D45*%
X260500000Y-94190000D03*
D15*
X260500000Y-101810000D03*
%TD*%
D14*
%TO.C,D51*%
X292740000Y-91190000D03*
D15*
X292740000Y-98810000D03*
%TD*%
D26*
%TO.C,H1*%
X351750000Y-86500000D03*
%TD*%
D12*
%TO.C,K10*%
X268287500Y-119856250D03*
D10*
X264477500Y-117316250D03*
X270827500Y-114776250D03*
D11*
X263207500Y-119856250D03*
X273367500Y-119856250D03*
D13*
X261202500Y-117316250D03*
X274129500Y-114776250D03*
%TD*%
D12*
%TO.C,KK13*%
X144462500Y-138906250D03*
D11*
X149542500Y-138906250D03*
D10*
X147002500Y-133826250D03*
D11*
X139382500Y-138906250D03*
D10*
X140652500Y-136366250D03*
D13*
X137377500Y-136366250D03*
X150304500Y-133826250D03*
%TD*%
D10*
%TO.C,K110*%
X274002500Y-136366250D03*
D11*
X282892500Y-138906250D03*
D10*
X280352500Y-133826250D03*
D12*
X277812500Y-138906250D03*
D11*
X272732500Y-138906250D03*
D13*
X270727500Y-136366250D03*
X283654500Y-133826250D03*
%TD*%
M02*
