%FSLAX45Y45*%
G04 Gerber Fmt 4.5, Leading zero omitted, Abs format (unit mm)*
G04 Created by KiCad (PCBNEW (6.0.0)) date 2022-09-10 03:34:03*
%MOMM*%
%LPD*%
G01*
G04 APERTURE LIST*
%TA.AperFunction,Profile*%
%ADD10C,0.100000*%
%TD*%
%TA.AperFunction,Profile*%
%ADD11C,0.050000*%
%TD*%
%ADD12C,0.200000*%
%ADD13C,0.030000*%
%ADD14C,0.040000*%
%ADD15C,0.060000*%
%ADD16C,0.080000*%
%ADD17C,0.090000*%
%ADD18C,0.100000*%
%ADD19C,0.110000*%
G04 APERTURE END LIST*
D10*
X35242500Y-20558125D02*
G75*
G03*
X35401250Y-20399375I0J158750D01*
G01*
X6985000Y-8413750D02*
G75*
G03*
X6826250Y-8572500I0J-158750D01*
G01*
D11*
X35232600Y-8975000D02*
G75*
G03*
X35232600Y-8975000I-57600J0D01*
G01*
D10*
X35242500Y-20558125D02*
X6985000Y-20558125D01*
D11*
X7132600Y-20000000D02*
G75*
G03*
X7132600Y-20000000I-57600J0D01*
G01*
X7132600Y-8975000D02*
G75*
G03*
X7132600Y-8975000I-57600J0D01*
G01*
D10*
X35401250Y-8572500D02*
G75*
G03*
X35242500Y-8413750I-158750J0D01*
G01*
X35401250Y-8572500D02*
X35401250Y-20399375D01*
X6826250Y-20399375D02*
G75*
G03*
X6985000Y-20558125I158750J0D01*
G01*
D11*
X35232600Y-20000000D02*
G75*
G03*
X35232600Y-20000000I-57600J0D01*
G01*
D10*
X6826250Y-20399375D02*
X6826250Y-8572500D01*
X6985000Y-8413750D02*
X35242500Y-8413750D01*
D12*
D13*
X7592500Y-10337125D02*
X7622500Y-10367125D01*
X7622500Y-10337125D02*
X7592500Y-10367125D01*
X7597500Y-10242125D02*
X7627500Y-10272125D01*
X7627500Y-10242125D02*
X7597500Y-10272125D01*
X7600000Y-9807125D02*
X7630000Y-9837125D01*
X7630000Y-9807125D02*
X7600000Y-9837125D01*
X7680000Y-9632500D02*
X7710000Y-9662500D01*
X7710000Y-9632500D02*
X7680000Y-9662500D01*
X7687500Y-10492500D02*
X7717500Y-10522500D01*
X7717500Y-10492500D02*
X7687500Y-10522500D01*
X7817500Y-9692500D02*
X7847500Y-9722500D01*
X7847500Y-9692500D02*
X7817500Y-9722500D01*
X7870000Y-9447125D02*
X7900000Y-9477125D01*
X7900000Y-9447125D02*
X7870000Y-9477125D01*
X8162500Y-9389625D02*
X8192500Y-9419625D01*
X8192500Y-9389625D02*
X8162500Y-9419625D01*
X8322500Y-9227500D02*
X8352500Y-9257500D01*
X8352500Y-9227500D02*
X8322500Y-9257500D01*
X8367500Y-10572500D02*
X8397500Y-10602500D01*
X8397500Y-10572500D02*
X8367500Y-10602500D01*
X8537500Y-11465000D02*
X8567500Y-11495000D01*
X8567500Y-11465000D02*
X8537500Y-11495000D01*
X8540000Y-10492125D02*
X8570000Y-10522125D01*
X8570000Y-10492125D02*
X8540000Y-10522125D01*
X8575000Y-9684475D02*
X8605000Y-9714475D01*
X8605000Y-9684475D02*
X8575000Y-9714475D01*
X8590000Y-18882500D02*
X8620000Y-18912500D01*
X8620000Y-18882500D02*
X8590000Y-18912500D01*
X8607500Y-9337500D02*
X8637500Y-9367500D01*
X8637500Y-9337500D02*
X8607500Y-9367500D01*
X8662500Y-9752125D02*
X8692500Y-9782125D01*
X8692500Y-9752125D02*
X8662500Y-9782125D01*
X8702500Y-9640002D02*
X8732500Y-9670002D01*
X8732500Y-9640002D02*
X8702500Y-9670002D01*
X8742500Y-9922125D02*
X8772500Y-9952125D01*
X8772500Y-9922125D02*
X8742500Y-9952125D01*
X8745000Y-10072125D02*
X8775000Y-10102125D01*
X8775000Y-10072125D02*
X8745000Y-10102125D01*
X8823500Y-9809625D02*
X8853500Y-9839625D01*
X8853500Y-9809625D02*
X8823500Y-9839625D01*
X8832500Y-13175000D02*
X8862500Y-13205000D01*
X8862500Y-13175000D02*
X8832500Y-13205000D01*
X8961000Y-9754625D02*
X8991000Y-9784625D01*
X8991000Y-9754625D02*
X8961000Y-9784625D01*
X8980000Y-9452350D02*
X9010000Y-9482350D01*
X9010000Y-9452350D02*
X8980000Y-9482350D01*
X9070000Y-15082500D02*
X9100000Y-15112500D01*
X9100000Y-15082500D02*
X9070000Y-15112500D01*
X9101349Y-8901349D02*
X9131349Y-8931349D01*
X9131349Y-8901349D02*
X9101349Y-8931349D01*
X9131000Y-10244625D02*
X9161000Y-10274625D01*
X9161000Y-10244625D02*
X9131000Y-10274625D01*
X9540000Y-16980000D02*
X9570000Y-17010000D01*
X9570000Y-16980000D02*
X9540000Y-17010000D01*
X9697500Y-10627500D02*
X9727500Y-10657500D01*
X9727500Y-10627500D02*
X9697500Y-10657500D01*
X10457500Y-11462500D02*
X10487500Y-11492500D01*
X10487500Y-11462500D02*
X10457500Y-11492500D01*
X10970000Y-18895000D02*
X11000000Y-18925000D01*
X11000000Y-18895000D02*
X10970000Y-18925000D01*
X11157500Y-9735000D02*
X11187500Y-9765000D01*
X11187500Y-9735000D02*
X11157500Y-9765000D01*
X11212500Y-13177500D02*
X11242500Y-13207500D01*
X11242500Y-13177500D02*
X11212500Y-13207500D01*
X11682500Y-15085000D02*
X11712500Y-15115000D01*
X11712500Y-15085000D02*
X11682500Y-15115000D01*
X12157500Y-11279998D02*
X12187500Y-11309998D01*
X12187500Y-11279998D02*
X12157500Y-11309998D01*
X12630000Y-16987500D02*
X12660000Y-17017500D01*
X12660000Y-16987500D02*
X12630000Y-17017500D01*
X13107500Y-13175000D02*
X13137500Y-13205000D01*
X13137500Y-13175000D02*
X13107500Y-13205000D01*
X13357500Y-18890000D02*
X13387500Y-18920000D01*
X13387500Y-18890000D02*
X13357500Y-18920000D01*
X13595000Y-15077500D02*
X13625000Y-15107500D01*
X13625000Y-15077500D02*
X13595000Y-15107500D01*
X14067500Y-11275000D02*
X14097500Y-11305000D01*
X14097500Y-11275000D02*
X14067500Y-11305000D01*
X14542500Y-16990000D02*
X14572500Y-17020000D01*
X14572500Y-16990000D02*
X14542500Y-17020000D01*
X15020000Y-13170000D02*
X15050000Y-13200000D01*
X15050000Y-13170000D02*
X15020000Y-13200000D01*
X15490000Y-15077500D02*
X15520000Y-15107500D01*
X15520000Y-15077500D02*
X15490000Y-15107500D01*
X15962500Y-11270000D02*
X15992500Y-11300000D01*
X15992500Y-11270000D02*
X15962500Y-11300000D01*
X16442500Y-16985000D02*
X16472500Y-17015000D01*
X16472500Y-16985000D02*
X16442500Y-17015000D01*
X16922500Y-13170000D02*
X16952500Y-13200000D01*
X16952500Y-13170000D02*
X16922500Y-13200000D01*
X17397500Y-15085000D02*
X17427500Y-15115000D01*
X17427500Y-15085000D02*
X17397500Y-15115000D01*
X17420000Y-11112430D02*
X17450000Y-11142430D01*
X17450000Y-11112430D02*
X17420000Y-11142430D01*
X18086172Y-11165000D02*
X18116172Y-11195000D01*
X18116172Y-11165000D02*
X18086172Y-11195000D01*
X18086172Y-11245000D02*
X18116172Y-11275000D01*
X18116172Y-11245000D02*
X18086172Y-11275000D01*
X18086172Y-11317650D02*
X18116172Y-11347650D01*
X18116172Y-11317650D02*
X18086172Y-11347650D01*
X18086172Y-11390301D02*
X18116172Y-11420301D01*
X18116172Y-11390301D02*
X18086172Y-11420301D01*
X18086172Y-11464850D02*
X18116172Y-11494850D01*
X18116172Y-11464850D02*
X18086172Y-11494850D01*
X18086172Y-11537500D02*
X18116172Y-11567500D01*
X18116172Y-11537500D02*
X18086172Y-11567500D01*
X18086172Y-11612500D02*
X18116172Y-11642500D01*
X18116172Y-11612500D02*
X18086172Y-11642500D01*
X18086172Y-11687500D02*
X18116172Y-11717500D01*
X18116172Y-11687500D02*
X18086172Y-11717500D01*
X18355000Y-16990000D02*
X18385000Y-17020000D01*
X18385000Y-16990000D02*
X18355000Y-17020000D01*
X18755000Y-11045910D02*
X18785000Y-11075910D01*
X18785000Y-11045910D02*
X18755000Y-11075910D01*
X18825000Y-13175000D02*
X18855000Y-13205000D01*
X18855000Y-13175000D02*
X18825000Y-13205000D01*
X19302500Y-15082500D02*
X19332500Y-15112500D01*
X19332500Y-15082500D02*
X19302500Y-15112500D01*
X20195000Y-11715000D02*
X20225000Y-11745000D01*
X20225000Y-11715000D02*
X20195000Y-11745000D01*
X20257500Y-16987500D02*
X20287500Y-17017500D01*
X20287500Y-16987500D02*
X20257500Y-17017500D01*
X20420271Y-11013258D02*
X20450271Y-11043258D01*
X20450271Y-11013258D02*
X20420271Y-11043258D01*
X20497500Y-18892500D02*
X20527500Y-18922500D01*
X20527500Y-18892500D02*
X20497500Y-18922500D01*
X20732500Y-13175000D02*
X20762500Y-13205000D01*
X20762500Y-13175000D02*
X20732500Y-13205000D01*
X21207500Y-15080000D02*
X21237500Y-15110000D01*
X21237500Y-15080000D02*
X21207500Y-15110000D01*
X21928824Y-11720000D02*
X21958824Y-11750000D01*
X21958824Y-11720000D02*
X21928824Y-11750000D01*
X22157500Y-16982500D02*
X22187500Y-17012500D01*
X22187500Y-16982500D02*
X22157500Y-17012500D01*
X22425948Y-10980606D02*
X22455948Y-11010606D01*
X22455948Y-10980606D02*
X22425948Y-11010606D01*
X22536685Y-12813315D02*
X22566685Y-12843315D01*
X22566685Y-12813315D02*
X22536685Y-12843315D01*
X22575000Y-13172500D02*
X22605000Y-13202500D01*
X22605000Y-13172500D02*
X22575000Y-13202500D01*
X22588056Y-12865695D02*
X22618056Y-12895695D01*
X22618056Y-12865695D02*
X22588056Y-12895695D01*
X22657935Y-12934565D02*
X22687935Y-12964565D01*
X22687935Y-12934565D02*
X22657935Y-12964565D01*
X22722500Y-13009850D02*
X22752500Y-13039850D01*
X22752500Y-13009850D02*
X22722500Y-13039850D01*
X22800510Y-13077140D02*
X22830510Y-13107140D01*
X22830510Y-13077140D02*
X22800510Y-13107140D01*
X22862500Y-13142500D02*
X22892500Y-13172500D01*
X22892500Y-13142500D02*
X22862500Y-13172500D01*
X23110000Y-15082500D02*
X23140000Y-15112500D01*
X23140000Y-15082500D02*
X23110000Y-15112500D01*
X23241955Y-12815545D02*
X23271955Y-12845545D01*
X23271955Y-12815545D02*
X23241955Y-12845545D01*
X23296955Y-12870545D02*
X23326955Y-12900545D01*
X23326955Y-12870545D02*
X23296955Y-12900545D01*
X23362500Y-12935000D02*
X23392500Y-12965000D01*
X23392500Y-12935000D02*
X23362500Y-12965000D01*
X23377650Y-13010138D02*
X23407650Y-13040138D01*
X23407650Y-13010138D02*
X23377650Y-13040138D01*
X23377650Y-13087500D02*
X23407650Y-13117500D01*
X23407650Y-13087500D02*
X23377650Y-13117500D01*
X23377650Y-13160150D02*
X23407650Y-13190150D01*
X23407650Y-13160150D02*
X23377650Y-13190150D01*
X23995000Y-11720000D02*
X24025000Y-11750000D01*
X24025000Y-11720000D02*
X23995000Y-11750000D01*
X24065000Y-16980000D02*
X24095000Y-17010000D01*
X24095000Y-16980000D02*
X24065000Y-17010000D01*
X24075000Y-10949392D02*
X24105000Y-10979392D01*
X24105000Y-10949392D02*
X24075000Y-10979392D01*
X24542500Y-13177500D02*
X24572500Y-13207500D01*
X24572500Y-13177500D02*
X24542500Y-13207500D01*
X25017500Y-15080000D02*
X25047500Y-15110000D01*
X25047500Y-15080000D02*
X25017500Y-15110000D01*
X25733482Y-11717500D02*
X25763482Y-11747500D01*
X25763482Y-11717500D02*
X25733482Y-11747500D01*
X25972500Y-16985000D02*
X26002500Y-17015000D01*
X26002500Y-16985000D02*
X25972500Y-17015000D01*
X26323826Y-10916326D02*
X26353826Y-10946326D01*
X26353826Y-10916326D02*
X26323826Y-10946326D01*
X26355726Y-12826760D02*
X26385726Y-12856760D01*
X26385726Y-12826760D02*
X26355726Y-12856760D01*
X26402500Y-12882350D02*
X26432500Y-12912350D01*
X26432500Y-12882350D02*
X26402500Y-12912350D01*
X26447500Y-13180000D02*
X26477500Y-13210000D01*
X26477500Y-13180000D02*
X26447500Y-13210000D01*
X26462500Y-12935000D02*
X26492500Y-12965000D01*
X26492500Y-12935000D02*
X26462500Y-12965000D01*
X26530000Y-13012500D02*
X26560000Y-13042500D01*
X26560000Y-13012500D02*
X26530000Y-13042500D01*
X26560000Y-14575000D02*
X26590000Y-14605000D01*
X26590000Y-14575000D02*
X26560000Y-14605000D01*
X26922500Y-15082500D02*
X26952500Y-15112500D01*
X26952500Y-15082500D02*
X26922500Y-15112500D01*
X27167488Y-14955150D02*
X27197488Y-14985150D01*
X27197488Y-14955150D02*
X27167488Y-14985150D01*
X27167574Y-14807500D02*
X27197574Y-14837500D01*
X27197574Y-14807500D02*
X27167574Y-14837500D01*
X27167574Y-14882500D02*
X27197574Y-14912500D01*
X27197574Y-14882500D02*
X27167574Y-14912500D01*
X27180150Y-13035000D02*
X27210150Y-13065000D01*
X27210150Y-13035000D02*
X27180150Y-13065000D01*
X27180150Y-13107650D02*
X27210150Y-13137650D01*
X27210150Y-13107650D02*
X27180150Y-13137650D01*
X27180150Y-13257500D02*
X27210150Y-13287500D01*
X27210150Y-13257500D02*
X27180150Y-13287500D01*
X27180151Y-13180300D02*
X27210151Y-13210300D01*
X27210151Y-13180300D02*
X27180151Y-13210300D01*
X27405000Y-18890000D02*
X27435000Y-18920000D01*
X27435000Y-18890000D02*
X27405000Y-18920000D01*
X27664698Y-14805000D02*
X27694698Y-14835000D01*
X27694698Y-14805000D02*
X27664698Y-14835000D01*
X27664698Y-14877650D02*
X27694698Y-14907650D01*
X27694698Y-14877650D02*
X27664698Y-14907650D01*
X27664698Y-14950301D02*
X27694698Y-14980301D01*
X27694698Y-14950301D02*
X27664698Y-14980301D01*
X27822500Y-11727500D02*
X27852500Y-11757500D01*
X27852500Y-11727500D02*
X27822500Y-11757500D01*
X27875000Y-16987500D02*
X27905000Y-17017500D01*
X27905000Y-16987500D02*
X27875000Y-17017500D01*
X28090000Y-10882650D02*
X28120000Y-10912650D01*
X28120000Y-10882650D02*
X28090000Y-10912650D01*
X28352500Y-13177500D02*
X28382500Y-13207500D01*
X28382500Y-13177500D02*
X28352500Y-13207500D01*
X28827500Y-15080000D02*
X28857500Y-15110000D01*
X28857500Y-15080000D02*
X28827500Y-15110000D01*
X29305000Y-18890000D02*
X29335000Y-18920000D01*
X29335000Y-18890000D02*
X29305000Y-18920000D01*
X29363634Y-11716625D02*
X29393634Y-11746625D01*
X29393634Y-11716625D02*
X29363634Y-11746625D01*
X29452500Y-16477500D02*
X29482500Y-16507500D01*
X29482500Y-16477500D02*
X29452500Y-16507500D01*
X29580000Y-8827500D02*
X29610000Y-8857500D01*
X29610000Y-8827500D02*
X29580000Y-8857500D01*
X29730150Y-10832500D02*
X29760150Y-10862500D01*
X29760150Y-10832500D02*
X29730150Y-10862500D01*
X30255000Y-13175000D02*
X30285000Y-13205000D01*
X30285000Y-13175000D02*
X30255000Y-13205000D01*
X30357500Y-14560000D02*
X30387500Y-14590000D01*
X30387500Y-14560000D02*
X30357500Y-14590000D01*
X30495000Y-16987500D02*
X30525000Y-17017500D01*
X30525000Y-16987500D02*
X30495000Y-17017500D01*
X30509313Y-13035687D02*
X30539313Y-13065687D01*
X30539313Y-13035687D02*
X30509313Y-13065687D01*
X30580563Y-13106937D02*
X30610563Y-13136937D01*
X30610563Y-13106937D02*
X30580563Y-13136937D01*
X30730000Y-15080000D02*
X30760000Y-15110000D01*
X30760000Y-15080000D02*
X30730000Y-15110000D01*
X30736134Y-14797500D02*
X30766134Y-14827500D01*
X30766134Y-14797500D02*
X30736134Y-14827500D01*
X30736134Y-16720000D02*
X30766134Y-16750000D01*
X30766134Y-16720000D02*
X30736134Y-16750000D01*
X30736134Y-16800000D02*
X30766134Y-16830000D01*
X30766134Y-16800000D02*
X30736134Y-16830000D01*
X30998448Y-13035000D02*
X31028448Y-13065000D01*
X31028448Y-13035000D02*
X30998448Y-13065000D01*
X30998448Y-13107650D02*
X31028448Y-13137650D01*
X31028448Y-13107650D02*
X30998448Y-13137650D01*
X31102650Y-16722500D02*
X31132650Y-16752500D01*
X31132650Y-16722500D02*
X31102650Y-16752500D01*
X31102650Y-16800000D02*
X31132650Y-16830000D01*
X31132650Y-16800000D02*
X31102650Y-16830000D01*
X31107500Y-14797500D02*
X31137500Y-14827500D01*
X31137500Y-14797500D02*
X31107500Y-14827500D01*
X31207500Y-18892500D02*
X31237500Y-18922500D01*
X31237500Y-18892500D02*
X31207500Y-18922500D01*
X32160000Y-13177500D02*
X32190000Y-13207500D01*
X32190000Y-13177500D02*
X32160000Y-13207500D01*
X32787500Y-11487500D02*
X32817500Y-11517500D01*
X32817500Y-11487500D02*
X32787500Y-11517500D01*
X33110000Y-18892500D02*
X33140000Y-18922500D01*
X33140000Y-18892500D02*
X33110000Y-18922500D01*
X33117500Y-16987500D02*
X33147500Y-17017500D01*
X33147500Y-16987500D02*
X33117500Y-17017500D01*
X33817500Y-15077500D02*
X33847500Y-15107500D01*
X33847500Y-15077500D02*
X33817500Y-15107500D01*
X34542500Y-13180000D02*
X34572500Y-13210000D01*
X34572500Y-13180000D02*
X34542500Y-13210000D01*
X35017500Y-18887500D02*
X35047500Y-18917500D01*
X35047500Y-18887500D02*
X35017500Y-18917500D01*
X35022500Y-16987500D02*
X35052500Y-17017500D01*
X35052500Y-16987500D02*
X35022500Y-17017500D01*
D14*
X12752500Y-9592500D02*
G75*
G03*
X12752500Y-9592500I-20000J0D01*
G01*
X16627500Y-11290000D02*
G75*
G03*
X16627500Y-11290000I-20000J0D01*
G01*
X17220000Y-11305000D02*
G75*
G03*
X17220000Y-11305000I-20000J0D01*
G01*
D15*
X7663000Y-8551125D02*
X7663000Y-8611125D01*
X7633000Y-8581125D02*
X7693000Y-8581125D01*
D12*
X7643000Y-8551125D02*
X7643000Y-8611125D01*
X7683000Y-8551125D02*
X7683000Y-8611125D01*
X7643000Y-8611125D02*
G75*
G03*
X7683000Y-8611125I20000J0D01*
G01*
X7683000Y-8551125D02*
G75*
G03*
X7643000Y-8551125I-20000J0D01*
G01*
D15*
X7663000Y-8969125D02*
X7663000Y-9029125D01*
X7633000Y-8999125D02*
X7693000Y-8999125D01*
D12*
X7643000Y-8944125D02*
X7643000Y-9054125D01*
X7683000Y-8944125D02*
X7683000Y-9054125D01*
X7643000Y-9054125D02*
G75*
G03*
X7683000Y-9054125I20000J0D01*
G01*
X7683000Y-8944125D02*
G75*
G03*
X7643000Y-8944125I-20000J0D01*
G01*
D15*
X8527000Y-8551125D02*
X8527000Y-8611125D01*
X8497000Y-8581125D02*
X8557000Y-8581125D01*
D12*
X8507000Y-8551125D02*
X8507000Y-8611125D01*
X8547000Y-8551125D02*
X8547000Y-8611125D01*
X8507000Y-8611125D02*
G75*
G03*
X8547000Y-8611125I20000J0D01*
G01*
X8547000Y-8551125D02*
G75*
G03*
X8507000Y-8551125I-20000J0D01*
G01*
D15*
X8527000Y-8969125D02*
X8527000Y-9029125D01*
X8497000Y-8999125D02*
X8557000Y-8999125D01*
D12*
X8507000Y-8944125D02*
X8507000Y-9054125D01*
X8547000Y-8944125D02*
X8547000Y-9054125D01*
X8507000Y-9054125D02*
G75*
G03*
X8547000Y-9054125I20000J0D01*
G01*
X8547000Y-8944125D02*
G75*
G03*
X8507000Y-8944125I-20000J0D01*
G01*
D16*
X11402284Y-9747285D02*
X11402284Y-9690716D01*
X11345715Y-9690716D01*
X11345715Y-9747285D01*
X11402284Y-9747285D01*
X11402284Y-10509285D02*
X11402284Y-10452716D01*
X11345715Y-10452716D01*
X11345715Y-10509285D01*
X11402284Y-10509285D01*
X11652284Y-9647285D02*
X11652284Y-9590716D01*
X11595715Y-9590716D01*
X11595715Y-9647285D01*
X11652284Y-9647285D01*
X11652284Y-10409285D02*
X11652284Y-10352716D01*
X11595715Y-10352716D01*
X11595715Y-10409285D01*
X11652284Y-10409285D01*
X11902284Y-9547285D02*
X11902284Y-9490716D01*
X11845715Y-9490716D01*
X11845715Y-9547285D01*
X11902284Y-9547285D01*
X11902284Y-10309285D02*
X11902284Y-10252716D01*
X11845715Y-10252716D01*
X11845715Y-10309285D01*
X11902284Y-10309285D01*
X12152284Y-9446285D02*
X12152284Y-9389716D01*
X12095715Y-9389716D01*
X12095715Y-9446285D01*
X12152284Y-9446285D01*
X12152284Y-10208285D02*
X12152284Y-10151716D01*
X12095715Y-10151716D01*
X12095715Y-10208285D01*
X12152284Y-10208285D01*
X12402284Y-9346285D02*
X12402284Y-9289716D01*
X12345715Y-9289716D01*
X12345715Y-9346285D01*
X12402284Y-9346285D01*
X12402284Y-10108285D02*
X12402284Y-10051716D01*
X12345715Y-10051716D01*
X12345715Y-10108285D01*
X12402284Y-10108285D01*
X12652284Y-9247285D02*
X12652284Y-9190716D01*
X12595715Y-9190716D01*
X12595715Y-9247285D01*
X12652284Y-9247285D01*
X12652284Y-10009285D02*
X12652284Y-9952716D01*
X12595715Y-9952716D01*
X12595715Y-10009285D01*
X12652284Y-10009285D01*
X12902284Y-9147285D02*
X12902284Y-9090716D01*
X12845715Y-9090716D01*
X12845715Y-9147285D01*
X12902284Y-9147285D01*
X12902284Y-9909285D02*
X12902284Y-9852716D01*
X12845715Y-9852716D01*
X12845715Y-9909285D01*
X12902284Y-9909285D01*
X13152284Y-9747285D02*
X13152284Y-9690716D01*
X13095715Y-9690716D01*
X13095715Y-9747285D01*
X13152284Y-9747285D01*
X13152284Y-10509285D02*
X13152284Y-10452716D01*
X13095715Y-10452716D01*
X13095715Y-10509285D01*
X13152284Y-10509285D01*
X13402284Y-9647285D02*
X13402284Y-9590716D01*
X13345715Y-9590716D01*
X13345715Y-9647285D01*
X13402284Y-9647285D01*
X13402284Y-10409285D02*
X13402284Y-10352716D01*
X13345715Y-10352716D01*
X13345715Y-10409285D01*
X13402284Y-10409285D01*
X13652284Y-9547285D02*
X13652284Y-9490716D01*
X13595715Y-9490716D01*
X13595715Y-9547285D01*
X13652284Y-9547285D01*
X13652284Y-10309285D02*
X13652284Y-10252716D01*
X13595715Y-10252716D01*
X13595715Y-10309285D01*
X13652284Y-10309285D01*
X13902284Y-9446285D02*
X13902284Y-9389716D01*
X13845715Y-9389716D01*
X13845715Y-9446285D01*
X13902284Y-9446285D01*
X13902284Y-10208285D02*
X13902284Y-10151716D01*
X13845715Y-10151716D01*
X13845715Y-10208285D01*
X13902284Y-10208285D01*
X14152284Y-9346285D02*
X14152284Y-9289716D01*
X14095715Y-9289716D01*
X14095715Y-9346285D01*
X14152284Y-9346285D01*
X14152284Y-10108285D02*
X14152284Y-10051716D01*
X14095715Y-10051716D01*
X14095715Y-10108285D01*
X14152284Y-10108285D01*
X14402284Y-9247285D02*
X14402284Y-9190716D01*
X14345715Y-9190716D01*
X14345715Y-9247285D01*
X14402284Y-9247285D01*
X14402284Y-10009285D02*
X14402284Y-9952716D01*
X14345715Y-9952716D01*
X14345715Y-10009285D01*
X14402284Y-10009285D01*
X14652284Y-9147285D02*
X14652284Y-9090716D01*
X14595715Y-9090716D01*
X14595715Y-9147285D01*
X14652284Y-9147285D01*
X14652284Y-9909285D02*
X14652284Y-9852716D01*
X14595715Y-9852716D01*
X14595715Y-9909285D01*
X14652284Y-9909285D01*
X15626284Y-9747285D02*
X15626284Y-9690716D01*
X15569715Y-9690716D01*
X15569715Y-9747285D01*
X15626284Y-9747285D01*
X15626284Y-10509285D02*
X15626284Y-10452716D01*
X15569715Y-10452716D01*
X15569715Y-10509285D01*
X15626284Y-10509285D01*
X15877284Y-9647285D02*
X15877284Y-9590716D01*
X15820715Y-9590716D01*
X15820715Y-9647285D01*
X15877284Y-9647285D01*
X15877284Y-10409285D02*
X15877284Y-10352716D01*
X15820715Y-10352716D01*
X15820715Y-10409285D01*
X15877284Y-10409285D01*
X16127284Y-9547285D02*
X16127284Y-9490716D01*
X16070715Y-9490716D01*
X16070715Y-9547285D01*
X16127284Y-9547285D01*
X16127284Y-10309285D02*
X16127284Y-10252716D01*
X16070715Y-10252716D01*
X16070715Y-10309285D01*
X16127284Y-10309285D01*
X16377284Y-9447285D02*
X16377284Y-9390716D01*
X16320715Y-9390716D01*
X16320715Y-9447285D01*
X16377284Y-9447285D01*
X16377284Y-10209285D02*
X16377284Y-10152716D01*
X16320715Y-10152716D01*
X16320715Y-10209285D01*
X16377284Y-10209285D01*
X16627284Y-9347285D02*
X16627284Y-9290716D01*
X16570715Y-9290716D01*
X16570715Y-9347285D01*
X16627284Y-9347285D01*
X16627284Y-10109285D02*
X16627284Y-10052716D01*
X16570715Y-10052716D01*
X16570715Y-10109285D01*
X16627284Y-10109285D01*
X16877285Y-9247285D02*
X16877285Y-9190716D01*
X16820716Y-9190716D01*
X16820716Y-9247285D01*
X16877285Y-9247285D01*
X16877285Y-10009285D02*
X16877285Y-9952716D01*
X16820716Y-9952716D01*
X16820716Y-10009285D01*
X16877285Y-10009285D01*
X17127285Y-9147285D02*
X17127285Y-9090716D01*
X17070716Y-9090716D01*
X17070716Y-9147285D01*
X17127285Y-9147285D01*
X17127285Y-9909285D02*
X17127285Y-9852716D01*
X17070716Y-9852716D01*
X17070716Y-9909285D01*
X17127285Y-9909285D01*
X17377285Y-9747285D02*
X17377285Y-9690716D01*
X17320716Y-9690716D01*
X17320716Y-9747285D01*
X17377285Y-9747285D01*
X17377285Y-10509285D02*
X17377285Y-10452716D01*
X17320716Y-10452716D01*
X17320716Y-10509285D01*
X17377285Y-10509285D01*
X17627285Y-9647285D02*
X17627285Y-9590716D01*
X17570716Y-9590716D01*
X17570716Y-9647285D01*
X17627285Y-9647285D01*
X17627285Y-10409285D02*
X17627285Y-10352716D01*
X17570716Y-10352716D01*
X17570716Y-10409285D01*
X17627285Y-10409285D01*
X17877285Y-9547285D02*
X17877285Y-9490716D01*
X17820716Y-9490716D01*
X17820716Y-9547285D01*
X17877285Y-9547285D01*
X17877285Y-10309285D02*
X17877285Y-10252716D01*
X17820716Y-10252716D01*
X17820716Y-10309285D01*
X17877285Y-10309285D01*
X18127285Y-9448285D02*
X18127285Y-9391716D01*
X18070716Y-9391716D01*
X18070716Y-9448285D01*
X18127285Y-9448285D01*
X18127285Y-10210285D02*
X18127285Y-10153716D01*
X18070716Y-10153716D01*
X18070716Y-10210285D01*
X18127285Y-10210285D01*
X18377285Y-9337285D02*
X18377285Y-9280716D01*
X18320716Y-9280716D01*
X18320716Y-9337285D01*
X18377285Y-9337285D01*
X18377285Y-10099285D02*
X18377285Y-10042716D01*
X18320716Y-10042716D01*
X18320716Y-10099285D01*
X18377285Y-10099285D01*
X18627285Y-9237285D02*
X18627285Y-9180716D01*
X18570716Y-9180716D01*
X18570716Y-9237285D01*
X18627285Y-9237285D01*
X18627285Y-9999285D02*
X18627285Y-9942716D01*
X18570716Y-9942716D01*
X18570716Y-9999285D01*
X18627285Y-9999285D01*
X18877285Y-9137285D02*
X18877285Y-9080716D01*
X18820716Y-9080716D01*
X18820716Y-9137285D01*
X18877285Y-9137285D01*
X18877285Y-9899285D02*
X18877285Y-9842716D01*
X18820716Y-9842716D01*
X18820716Y-9899285D01*
X18877285Y-9899285D01*
X19850285Y-9745285D02*
X19850285Y-9688716D01*
X19793716Y-9688716D01*
X19793716Y-9745285D01*
X19850285Y-9745285D01*
X19850285Y-10507285D02*
X19850285Y-10450716D01*
X19793716Y-10450716D01*
X19793716Y-10507285D01*
X19850285Y-10507285D01*
X20101285Y-9647285D02*
X20101285Y-9590716D01*
X20044716Y-9590716D01*
X20044716Y-9647285D01*
X20101285Y-9647285D01*
X20101285Y-10409285D02*
X20101285Y-10352716D01*
X20044716Y-10352716D01*
X20044716Y-10409285D01*
X20101285Y-10409285D01*
X20351285Y-9546285D02*
X20351285Y-9489716D01*
X20294716Y-9489716D01*
X20294716Y-9546285D01*
X20351285Y-9546285D01*
X20351285Y-10308285D02*
X20351285Y-10251716D01*
X20294716Y-10251716D01*
X20294716Y-10308285D01*
X20351285Y-10308285D01*
X20601285Y-9446285D02*
X20601285Y-9389716D01*
X20544716Y-9389716D01*
X20544716Y-9446285D01*
X20601285Y-9446285D01*
X20601285Y-10208285D02*
X20601285Y-10151716D01*
X20544716Y-10151716D01*
X20544716Y-10208285D01*
X20601285Y-10208285D01*
X20851285Y-9346285D02*
X20851285Y-9289716D01*
X20794716Y-9289716D01*
X20794716Y-9346285D01*
X20851285Y-9346285D01*
X20851285Y-10108285D02*
X20851285Y-10051716D01*
X20794716Y-10051716D01*
X20794716Y-10108285D01*
X20851285Y-10108285D01*
X21101285Y-9246285D02*
X21101285Y-9189716D01*
X21044716Y-9189716D01*
X21044716Y-9246285D01*
X21101285Y-9246285D01*
X21101285Y-10008285D02*
X21101285Y-9951716D01*
X21044716Y-9951716D01*
X21044716Y-10008285D01*
X21101285Y-10008285D01*
X21351285Y-9747285D02*
X21351285Y-9690716D01*
X21294716Y-9690716D01*
X21294716Y-9747285D01*
X21351285Y-9747285D01*
X21351285Y-10509285D02*
X21351285Y-10452716D01*
X21294716Y-10452716D01*
X21294716Y-10509285D01*
X21351285Y-10509285D01*
X21601285Y-9647285D02*
X21601285Y-9590716D01*
X21544716Y-9590716D01*
X21544716Y-9647285D01*
X21601285Y-9647285D01*
X21601285Y-10409285D02*
X21601285Y-10352716D01*
X21544716Y-10352716D01*
X21544716Y-10409285D01*
X21601285Y-10409285D01*
X21851285Y-9547285D02*
X21851285Y-9490716D01*
X21794716Y-9490716D01*
X21794716Y-9547285D01*
X21851285Y-9547285D01*
X21851285Y-10309285D02*
X21851285Y-10252716D01*
X21794716Y-10252716D01*
X21794716Y-10309285D01*
X21851285Y-10309285D01*
X22101285Y-9448285D02*
X22101285Y-9391716D01*
X22044716Y-9391716D01*
X22044716Y-9448285D01*
X22101285Y-9448285D01*
X22101285Y-10210285D02*
X22101285Y-10153716D01*
X22044716Y-10153716D01*
X22044716Y-10210285D01*
X22101285Y-10210285D01*
X22351285Y-9347285D02*
X22351285Y-9290716D01*
X22294716Y-9290716D01*
X22294716Y-9347285D01*
X22351285Y-9347285D01*
X22351285Y-10109285D02*
X22351285Y-10052716D01*
X22294716Y-10052716D01*
X22294716Y-10109285D01*
X22351285Y-10109285D01*
X22601284Y-9247285D02*
X22601284Y-9190716D01*
X22544715Y-9190716D01*
X22544715Y-9247285D01*
X22601284Y-9247285D01*
X22601284Y-10009285D02*
X22601284Y-9952716D01*
X22544715Y-9952716D01*
X22544715Y-10009285D01*
X22601284Y-10009285D01*
X22855284Y-9149285D02*
X22855284Y-9092716D01*
X22798715Y-9092716D01*
X22798715Y-9149285D01*
X22855284Y-9149285D01*
X22855284Y-9911285D02*
X22855284Y-9854716D01*
X22798715Y-9854716D01*
X22798715Y-9911285D01*
X22855284Y-9911285D01*
X23828284Y-9747285D02*
X23828284Y-9690716D01*
X23771715Y-9690716D01*
X23771715Y-9747285D01*
X23828284Y-9747285D01*
X23828284Y-10509285D02*
X23828284Y-10452716D01*
X23771715Y-10452716D01*
X23771715Y-10509285D01*
X23828284Y-10509285D01*
X24078284Y-9648285D02*
X24078284Y-9591716D01*
X24021715Y-9591716D01*
X24021715Y-9648285D01*
X24078284Y-9648285D01*
X24078284Y-10410285D02*
X24078284Y-10353716D01*
X24021715Y-10353716D01*
X24021715Y-10410285D01*
X24078284Y-10410285D01*
X24328284Y-9547285D02*
X24328284Y-9490716D01*
X24271715Y-9490716D01*
X24271715Y-9547285D01*
X24328284Y-9547285D01*
X24328284Y-10309285D02*
X24328284Y-10252716D01*
X24271715Y-10252716D01*
X24271715Y-10309285D01*
X24328284Y-10309285D01*
X24578284Y-9447285D02*
X24578284Y-9390716D01*
X24521715Y-9390716D01*
X24521715Y-9447285D01*
X24578284Y-9447285D01*
X24578284Y-10209285D02*
X24578284Y-10152716D01*
X24521715Y-10152716D01*
X24521715Y-10209285D01*
X24578284Y-10209285D01*
X24828284Y-9347285D02*
X24828284Y-9290716D01*
X24771715Y-9290716D01*
X24771715Y-9347285D01*
X24828284Y-9347285D01*
X24828284Y-10109285D02*
X24828284Y-10052716D01*
X24771715Y-10052716D01*
X24771715Y-10109285D01*
X24828284Y-10109285D01*
X25078284Y-9247285D02*
X25078284Y-9190716D01*
X25021715Y-9190716D01*
X25021715Y-9247285D01*
X25078284Y-9247285D01*
X25078284Y-10009285D02*
X25078284Y-9952716D01*
X25021715Y-9952716D01*
X25021715Y-10009285D01*
X25078284Y-10009285D01*
X25328284Y-9747285D02*
X25328284Y-9690716D01*
X25271715Y-9690716D01*
X25271715Y-9747285D01*
X25328284Y-9747285D01*
X25328284Y-10509285D02*
X25328284Y-10452716D01*
X25271715Y-10452716D01*
X25271715Y-10509285D01*
X25328284Y-10509285D01*
X25578284Y-9647285D02*
X25578284Y-9590716D01*
X25521715Y-9590716D01*
X25521715Y-9647285D01*
X25578284Y-9647285D01*
X25578284Y-10409285D02*
X25578284Y-10352716D01*
X25521715Y-10352716D01*
X25521715Y-10409285D01*
X25578284Y-10409285D01*
X25828284Y-9547285D02*
X25828284Y-9490716D01*
X25771715Y-9490716D01*
X25771715Y-9547285D01*
X25828284Y-9547285D01*
X25828284Y-10309285D02*
X25828284Y-10252716D01*
X25771715Y-10252716D01*
X25771715Y-10309285D01*
X25828284Y-10309285D01*
X26078284Y-9447285D02*
X26078284Y-9390716D01*
X26021715Y-9390716D01*
X26021715Y-9447285D01*
X26078284Y-9447285D01*
X26078284Y-10209285D02*
X26078284Y-10152716D01*
X26021715Y-10152716D01*
X26021715Y-10209285D01*
X26078284Y-10209285D01*
X26328284Y-9347285D02*
X26328284Y-9290716D01*
X26271715Y-9290716D01*
X26271715Y-9347285D01*
X26328284Y-9347285D01*
X26328284Y-10109285D02*
X26328284Y-10052716D01*
X26271715Y-10052716D01*
X26271715Y-10109285D01*
X26328284Y-10109285D01*
X26578284Y-9247285D02*
X26578284Y-9190716D01*
X26521715Y-9190716D01*
X26521715Y-9247285D01*
X26578284Y-9247285D01*
X26578284Y-10009285D02*
X26578284Y-9952716D01*
X26521715Y-9952716D01*
X26521715Y-10009285D01*
X26578284Y-10009285D01*
X26828284Y-9146285D02*
X26828284Y-9089716D01*
X26771715Y-9089716D01*
X26771715Y-9146285D01*
X26828284Y-9146285D01*
X26828284Y-9908285D02*
X26828284Y-9851716D01*
X26771715Y-9851716D01*
X26771715Y-9908285D01*
X26828284Y-9908285D01*
X27802284Y-9747285D02*
X27802284Y-9690716D01*
X27745715Y-9690716D01*
X27745715Y-9747285D01*
X27802284Y-9747285D01*
X27802284Y-10509285D02*
X27802284Y-10452716D01*
X27745715Y-10452716D01*
X27745715Y-10509285D01*
X27802284Y-10509285D01*
X28052284Y-9647285D02*
X28052284Y-9590716D01*
X27995715Y-9590716D01*
X27995715Y-9647285D01*
X28052284Y-9647285D01*
X28052284Y-10409285D02*
X28052284Y-10352716D01*
X27995715Y-10352716D01*
X27995715Y-10409285D01*
X28052284Y-10409285D01*
X28302284Y-9547285D02*
X28302284Y-9490716D01*
X28245715Y-9490716D01*
X28245715Y-9547285D01*
X28302284Y-9547285D01*
X28302284Y-10309285D02*
X28302284Y-10252716D01*
X28245715Y-10252716D01*
X28245715Y-10309285D01*
X28302284Y-10309285D01*
X28552284Y-9447285D02*
X28552284Y-9390716D01*
X28495715Y-9390716D01*
X28495715Y-9447285D01*
X28552284Y-9447285D01*
X28552284Y-10209285D02*
X28552284Y-10152716D01*
X28495715Y-10152716D01*
X28495715Y-10209285D01*
X28552284Y-10209285D01*
X28802284Y-9347285D02*
X28802284Y-9290716D01*
X28745715Y-9290716D01*
X28745715Y-9347285D01*
X28802284Y-9347285D01*
X28802284Y-10109285D02*
X28802284Y-10052716D01*
X28745715Y-10052716D01*
X28745715Y-10109285D01*
X28802284Y-10109285D01*
X29052284Y-9247285D02*
X29052284Y-9190716D01*
X28995715Y-9190716D01*
X28995715Y-9247285D01*
X29052284Y-9247285D01*
X29052284Y-10009285D02*
X29052284Y-9952716D01*
X28995715Y-9952716D01*
X28995715Y-10009285D01*
X29052284Y-10009285D01*
X29302284Y-9147285D02*
X29302284Y-9090716D01*
X29245715Y-9090716D01*
X29245715Y-9147285D01*
X29302284Y-9147285D01*
X29302284Y-9909285D02*
X29302284Y-9852716D01*
X29245715Y-9852716D01*
X29245715Y-9909285D01*
X29302284Y-9909285D01*
X29553284Y-9047285D02*
X29553284Y-8990716D01*
X29496715Y-8990716D01*
X29496715Y-9047285D01*
X29553284Y-9047285D01*
X29553284Y-9809285D02*
X29553284Y-9752716D01*
X29496715Y-9752716D01*
X29496715Y-9809285D01*
X29553284Y-9809285D01*
X29805284Y-8947285D02*
X29805284Y-8890716D01*
X29748715Y-8890716D01*
X29748715Y-8947285D01*
X29805284Y-8947285D01*
X29805284Y-9709285D02*
X29805284Y-9652716D01*
X29748715Y-9652716D01*
X29748715Y-9709285D01*
X29805284Y-9709285D01*
D17*
X8855000Y-8645000D02*
X8900000Y-8600000D01*
X8855000Y-8555000D01*
X8810000Y-8600000D01*
X8855000Y-8645000D01*
X8855000Y-8899000D02*
X8900000Y-8854000D01*
X8855000Y-8809000D01*
X8810000Y-8854000D01*
X8855000Y-8899000D01*
D18*
X7087500Y-9850000D02*
X7187500Y-9950000D01*
X7187500Y-9850000D02*
X7087500Y-9950000D01*
X7187500Y-9900000D02*
G75*
G03*
X7187500Y-9900000I-50000J0D01*
G01*
X7087500Y-10104000D02*
X7187500Y-10204000D01*
X7187500Y-10104000D02*
X7087500Y-10204000D01*
X7187500Y-10154000D02*
G75*
G03*
X7187500Y-10154000I-50000J0D01*
G01*
X9232000Y-8612500D02*
X9332000Y-8712500D01*
X9332000Y-8612500D02*
X9232000Y-8712500D01*
X9332000Y-8662500D02*
G75*
G03*
X9332000Y-8662500I-50000J0D01*
G01*
X9232000Y-8866500D02*
X9332000Y-8966500D01*
X9332000Y-8866500D02*
X9232000Y-8966500D01*
X9332000Y-8916500D02*
G75*
G03*
X9332000Y-8916500I-50000J0D01*
G01*
X9486000Y-8612500D02*
X9586000Y-8712500D01*
X9586000Y-8612500D02*
X9486000Y-8712500D01*
X9586000Y-8662500D02*
G75*
G03*
X9586000Y-8662500I-50000J0D01*
G01*
X9486000Y-8866500D02*
X9586000Y-8966500D01*
X9586000Y-8866500D02*
X9486000Y-8966500D01*
X9586000Y-8916500D02*
G75*
G03*
X9586000Y-8916500I-50000J0D01*
G01*
X9740000Y-8612500D02*
X9840000Y-8712500D01*
X9840000Y-8612500D02*
X9740000Y-8712500D01*
X9840000Y-8662500D02*
G75*
G03*
X9840000Y-8662500I-50000J0D01*
G01*
X9740000Y-8866500D02*
X9840000Y-8966500D01*
X9840000Y-8866500D02*
X9740000Y-8966500D01*
X9840000Y-8916500D02*
G75*
G03*
X9840000Y-8916500I-50000J0D01*
G01*
X34515000Y-9242500D02*
X34615000Y-9342500D01*
X34615000Y-9242500D02*
X34515000Y-9342500D01*
X34615000Y-9292500D02*
G75*
G03*
X34615000Y-9292500I-50000J0D01*
G01*
X34515000Y-9496500D02*
X34615000Y-9596500D01*
X34615000Y-9496500D02*
X34515000Y-9596500D01*
X34615000Y-9546500D02*
G75*
G03*
X34615000Y-9546500I-50000J0D01*
G01*
X34515000Y-9750500D02*
X34615000Y-9850500D01*
X34615000Y-9750500D02*
X34515000Y-9850500D01*
X34615000Y-9800500D02*
G75*
G03*
X34615000Y-9800500I-50000J0D01*
G01*
X34515000Y-10004500D02*
X34615000Y-10104500D01*
X34615000Y-10004500D02*
X34515000Y-10104500D01*
X34615000Y-10054500D02*
G75*
G03*
X34615000Y-10054500I-50000J0D01*
G01*
D19*
X10072500Y-8577500D02*
X10182500Y-8687500D01*
X10182500Y-8577500D02*
X10072500Y-8687500D01*
X10127500Y-8577500D02*
X10127500Y-8687500D01*
X10072500Y-8632500D02*
X10182500Y-8632500D01*
X10072500Y-9027500D02*
X10182500Y-9137500D01*
X10182500Y-9027500D02*
X10072500Y-9137500D01*
X10127500Y-9027500D02*
X10127500Y-9137500D01*
X10072500Y-9082500D02*
X10182500Y-9082500D01*
X10408500Y-10625000D02*
X10518500Y-10735000D01*
X10518500Y-10625000D02*
X10408500Y-10735000D01*
X10463500Y-10625000D02*
X10463500Y-10735000D01*
X10408500Y-10680000D02*
X10518500Y-10680000D01*
X10662500Y-10625000D02*
X10772500Y-10735000D01*
X10772500Y-10625000D02*
X10662500Y-10735000D01*
X10717500Y-10625000D02*
X10717500Y-10735000D01*
X10662500Y-10680000D02*
X10772500Y-10680000D01*
X10722500Y-8577500D02*
X10832500Y-8687500D01*
X10832500Y-8577500D02*
X10722500Y-8687500D01*
X10777500Y-8577500D02*
X10777500Y-8687500D01*
X10722500Y-8632500D02*
X10832500Y-8632500D01*
X10722500Y-9027500D02*
X10832500Y-9137500D01*
X10832500Y-9027500D02*
X10722500Y-9137500D01*
X10777500Y-9027500D02*
X10777500Y-9137500D01*
X10722500Y-9082500D02*
X10832500Y-9082500D01*
X10916500Y-10625000D02*
X11026500Y-10735000D01*
X11026500Y-10625000D02*
X10916500Y-10735000D01*
X10971500Y-10625000D02*
X10971500Y-10735000D01*
X10916500Y-10680000D02*
X11026500Y-10680000D01*
D12*
X7078869Y-20873601D02*
X7078869Y-20673601D01*
X7126488Y-20673601D01*
X7155059Y-20683125D01*
X7174107Y-20702173D01*
X7183631Y-20721220D01*
X7193155Y-20759315D01*
X7193155Y-20787887D01*
X7183631Y-20825982D01*
X7174107Y-20845030D01*
X7155059Y-20864077D01*
X7126488Y-20873601D01*
X7078869Y-20873601D01*
X7278869Y-20873601D02*
X7278869Y-20740268D01*
X7278869Y-20778363D02*
X7288393Y-20759315D01*
X7297917Y-20749792D01*
X7316964Y-20740268D01*
X7336012Y-20740268D01*
X7402678Y-20873601D02*
X7402678Y-20740268D01*
X7402678Y-20673601D02*
X7393155Y-20683125D01*
X7402678Y-20692649D01*
X7412202Y-20683125D01*
X7402678Y-20673601D01*
X7402678Y-20692649D01*
X7526488Y-20873601D02*
X7507440Y-20864077D01*
X7497917Y-20845030D01*
X7497917Y-20673601D01*
X7631250Y-20873601D02*
X7612202Y-20864077D01*
X7602678Y-20845030D01*
X7602678Y-20673601D01*
X7859821Y-20873601D02*
X7859821Y-20673601D01*
X7926488Y-20816458D01*
X7993155Y-20673601D01*
X7993155Y-20873601D01*
X8174107Y-20873601D02*
X8174107Y-20768839D01*
X8164583Y-20749792D01*
X8145536Y-20740268D01*
X8107440Y-20740268D01*
X8088393Y-20749792D01*
X8174107Y-20864077D02*
X8155059Y-20873601D01*
X8107440Y-20873601D01*
X8088393Y-20864077D01*
X8078869Y-20845030D01*
X8078869Y-20825982D01*
X8088393Y-20806935D01*
X8107440Y-20797411D01*
X8155059Y-20797411D01*
X8174107Y-20787887D01*
X8269345Y-20740268D02*
X8269345Y-20940268D01*
X8269345Y-20749792D02*
X8288393Y-20740268D01*
X8326488Y-20740268D01*
X8345536Y-20749792D01*
X8355059Y-20759315D01*
X8364583Y-20778363D01*
X8364583Y-20835506D01*
X8355059Y-20854554D01*
X8345536Y-20864077D01*
X8326488Y-20873601D01*
X8288393Y-20873601D01*
X8269345Y-20864077D01*
X8450298Y-20854554D02*
X8459821Y-20864077D01*
X8450298Y-20873601D01*
X8440774Y-20864077D01*
X8450298Y-20854554D01*
X8450298Y-20873601D01*
X8450298Y-20749792D02*
X8459821Y-20759315D01*
X8450298Y-20768839D01*
X8440774Y-20759315D01*
X8450298Y-20749792D01*
X8450298Y-20768839D01*
D13*
X6791250Y-21188125D02*
X6821250Y-21218125D01*
X6821250Y-21188125D02*
X6791250Y-21218125D01*
D12*
X7116964Y-21093601D02*
X7136012Y-21093601D01*
X7155059Y-21103125D01*
X7164583Y-21112649D01*
X7174107Y-21131696D01*
X7183631Y-21169792D01*
X7183631Y-21217411D01*
X7174107Y-21255506D01*
X7164583Y-21274554D01*
X7155059Y-21284077D01*
X7136012Y-21293601D01*
X7116964Y-21293601D01*
X7097917Y-21284077D01*
X7088393Y-21274554D01*
X7078869Y-21255506D01*
X7069345Y-21217411D01*
X7069345Y-21169792D01*
X7078869Y-21131696D01*
X7088393Y-21112649D01*
X7097917Y-21103125D01*
X7116964Y-21093601D01*
X7269345Y-21274554D02*
X7278869Y-21284077D01*
X7269345Y-21293601D01*
X7259821Y-21284077D01*
X7269345Y-21274554D01*
X7269345Y-21293601D01*
X7345536Y-21093601D02*
X7469345Y-21093601D01*
X7402678Y-21169792D01*
X7431250Y-21169792D01*
X7450298Y-21179315D01*
X7459821Y-21188839D01*
X7469345Y-21207887D01*
X7469345Y-21255506D01*
X7459821Y-21274554D01*
X7450298Y-21284077D01*
X7431250Y-21293601D01*
X7374107Y-21293601D01*
X7355059Y-21284077D01*
X7345536Y-21274554D01*
X7593155Y-21093601D02*
X7612202Y-21093601D01*
X7631250Y-21103125D01*
X7640774Y-21112649D01*
X7650298Y-21131696D01*
X7659821Y-21169792D01*
X7659821Y-21217411D01*
X7650298Y-21255506D01*
X7640774Y-21274554D01*
X7631250Y-21284077D01*
X7612202Y-21293601D01*
X7593155Y-21293601D01*
X7574107Y-21284077D01*
X7564583Y-21274554D01*
X7555059Y-21255506D01*
X7545536Y-21217411D01*
X7545536Y-21169792D01*
X7555059Y-21131696D01*
X7564583Y-21112649D01*
X7574107Y-21103125D01*
X7593155Y-21093601D01*
X7783631Y-21093601D02*
X7802678Y-21093601D01*
X7821726Y-21103125D01*
X7831250Y-21112649D01*
X7840774Y-21131696D01*
X7850298Y-21169792D01*
X7850298Y-21217411D01*
X7840774Y-21255506D01*
X7831250Y-21274554D01*
X7821726Y-21284077D01*
X7802678Y-21293601D01*
X7783631Y-21293601D01*
X7764583Y-21284077D01*
X7755059Y-21274554D01*
X7745536Y-21255506D01*
X7736012Y-21217411D01*
X7736012Y-21169792D01*
X7745536Y-21131696D01*
X7755059Y-21112649D01*
X7764583Y-21103125D01*
X7783631Y-21093601D01*
X7936012Y-21293601D02*
X7936012Y-21160268D01*
X7936012Y-21179315D02*
X7945536Y-21169792D01*
X7964583Y-21160268D01*
X7993155Y-21160268D01*
X8012202Y-21169792D01*
X8021726Y-21188839D01*
X8021726Y-21293601D01*
X8021726Y-21188839D02*
X8031250Y-21169792D01*
X8050298Y-21160268D01*
X8078869Y-21160268D01*
X8097917Y-21169792D01*
X8107440Y-21188839D01*
X8107440Y-21293601D01*
X8202678Y-21293601D02*
X8202678Y-21160268D01*
X8202678Y-21179315D02*
X8212202Y-21169792D01*
X8231250Y-21160268D01*
X8259821Y-21160268D01*
X8278869Y-21169792D01*
X8288393Y-21188839D01*
X8288393Y-21293601D01*
X8288393Y-21188839D02*
X8297917Y-21169792D01*
X8316964Y-21160268D01*
X8345536Y-21160268D01*
X8364583Y-21169792D01*
X8374107Y-21188839D01*
X8374107Y-21293601D01*
X8764583Y-21084077D02*
X8593155Y-21341220D01*
X9021726Y-21093601D02*
X9040774Y-21093601D01*
X9059821Y-21103125D01*
X9069345Y-21112649D01*
X9078869Y-21131696D01*
X9088393Y-21169792D01*
X9088393Y-21217411D01*
X9078869Y-21255506D01*
X9069345Y-21274554D01*
X9059821Y-21284077D01*
X9040774Y-21293601D01*
X9021726Y-21293601D01*
X9002679Y-21284077D01*
X8993155Y-21274554D01*
X8983631Y-21255506D01*
X8974107Y-21217411D01*
X8974107Y-21169792D01*
X8983631Y-21131696D01*
X8993155Y-21112649D01*
X9002679Y-21103125D01*
X9021726Y-21093601D01*
X9174107Y-21274554D02*
X9183631Y-21284077D01*
X9174107Y-21293601D01*
X9164583Y-21284077D01*
X9174107Y-21274554D01*
X9174107Y-21293601D01*
X9307440Y-21093601D02*
X9326488Y-21093601D01*
X9345536Y-21103125D01*
X9355060Y-21112649D01*
X9364583Y-21131696D01*
X9374107Y-21169792D01*
X9374107Y-21217411D01*
X9364583Y-21255506D01*
X9355060Y-21274554D01*
X9345536Y-21284077D01*
X9326488Y-21293601D01*
X9307440Y-21293601D01*
X9288393Y-21284077D01*
X9278869Y-21274554D01*
X9269345Y-21255506D01*
X9259821Y-21217411D01*
X9259821Y-21169792D01*
X9269345Y-21131696D01*
X9278869Y-21112649D01*
X9288393Y-21103125D01*
X9307440Y-21093601D01*
X9564583Y-21293601D02*
X9450298Y-21293601D01*
X9507440Y-21293601D02*
X9507440Y-21093601D01*
X9488393Y-21122173D01*
X9469345Y-21141220D01*
X9450298Y-21150744D01*
X9755060Y-21293601D02*
X9640774Y-21293601D01*
X9697917Y-21293601D02*
X9697917Y-21093601D01*
X9678869Y-21122173D01*
X9659821Y-21141220D01*
X9640774Y-21150744D01*
X9869345Y-21179315D02*
X9850298Y-21169792D01*
X9840774Y-21160268D01*
X9831250Y-21141220D01*
X9831250Y-21131696D01*
X9840774Y-21112649D01*
X9850298Y-21103125D01*
X9869345Y-21093601D01*
X9907440Y-21093601D01*
X9926488Y-21103125D01*
X9936012Y-21112649D01*
X9945536Y-21131696D01*
X9945536Y-21141220D01*
X9936012Y-21160268D01*
X9926488Y-21169792D01*
X9907440Y-21179315D01*
X9869345Y-21179315D01*
X9850298Y-21188839D01*
X9840774Y-21198363D01*
X9831250Y-21217411D01*
X9831250Y-21255506D01*
X9840774Y-21274554D01*
X9850298Y-21284077D01*
X9869345Y-21293601D01*
X9907440Y-21293601D01*
X9926488Y-21284077D01*
X9936012Y-21274554D01*
X9945536Y-21255506D01*
X9945536Y-21217411D01*
X9936012Y-21198363D01*
X9926488Y-21188839D01*
X9907440Y-21179315D01*
X10021726Y-21093601D02*
X10021726Y-21131696D01*
X10097917Y-21093601D02*
X10097917Y-21131696D01*
X10393155Y-21369792D02*
X10383631Y-21360268D01*
X10364583Y-21331696D01*
X10355060Y-21312649D01*
X10345536Y-21284077D01*
X10336012Y-21236458D01*
X10336012Y-21198363D01*
X10345536Y-21150744D01*
X10355060Y-21122173D01*
X10364583Y-21103125D01*
X10383631Y-21074554D01*
X10393155Y-21065030D01*
X10574107Y-21293601D02*
X10459821Y-21293601D01*
X10516964Y-21293601D02*
X10516964Y-21093601D01*
X10497917Y-21122173D01*
X10478869Y-21141220D01*
X10459821Y-21150744D01*
X10745536Y-21160268D02*
X10745536Y-21293601D01*
X10697917Y-21084077D02*
X10650298Y-21226935D01*
X10774107Y-21226935D01*
X10955060Y-21293601D02*
X10840774Y-21293601D01*
X10897917Y-21293601D02*
X10897917Y-21093601D01*
X10878869Y-21122173D01*
X10859821Y-21141220D01*
X10840774Y-21150744D01*
X11193155Y-21293601D02*
X11193155Y-21093601D01*
X11278869Y-21293601D02*
X11278869Y-21188839D01*
X11269345Y-21169792D01*
X11250298Y-21160268D01*
X11221726Y-21160268D01*
X11202678Y-21169792D01*
X11193155Y-21179315D01*
X11402678Y-21293601D02*
X11383631Y-21284077D01*
X11374107Y-21274554D01*
X11364583Y-21255506D01*
X11364583Y-21198363D01*
X11374107Y-21179315D01*
X11383631Y-21169792D01*
X11402678Y-21160268D01*
X11431250Y-21160268D01*
X11450298Y-21169792D01*
X11459821Y-21179315D01*
X11469345Y-21198363D01*
X11469345Y-21255506D01*
X11459821Y-21274554D01*
X11450298Y-21284077D01*
X11431250Y-21293601D01*
X11402678Y-21293601D01*
X11583631Y-21293601D02*
X11564583Y-21284077D01*
X11555059Y-21265030D01*
X11555059Y-21093601D01*
X11736012Y-21284077D02*
X11716964Y-21293601D01*
X11678869Y-21293601D01*
X11659821Y-21284077D01*
X11650298Y-21265030D01*
X11650298Y-21188839D01*
X11659821Y-21169792D01*
X11678869Y-21160268D01*
X11716964Y-21160268D01*
X11736012Y-21169792D01*
X11745536Y-21188839D01*
X11745536Y-21207887D01*
X11650298Y-21226935D01*
X11821726Y-21284077D02*
X11840774Y-21293601D01*
X11878869Y-21293601D01*
X11897917Y-21284077D01*
X11907440Y-21265030D01*
X11907440Y-21255506D01*
X11897917Y-21236458D01*
X11878869Y-21226935D01*
X11850298Y-21226935D01*
X11831250Y-21217411D01*
X11821726Y-21198363D01*
X11821726Y-21188839D01*
X11831250Y-21169792D01*
X11850298Y-21160268D01*
X11878869Y-21160268D01*
X11897917Y-21169792D01*
X11974107Y-21369792D02*
X11983631Y-21360268D01*
X12002678Y-21331696D01*
X12012202Y-21312649D01*
X12021726Y-21284077D01*
X12031250Y-21236458D01*
X12031250Y-21198363D01*
X12021726Y-21150744D01*
X12012202Y-21122173D01*
X12002678Y-21103125D01*
X11983631Y-21074554D01*
X11974107Y-21065030D01*
D14*
X6821250Y-21467125D02*
G75*
G03*
X6821250Y-21467125I-20000J0D01*
G01*
D12*
X7116964Y-21357601D02*
X7136012Y-21357601D01*
X7155059Y-21367125D01*
X7164583Y-21376649D01*
X7174107Y-21395696D01*
X7183631Y-21433792D01*
X7183631Y-21481411D01*
X7174107Y-21519506D01*
X7164583Y-21538554D01*
X7155059Y-21548077D01*
X7136012Y-21557601D01*
X7116964Y-21557601D01*
X7097917Y-21548077D01*
X7088393Y-21538554D01*
X7078869Y-21519506D01*
X7069345Y-21481411D01*
X7069345Y-21433792D01*
X7078869Y-21395696D01*
X7088393Y-21376649D01*
X7097917Y-21367125D01*
X7116964Y-21357601D01*
X7269345Y-21538554D02*
X7278869Y-21548077D01*
X7269345Y-21557601D01*
X7259821Y-21548077D01*
X7269345Y-21538554D01*
X7269345Y-21557601D01*
X7450298Y-21424268D02*
X7450298Y-21557601D01*
X7402678Y-21348077D02*
X7355059Y-21490935D01*
X7478869Y-21490935D01*
X7593155Y-21357601D02*
X7612202Y-21357601D01*
X7631250Y-21367125D01*
X7640774Y-21376649D01*
X7650298Y-21395696D01*
X7659821Y-21433792D01*
X7659821Y-21481411D01*
X7650298Y-21519506D01*
X7640774Y-21538554D01*
X7631250Y-21548077D01*
X7612202Y-21557601D01*
X7593155Y-21557601D01*
X7574107Y-21548077D01*
X7564583Y-21538554D01*
X7555059Y-21519506D01*
X7545536Y-21481411D01*
X7545536Y-21433792D01*
X7555059Y-21395696D01*
X7564583Y-21376649D01*
X7574107Y-21367125D01*
X7593155Y-21357601D01*
X7783631Y-21357601D02*
X7802678Y-21357601D01*
X7821726Y-21367125D01*
X7831250Y-21376649D01*
X7840774Y-21395696D01*
X7850298Y-21433792D01*
X7850298Y-21481411D01*
X7840774Y-21519506D01*
X7831250Y-21538554D01*
X7821726Y-21548077D01*
X7802678Y-21557601D01*
X7783631Y-21557601D01*
X7764583Y-21548077D01*
X7755059Y-21538554D01*
X7745536Y-21519506D01*
X7736012Y-21481411D01*
X7736012Y-21433792D01*
X7745536Y-21395696D01*
X7755059Y-21376649D01*
X7764583Y-21367125D01*
X7783631Y-21357601D01*
X7936012Y-21557601D02*
X7936012Y-21424268D01*
X7936012Y-21443315D02*
X7945536Y-21433792D01*
X7964583Y-21424268D01*
X7993155Y-21424268D01*
X8012202Y-21433792D01*
X8021726Y-21452839D01*
X8021726Y-21557601D01*
X8021726Y-21452839D02*
X8031250Y-21433792D01*
X8050298Y-21424268D01*
X8078869Y-21424268D01*
X8097917Y-21433792D01*
X8107440Y-21452839D01*
X8107440Y-21557601D01*
X8202678Y-21557601D02*
X8202678Y-21424268D01*
X8202678Y-21443315D02*
X8212202Y-21433792D01*
X8231250Y-21424268D01*
X8259821Y-21424268D01*
X8278869Y-21433792D01*
X8288393Y-21452839D01*
X8288393Y-21557601D01*
X8288393Y-21452839D02*
X8297917Y-21433792D01*
X8316964Y-21424268D01*
X8345536Y-21424268D01*
X8364583Y-21433792D01*
X8374107Y-21452839D01*
X8374107Y-21557601D01*
X8764583Y-21348077D02*
X8593155Y-21605220D01*
X9021726Y-21357601D02*
X9040774Y-21357601D01*
X9059821Y-21367125D01*
X9069345Y-21376649D01*
X9078869Y-21395696D01*
X9088393Y-21433792D01*
X9088393Y-21481411D01*
X9078869Y-21519506D01*
X9069345Y-21538554D01*
X9059821Y-21548077D01*
X9040774Y-21557601D01*
X9021726Y-21557601D01*
X9002679Y-21548077D01*
X8993155Y-21538554D01*
X8983631Y-21519506D01*
X8974107Y-21481411D01*
X8974107Y-21433792D01*
X8983631Y-21395696D01*
X8993155Y-21376649D01*
X9002679Y-21367125D01*
X9021726Y-21357601D01*
X9174107Y-21538554D02*
X9183631Y-21548077D01*
X9174107Y-21557601D01*
X9164583Y-21548077D01*
X9174107Y-21538554D01*
X9174107Y-21557601D01*
X9307440Y-21357601D02*
X9326488Y-21357601D01*
X9345536Y-21367125D01*
X9355060Y-21376649D01*
X9364583Y-21395696D01*
X9374107Y-21433792D01*
X9374107Y-21481411D01*
X9364583Y-21519506D01*
X9355060Y-21538554D01*
X9345536Y-21548077D01*
X9326488Y-21557601D01*
X9307440Y-21557601D01*
X9288393Y-21548077D01*
X9278869Y-21538554D01*
X9269345Y-21519506D01*
X9259821Y-21481411D01*
X9259821Y-21433792D01*
X9269345Y-21395696D01*
X9278869Y-21376649D01*
X9288393Y-21367125D01*
X9307440Y-21357601D01*
X9564583Y-21557601D02*
X9450298Y-21557601D01*
X9507440Y-21557601D02*
X9507440Y-21357601D01*
X9488393Y-21386173D01*
X9469345Y-21405220D01*
X9450298Y-21414744D01*
X9745536Y-21357601D02*
X9650298Y-21357601D01*
X9640774Y-21452839D01*
X9650298Y-21443315D01*
X9669345Y-21433792D01*
X9716964Y-21433792D01*
X9736012Y-21443315D01*
X9745536Y-21452839D01*
X9755060Y-21471887D01*
X9755060Y-21519506D01*
X9745536Y-21538554D01*
X9736012Y-21548077D01*
X9716964Y-21557601D01*
X9669345Y-21557601D01*
X9650298Y-21548077D01*
X9640774Y-21538554D01*
X9821726Y-21357601D02*
X9955060Y-21357601D01*
X9869345Y-21557601D01*
X10021726Y-21357601D02*
X10021726Y-21395696D01*
X10097917Y-21357601D02*
X10097917Y-21395696D01*
X10393155Y-21633792D02*
X10383631Y-21624268D01*
X10364583Y-21595696D01*
X10355060Y-21576649D01*
X10345536Y-21548077D01*
X10336012Y-21500458D01*
X10336012Y-21462363D01*
X10345536Y-21414744D01*
X10355060Y-21386173D01*
X10364583Y-21367125D01*
X10383631Y-21338554D01*
X10393155Y-21329030D01*
X10450298Y-21357601D02*
X10574107Y-21357601D01*
X10507440Y-21433792D01*
X10536012Y-21433792D01*
X10555060Y-21443315D01*
X10564583Y-21452839D01*
X10574107Y-21471887D01*
X10574107Y-21519506D01*
X10564583Y-21538554D01*
X10555060Y-21548077D01*
X10536012Y-21557601D01*
X10478869Y-21557601D01*
X10459821Y-21548077D01*
X10450298Y-21538554D01*
X10812202Y-21557601D02*
X10812202Y-21357601D01*
X10897917Y-21557601D02*
X10897917Y-21452839D01*
X10888393Y-21433792D01*
X10869345Y-21424268D01*
X10840774Y-21424268D01*
X10821726Y-21433792D01*
X10812202Y-21443315D01*
X11021726Y-21557601D02*
X11002679Y-21548077D01*
X10993155Y-21538554D01*
X10983631Y-21519506D01*
X10983631Y-21462363D01*
X10993155Y-21443315D01*
X11002679Y-21433792D01*
X11021726Y-21424268D01*
X11050298Y-21424268D01*
X11069345Y-21433792D01*
X11078869Y-21443315D01*
X11088393Y-21462363D01*
X11088393Y-21519506D01*
X11078869Y-21538554D01*
X11069345Y-21548077D01*
X11050298Y-21557601D01*
X11021726Y-21557601D01*
X11202678Y-21557601D02*
X11183631Y-21548077D01*
X11174107Y-21529030D01*
X11174107Y-21357601D01*
X11355059Y-21548077D02*
X11336012Y-21557601D01*
X11297917Y-21557601D01*
X11278869Y-21548077D01*
X11269345Y-21529030D01*
X11269345Y-21452839D01*
X11278869Y-21433792D01*
X11297917Y-21424268D01*
X11336012Y-21424268D01*
X11355059Y-21433792D01*
X11364583Y-21452839D01*
X11364583Y-21471887D01*
X11269345Y-21490935D01*
X11440774Y-21548077D02*
X11459821Y-21557601D01*
X11497917Y-21557601D01*
X11516964Y-21548077D01*
X11526488Y-21529030D01*
X11526488Y-21519506D01*
X11516964Y-21500458D01*
X11497917Y-21490935D01*
X11469345Y-21490935D01*
X11450298Y-21481411D01*
X11440774Y-21462363D01*
X11440774Y-21452839D01*
X11450298Y-21433792D01*
X11469345Y-21424268D01*
X11497917Y-21424268D01*
X11516964Y-21433792D01*
X11593155Y-21633792D02*
X11602678Y-21624268D01*
X11621726Y-21595696D01*
X11631250Y-21576649D01*
X11640774Y-21548077D01*
X11650298Y-21500458D01*
X11650298Y-21462363D01*
X11640774Y-21414744D01*
X11631250Y-21386173D01*
X11621726Y-21367125D01*
X11602678Y-21338554D01*
X11593155Y-21329030D01*
D15*
X6791250Y-21701125D02*
X6791250Y-21761125D01*
X6761250Y-21731125D02*
X6821250Y-21731125D01*
D12*
X7116964Y-21621601D02*
X7136012Y-21621601D01*
X7155059Y-21631125D01*
X7164583Y-21640649D01*
X7174107Y-21659696D01*
X7183631Y-21697792D01*
X7183631Y-21745411D01*
X7174107Y-21783506D01*
X7164583Y-21802554D01*
X7155059Y-21812077D01*
X7136012Y-21821601D01*
X7116964Y-21821601D01*
X7097917Y-21812077D01*
X7088393Y-21802554D01*
X7078869Y-21783506D01*
X7069345Y-21745411D01*
X7069345Y-21697792D01*
X7078869Y-21659696D01*
X7088393Y-21640649D01*
X7097917Y-21631125D01*
X7116964Y-21621601D01*
X7269345Y-21802554D02*
X7278869Y-21812077D01*
X7269345Y-21821601D01*
X7259821Y-21812077D01*
X7269345Y-21802554D01*
X7269345Y-21821601D01*
X7450298Y-21621601D02*
X7412202Y-21621601D01*
X7393155Y-21631125D01*
X7383631Y-21640649D01*
X7364583Y-21669220D01*
X7355059Y-21707315D01*
X7355059Y-21783506D01*
X7364583Y-21802554D01*
X7374107Y-21812077D01*
X7393155Y-21821601D01*
X7431250Y-21821601D01*
X7450298Y-21812077D01*
X7459821Y-21802554D01*
X7469345Y-21783506D01*
X7469345Y-21735887D01*
X7459821Y-21716839D01*
X7450298Y-21707315D01*
X7431250Y-21697792D01*
X7393155Y-21697792D01*
X7374107Y-21707315D01*
X7364583Y-21716839D01*
X7355059Y-21735887D01*
X7593155Y-21621601D02*
X7612202Y-21621601D01*
X7631250Y-21631125D01*
X7640774Y-21640649D01*
X7650298Y-21659696D01*
X7659821Y-21697792D01*
X7659821Y-21745411D01*
X7650298Y-21783506D01*
X7640774Y-21802554D01*
X7631250Y-21812077D01*
X7612202Y-21821601D01*
X7593155Y-21821601D01*
X7574107Y-21812077D01*
X7564583Y-21802554D01*
X7555059Y-21783506D01*
X7545536Y-21745411D01*
X7545536Y-21697792D01*
X7555059Y-21659696D01*
X7564583Y-21640649D01*
X7574107Y-21631125D01*
X7593155Y-21621601D01*
X7783631Y-21621601D02*
X7802678Y-21621601D01*
X7821726Y-21631125D01*
X7831250Y-21640649D01*
X7840774Y-21659696D01*
X7850298Y-21697792D01*
X7850298Y-21745411D01*
X7840774Y-21783506D01*
X7831250Y-21802554D01*
X7821726Y-21812077D01*
X7802678Y-21821601D01*
X7783631Y-21821601D01*
X7764583Y-21812077D01*
X7755059Y-21802554D01*
X7745536Y-21783506D01*
X7736012Y-21745411D01*
X7736012Y-21697792D01*
X7745536Y-21659696D01*
X7755059Y-21640649D01*
X7764583Y-21631125D01*
X7783631Y-21621601D01*
X7936012Y-21821601D02*
X7936012Y-21688268D01*
X7936012Y-21707315D02*
X7945536Y-21697792D01*
X7964583Y-21688268D01*
X7993155Y-21688268D01*
X8012202Y-21697792D01*
X8021726Y-21716839D01*
X8021726Y-21821601D01*
X8021726Y-21716839D02*
X8031250Y-21697792D01*
X8050298Y-21688268D01*
X8078869Y-21688268D01*
X8097917Y-21697792D01*
X8107440Y-21716839D01*
X8107440Y-21821601D01*
X8202678Y-21821601D02*
X8202678Y-21688268D01*
X8202678Y-21707315D02*
X8212202Y-21697792D01*
X8231250Y-21688268D01*
X8259821Y-21688268D01*
X8278869Y-21697792D01*
X8288393Y-21716839D01*
X8288393Y-21821601D01*
X8288393Y-21716839D02*
X8297917Y-21697792D01*
X8316964Y-21688268D01*
X8345536Y-21688268D01*
X8364583Y-21697792D01*
X8374107Y-21716839D01*
X8374107Y-21821601D01*
X8764583Y-21612077D02*
X8593155Y-21869220D01*
X9021726Y-21621601D02*
X9040774Y-21621601D01*
X9059821Y-21631125D01*
X9069345Y-21640649D01*
X9078869Y-21659696D01*
X9088393Y-21697792D01*
X9088393Y-21745411D01*
X9078869Y-21783506D01*
X9069345Y-21802554D01*
X9059821Y-21812077D01*
X9040774Y-21821601D01*
X9021726Y-21821601D01*
X9002679Y-21812077D01*
X8993155Y-21802554D01*
X8983631Y-21783506D01*
X8974107Y-21745411D01*
X8974107Y-21697792D01*
X8983631Y-21659696D01*
X8993155Y-21640649D01*
X9002679Y-21631125D01*
X9021726Y-21621601D01*
X9174107Y-21802554D02*
X9183631Y-21812077D01*
X9174107Y-21821601D01*
X9164583Y-21812077D01*
X9174107Y-21802554D01*
X9174107Y-21821601D01*
X9307440Y-21621601D02*
X9326488Y-21621601D01*
X9345536Y-21631125D01*
X9355060Y-21640649D01*
X9364583Y-21659696D01*
X9374107Y-21697792D01*
X9374107Y-21745411D01*
X9364583Y-21783506D01*
X9355060Y-21802554D01*
X9345536Y-21812077D01*
X9326488Y-21821601D01*
X9307440Y-21821601D01*
X9288393Y-21812077D01*
X9278869Y-21802554D01*
X9269345Y-21783506D01*
X9259821Y-21745411D01*
X9259821Y-21697792D01*
X9269345Y-21659696D01*
X9278869Y-21640649D01*
X9288393Y-21631125D01*
X9307440Y-21621601D01*
X9450298Y-21640649D02*
X9459821Y-21631125D01*
X9478869Y-21621601D01*
X9526488Y-21621601D01*
X9545536Y-21631125D01*
X9555060Y-21640649D01*
X9564583Y-21659696D01*
X9564583Y-21678744D01*
X9555060Y-21707315D01*
X9440774Y-21821601D01*
X9564583Y-21821601D01*
X9631250Y-21621601D02*
X9755060Y-21621601D01*
X9688393Y-21697792D01*
X9716964Y-21697792D01*
X9736012Y-21707315D01*
X9745536Y-21716839D01*
X9755060Y-21735887D01*
X9755060Y-21783506D01*
X9745536Y-21802554D01*
X9736012Y-21812077D01*
X9716964Y-21821601D01*
X9659821Y-21821601D01*
X9640774Y-21812077D01*
X9631250Y-21802554D01*
X9926488Y-21621601D02*
X9888393Y-21621601D01*
X9869345Y-21631125D01*
X9859821Y-21640649D01*
X9840774Y-21669220D01*
X9831250Y-21707315D01*
X9831250Y-21783506D01*
X9840774Y-21802554D01*
X9850298Y-21812077D01*
X9869345Y-21821601D01*
X9907440Y-21821601D01*
X9926488Y-21812077D01*
X9936012Y-21802554D01*
X9945536Y-21783506D01*
X9945536Y-21735887D01*
X9936012Y-21716839D01*
X9926488Y-21707315D01*
X9907440Y-21697792D01*
X9869345Y-21697792D01*
X9850298Y-21707315D01*
X9840774Y-21716839D01*
X9831250Y-21735887D01*
X10021726Y-21621601D02*
X10021726Y-21659696D01*
X10097917Y-21621601D02*
X10097917Y-21659696D01*
X10393155Y-21897792D02*
X10383631Y-21888268D01*
X10364583Y-21859696D01*
X10355060Y-21840649D01*
X10345536Y-21812077D01*
X10336012Y-21764458D01*
X10336012Y-21726363D01*
X10345536Y-21678744D01*
X10355060Y-21650173D01*
X10364583Y-21631125D01*
X10383631Y-21602554D01*
X10393155Y-21593030D01*
X10507440Y-21621601D02*
X10526488Y-21621601D01*
X10545536Y-21631125D01*
X10555060Y-21640649D01*
X10564583Y-21659696D01*
X10574107Y-21697792D01*
X10574107Y-21745411D01*
X10564583Y-21783506D01*
X10555060Y-21802554D01*
X10545536Y-21812077D01*
X10526488Y-21821601D01*
X10507440Y-21821601D01*
X10488393Y-21812077D01*
X10478869Y-21802554D01*
X10469345Y-21783506D01*
X10459821Y-21745411D01*
X10459821Y-21697792D01*
X10469345Y-21659696D01*
X10478869Y-21640649D01*
X10488393Y-21631125D01*
X10507440Y-21621601D01*
X10812202Y-21821601D02*
X10812202Y-21621601D01*
X10897917Y-21821601D02*
X10897917Y-21716839D01*
X10888393Y-21697792D01*
X10869345Y-21688268D01*
X10840774Y-21688268D01*
X10821726Y-21697792D01*
X10812202Y-21707315D01*
X11021726Y-21821601D02*
X11002679Y-21812077D01*
X10993155Y-21802554D01*
X10983631Y-21783506D01*
X10983631Y-21726363D01*
X10993155Y-21707315D01*
X11002679Y-21697792D01*
X11021726Y-21688268D01*
X11050298Y-21688268D01*
X11069345Y-21697792D01*
X11078869Y-21707315D01*
X11088393Y-21726363D01*
X11088393Y-21783506D01*
X11078869Y-21802554D01*
X11069345Y-21812077D01*
X11050298Y-21821601D01*
X11021726Y-21821601D01*
X11202678Y-21821601D02*
X11183631Y-21812077D01*
X11174107Y-21793030D01*
X11174107Y-21621601D01*
X11355059Y-21812077D02*
X11336012Y-21821601D01*
X11297917Y-21821601D01*
X11278869Y-21812077D01*
X11269345Y-21793030D01*
X11269345Y-21716839D01*
X11278869Y-21697792D01*
X11297917Y-21688268D01*
X11336012Y-21688268D01*
X11355059Y-21697792D01*
X11364583Y-21716839D01*
X11364583Y-21735887D01*
X11269345Y-21754935D01*
X11440774Y-21812077D02*
X11459821Y-21821601D01*
X11497917Y-21821601D01*
X11516964Y-21812077D01*
X11526488Y-21793030D01*
X11526488Y-21783506D01*
X11516964Y-21764458D01*
X11497917Y-21754935D01*
X11469345Y-21754935D01*
X11450298Y-21745411D01*
X11440774Y-21726363D01*
X11440774Y-21716839D01*
X11450298Y-21697792D01*
X11469345Y-21688268D01*
X11497917Y-21688268D01*
X11516964Y-21697792D01*
X11764583Y-21745411D02*
X11916964Y-21745411D01*
X11840774Y-21821601D02*
X11840774Y-21669220D01*
X12250298Y-21688268D02*
X12250298Y-21821601D01*
X12202678Y-21612077D02*
X12155059Y-21754935D01*
X12278869Y-21754935D01*
X12497917Y-21812077D02*
X12516964Y-21821601D01*
X12555059Y-21821601D01*
X12574107Y-21812077D01*
X12583631Y-21793030D01*
X12583631Y-21783506D01*
X12574107Y-21764458D01*
X12555059Y-21754935D01*
X12526488Y-21754935D01*
X12507440Y-21745411D01*
X12497917Y-21726363D01*
X12497917Y-21716839D01*
X12507440Y-21697792D01*
X12526488Y-21688268D01*
X12555059Y-21688268D01*
X12574107Y-21697792D01*
X12697917Y-21821601D02*
X12678869Y-21812077D01*
X12669345Y-21793030D01*
X12669345Y-21621601D01*
X12802678Y-21821601D02*
X12783631Y-21812077D01*
X12774107Y-21802554D01*
X12764583Y-21783506D01*
X12764583Y-21726363D01*
X12774107Y-21707315D01*
X12783631Y-21697792D01*
X12802678Y-21688268D01*
X12831250Y-21688268D01*
X12850298Y-21697792D01*
X12859821Y-21707315D01*
X12869345Y-21726363D01*
X12869345Y-21783506D01*
X12859821Y-21802554D01*
X12850298Y-21812077D01*
X12831250Y-21821601D01*
X12802678Y-21821601D01*
X12926488Y-21688268D02*
X13002678Y-21688268D01*
X12955059Y-21621601D02*
X12955059Y-21793030D01*
X12964583Y-21812077D01*
X12983631Y-21821601D01*
X13002678Y-21821601D01*
X13059821Y-21812077D02*
X13078869Y-21821601D01*
X13116964Y-21821601D01*
X13136012Y-21812077D01*
X13145536Y-21793030D01*
X13145536Y-21783506D01*
X13136012Y-21764458D01*
X13116964Y-21754935D01*
X13088393Y-21754935D01*
X13069345Y-21745411D01*
X13059821Y-21726363D01*
X13059821Y-21716839D01*
X13069345Y-21697792D01*
X13088393Y-21688268D01*
X13116964Y-21688268D01*
X13136012Y-21697792D01*
X13212202Y-21897792D02*
X13221726Y-21888268D01*
X13240774Y-21859696D01*
X13250298Y-21840649D01*
X13259821Y-21812077D01*
X13269345Y-21764458D01*
X13269345Y-21726363D01*
X13259821Y-21678744D01*
X13250298Y-21650173D01*
X13240774Y-21631125D01*
X13221726Y-21602554D01*
X13212202Y-21593030D01*
D16*
X6809534Y-22023410D02*
X6809534Y-21966841D01*
X6752965Y-21966841D01*
X6752965Y-22023410D01*
X6809534Y-22023410D01*
D12*
X7116964Y-21885601D02*
X7136012Y-21885601D01*
X7155059Y-21895125D01*
X7164583Y-21904649D01*
X7174107Y-21923696D01*
X7183631Y-21961792D01*
X7183631Y-22009411D01*
X7174107Y-22047506D01*
X7164583Y-22066554D01*
X7155059Y-22076077D01*
X7136012Y-22085601D01*
X7116964Y-22085601D01*
X7097917Y-22076077D01*
X7088393Y-22066554D01*
X7078869Y-22047506D01*
X7069345Y-22009411D01*
X7069345Y-21961792D01*
X7078869Y-21923696D01*
X7088393Y-21904649D01*
X7097917Y-21895125D01*
X7116964Y-21885601D01*
X7269345Y-22066554D02*
X7278869Y-22076077D01*
X7269345Y-22085601D01*
X7259821Y-22076077D01*
X7269345Y-22066554D01*
X7269345Y-22085601D01*
X7393155Y-21971315D02*
X7374107Y-21961792D01*
X7364583Y-21952268D01*
X7355059Y-21933220D01*
X7355059Y-21923696D01*
X7364583Y-21904649D01*
X7374107Y-21895125D01*
X7393155Y-21885601D01*
X7431250Y-21885601D01*
X7450298Y-21895125D01*
X7459821Y-21904649D01*
X7469345Y-21923696D01*
X7469345Y-21933220D01*
X7459821Y-21952268D01*
X7450298Y-21961792D01*
X7431250Y-21971315D01*
X7393155Y-21971315D01*
X7374107Y-21980839D01*
X7364583Y-21990363D01*
X7355059Y-22009411D01*
X7355059Y-22047506D01*
X7364583Y-22066554D01*
X7374107Y-22076077D01*
X7393155Y-22085601D01*
X7431250Y-22085601D01*
X7450298Y-22076077D01*
X7459821Y-22066554D01*
X7469345Y-22047506D01*
X7469345Y-22009411D01*
X7459821Y-21990363D01*
X7450298Y-21980839D01*
X7431250Y-21971315D01*
X7593155Y-21885601D02*
X7612202Y-21885601D01*
X7631250Y-21895125D01*
X7640774Y-21904649D01*
X7650298Y-21923696D01*
X7659821Y-21961792D01*
X7659821Y-22009411D01*
X7650298Y-22047506D01*
X7640774Y-22066554D01*
X7631250Y-22076077D01*
X7612202Y-22085601D01*
X7593155Y-22085601D01*
X7574107Y-22076077D01*
X7564583Y-22066554D01*
X7555059Y-22047506D01*
X7545536Y-22009411D01*
X7545536Y-21961792D01*
X7555059Y-21923696D01*
X7564583Y-21904649D01*
X7574107Y-21895125D01*
X7593155Y-21885601D01*
X7783631Y-21885601D02*
X7802678Y-21885601D01*
X7821726Y-21895125D01*
X7831250Y-21904649D01*
X7840774Y-21923696D01*
X7850298Y-21961792D01*
X7850298Y-22009411D01*
X7840774Y-22047506D01*
X7831250Y-22066554D01*
X7821726Y-22076077D01*
X7802678Y-22085601D01*
X7783631Y-22085601D01*
X7764583Y-22076077D01*
X7755059Y-22066554D01*
X7745536Y-22047506D01*
X7736012Y-22009411D01*
X7736012Y-21961792D01*
X7745536Y-21923696D01*
X7755059Y-21904649D01*
X7764583Y-21895125D01*
X7783631Y-21885601D01*
X7936012Y-22085601D02*
X7936012Y-21952268D01*
X7936012Y-21971315D02*
X7945536Y-21961792D01*
X7964583Y-21952268D01*
X7993155Y-21952268D01*
X8012202Y-21961792D01*
X8021726Y-21980839D01*
X8021726Y-22085601D01*
X8021726Y-21980839D02*
X8031250Y-21961792D01*
X8050298Y-21952268D01*
X8078869Y-21952268D01*
X8097917Y-21961792D01*
X8107440Y-21980839D01*
X8107440Y-22085601D01*
X8202678Y-22085601D02*
X8202678Y-21952268D01*
X8202678Y-21971315D02*
X8212202Y-21961792D01*
X8231250Y-21952268D01*
X8259821Y-21952268D01*
X8278869Y-21961792D01*
X8288393Y-21980839D01*
X8288393Y-22085601D01*
X8288393Y-21980839D02*
X8297917Y-21961792D01*
X8316964Y-21952268D01*
X8345536Y-21952268D01*
X8364583Y-21961792D01*
X8374107Y-21980839D01*
X8374107Y-22085601D01*
X8764583Y-21876077D02*
X8593155Y-22133220D01*
X9021726Y-21885601D02*
X9040774Y-21885601D01*
X9059821Y-21895125D01*
X9069345Y-21904649D01*
X9078869Y-21923696D01*
X9088393Y-21961792D01*
X9088393Y-22009411D01*
X9078869Y-22047506D01*
X9069345Y-22066554D01*
X9059821Y-22076077D01*
X9040774Y-22085601D01*
X9021726Y-22085601D01*
X9002679Y-22076077D01*
X8993155Y-22066554D01*
X8983631Y-22047506D01*
X8974107Y-22009411D01*
X8974107Y-21961792D01*
X8983631Y-21923696D01*
X8993155Y-21904649D01*
X9002679Y-21895125D01*
X9021726Y-21885601D01*
X9174107Y-22066554D02*
X9183631Y-22076077D01*
X9174107Y-22085601D01*
X9164583Y-22076077D01*
X9174107Y-22066554D01*
X9174107Y-22085601D01*
X9307440Y-21885601D02*
X9326488Y-21885601D01*
X9345536Y-21895125D01*
X9355060Y-21904649D01*
X9364583Y-21923696D01*
X9374107Y-21961792D01*
X9374107Y-22009411D01*
X9364583Y-22047506D01*
X9355060Y-22066554D01*
X9345536Y-22076077D01*
X9326488Y-22085601D01*
X9307440Y-22085601D01*
X9288393Y-22076077D01*
X9278869Y-22066554D01*
X9269345Y-22047506D01*
X9259821Y-22009411D01*
X9259821Y-21961792D01*
X9269345Y-21923696D01*
X9278869Y-21904649D01*
X9288393Y-21895125D01*
X9307440Y-21885601D01*
X9440774Y-21885601D02*
X9564583Y-21885601D01*
X9497917Y-21961792D01*
X9526488Y-21961792D01*
X9545536Y-21971315D01*
X9555060Y-21980839D01*
X9564583Y-21999887D01*
X9564583Y-22047506D01*
X9555060Y-22066554D01*
X9545536Y-22076077D01*
X9526488Y-22085601D01*
X9469345Y-22085601D01*
X9450298Y-22076077D01*
X9440774Y-22066554D01*
X9755060Y-22085601D02*
X9640774Y-22085601D01*
X9697917Y-22085601D02*
X9697917Y-21885601D01*
X9678869Y-21914173D01*
X9659821Y-21933220D01*
X9640774Y-21942744D01*
X9936012Y-21885601D02*
X9840774Y-21885601D01*
X9831250Y-21980839D01*
X9840774Y-21971315D01*
X9859821Y-21961792D01*
X9907440Y-21961792D01*
X9926488Y-21971315D01*
X9936012Y-21980839D01*
X9945536Y-21999887D01*
X9945536Y-22047506D01*
X9936012Y-22066554D01*
X9926488Y-22076077D01*
X9907440Y-22085601D01*
X9859821Y-22085601D01*
X9840774Y-22076077D01*
X9831250Y-22066554D01*
X10021726Y-21885601D02*
X10021726Y-21923696D01*
X10097917Y-21885601D02*
X10097917Y-21923696D01*
X10393155Y-22161792D02*
X10383631Y-22152268D01*
X10364583Y-22123696D01*
X10355060Y-22104649D01*
X10345536Y-22076077D01*
X10336012Y-22028458D01*
X10336012Y-21990363D01*
X10345536Y-21942744D01*
X10355060Y-21914173D01*
X10364583Y-21895125D01*
X10383631Y-21866554D01*
X10393155Y-21857030D01*
X10574107Y-22085601D02*
X10459821Y-22085601D01*
X10516964Y-22085601D02*
X10516964Y-21885601D01*
X10497917Y-21914173D01*
X10478869Y-21933220D01*
X10459821Y-21942744D01*
X10650298Y-21904649D02*
X10659821Y-21895125D01*
X10678869Y-21885601D01*
X10726488Y-21885601D01*
X10745536Y-21895125D01*
X10755060Y-21904649D01*
X10764583Y-21923696D01*
X10764583Y-21942744D01*
X10755060Y-21971315D01*
X10640774Y-22085601D01*
X10764583Y-22085601D01*
X10936012Y-21885601D02*
X10897917Y-21885601D01*
X10878869Y-21895125D01*
X10869345Y-21904649D01*
X10850298Y-21933220D01*
X10840774Y-21971315D01*
X10840774Y-22047506D01*
X10850298Y-22066554D01*
X10859821Y-22076077D01*
X10878869Y-22085601D01*
X10916964Y-22085601D01*
X10936012Y-22076077D01*
X10945536Y-22066554D01*
X10955060Y-22047506D01*
X10955060Y-21999887D01*
X10945536Y-21980839D01*
X10936012Y-21971315D01*
X10916964Y-21961792D01*
X10878869Y-21961792D01*
X10859821Y-21971315D01*
X10850298Y-21980839D01*
X10840774Y-21999887D01*
X11193155Y-22085601D02*
X11193155Y-21885601D01*
X11278869Y-22085601D02*
X11278869Y-21980839D01*
X11269345Y-21961792D01*
X11250298Y-21952268D01*
X11221726Y-21952268D01*
X11202678Y-21961792D01*
X11193155Y-21971315D01*
X11402678Y-22085601D02*
X11383631Y-22076077D01*
X11374107Y-22066554D01*
X11364583Y-22047506D01*
X11364583Y-21990363D01*
X11374107Y-21971315D01*
X11383631Y-21961792D01*
X11402678Y-21952268D01*
X11431250Y-21952268D01*
X11450298Y-21961792D01*
X11459821Y-21971315D01*
X11469345Y-21990363D01*
X11469345Y-22047506D01*
X11459821Y-22066554D01*
X11450298Y-22076077D01*
X11431250Y-22085601D01*
X11402678Y-22085601D01*
X11583631Y-22085601D02*
X11564583Y-22076077D01*
X11555059Y-22057030D01*
X11555059Y-21885601D01*
X11736012Y-22076077D02*
X11716964Y-22085601D01*
X11678869Y-22085601D01*
X11659821Y-22076077D01*
X11650298Y-22057030D01*
X11650298Y-21980839D01*
X11659821Y-21961792D01*
X11678869Y-21952268D01*
X11716964Y-21952268D01*
X11736012Y-21961792D01*
X11745536Y-21980839D01*
X11745536Y-21999887D01*
X11650298Y-22018935D01*
X11821726Y-22076077D02*
X11840774Y-22085601D01*
X11878869Y-22085601D01*
X11897917Y-22076077D01*
X11907440Y-22057030D01*
X11907440Y-22047506D01*
X11897917Y-22028458D01*
X11878869Y-22018935D01*
X11850298Y-22018935D01*
X11831250Y-22009411D01*
X11821726Y-21990363D01*
X11821726Y-21980839D01*
X11831250Y-21961792D01*
X11850298Y-21952268D01*
X11878869Y-21952268D01*
X11897917Y-21961792D01*
X11974107Y-22161792D02*
X11983631Y-22152268D01*
X12002678Y-22123696D01*
X12012202Y-22104649D01*
X12021726Y-22076077D01*
X12031250Y-22028458D01*
X12031250Y-21990363D01*
X12021726Y-21942744D01*
X12012202Y-21914173D01*
X12002678Y-21895125D01*
X11983631Y-21866554D01*
X11974107Y-21857030D01*
D17*
X6776250Y-22304125D02*
X6821250Y-22259125D01*
X6776250Y-22214125D01*
X6731250Y-22259125D01*
X6776250Y-22304125D01*
D12*
X7116964Y-22149601D02*
X7136012Y-22149601D01*
X7155059Y-22159125D01*
X7164583Y-22168649D01*
X7174107Y-22187696D01*
X7183631Y-22225792D01*
X7183631Y-22273411D01*
X7174107Y-22311506D01*
X7164583Y-22330554D01*
X7155059Y-22340077D01*
X7136012Y-22349601D01*
X7116964Y-22349601D01*
X7097917Y-22340077D01*
X7088393Y-22330554D01*
X7078869Y-22311506D01*
X7069345Y-22273411D01*
X7069345Y-22225792D01*
X7078869Y-22187696D01*
X7088393Y-22168649D01*
X7097917Y-22159125D01*
X7116964Y-22149601D01*
X7269345Y-22330554D02*
X7278869Y-22340077D01*
X7269345Y-22349601D01*
X7259821Y-22340077D01*
X7269345Y-22330554D01*
X7269345Y-22349601D01*
X7374107Y-22349601D02*
X7412202Y-22349601D01*
X7431250Y-22340077D01*
X7440774Y-22330554D01*
X7459821Y-22301982D01*
X7469345Y-22263887D01*
X7469345Y-22187696D01*
X7459821Y-22168649D01*
X7450298Y-22159125D01*
X7431250Y-22149601D01*
X7393155Y-22149601D01*
X7374107Y-22159125D01*
X7364583Y-22168649D01*
X7355059Y-22187696D01*
X7355059Y-22235315D01*
X7364583Y-22254363D01*
X7374107Y-22263887D01*
X7393155Y-22273411D01*
X7431250Y-22273411D01*
X7450298Y-22263887D01*
X7459821Y-22254363D01*
X7469345Y-22235315D01*
X7593155Y-22149601D02*
X7612202Y-22149601D01*
X7631250Y-22159125D01*
X7640774Y-22168649D01*
X7650298Y-22187696D01*
X7659821Y-22225792D01*
X7659821Y-22273411D01*
X7650298Y-22311506D01*
X7640774Y-22330554D01*
X7631250Y-22340077D01*
X7612202Y-22349601D01*
X7593155Y-22349601D01*
X7574107Y-22340077D01*
X7564583Y-22330554D01*
X7555059Y-22311506D01*
X7545536Y-22273411D01*
X7545536Y-22225792D01*
X7555059Y-22187696D01*
X7564583Y-22168649D01*
X7574107Y-22159125D01*
X7593155Y-22149601D01*
X7783631Y-22149601D02*
X7802678Y-22149601D01*
X7821726Y-22159125D01*
X7831250Y-22168649D01*
X7840774Y-22187696D01*
X7850298Y-22225792D01*
X7850298Y-22273411D01*
X7840774Y-22311506D01*
X7831250Y-22330554D01*
X7821726Y-22340077D01*
X7802678Y-22349601D01*
X7783631Y-22349601D01*
X7764583Y-22340077D01*
X7755059Y-22330554D01*
X7745536Y-22311506D01*
X7736012Y-22273411D01*
X7736012Y-22225792D01*
X7745536Y-22187696D01*
X7755059Y-22168649D01*
X7764583Y-22159125D01*
X7783631Y-22149601D01*
X7936012Y-22349601D02*
X7936012Y-22216268D01*
X7936012Y-22235315D02*
X7945536Y-22225792D01*
X7964583Y-22216268D01*
X7993155Y-22216268D01*
X8012202Y-22225792D01*
X8021726Y-22244839D01*
X8021726Y-22349601D01*
X8021726Y-22244839D02*
X8031250Y-22225792D01*
X8050298Y-22216268D01*
X8078869Y-22216268D01*
X8097917Y-22225792D01*
X8107440Y-22244839D01*
X8107440Y-22349601D01*
X8202678Y-22349601D02*
X8202678Y-22216268D01*
X8202678Y-22235315D02*
X8212202Y-22225792D01*
X8231250Y-22216268D01*
X8259821Y-22216268D01*
X8278869Y-22225792D01*
X8288393Y-22244839D01*
X8288393Y-22349601D01*
X8288393Y-22244839D02*
X8297917Y-22225792D01*
X8316964Y-22216268D01*
X8345536Y-22216268D01*
X8364583Y-22225792D01*
X8374107Y-22244839D01*
X8374107Y-22349601D01*
X8764583Y-22140077D02*
X8593155Y-22397220D01*
X9021726Y-22149601D02*
X9040774Y-22149601D01*
X9059821Y-22159125D01*
X9069345Y-22168649D01*
X9078869Y-22187696D01*
X9088393Y-22225792D01*
X9088393Y-22273411D01*
X9078869Y-22311506D01*
X9069345Y-22330554D01*
X9059821Y-22340077D01*
X9040774Y-22349601D01*
X9021726Y-22349601D01*
X9002679Y-22340077D01*
X8993155Y-22330554D01*
X8983631Y-22311506D01*
X8974107Y-22273411D01*
X8974107Y-22225792D01*
X8983631Y-22187696D01*
X8993155Y-22168649D01*
X9002679Y-22159125D01*
X9021726Y-22149601D01*
X9174107Y-22330554D02*
X9183631Y-22340077D01*
X9174107Y-22349601D01*
X9164583Y-22340077D01*
X9174107Y-22330554D01*
X9174107Y-22349601D01*
X9307440Y-22149601D02*
X9326488Y-22149601D01*
X9345536Y-22159125D01*
X9355060Y-22168649D01*
X9364583Y-22187696D01*
X9374107Y-22225792D01*
X9374107Y-22273411D01*
X9364583Y-22311506D01*
X9355060Y-22330554D01*
X9345536Y-22340077D01*
X9326488Y-22349601D01*
X9307440Y-22349601D01*
X9288393Y-22340077D01*
X9278869Y-22330554D01*
X9269345Y-22311506D01*
X9259821Y-22273411D01*
X9259821Y-22225792D01*
X9269345Y-22187696D01*
X9278869Y-22168649D01*
X9288393Y-22159125D01*
X9307440Y-22149601D01*
X9440774Y-22149601D02*
X9564583Y-22149601D01*
X9497917Y-22225792D01*
X9526488Y-22225792D01*
X9545536Y-22235315D01*
X9555060Y-22244839D01*
X9564583Y-22263887D01*
X9564583Y-22311506D01*
X9555060Y-22330554D01*
X9545536Y-22340077D01*
X9526488Y-22349601D01*
X9469345Y-22349601D01*
X9450298Y-22340077D01*
X9440774Y-22330554D01*
X9745536Y-22149601D02*
X9650298Y-22149601D01*
X9640774Y-22244839D01*
X9650298Y-22235315D01*
X9669345Y-22225792D01*
X9716964Y-22225792D01*
X9736012Y-22235315D01*
X9745536Y-22244839D01*
X9755060Y-22263887D01*
X9755060Y-22311506D01*
X9745536Y-22330554D01*
X9736012Y-22340077D01*
X9716964Y-22349601D01*
X9669345Y-22349601D01*
X9650298Y-22340077D01*
X9640774Y-22330554D01*
X9926488Y-22216268D02*
X9926488Y-22349601D01*
X9878869Y-22140077D02*
X9831250Y-22282935D01*
X9955060Y-22282935D01*
X10021726Y-22149601D02*
X10021726Y-22187696D01*
X10097917Y-22149601D02*
X10097917Y-22187696D01*
X10393155Y-22425792D02*
X10383631Y-22416268D01*
X10364583Y-22387696D01*
X10355060Y-22368649D01*
X10345536Y-22340077D01*
X10336012Y-22292458D01*
X10336012Y-22254363D01*
X10345536Y-22206744D01*
X10355060Y-22178173D01*
X10364583Y-22159125D01*
X10383631Y-22130554D01*
X10393155Y-22121030D01*
X10459821Y-22168649D02*
X10469345Y-22159125D01*
X10488393Y-22149601D01*
X10536012Y-22149601D01*
X10555060Y-22159125D01*
X10564583Y-22168649D01*
X10574107Y-22187696D01*
X10574107Y-22206744D01*
X10564583Y-22235315D01*
X10450298Y-22349601D01*
X10574107Y-22349601D01*
X10812202Y-22349601D02*
X10812202Y-22149601D01*
X10897917Y-22349601D02*
X10897917Y-22244839D01*
X10888393Y-22225792D01*
X10869345Y-22216268D01*
X10840774Y-22216268D01*
X10821726Y-22225792D01*
X10812202Y-22235315D01*
X11021726Y-22349601D02*
X11002679Y-22340077D01*
X10993155Y-22330554D01*
X10983631Y-22311506D01*
X10983631Y-22254363D01*
X10993155Y-22235315D01*
X11002679Y-22225792D01*
X11021726Y-22216268D01*
X11050298Y-22216268D01*
X11069345Y-22225792D01*
X11078869Y-22235315D01*
X11088393Y-22254363D01*
X11088393Y-22311506D01*
X11078869Y-22330554D01*
X11069345Y-22340077D01*
X11050298Y-22349601D01*
X11021726Y-22349601D01*
X11202678Y-22349601D02*
X11183631Y-22340077D01*
X11174107Y-22321030D01*
X11174107Y-22149601D01*
X11355059Y-22340077D02*
X11336012Y-22349601D01*
X11297917Y-22349601D01*
X11278869Y-22340077D01*
X11269345Y-22321030D01*
X11269345Y-22244839D01*
X11278869Y-22225792D01*
X11297917Y-22216268D01*
X11336012Y-22216268D01*
X11355059Y-22225792D01*
X11364583Y-22244839D01*
X11364583Y-22263887D01*
X11269345Y-22282935D01*
X11440774Y-22340077D02*
X11459821Y-22349601D01*
X11497917Y-22349601D01*
X11516964Y-22340077D01*
X11526488Y-22321030D01*
X11526488Y-22311506D01*
X11516964Y-22292458D01*
X11497917Y-22282935D01*
X11469345Y-22282935D01*
X11450298Y-22273411D01*
X11440774Y-22254363D01*
X11440774Y-22244839D01*
X11450298Y-22225792D01*
X11469345Y-22216268D01*
X11497917Y-22216268D01*
X11516964Y-22225792D01*
X11593155Y-22425792D02*
X11602678Y-22416268D01*
X11621726Y-22387696D01*
X11631250Y-22368649D01*
X11640774Y-22340077D01*
X11650298Y-22292458D01*
X11650298Y-22254363D01*
X11640774Y-22206744D01*
X11631250Y-22178173D01*
X11621726Y-22159125D01*
X11602678Y-22130554D01*
X11593155Y-22121030D01*
D18*
X6721250Y-22473125D02*
X6821250Y-22573125D01*
X6821250Y-22473125D02*
X6721250Y-22573125D01*
X6821250Y-22523125D02*
G75*
G03*
X6821250Y-22523125I-50000J0D01*
G01*
D12*
X7183631Y-22613601D02*
X7069345Y-22613601D01*
X7126488Y-22613601D02*
X7126488Y-22413601D01*
X7107440Y-22442173D01*
X7088393Y-22461220D01*
X7069345Y-22470744D01*
X7269345Y-22594553D02*
X7278869Y-22604077D01*
X7269345Y-22613601D01*
X7259821Y-22604077D01*
X7269345Y-22594553D01*
X7269345Y-22613601D01*
X7402678Y-22413601D02*
X7421726Y-22413601D01*
X7440774Y-22423125D01*
X7450298Y-22432649D01*
X7459821Y-22451696D01*
X7469345Y-22489792D01*
X7469345Y-22537411D01*
X7459821Y-22575506D01*
X7450298Y-22594553D01*
X7440774Y-22604077D01*
X7421726Y-22613601D01*
X7402678Y-22613601D01*
X7383631Y-22604077D01*
X7374107Y-22594553D01*
X7364583Y-22575506D01*
X7355059Y-22537411D01*
X7355059Y-22489792D01*
X7364583Y-22451696D01*
X7374107Y-22432649D01*
X7383631Y-22423125D01*
X7402678Y-22413601D01*
X7593155Y-22413601D02*
X7612202Y-22413601D01*
X7631250Y-22423125D01*
X7640774Y-22432649D01*
X7650298Y-22451696D01*
X7659821Y-22489792D01*
X7659821Y-22537411D01*
X7650298Y-22575506D01*
X7640774Y-22594553D01*
X7631250Y-22604077D01*
X7612202Y-22613601D01*
X7593155Y-22613601D01*
X7574107Y-22604077D01*
X7564583Y-22594553D01*
X7555059Y-22575506D01*
X7545536Y-22537411D01*
X7545536Y-22489792D01*
X7555059Y-22451696D01*
X7564583Y-22432649D01*
X7574107Y-22423125D01*
X7593155Y-22413601D01*
X7783631Y-22413601D02*
X7802678Y-22413601D01*
X7821726Y-22423125D01*
X7831250Y-22432649D01*
X7840774Y-22451696D01*
X7850298Y-22489792D01*
X7850298Y-22537411D01*
X7840774Y-22575506D01*
X7831250Y-22594553D01*
X7821726Y-22604077D01*
X7802678Y-22613601D01*
X7783631Y-22613601D01*
X7764583Y-22604077D01*
X7755059Y-22594553D01*
X7745536Y-22575506D01*
X7736012Y-22537411D01*
X7736012Y-22489792D01*
X7745536Y-22451696D01*
X7755059Y-22432649D01*
X7764583Y-22423125D01*
X7783631Y-22413601D01*
X7936012Y-22613601D02*
X7936012Y-22480268D01*
X7936012Y-22499315D02*
X7945536Y-22489792D01*
X7964583Y-22480268D01*
X7993155Y-22480268D01*
X8012202Y-22489792D01*
X8021726Y-22508839D01*
X8021726Y-22613601D01*
X8021726Y-22508839D02*
X8031250Y-22489792D01*
X8050298Y-22480268D01*
X8078869Y-22480268D01*
X8097917Y-22489792D01*
X8107440Y-22508839D01*
X8107440Y-22613601D01*
X8202678Y-22613601D02*
X8202678Y-22480268D01*
X8202678Y-22499315D02*
X8212202Y-22489792D01*
X8231250Y-22480268D01*
X8259821Y-22480268D01*
X8278869Y-22489792D01*
X8288393Y-22508839D01*
X8288393Y-22613601D01*
X8288393Y-22508839D02*
X8297917Y-22489792D01*
X8316964Y-22480268D01*
X8345536Y-22480268D01*
X8364583Y-22489792D01*
X8374107Y-22508839D01*
X8374107Y-22613601D01*
X8764583Y-22404077D02*
X8593155Y-22661220D01*
X9021726Y-22413601D02*
X9040774Y-22413601D01*
X9059821Y-22423125D01*
X9069345Y-22432649D01*
X9078869Y-22451696D01*
X9088393Y-22489792D01*
X9088393Y-22537411D01*
X9078869Y-22575506D01*
X9069345Y-22594553D01*
X9059821Y-22604077D01*
X9040774Y-22613601D01*
X9021726Y-22613601D01*
X9002679Y-22604077D01*
X8993155Y-22594553D01*
X8983631Y-22575506D01*
X8974107Y-22537411D01*
X8974107Y-22489792D01*
X8983631Y-22451696D01*
X8993155Y-22432649D01*
X9002679Y-22423125D01*
X9021726Y-22413601D01*
X9174107Y-22594553D02*
X9183631Y-22604077D01*
X9174107Y-22613601D01*
X9164583Y-22604077D01*
X9174107Y-22594553D01*
X9174107Y-22613601D01*
X9307440Y-22413601D02*
X9326488Y-22413601D01*
X9345536Y-22423125D01*
X9355060Y-22432649D01*
X9364583Y-22451696D01*
X9374107Y-22489792D01*
X9374107Y-22537411D01*
X9364583Y-22575506D01*
X9355060Y-22594553D01*
X9345536Y-22604077D01*
X9326488Y-22613601D01*
X9307440Y-22613601D01*
X9288393Y-22604077D01*
X9278869Y-22594553D01*
X9269345Y-22575506D01*
X9259821Y-22537411D01*
X9259821Y-22489792D01*
X9269345Y-22451696D01*
X9278869Y-22432649D01*
X9288393Y-22423125D01*
X9307440Y-22413601D01*
X9440774Y-22413601D02*
X9564583Y-22413601D01*
X9497917Y-22489792D01*
X9526488Y-22489792D01*
X9545536Y-22499315D01*
X9555060Y-22508839D01*
X9564583Y-22527887D01*
X9564583Y-22575506D01*
X9555060Y-22594553D01*
X9545536Y-22604077D01*
X9526488Y-22613601D01*
X9469345Y-22613601D01*
X9450298Y-22604077D01*
X9440774Y-22594553D01*
X9659821Y-22613601D02*
X9697917Y-22613601D01*
X9716964Y-22604077D01*
X9726488Y-22594553D01*
X9745536Y-22565982D01*
X9755060Y-22527887D01*
X9755060Y-22451696D01*
X9745536Y-22432649D01*
X9736012Y-22423125D01*
X9716964Y-22413601D01*
X9678869Y-22413601D01*
X9659821Y-22423125D01*
X9650298Y-22432649D01*
X9640774Y-22451696D01*
X9640774Y-22499315D01*
X9650298Y-22518363D01*
X9659821Y-22527887D01*
X9678869Y-22537411D01*
X9716964Y-22537411D01*
X9736012Y-22527887D01*
X9745536Y-22518363D01*
X9755060Y-22499315D01*
X9926488Y-22480268D02*
X9926488Y-22613601D01*
X9878869Y-22404077D02*
X9831250Y-22546934D01*
X9955060Y-22546934D01*
X10021726Y-22413601D02*
X10021726Y-22451696D01*
X10097917Y-22413601D02*
X10097917Y-22451696D01*
X10393155Y-22689792D02*
X10383631Y-22680268D01*
X10364583Y-22651696D01*
X10355060Y-22632649D01*
X10345536Y-22604077D01*
X10336012Y-22556458D01*
X10336012Y-22518363D01*
X10345536Y-22470744D01*
X10355060Y-22442173D01*
X10364583Y-22423125D01*
X10383631Y-22394553D01*
X10393155Y-22385030D01*
X10574107Y-22613601D02*
X10459821Y-22613601D01*
X10516964Y-22613601D02*
X10516964Y-22413601D01*
X10497917Y-22442173D01*
X10478869Y-22461220D01*
X10459821Y-22470744D01*
X10650298Y-22432649D02*
X10659821Y-22423125D01*
X10678869Y-22413601D01*
X10726488Y-22413601D01*
X10745536Y-22423125D01*
X10755060Y-22432649D01*
X10764583Y-22451696D01*
X10764583Y-22470744D01*
X10755060Y-22499315D01*
X10640774Y-22613601D01*
X10764583Y-22613601D01*
X11002679Y-22613601D02*
X11002679Y-22413601D01*
X11088393Y-22613601D02*
X11088393Y-22508839D01*
X11078869Y-22489792D01*
X11059821Y-22480268D01*
X11031250Y-22480268D01*
X11012202Y-22489792D01*
X11002679Y-22499315D01*
X11212202Y-22613601D02*
X11193155Y-22604077D01*
X11183631Y-22594553D01*
X11174107Y-22575506D01*
X11174107Y-22518363D01*
X11183631Y-22499315D01*
X11193155Y-22489792D01*
X11212202Y-22480268D01*
X11240774Y-22480268D01*
X11259821Y-22489792D01*
X11269345Y-22499315D01*
X11278869Y-22518363D01*
X11278869Y-22575506D01*
X11269345Y-22594553D01*
X11259821Y-22604077D01*
X11240774Y-22613601D01*
X11212202Y-22613601D01*
X11393155Y-22613601D02*
X11374107Y-22604077D01*
X11364583Y-22585030D01*
X11364583Y-22413601D01*
X11545536Y-22604077D02*
X11526488Y-22613601D01*
X11488393Y-22613601D01*
X11469345Y-22604077D01*
X11459821Y-22585030D01*
X11459821Y-22508839D01*
X11469345Y-22489792D01*
X11488393Y-22480268D01*
X11526488Y-22480268D01*
X11545536Y-22489792D01*
X11555059Y-22508839D01*
X11555059Y-22527887D01*
X11459821Y-22546934D01*
X11631250Y-22604077D02*
X11650298Y-22613601D01*
X11688393Y-22613601D01*
X11707440Y-22604077D01*
X11716964Y-22585030D01*
X11716964Y-22575506D01*
X11707440Y-22556458D01*
X11688393Y-22546934D01*
X11659821Y-22546934D01*
X11640774Y-22537411D01*
X11631250Y-22518363D01*
X11631250Y-22508839D01*
X11640774Y-22489792D01*
X11659821Y-22480268D01*
X11688393Y-22480268D01*
X11707440Y-22489792D01*
X11783631Y-22689792D02*
X11793155Y-22680268D01*
X11812202Y-22651696D01*
X11821726Y-22632649D01*
X11831250Y-22604077D01*
X11840774Y-22556458D01*
X11840774Y-22518363D01*
X11831250Y-22470744D01*
X11821726Y-22442173D01*
X11812202Y-22423125D01*
X11793155Y-22394553D01*
X11783631Y-22385030D01*
D19*
X6711250Y-22732125D02*
X6821250Y-22842125D01*
X6821250Y-22732125D02*
X6711250Y-22842125D01*
X6766250Y-22732125D02*
X6766250Y-22842125D01*
X6711250Y-22787125D02*
X6821250Y-22787125D01*
D12*
X7183631Y-22877601D02*
X7069345Y-22877601D01*
X7126488Y-22877601D02*
X7126488Y-22677601D01*
X7107440Y-22706173D01*
X7088393Y-22725220D01*
X7069345Y-22734744D01*
X7269345Y-22858553D02*
X7278869Y-22868077D01*
X7269345Y-22877601D01*
X7259821Y-22868077D01*
X7269345Y-22858553D01*
X7269345Y-22877601D01*
X7469345Y-22877601D02*
X7355059Y-22877601D01*
X7412202Y-22877601D02*
X7412202Y-22677601D01*
X7393155Y-22706173D01*
X7374107Y-22725220D01*
X7355059Y-22734744D01*
X7593155Y-22677601D02*
X7612202Y-22677601D01*
X7631250Y-22687125D01*
X7640774Y-22696649D01*
X7650298Y-22715696D01*
X7659821Y-22753792D01*
X7659821Y-22801411D01*
X7650298Y-22839506D01*
X7640774Y-22858553D01*
X7631250Y-22868077D01*
X7612202Y-22877601D01*
X7593155Y-22877601D01*
X7574107Y-22868077D01*
X7564583Y-22858553D01*
X7555059Y-22839506D01*
X7545536Y-22801411D01*
X7545536Y-22753792D01*
X7555059Y-22715696D01*
X7564583Y-22696649D01*
X7574107Y-22687125D01*
X7593155Y-22677601D01*
X7783631Y-22677601D02*
X7802678Y-22677601D01*
X7821726Y-22687125D01*
X7831250Y-22696649D01*
X7840774Y-22715696D01*
X7850298Y-22753792D01*
X7850298Y-22801411D01*
X7840774Y-22839506D01*
X7831250Y-22858553D01*
X7821726Y-22868077D01*
X7802678Y-22877601D01*
X7783631Y-22877601D01*
X7764583Y-22868077D01*
X7755059Y-22858553D01*
X7745536Y-22839506D01*
X7736012Y-22801411D01*
X7736012Y-22753792D01*
X7745536Y-22715696D01*
X7755059Y-22696649D01*
X7764583Y-22687125D01*
X7783631Y-22677601D01*
X7936012Y-22877601D02*
X7936012Y-22744268D01*
X7936012Y-22763315D02*
X7945536Y-22753792D01*
X7964583Y-22744268D01*
X7993155Y-22744268D01*
X8012202Y-22753792D01*
X8021726Y-22772839D01*
X8021726Y-22877601D01*
X8021726Y-22772839D02*
X8031250Y-22753792D01*
X8050298Y-22744268D01*
X8078869Y-22744268D01*
X8097917Y-22753792D01*
X8107440Y-22772839D01*
X8107440Y-22877601D01*
X8202678Y-22877601D02*
X8202678Y-22744268D01*
X8202678Y-22763315D02*
X8212202Y-22753792D01*
X8231250Y-22744268D01*
X8259821Y-22744268D01*
X8278869Y-22753792D01*
X8288393Y-22772839D01*
X8288393Y-22877601D01*
X8288393Y-22772839D02*
X8297917Y-22753792D01*
X8316964Y-22744268D01*
X8345536Y-22744268D01*
X8364583Y-22753792D01*
X8374107Y-22772839D01*
X8374107Y-22877601D01*
X8764583Y-22668077D02*
X8593155Y-22925220D01*
X9021726Y-22677601D02*
X9040774Y-22677601D01*
X9059821Y-22687125D01*
X9069345Y-22696649D01*
X9078869Y-22715696D01*
X9088393Y-22753792D01*
X9088393Y-22801411D01*
X9078869Y-22839506D01*
X9069345Y-22858553D01*
X9059821Y-22868077D01*
X9040774Y-22877601D01*
X9021726Y-22877601D01*
X9002679Y-22868077D01*
X8993155Y-22858553D01*
X8983631Y-22839506D01*
X8974107Y-22801411D01*
X8974107Y-22753792D01*
X8983631Y-22715696D01*
X8993155Y-22696649D01*
X9002679Y-22687125D01*
X9021726Y-22677601D01*
X9174107Y-22858553D02*
X9183631Y-22868077D01*
X9174107Y-22877601D01*
X9164583Y-22868077D01*
X9174107Y-22858553D01*
X9174107Y-22877601D01*
X9307440Y-22677601D02*
X9326488Y-22677601D01*
X9345536Y-22687125D01*
X9355060Y-22696649D01*
X9364583Y-22715696D01*
X9374107Y-22753792D01*
X9374107Y-22801411D01*
X9364583Y-22839506D01*
X9355060Y-22858553D01*
X9345536Y-22868077D01*
X9326488Y-22877601D01*
X9307440Y-22877601D01*
X9288393Y-22868077D01*
X9278869Y-22858553D01*
X9269345Y-22839506D01*
X9259821Y-22801411D01*
X9259821Y-22753792D01*
X9269345Y-22715696D01*
X9278869Y-22696649D01*
X9288393Y-22687125D01*
X9307440Y-22677601D01*
X9545536Y-22744268D02*
X9545536Y-22877601D01*
X9497917Y-22668077D02*
X9450298Y-22810934D01*
X9574107Y-22810934D01*
X9631250Y-22677601D02*
X9755060Y-22677601D01*
X9688393Y-22753792D01*
X9716964Y-22753792D01*
X9736012Y-22763315D01*
X9745536Y-22772839D01*
X9755060Y-22791887D01*
X9755060Y-22839506D01*
X9745536Y-22858553D01*
X9736012Y-22868077D01*
X9716964Y-22877601D01*
X9659821Y-22877601D01*
X9640774Y-22868077D01*
X9631250Y-22858553D01*
X9821726Y-22677601D02*
X9945536Y-22677601D01*
X9878869Y-22753792D01*
X9907440Y-22753792D01*
X9926488Y-22763315D01*
X9936012Y-22772839D01*
X9945536Y-22791887D01*
X9945536Y-22839506D01*
X9936012Y-22858553D01*
X9926488Y-22868077D01*
X9907440Y-22877601D01*
X9850298Y-22877601D01*
X9831250Y-22868077D01*
X9821726Y-22858553D01*
X10021726Y-22677601D02*
X10021726Y-22715696D01*
X10097917Y-22677601D02*
X10097917Y-22715696D01*
X10393155Y-22953792D02*
X10383631Y-22944268D01*
X10364583Y-22915696D01*
X10355060Y-22896649D01*
X10345536Y-22868077D01*
X10336012Y-22820458D01*
X10336012Y-22782363D01*
X10345536Y-22734744D01*
X10355060Y-22706173D01*
X10364583Y-22687125D01*
X10383631Y-22658553D01*
X10393155Y-22649030D01*
X10450298Y-22677601D02*
X10583631Y-22677601D01*
X10497917Y-22877601D01*
X10812202Y-22877601D02*
X10812202Y-22677601D01*
X10897917Y-22877601D02*
X10897917Y-22772839D01*
X10888393Y-22753792D01*
X10869345Y-22744268D01*
X10840774Y-22744268D01*
X10821726Y-22753792D01*
X10812202Y-22763315D01*
X11021726Y-22877601D02*
X11002679Y-22868077D01*
X10993155Y-22858553D01*
X10983631Y-22839506D01*
X10983631Y-22782363D01*
X10993155Y-22763315D01*
X11002679Y-22753792D01*
X11021726Y-22744268D01*
X11050298Y-22744268D01*
X11069345Y-22753792D01*
X11078869Y-22763315D01*
X11088393Y-22782363D01*
X11088393Y-22839506D01*
X11078869Y-22858553D01*
X11069345Y-22868077D01*
X11050298Y-22877601D01*
X11021726Y-22877601D01*
X11202678Y-22877601D02*
X11183631Y-22868077D01*
X11174107Y-22849030D01*
X11174107Y-22677601D01*
X11355059Y-22868077D02*
X11336012Y-22877601D01*
X11297917Y-22877601D01*
X11278869Y-22868077D01*
X11269345Y-22849030D01*
X11269345Y-22772839D01*
X11278869Y-22753792D01*
X11297917Y-22744268D01*
X11336012Y-22744268D01*
X11355059Y-22753792D01*
X11364583Y-22772839D01*
X11364583Y-22791887D01*
X11269345Y-22810934D01*
X11440774Y-22868077D02*
X11459821Y-22877601D01*
X11497917Y-22877601D01*
X11516964Y-22868077D01*
X11526488Y-22849030D01*
X11526488Y-22839506D01*
X11516964Y-22820458D01*
X11497917Y-22810934D01*
X11469345Y-22810934D01*
X11450298Y-22801411D01*
X11440774Y-22782363D01*
X11440774Y-22772839D01*
X11450298Y-22753792D01*
X11469345Y-22744268D01*
X11497917Y-22744268D01*
X11516964Y-22753792D01*
X11593155Y-22953792D02*
X11602678Y-22944268D01*
X11621726Y-22915696D01*
X11631250Y-22896649D01*
X11640774Y-22868077D01*
X11650298Y-22820458D01*
X11650298Y-22782363D01*
X11640774Y-22734744D01*
X11631250Y-22706173D01*
X11621726Y-22687125D01*
X11602678Y-22658553D01*
X11593155Y-22649030D01*
M02*
