%TF.GenerationSoftware,KiCad,Pcbnew,(6.0.0)*%
%TF.CreationDate,2022-09-10T03:34:00-07:00*%
%TF.ProjectId,HandwireCustom,48616e64-7769-4726-9543-7573746f6d2e,rev?*%
%TF.SameCoordinates,Original*%
%TF.FileFunction,Paste,Bot*%
%TF.FilePolarity,Positive*%
%FSLAX46Y46*%
G04 Gerber Fmt 4.6, Leading zero omitted, Abs format (unit mm)*
G04 Created by KiCad (PCBNEW (6.0.0)) date 2022-09-10 03:34:00*
%MOMM*%
%LPD*%
G01*
G04 APERTURE LIST*
G04 Aperture macros list*
%AMRoundRect*
0 Rectangle with rounded corners*
0 $1 Rounding radius*
0 $2 $3 $4 $5 $6 $7 $8 $9 X,Y pos of 4 corners*
0 Add a 4 corners polygon primitive as box body*
4,1,4,$2,$3,$4,$5,$6,$7,$8,$9,$2,$3,0*
0 Add four circle primitives for the rounded corners*
1,1,$1+$1,$2,$3*
1,1,$1+$1,$4,$5*
1,1,$1+$1,$6,$7*
1,1,$1+$1,$8,$9*
0 Add four rect primitives between the rounded corners*
20,1,$1+$1,$2,$3,$4,$5,0*
20,1,$1+$1,$4,$5,$6,$7,0*
20,1,$1+$1,$6,$7,$8,$9,0*
20,1,$1+$1,$8,$9,$2,$3,0*%
G04 Aperture macros list end*
%ADD10R,1.800000X2.500000*%
%ADD11R,2.550000X2.500000*%
%ADD12RoundRect,0.135000X-0.135000X-0.185000X0.135000X-0.185000X0.135000X0.185000X-0.135000X0.185000X0*%
%ADD13RoundRect,0.135000X0.135000X0.185000X-0.135000X0.185000X-0.135000X-0.185000X0.135000X-0.185000X0*%
%ADD14RoundRect,0.140000X0.170000X-0.140000X0.170000X0.140000X-0.170000X0.140000X-0.170000X-0.140000X0*%
%ADD15RoundRect,0.140000X-0.170000X0.140000X-0.170000X-0.140000X0.170000X-0.140000X0.170000X0.140000X0*%
%ADD16RoundRect,0.250000X-0.275000X0.275000X-0.275000X-0.275000X0.275000X-0.275000X0.275000X0.275000X0*%
%ADD17RoundRect,0.062500X-0.062500X0.475000X-0.062500X-0.475000X0.062500X-0.475000X0.062500X0.475000X0*%
%ADD18RoundRect,0.062500X-0.475000X0.062500X-0.475000X-0.062500X0.475000X-0.062500X0.475000X0.062500X0*%
%ADD19RoundRect,0.140000X-0.140000X-0.170000X0.140000X-0.170000X0.140000X0.170000X-0.140000X0.170000X0*%
%ADD20RoundRect,0.225000X-0.225000X-0.250000X0.225000X-0.250000X0.225000X0.250000X-0.225000X0.250000X0*%
%ADD21R,1.200000X1.400000*%
%ADD22RoundRect,0.135000X-0.185000X0.135000X-0.185000X-0.135000X0.185000X-0.135000X0.185000X0.135000X0*%
%ADD23RoundRect,0.140000X0.140000X0.170000X-0.140000X0.170000X-0.140000X-0.170000X0.140000X-0.170000X0*%
%ADD24RoundRect,0.200000X-0.200000X-0.275000X0.200000X-0.275000X0.200000X0.275000X-0.200000X0.275000X0*%
%ADD25R,0.600000X1.450000*%
%ADD26R,0.300000X1.450000*%
G04 APERTURE END LIST*
D10*
X73600000Y-95450000D03*
X73600000Y-91450000D03*
D11*
X208815000Y-174466250D03*
X221742000Y-171926250D03*
X327877500Y-117316250D03*
X340804500Y-114776250D03*
X108802500Y-117316250D03*
X121729500Y-114776250D03*
X194527500Y-136366250D03*
X207454500Y-133826250D03*
X332640000Y-136366250D03*
X345567000Y-133826250D03*
X294540000Y-155416250D03*
X307467000Y-152876250D03*
X242152500Y-117316250D03*
X255079500Y-114776250D03*
X75465000Y-136366250D03*
X88392000Y-133826250D03*
X180240000Y-155416250D03*
X193167000Y-152876250D03*
X156427500Y-136366250D03*
X169354500Y-133826250D03*
X246915000Y-174466250D03*
X259842000Y-171926250D03*
X265965000Y-174466250D03*
X278892000Y-171926250D03*
X70702500Y-117316250D03*
X83629500Y-114776250D03*
X192146250Y-193516250D03*
X205073250Y-190976250D03*
X151665000Y-174466250D03*
X164592000Y-171926250D03*
X142140000Y-155416250D03*
X155067000Y-152876250D03*
X318352500Y-193516250D03*
X331279500Y-190976250D03*
X127852500Y-117316250D03*
X140779500Y-114776250D03*
X256440000Y-155416250D03*
X269367000Y-152876250D03*
X165952500Y-117316250D03*
X178879500Y-114776250D03*
X96896250Y-193516250D03*
X109823250Y-190976250D03*
X113565000Y-174466250D03*
X126492000Y-171926250D03*
X123090000Y-155416250D03*
X136017000Y-152876250D03*
X175477500Y-136366250D03*
X188404500Y-133826250D03*
X161190000Y-155416250D03*
X174117000Y-152876250D03*
X280252500Y-117316250D03*
X293179500Y-114776250D03*
X292158750Y-174466250D03*
X305085750Y-171926250D03*
X185002500Y-117316250D03*
X197929500Y-114776250D03*
X77846250Y-155416250D03*
X90773250Y-152876250D03*
X223102500Y-117316250D03*
X236029500Y-114776250D03*
X218340000Y-155416250D03*
X231267000Y-152876250D03*
X227865000Y-174466250D03*
X240792000Y-171926250D03*
X289777500Y-136366250D03*
X302704500Y-133826250D03*
X213577500Y-136366250D03*
X226504500Y-133826250D03*
X337402500Y-174466250D03*
X350329500Y-171926250D03*
X99277500Y-136366250D03*
X112204500Y-133826250D03*
X337402500Y-193516250D03*
X350329500Y-190976250D03*
X204052500Y-117316250D03*
X216979500Y-114776250D03*
X325496250Y-155416250D03*
X338423250Y-152876250D03*
X308827500Y-136366250D03*
X321754500Y-133826250D03*
X82608750Y-174466250D03*
X95535750Y-171926250D03*
X275490000Y-155416250D03*
X288417000Y-152876250D03*
X170715000Y-174466250D03*
X183642000Y-171926250D03*
X89752500Y-117316250D03*
X102679500Y-114776250D03*
X146902500Y-117316250D03*
X159829500Y-114776250D03*
X132615000Y-174466250D03*
X145542000Y-171926250D03*
X299302500Y-193516250D03*
X312229500Y-190976250D03*
X237390000Y-155416250D03*
X250317000Y-152876250D03*
X104040000Y-155416250D03*
X116967000Y-152876250D03*
X232627500Y-136366250D03*
X245554500Y-133826250D03*
X280252500Y-193516250D03*
X293179500Y-190976250D03*
X118327500Y-136366250D03*
X131254500Y-133826250D03*
X120708750Y-193516250D03*
X133635750Y-190976250D03*
X251677500Y-136366250D03*
X264604500Y-133826250D03*
X261202500Y-193516250D03*
X274129500Y-190976250D03*
X189765000Y-174466250D03*
X202692000Y-171926250D03*
X199290000Y-155416250D03*
X212217000Y-152876250D03*
X73083750Y-193516250D03*
X86010750Y-190976250D03*
X318352500Y-174466250D03*
X331279500Y-171926250D03*
X299302500Y-117316250D03*
X312229500Y-114776250D03*
X261202500Y-117316250D03*
X274129500Y-114776250D03*
X137377500Y-136366250D03*
X150304500Y-133826250D03*
X270727500Y-136366250D03*
X283654500Y-133826250D03*
D12*
X87290000Y-90300000D03*
X88310000Y-90300000D03*
D13*
X98735000Y-91775000D03*
X97715000Y-91775000D03*
D14*
X76925000Y-103526250D03*
X76925000Y-102566250D03*
D15*
X86775000Y-98416250D03*
X86775000Y-99376250D03*
D16*
X79675000Y-98471250D03*
X80975000Y-98471250D03*
X82275000Y-98471250D03*
X82275000Y-101071250D03*
X79675000Y-101071250D03*
X80975000Y-99771250D03*
X82275000Y-102371250D03*
X80975000Y-102371250D03*
X83575000Y-98471250D03*
X79675000Y-102371250D03*
X82275000Y-99771250D03*
X83575000Y-102371250D03*
X79675000Y-99771250D03*
X83575000Y-101071250D03*
X80975000Y-101071250D03*
X83575000Y-99771250D03*
D17*
X79125000Y-97083750D03*
X79625000Y-97083750D03*
X80125000Y-97083750D03*
X80625000Y-97083750D03*
X81125000Y-97083750D03*
X81625000Y-97083750D03*
X82125000Y-97083750D03*
X82625000Y-97083750D03*
X83125000Y-97083750D03*
X83625000Y-97083750D03*
X84125000Y-97083750D03*
D18*
X84962500Y-97921250D03*
X84962500Y-98421250D03*
X84962500Y-98921250D03*
X84962500Y-99421250D03*
X84962500Y-99921250D03*
X84962500Y-100421250D03*
X84962500Y-100921250D03*
X84962500Y-101421250D03*
X84962500Y-101921250D03*
X84962500Y-102421250D03*
X84962500Y-102921250D03*
D17*
X84125000Y-103758750D03*
X83625000Y-103758750D03*
X83125000Y-103758750D03*
X82625000Y-103758750D03*
X82125000Y-103758750D03*
X81625000Y-103758750D03*
X81125000Y-103758750D03*
X80625000Y-103758750D03*
X80125000Y-103758750D03*
X79625000Y-103758750D03*
X79125000Y-103758750D03*
D18*
X78287500Y-102921250D03*
X78287500Y-102421250D03*
X78287500Y-101921250D03*
X78287500Y-101421250D03*
X78287500Y-100921250D03*
X78287500Y-100421250D03*
X78287500Y-99921250D03*
X78287500Y-99421250D03*
X78287500Y-98921250D03*
X78287500Y-98421250D03*
X78287500Y-97921250D03*
D19*
X83795000Y-105071250D03*
X84755000Y-105071250D03*
D14*
X88385000Y-99951250D03*
X88385000Y-98991250D03*
D20*
X83600000Y-93525000D03*
X85150000Y-93525000D03*
D14*
X88385000Y-101826250D03*
X88385000Y-100866250D03*
D21*
X89765000Y-101251250D03*
X89765000Y-99051250D03*
X91465000Y-99051250D03*
X91465000Y-101251250D03*
D22*
X78850000Y-92811250D03*
X78850000Y-93831250D03*
X80850000Y-92811250D03*
X80850000Y-93831250D03*
D23*
X82180000Y-94871250D03*
X81220000Y-94871250D03*
D15*
X76975000Y-97241250D03*
X76975000Y-98201250D03*
D13*
X78935000Y-105100000D03*
X77915000Y-105100000D03*
D24*
X98550000Y-106450000D03*
X100200000Y-106450000D03*
D22*
X82350000Y-92261250D03*
X82350000Y-93281250D03*
X79850000Y-92816250D03*
X79850000Y-93836250D03*
D25*
X77725000Y-90906250D03*
X78500000Y-90906250D03*
D26*
X79200000Y-90906250D03*
X79700000Y-90906250D03*
X80200000Y-90906250D03*
X80700000Y-90906250D03*
X81200000Y-90906250D03*
X81700000Y-90906250D03*
X82200000Y-90906250D03*
X82700000Y-90906250D03*
D25*
X83400000Y-90906250D03*
X84175000Y-90906250D03*
M02*
