%TF.GenerationSoftware,KiCad,Pcbnew,(6.0.0)*%
%TF.CreationDate,2022-09-10T03:34:01-07:00*%
%TF.ProjectId,HandwireCustom,48616e64-7769-4726-9543-7573746f6d2e,rev?*%
%TF.SameCoordinates,Original*%
%TF.FileFunction,Soldermask,Top*%
%TF.FilePolarity,Negative*%
%FSLAX46Y46*%
G04 Gerber Fmt 4.6, Leading zero omitted, Abs format (unit mm)*
G04 Created by KiCad (PCBNEW (6.0.0)) date 2022-09-10 03:34:01*
%MOMM*%
%LPD*%
G01*
G04 APERTURE LIST*
%ADD10C,1.750000*%
%ADD11C,3.000000*%
%ADD12C,3.987800*%
%ADD13R,1.600000X1.600000*%
%ADD14O,1.600000X1.600000*%
%ADD15C,3.048000*%
%ADD16R,1.700000X1.700000*%
%ADD17O,1.700000X1.700000*%
%ADD18C,2.000000*%
%ADD19C,2.200000*%
%ADD20R,1.800000X1.800000*%
%ADD21C,1.800000*%
%ADD22R,1.905000X2.000000*%
%ADD23O,1.905000X2.000000*%
%ADD24C,0.650000*%
%ADD25O,1.000000X2.100000*%
%ADD26O,1.000000X1.600000*%
G04 APERTURE END LIST*
D10*
X210820000Y-177006250D03*
D11*
X218440000Y-171926250D03*
D12*
X215900000Y-177006250D03*
D10*
X220980000Y-177006250D03*
D11*
X212090000Y-174466250D03*
D13*
X263000000Y-93190000D03*
D14*
X263000000Y-100810000D03*
D12*
X346900500Y-128111250D03*
D10*
X329882500Y-119856250D03*
D12*
X323024500Y-128111250D03*
D10*
X340042500Y-119856250D03*
D11*
X337502500Y-114776250D03*
D15*
X346900500Y-112871250D03*
D12*
X334962500Y-119856250D03*
D15*
X323024500Y-112871250D03*
D11*
X331152500Y-117316250D03*
X118427500Y-114776250D03*
D10*
X120967500Y-119856250D03*
X110807500Y-119856250D03*
D12*
X115887500Y-119856250D03*
D11*
X112077500Y-117316250D03*
D13*
X285240000Y-94190000D03*
D14*
X285240000Y-101810000D03*
D13*
X141240000Y-93180000D03*
D14*
X141240000Y-100800000D03*
D13*
X287740000Y-93190000D03*
D14*
X287740000Y-100810000D03*
D13*
X250500000Y-92190000D03*
D14*
X250500000Y-99810000D03*
D13*
X146240000Y-91190000D03*
D14*
X146240000Y-98810000D03*
D13*
X297770000Y-89190000D03*
D14*
X297770000Y-96810000D03*
D13*
X138740000Y-94180000D03*
D14*
X138740000Y-101800000D03*
D13*
X265500000Y-92190000D03*
D14*
X265500000Y-99810000D03*
D13*
X225730000Y-92190000D03*
D14*
X225730000Y-99810000D03*
D13*
X255500000Y-96190000D03*
D14*
X255500000Y-103810000D03*
D11*
X204152500Y-133826250D03*
D10*
X196532500Y-138906250D03*
D12*
X201612500Y-138906250D03*
D11*
X197802500Y-136366250D03*
D10*
X206692500Y-138906250D03*
D11*
X342265000Y-133826250D03*
D12*
X339725000Y-138906250D03*
D10*
X334645000Y-138906250D03*
X344805000Y-138906250D03*
D11*
X335915000Y-136366250D03*
D13*
X243000000Y-95190000D03*
D14*
X243000000Y-102810000D03*
D10*
X306705000Y-157956250D03*
X296545000Y-157956250D03*
D11*
X297815000Y-155416250D03*
D12*
X301625000Y-157956250D03*
D11*
X304165000Y-152876250D03*
D13*
X183490000Y-93090000D03*
D14*
X183490000Y-100710000D03*
D13*
X185990000Y-92090000D03*
D14*
X185990000Y-99710000D03*
D13*
X123740000Y-93180000D03*
D14*
X123740000Y-100800000D03*
D13*
X165990000Y-93190000D03*
D14*
X165990000Y-100810000D03*
D12*
X249237500Y-119856250D03*
D11*
X251777500Y-114776250D03*
D10*
X244157500Y-119856250D03*
D11*
X245427500Y-117316250D03*
D10*
X254317500Y-119856250D03*
X87630000Y-138906250D03*
D11*
X78740000Y-136366250D03*
D12*
X82550000Y-138906250D03*
D11*
X85090000Y-133826250D03*
D10*
X77470000Y-138906250D03*
D13*
X178490000Y-95190000D03*
D14*
X178490000Y-102810000D03*
D10*
X182245000Y-157956250D03*
D11*
X189865000Y-152876250D03*
D10*
X192405000Y-157956250D03*
D12*
X187325000Y-157956250D03*
D11*
X183515000Y-155416250D03*
X159702500Y-136366250D03*
D10*
X158432500Y-138906250D03*
D12*
X163512500Y-138906250D03*
D10*
X168592500Y-138906250D03*
D11*
X166052500Y-133826250D03*
D10*
X259080000Y-177006250D03*
X248920000Y-177006250D03*
D11*
X250190000Y-174466250D03*
X256540000Y-171926250D03*
D12*
X254000000Y-177006250D03*
D13*
X282740000Y-95190000D03*
D14*
X282740000Y-102810000D03*
D13*
X121240000Y-94180000D03*
D14*
X121240000Y-101800000D03*
D11*
X269240000Y-174466250D03*
X275590000Y-171926250D03*
D10*
X278130000Y-177006250D03*
D12*
X273050000Y-177006250D03*
D10*
X267970000Y-177006250D03*
X82867500Y-119856250D03*
D11*
X73977500Y-117316250D03*
D10*
X72707500Y-119856250D03*
D11*
X80327500Y-114776250D03*
D12*
X77787500Y-119856250D03*
D16*
X97900000Y-86625000D03*
D17*
X97900000Y-89165000D03*
X95360000Y-86625000D03*
X95360000Y-89165000D03*
X92820000Y-86625000D03*
X92820000Y-89165000D03*
D13*
X113740000Y-97190000D03*
D14*
X113740000Y-104810000D03*
D13*
X228270000Y-91210000D03*
D14*
X228270000Y-98830000D03*
D12*
X199231250Y-196056250D03*
D15*
X149231350Y-203041250D03*
D11*
X201771250Y-190976250D03*
D10*
X194151250Y-196056250D03*
D12*
X149231350Y-187801250D03*
D15*
X249231150Y-203041250D03*
D12*
X249231150Y-187801250D03*
D11*
X195421250Y-193516250D03*
D10*
X204311250Y-196056250D03*
D13*
X277740000Y-97190000D03*
D14*
X277740000Y-104810000D03*
D10*
X153670000Y-177006250D03*
D11*
X154940000Y-174466250D03*
D12*
X158750000Y-177006250D03*
D11*
X161290000Y-171926250D03*
D10*
X163830000Y-177006250D03*
D12*
X149225000Y-157956250D03*
D10*
X144145000Y-157956250D03*
D11*
X151765000Y-152876250D03*
X145415000Y-155416250D03*
D10*
X154305000Y-157956250D03*
D13*
X143740000Y-92190000D03*
D14*
X143740000Y-99810000D03*
D13*
X215730000Y-96190000D03*
D14*
X215730000Y-103810000D03*
D10*
X320357500Y-196056250D03*
D11*
X321627500Y-193516250D03*
D10*
X330517500Y-196056250D03*
D11*
X327977500Y-190976250D03*
D12*
X325437500Y-196056250D03*
D11*
X131127500Y-117316250D03*
X137477500Y-114776250D03*
D10*
X129857500Y-119856250D03*
D12*
X134937500Y-119856250D03*
D10*
X140017500Y-119856250D03*
D12*
X263525000Y-157956250D03*
D10*
X268605000Y-157956250D03*
D11*
X259715000Y-155416250D03*
D10*
X258445000Y-157956250D03*
D11*
X266065000Y-152876250D03*
D13*
X168490000Y-92190000D03*
D14*
X168490000Y-99810000D03*
D13*
X126240000Y-92190000D03*
D14*
X126240000Y-99810000D03*
D13*
X203230000Y-95180000D03*
D14*
X203230000Y-102800000D03*
D16*
X345650000Y-92925000D03*
D17*
X345650000Y-95465000D03*
X345650000Y-98005000D03*
X345650000Y-100545000D03*
D13*
X155980000Y-97190000D03*
D14*
X155980000Y-104810000D03*
D10*
X167957500Y-119856250D03*
D11*
X175577500Y-114776250D03*
X169227500Y-117316250D03*
D10*
X178117500Y-119856250D03*
D12*
X173037500Y-119856250D03*
D11*
X106521250Y-190976250D03*
D12*
X103981250Y-196056250D03*
D10*
X98901250Y-196056250D03*
D11*
X100171250Y-193516250D03*
D10*
X109061250Y-196056250D03*
D13*
X175990000Y-96190000D03*
D14*
X175990000Y-103810000D03*
D18*
X107775000Y-86325000D03*
X101275000Y-86325000D03*
X101275000Y-90825000D03*
X107775000Y-90825000D03*
D13*
X218230000Y-95190000D03*
D14*
X218230000Y-102810000D03*
D13*
X290240000Y-92190000D03*
D14*
X290240000Y-99810000D03*
D10*
X125730000Y-177006250D03*
D12*
X120650000Y-177006250D03*
D10*
X115570000Y-177006250D03*
D11*
X116840000Y-174466250D03*
X123190000Y-171926250D03*
D13*
X158490000Y-96190000D03*
D14*
X158490000Y-103810000D03*
D19*
X70750000Y-203250000D03*
D13*
X280240000Y-96190000D03*
D14*
X280240000Y-103810000D03*
D13*
X198220000Y-97170000D03*
D14*
X198220000Y-104790000D03*
D13*
X205730000Y-94180000D03*
D14*
X205730000Y-101800000D03*
D13*
X128740000Y-91190000D03*
D14*
X128740000Y-98810000D03*
D13*
X238000000Y-97190000D03*
D14*
X238000000Y-104810000D03*
D12*
X130175000Y-157956250D03*
D11*
X126365000Y-155416250D03*
X132715000Y-152876250D03*
D10*
X135255000Y-157956250D03*
X125095000Y-157956250D03*
D13*
X160990000Y-95190000D03*
D14*
X160990000Y-102810000D03*
D10*
X177482500Y-138906250D03*
D11*
X178752500Y-136366250D03*
D10*
X187642500Y-138906250D03*
D11*
X185102500Y-133826250D03*
D12*
X182562500Y-138906250D03*
D13*
X240500000Y-96200000D03*
D14*
X240500000Y-103820000D03*
D13*
X258000000Y-95190000D03*
D14*
X258000000Y-102810000D03*
D13*
X136240000Y-95190000D03*
D14*
X136240000Y-102810000D03*
D12*
X168275000Y-157956250D03*
D11*
X164465000Y-155416250D03*
X170815000Y-152876250D03*
D10*
X163195000Y-157956250D03*
X173355000Y-157956250D03*
X282257500Y-119856250D03*
D12*
X287337500Y-119856250D03*
D10*
X292417500Y-119856250D03*
D11*
X283527500Y-117316250D03*
X289877500Y-114776250D03*
D13*
X248000000Y-93190000D03*
D14*
X248000000Y-100810000D03*
D10*
X304323750Y-177006250D03*
D11*
X301783750Y-171926250D03*
D12*
X299243750Y-177006250D03*
D10*
X294163750Y-177006250D03*
D11*
X295433750Y-174466250D03*
D10*
X187007500Y-119856250D03*
D12*
X192087500Y-119856250D03*
D11*
X194627500Y-114776250D03*
X188277500Y-117316250D03*
D10*
X197167500Y-119856250D03*
D11*
X87471250Y-152876250D03*
X81121250Y-155416250D03*
D10*
X79851250Y-157956250D03*
D12*
X84931250Y-157956250D03*
D10*
X90011250Y-157956250D03*
D11*
X226377500Y-117316250D03*
X232727500Y-114776250D03*
D12*
X230187500Y-119856250D03*
D10*
X225107500Y-119856250D03*
X235267500Y-119856250D03*
X220345000Y-157956250D03*
D12*
X225425000Y-157956250D03*
D10*
X230505000Y-157956250D03*
D11*
X221615000Y-155416250D03*
X227965000Y-152876250D03*
D13*
X200730000Y-96190000D03*
D14*
X200730000Y-103810000D03*
D13*
X188490000Y-91090000D03*
D14*
X188490000Y-98710000D03*
D13*
X131240000Y-97190000D03*
D14*
X131240000Y-104810000D03*
D13*
X116240000Y-96190000D03*
D14*
X116240000Y-103810000D03*
D10*
X229870000Y-177006250D03*
D11*
X237490000Y-171926250D03*
D10*
X240030000Y-177006250D03*
D11*
X231140000Y-174466250D03*
D12*
X234950000Y-177006250D03*
D10*
X291782500Y-138906250D03*
D11*
X299402500Y-133826250D03*
X293052500Y-136366250D03*
D10*
X301942500Y-138906250D03*
D12*
X296862500Y-138906250D03*
D13*
X208230000Y-93180000D03*
D14*
X208230000Y-100800000D03*
D11*
X223202500Y-133826250D03*
D10*
X215582500Y-138906250D03*
D11*
X216852500Y-136366250D03*
D12*
X220662500Y-138906250D03*
D10*
X225742500Y-138906250D03*
D13*
X118740000Y-95190000D03*
D14*
X118740000Y-102810000D03*
D11*
X347027500Y-171926250D03*
D12*
X344487500Y-177006250D03*
D10*
X349567500Y-177006250D03*
X339407500Y-177006250D03*
D11*
X340677500Y-174466250D03*
D10*
X111442500Y-138906250D03*
X101282500Y-138906250D03*
D11*
X102552500Y-136366250D03*
X108902500Y-133826250D03*
D12*
X106362500Y-138906250D03*
D11*
X340677500Y-193516250D03*
X347027500Y-190976250D03*
D10*
X349567500Y-196056250D03*
D12*
X344487500Y-196056250D03*
D10*
X339407500Y-196056250D03*
D12*
X211137500Y-119856250D03*
D11*
X213677500Y-114776250D03*
X207327500Y-117316250D03*
D10*
X206057500Y-119856250D03*
X216217500Y-119856250D03*
D13*
X180990000Y-94200000D03*
D14*
X180990000Y-101820000D03*
D11*
X335121250Y-152876250D03*
D10*
X327501250Y-157956250D03*
D11*
X328771250Y-155416250D03*
D15*
X344519250Y-150971250D03*
X320643250Y-150971250D03*
D12*
X320643250Y-166211250D03*
D10*
X337661250Y-157956250D03*
D12*
X332581250Y-157956250D03*
X344519250Y-166211250D03*
X315912500Y-138906250D03*
D11*
X318452500Y-133826250D03*
D10*
X320992500Y-138906250D03*
X310832500Y-138906250D03*
D11*
X312102500Y-136366250D03*
D10*
X94773750Y-177006250D03*
D12*
X101631750Y-185261250D03*
D11*
X85883750Y-174466250D03*
D15*
X101631750Y-170021250D03*
X77755750Y-170021250D03*
D12*
X77755750Y-185261250D03*
D11*
X92233750Y-171926250D03*
D12*
X89693750Y-177006250D03*
D10*
X84613750Y-177006250D03*
D11*
X285115000Y-152876250D03*
X278765000Y-155416250D03*
D10*
X277495000Y-157956250D03*
D12*
X282575000Y-157956250D03*
D10*
X287655000Y-157956250D03*
D16*
X71375000Y-99000000D03*
D17*
X71375000Y-101540000D03*
D13*
X210730000Y-92180000D03*
D14*
X210730000Y-99800000D03*
D13*
X170990000Y-91190000D03*
D14*
X170990000Y-98810000D03*
D12*
X177800000Y-177006250D03*
D10*
X172720000Y-177006250D03*
D11*
X173990000Y-174466250D03*
X180340000Y-171926250D03*
D10*
X182880000Y-177006250D03*
D13*
X268000000Y-91180000D03*
D14*
X268000000Y-98800000D03*
D10*
X91757500Y-119856250D03*
D12*
X96837500Y-119856250D03*
D11*
X93027500Y-117316250D03*
D10*
X101917500Y-119856250D03*
D11*
X99377500Y-114776250D03*
D19*
X351750000Y-203250000D03*
D13*
X253000000Y-97190000D03*
D14*
X253000000Y-104810000D03*
D13*
X295250000Y-90190000D03*
D14*
X295250000Y-97810000D03*
D10*
X148907500Y-119856250D03*
D11*
X156527500Y-114776250D03*
X150177500Y-117316250D03*
D10*
X159067500Y-119856250D03*
D12*
X153987500Y-119856250D03*
D13*
X213230000Y-97190000D03*
D14*
X213230000Y-104810000D03*
D10*
X134620000Y-177006250D03*
D11*
X142240000Y-171926250D03*
D12*
X139700000Y-177006250D03*
D10*
X144780000Y-177006250D03*
D11*
X135890000Y-174466250D03*
D13*
X245500000Y-94190000D03*
D14*
X245500000Y-101810000D03*
D13*
X223230000Y-93190000D03*
D14*
X223230000Y-100810000D03*
D12*
X306387500Y-196056250D03*
D11*
X302577500Y-193516250D03*
X308927500Y-190976250D03*
D10*
X311467500Y-196056250D03*
X301307500Y-196056250D03*
X239395000Y-157956250D03*
D11*
X247015000Y-152876250D03*
D10*
X249555000Y-157956250D03*
D12*
X244475000Y-157956250D03*
D11*
X240665000Y-155416250D03*
X107315000Y-155416250D03*
D10*
X116205000Y-157956250D03*
D11*
X113665000Y-152876250D03*
D10*
X106045000Y-157956250D03*
D12*
X111125000Y-157956250D03*
D13*
X173490000Y-97190000D03*
D14*
X173490000Y-104810000D03*
D12*
X239712500Y-138906250D03*
D10*
X244792500Y-138906250D03*
D11*
X235902500Y-136366250D03*
X242252500Y-133826250D03*
D10*
X234632500Y-138906250D03*
X282257500Y-196056250D03*
D12*
X287337500Y-196056250D03*
D11*
X289877500Y-190976250D03*
X283527500Y-193516250D03*
D10*
X292417500Y-196056250D03*
D19*
X70750000Y-86500000D03*
D13*
X163490000Y-94190000D03*
D14*
X163490000Y-101810000D03*
D11*
X121602500Y-136366250D03*
D10*
X130492500Y-138906250D03*
X120332500Y-138906250D03*
D11*
X127952500Y-133826250D03*
D12*
X125412500Y-138906250D03*
D10*
X122713750Y-196056250D03*
D11*
X130333750Y-190976250D03*
X123983750Y-193516250D03*
D12*
X127793750Y-196056250D03*
D10*
X132873750Y-196056250D03*
D20*
X88550000Y-86000000D03*
D21*
X88550000Y-88540000D03*
D10*
X253682500Y-138906250D03*
D11*
X254952500Y-136366250D03*
D10*
X263842500Y-138906250D03*
D12*
X258762500Y-138906250D03*
D11*
X261302500Y-133826250D03*
D10*
X263207500Y-196056250D03*
D11*
X264477500Y-193516250D03*
D12*
X268287500Y-196056250D03*
D10*
X273367500Y-196056250D03*
D11*
X270827500Y-190976250D03*
D10*
X201930000Y-177006250D03*
D12*
X196850000Y-177006250D03*
D10*
X191770000Y-177006250D03*
D11*
X193040000Y-174466250D03*
X199390000Y-171926250D03*
D10*
X211455000Y-157956250D03*
D11*
X208915000Y-152876250D03*
X202565000Y-155416250D03*
D10*
X201295000Y-157956250D03*
D12*
X206375000Y-157956250D03*
D11*
X82708750Y-190976250D03*
X76358750Y-193516250D03*
D10*
X75088750Y-196056250D03*
D12*
X80168750Y-196056250D03*
D10*
X85248750Y-196056250D03*
D13*
X220730000Y-94200000D03*
D14*
X220730000Y-101820000D03*
D10*
X320357500Y-177006250D03*
D11*
X327977500Y-171926250D03*
X321627500Y-174466250D03*
D12*
X325437500Y-177006250D03*
D10*
X330517500Y-177006250D03*
D12*
X306387500Y-119856250D03*
D10*
X301307500Y-119856250D03*
D11*
X308927500Y-114776250D03*
X302577500Y-117316250D03*
D10*
X311467500Y-119856250D03*
D13*
X133740000Y-96190000D03*
D14*
X133740000Y-103810000D03*
D13*
X260500000Y-94190000D03*
D14*
X260500000Y-101810000D03*
D13*
X292740000Y-91190000D03*
D14*
X292740000Y-98810000D03*
D19*
X351750000Y-86500000D03*
D11*
X264477500Y-117316250D03*
D12*
X268287500Y-119856250D03*
D10*
X273367500Y-119856250D03*
X263207500Y-119856250D03*
D11*
X270827500Y-114776250D03*
D12*
X144462500Y-138906250D03*
D10*
X139382500Y-138906250D03*
D11*
X140652500Y-136366250D03*
X147002500Y-133826250D03*
D10*
X149542500Y-138906250D03*
D11*
X280352500Y-133826250D03*
D12*
X277812500Y-138906250D03*
D10*
X282892500Y-138906250D03*
D11*
X274002500Y-136366250D03*
D10*
X272732500Y-138906250D03*
D22*
X109715000Y-106800000D03*
D23*
X107175000Y-106800000D03*
X104635000Y-106800000D03*
D24*
X83840000Y-89461250D03*
X78060000Y-89461250D03*
D25*
X85270000Y-89991250D03*
X76630000Y-89991250D03*
D26*
X76630000Y-85811250D03*
X85270000Y-85811250D03*
M02*
