%TF.GenerationSoftware,KiCad,Pcbnew,(6.0.0)*%
%TF.CreationDate,2022-01-10T13:14:16-08:00*%
%TF.ProjectId,HandwireCustom,48616e64-7769-4726-9543-7573746f6d2e,rev?*%
%TF.SameCoordinates,Original*%
%TF.FileFunction,Paste,Top*%
%TF.FilePolarity,Positive*%
%FSLAX46Y46*%
G04 Gerber Fmt 4.6, Leading zero omitted, Abs format (unit mm)*
G04 Created by KiCad (PCBNEW (6.0.0)) date 2022-01-10 13:14:16*
%MOMM*%
%LPD*%
G01*
G04 APERTURE LIST*
G04 Aperture macros list*
%AMRoundRect*
0 Rectangle with rounded corners*
0 $1 Rounding radius*
0 $2 $3 $4 $5 $6 $7 $8 $9 X,Y pos of 4 corners*
0 Add a 4 corners polygon primitive as box body*
4,1,4,$2,$3,$4,$5,$6,$7,$8,$9,$2,$3,0*
0 Add four circle primitives for the rounded corners*
1,1,$1+$1,$2,$3*
1,1,$1+$1,$4,$5*
1,1,$1+$1,$6,$7*
1,1,$1+$1,$8,$9*
0 Add four rect primitives between the rounded corners*
20,1,$1+$1,$2,$3,$4,$5,0*
20,1,$1+$1,$4,$5,$6,$7,0*
20,1,$1+$1,$6,$7,$8,$9,0*
20,1,$1+$1,$8,$9,$2,$3,0*%
G04 Aperture macros list end*
%ADD10RoundRect,0.140000X0.140000X0.170000X-0.140000X0.170000X-0.140000X-0.170000X0.140000X-0.170000X0*%
%ADD11RoundRect,0.140000X-0.140000X-0.170000X0.140000X-0.170000X0.140000X0.170000X-0.140000X0.170000X0*%
%ADD12RoundRect,0.140000X0.170000X-0.140000X0.170000X0.140000X-0.170000X0.140000X-0.170000X-0.140000X0*%
%ADD13RoundRect,0.140000X-0.170000X0.140000X-0.170000X-0.140000X0.170000X-0.140000X0.170000X0.140000X0*%
%ADD14RoundRect,0.250000X-0.275000X-0.275000X0.275000X-0.275000X0.275000X0.275000X-0.275000X0.275000X0*%
%ADD15RoundRect,0.062500X-0.475000X-0.062500X0.475000X-0.062500X0.475000X0.062500X-0.475000X0.062500X0*%
%ADD16RoundRect,0.062500X-0.062500X-0.475000X0.062500X-0.475000X0.062500X0.475000X-0.062500X0.475000X0*%
%ADD17RoundRect,0.135000X-0.185000X0.135000X-0.185000X-0.135000X0.185000X-0.135000X0.185000X0.135000X0*%
%ADD18R,0.600000X1.450000*%
%ADD19R,0.300000X1.450000*%
%ADD20RoundRect,0.135000X0.185000X-0.135000X0.185000X0.135000X-0.185000X0.135000X-0.185000X-0.135000X0*%
%ADD21R,1.400000X1.200000*%
%ADD22RoundRect,0.225000X0.250000X-0.225000X0.250000X0.225000X-0.250000X0.225000X-0.250000X-0.225000X0*%
G04 APERTURE END LIST*
D10*
%TO.C,C8*%
X85500000Y-99510000D03*
X84540000Y-99510000D03*
%TD*%
D11*
%TO.C,C6*%
X88970000Y-105070000D03*
X89930000Y-105070000D03*
%TD*%
D12*
%TO.C,C2*%
X88350000Y-108680000D03*
X88350000Y-107720000D03*
%TD*%
%TO.C,C7*%
X86020000Y-97290000D03*
X86020000Y-96330000D03*
%TD*%
D13*
%TO.C,C4*%
X96090000Y-101740000D03*
X96090000Y-102700000D03*
%TD*%
D14*
%TO.C,U1*%
X91333750Y-101942500D03*
X91333750Y-98042500D03*
X88733750Y-98042500D03*
X91333750Y-99342500D03*
X90033750Y-98042500D03*
X88733750Y-101942500D03*
X92633750Y-101942500D03*
X88733750Y-100642500D03*
X92633750Y-100642500D03*
X90033750Y-100642500D03*
X91333750Y-100642500D03*
X90033750Y-99342500D03*
X92633750Y-99342500D03*
X92633750Y-98042500D03*
X90033750Y-101942500D03*
X88733750Y-99342500D03*
D15*
X87346250Y-97492500D03*
X87346250Y-97992500D03*
X87346250Y-98492500D03*
X87346250Y-98992500D03*
X87346250Y-99492500D03*
X87346250Y-99992500D03*
X87346250Y-100492500D03*
X87346250Y-100992500D03*
X87346250Y-101492500D03*
X87346250Y-101992500D03*
X87346250Y-102492500D03*
D16*
X88183750Y-103330000D03*
X88683750Y-103330000D03*
X89183750Y-103330000D03*
X89683750Y-103330000D03*
X90183750Y-103330000D03*
X90683750Y-103330000D03*
X91183750Y-103330000D03*
X91683750Y-103330000D03*
X92183750Y-103330000D03*
X92683750Y-103330000D03*
X93183750Y-103330000D03*
D15*
X94021250Y-102492500D03*
X94021250Y-101992500D03*
X94021250Y-101492500D03*
X94021250Y-100992500D03*
X94021250Y-100492500D03*
X94021250Y-99992500D03*
X94021250Y-99492500D03*
X94021250Y-98992500D03*
X94021250Y-98492500D03*
X94021250Y-97992500D03*
X94021250Y-97492500D03*
D16*
X93183750Y-96655000D03*
X92683750Y-96655000D03*
X92183750Y-96655000D03*
X91683750Y-96655000D03*
X91183750Y-96655000D03*
X90683750Y-96655000D03*
X90183750Y-96655000D03*
X89683750Y-96655000D03*
X89183750Y-96655000D03*
X88683750Y-96655000D03*
X88183750Y-96655000D03*
%TD*%
D17*
%TO.C,R9*%
X343070000Y-93650000D03*
X343070000Y-94670000D03*
%TD*%
D18*
%TO.C,USB1*%
X81365000Y-91618750D03*
X80590000Y-91618750D03*
D19*
X79890000Y-91618750D03*
X79390000Y-91618750D03*
X78890000Y-91618750D03*
X78390000Y-91618750D03*
X77890000Y-91618750D03*
X77390000Y-91618750D03*
X76890000Y-91618750D03*
X76390000Y-91618750D03*
D18*
X75690000Y-91618750D03*
X74915000Y-91618750D03*
%TD*%
D13*
%TO.C,C1*%
X93710000Y-107710000D03*
X93710000Y-108670000D03*
%TD*%
D20*
%TO.C,R6*%
X95660000Y-97500000D03*
X95660000Y-96480000D03*
%TD*%
D17*
%TO.C,R2*%
X76890000Y-93160000D03*
X76890000Y-94180000D03*
%TD*%
%TO.C,R4*%
X78930000Y-93170000D03*
X78930000Y-94190000D03*
%TD*%
D10*
%TO.C,C5*%
X85510000Y-100500000D03*
X84550000Y-100500000D03*
%TD*%
D17*
%TO.C,R3*%
X77900000Y-93170000D03*
X77900000Y-94190000D03*
%TD*%
%TO.C,R8*%
X343070000Y-95790000D03*
X343070000Y-96810000D03*
%TD*%
D21*
%TO.C,Y1*%
X92130000Y-107350000D03*
X89930000Y-107350000D03*
X89930000Y-109050000D03*
X92130000Y-109050000D03*
%TD*%
D17*
%TO.C,R1*%
X79970000Y-93160000D03*
X79970000Y-94180000D03*
%TD*%
D22*
%TO.C,C3*%
X84490000Y-91300000D03*
X84490000Y-89750000D03*
%TD*%
M02*
