%TF.GenerationSoftware,KiCad,Pcbnew,(6.0.0)*%
%TF.CreationDate,2022-08-26T03:08:24-07:00*%
%TF.ProjectId,HandwireCustom,48616e64-7769-4726-9543-7573746f6d2e,rev?*%
%TF.SameCoordinates,Original*%
%TF.FileFunction,Legend,Top*%
%TF.FilePolarity,Positive*%
%FSLAX46Y46*%
G04 Gerber Fmt 4.6, Leading zero omitted, Abs format (unit mm)*
G04 Created by KiCad (PCBNEW (6.0.0)) date 2022-08-26 03:08:24*
%MOMM*%
%LPD*%
G01*
G04 APERTURE LIST*
G04 Aperture macros list*
%AMRoundRect*
0 Rectangle with rounded corners*
0 $1 Rounding radius*
0 $2 $3 $4 $5 $6 $7 $8 $9 X,Y pos of 4 corners*
0 Add a 4 corners polygon primitive as box body*
4,1,4,$2,$3,$4,$5,$6,$7,$8,$9,$2,$3,0*
0 Add four circle primitives for the rounded corners*
1,1,$1+$1,$2,$3*
1,1,$1+$1,$4,$5*
1,1,$1+$1,$6,$7*
1,1,$1+$1,$8,$9*
0 Add four rect primitives between the rounded corners*
20,1,$1+$1,$2,$3,$4,$5,0*
20,1,$1+$1,$4,$5,$6,$7,0*
20,1,$1+$1,$6,$7,$8,$9,0*
20,1,$1+$1,$8,$9,$2,$3,0*%
G04 Aperture macros list end*
%ADD10C,0.100000*%
%ADD11C,0.150000*%
%ADD12C,0.120000*%
%ADD13C,3.000000*%
%ADD14C,1.750000*%
%ADD15C,3.987800*%
%ADD16R,1.600000X1.600000*%
%ADD17O,1.600000X1.600000*%
%ADD18C,3.048000*%
%ADD19RoundRect,0.140000X0.140000X0.170000X-0.140000X0.170000X-0.140000X-0.170000X0.140000X-0.170000X0*%
%ADD20RoundRect,0.140000X-0.140000X-0.170000X0.140000X-0.170000X0.140000X0.170000X-0.140000X0.170000X0*%
%ADD21RoundRect,0.140000X0.170000X-0.140000X0.170000X0.140000X-0.170000X0.140000X-0.170000X-0.140000X0*%
%ADD22R,1.800000X1.800000*%
%ADD23C,1.800000*%
%ADD24RoundRect,0.140000X-0.170000X0.140000X-0.170000X-0.140000X0.170000X-0.140000X0.170000X0.140000X0*%
%ADD25RoundRect,0.062500X-0.475000X-0.062500X0.475000X-0.062500X0.475000X0.062500X-0.475000X0.062500X0*%
%ADD26RoundRect,0.062500X-0.062500X-0.475000X0.062500X-0.475000X0.062500X0.475000X-0.062500X0.475000X0*%
%ADD27R,5.200000X5.200000*%
%ADD28C,1.400000*%
%ADD29O,1.400000X1.400000*%
%ADD30RoundRect,0.135000X0.185000X-0.135000X0.185000X0.135000X-0.185000X0.135000X-0.185000X-0.135000X0*%
%ADD31C,0.650000*%
%ADD32R,0.600000X1.450000*%
%ADD33R,0.300000X1.450000*%
%ADD34O,1.000000X1.600000*%
%ADD35O,1.000000X2.100000*%
%ADD36R,1.700000X1.700000*%
%ADD37O,1.700000X1.700000*%
%ADD38RoundRect,0.135000X-0.135000X-0.185000X0.135000X-0.185000X0.135000X0.185000X-0.135000X0.185000X0*%
%ADD39C,2.200000*%
%ADD40RoundRect,0.135000X-0.185000X0.135000X-0.185000X-0.135000X0.185000X-0.135000X0.185000X0.135000X0*%
%ADD41C,2.000000*%
%ADD42R,1.400000X1.200000*%
%ADD43RoundRect,0.225000X0.250000X-0.225000X0.250000X0.225000X-0.250000X0.225000X-0.250000X-0.225000X0*%
G04 APERTURE END LIST*
D10*
X346945714Y-99344761D02*
X347088571Y-99392380D01*
X347326666Y-99392380D01*
X347421904Y-99344761D01*
X347469523Y-99297142D01*
X347517142Y-99201904D01*
X347517142Y-99106666D01*
X347469523Y-99011428D01*
X347421904Y-98963809D01*
X347326666Y-98916190D01*
X347136190Y-98868571D01*
X347040952Y-98820952D01*
X346993333Y-98773333D01*
X346945714Y-98678095D01*
X346945714Y-98582857D01*
X346993333Y-98487619D01*
X347040952Y-98440000D01*
X347136190Y-98392380D01*
X347374285Y-98392380D01*
X347517142Y-98440000D01*
X347945714Y-99392380D02*
X347945714Y-98392380D01*
X348183809Y-98392380D01*
X348326666Y-98440000D01*
X348421904Y-98535238D01*
X348469523Y-98630476D01*
X348517142Y-98820952D01*
X348517142Y-98963809D01*
X348469523Y-99154285D01*
X348421904Y-99249523D01*
X348326666Y-99344761D01*
X348183809Y-99392380D01*
X347945714Y-99392380D01*
X348898095Y-99106666D02*
X349374285Y-99106666D01*
X348802857Y-99392380D02*
X349136190Y-98392380D01*
X349469523Y-99392380D01*
X347046666Y-93462380D02*
X347380000Y-94462380D01*
X347713333Y-93462380D01*
X348618095Y-94367142D02*
X348570476Y-94414761D01*
X348427619Y-94462380D01*
X348332380Y-94462380D01*
X348189523Y-94414761D01*
X348094285Y-94319523D01*
X348046666Y-94224285D01*
X347999047Y-94033809D01*
X347999047Y-93890952D01*
X348046666Y-93700476D01*
X348094285Y-93605238D01*
X348189523Y-93510000D01*
X348332380Y-93462380D01*
X348427619Y-93462380D01*
X348570476Y-93510000D01*
X348618095Y-93557619D01*
X349618095Y-94367142D02*
X349570476Y-94414761D01*
X349427619Y-94462380D01*
X349332380Y-94462380D01*
X349189523Y-94414761D01*
X349094285Y-94319523D01*
X349046666Y-94224285D01*
X348999047Y-94033809D01*
X348999047Y-93890952D01*
X349046666Y-93700476D01*
X349094285Y-93605238D01*
X349189523Y-93510000D01*
X349332380Y-93462380D01*
X349427619Y-93462380D01*
X349570476Y-93510000D01*
X349618095Y-93557619D01*
X347508095Y-90940000D02*
X347412857Y-90892380D01*
X347270000Y-90892380D01*
X347127142Y-90940000D01*
X347031904Y-91035238D01*
X346984285Y-91130476D01*
X346936666Y-91320952D01*
X346936666Y-91463809D01*
X346984285Y-91654285D01*
X347031904Y-91749523D01*
X347127142Y-91844761D01*
X347270000Y-91892380D01*
X347365238Y-91892380D01*
X347508095Y-91844761D01*
X347555714Y-91797142D01*
X347555714Y-91463809D01*
X347365238Y-91463809D01*
X347984285Y-91892380D02*
X347984285Y-90892380D01*
X348555714Y-91892380D01*
X348555714Y-90892380D01*
X349031904Y-91892380D02*
X349031904Y-90892380D01*
X349270000Y-90892380D01*
X349412857Y-90940000D01*
X349508095Y-91035238D01*
X349555714Y-91130476D01*
X349603333Y-91320952D01*
X349603333Y-91463809D01*
X349555714Y-91654285D01*
X349508095Y-91749523D01*
X349412857Y-91844761D01*
X349270000Y-91892380D01*
X349031904Y-91892380D01*
X72312380Y-104962380D02*
X71979047Y-104486190D01*
X71740952Y-104962380D02*
X71740952Y-103962380D01*
X72121904Y-103962380D01*
X72217142Y-104010000D01*
X72264761Y-104057619D01*
X72312380Y-104152857D01*
X72312380Y-104295714D01*
X72264761Y-104390952D01*
X72217142Y-104438571D01*
X72121904Y-104486190D01*
X71740952Y-104486190D01*
X72693333Y-104914761D02*
X72836190Y-104962380D01*
X73074285Y-104962380D01*
X73169523Y-104914761D01*
X73217142Y-104867142D01*
X73264761Y-104771904D01*
X73264761Y-104676666D01*
X73217142Y-104581428D01*
X73169523Y-104533809D01*
X73074285Y-104486190D01*
X72883809Y-104438571D01*
X72788571Y-104390952D01*
X72740952Y-104343333D01*
X72693333Y-104248095D01*
X72693333Y-104152857D01*
X72740952Y-104057619D01*
X72788571Y-104010000D01*
X72883809Y-103962380D01*
X73121904Y-103962380D01*
X73264761Y-104010000D01*
X73550476Y-103962380D02*
X74121904Y-103962380D01*
X73836190Y-104962380D02*
X73836190Y-103962380D01*
X80538571Y-102362380D02*
X80538571Y-101362380D01*
X80871904Y-102076666D01*
X81205238Y-101362380D01*
X81205238Y-102362380D01*
X81871904Y-101362380D02*
X82062380Y-101362380D01*
X82157619Y-101410000D01*
X82252857Y-101505238D01*
X82300476Y-101695714D01*
X82300476Y-102029047D01*
X82252857Y-102219523D01*
X82157619Y-102314761D01*
X82062380Y-102362380D01*
X81871904Y-102362380D01*
X81776666Y-102314761D01*
X81681428Y-102219523D01*
X81633809Y-102029047D01*
X81633809Y-101695714D01*
X81681428Y-101505238D01*
X81776666Y-101410000D01*
X81871904Y-101362380D01*
X82681428Y-102314761D02*
X82824285Y-102362380D01*
X83062380Y-102362380D01*
X83157619Y-102314761D01*
X83205238Y-102267142D01*
X83252857Y-102171904D01*
X83252857Y-102076666D01*
X83205238Y-101981428D01*
X83157619Y-101933809D01*
X83062380Y-101886190D01*
X82871904Y-101838571D01*
X82776666Y-101790952D01*
X82729047Y-101743333D01*
X82681428Y-101648095D01*
X82681428Y-101552857D01*
X82729047Y-101457619D01*
X82776666Y-101410000D01*
X82871904Y-101362380D01*
X83110000Y-101362380D01*
X83252857Y-101410000D01*
X83681428Y-102362380D02*
X83681428Y-101362380D01*
X88947619Y-88992380D02*
X88614285Y-88516190D01*
X88376190Y-88992380D02*
X88376190Y-87992380D01*
X88757142Y-87992380D01*
X88852380Y-88040000D01*
X88900000Y-88087619D01*
X88947619Y-88182857D01*
X88947619Y-88325714D01*
X88900000Y-88420952D01*
X88852380Y-88468571D01*
X88757142Y-88516190D01*
X88376190Y-88516190D01*
X89376190Y-88468571D02*
X89709523Y-88468571D01*
X89852380Y-88992380D02*
X89376190Y-88992380D01*
X89376190Y-87992380D01*
X89852380Y-87992380D01*
X90233333Y-88944761D02*
X90376190Y-88992380D01*
X90614285Y-88992380D01*
X90709523Y-88944761D01*
X90757142Y-88897142D01*
X90804761Y-88801904D01*
X90804761Y-88706666D01*
X90757142Y-88611428D01*
X90709523Y-88563809D01*
X90614285Y-88516190D01*
X90423809Y-88468571D01*
X90328571Y-88420952D01*
X90280952Y-88373333D01*
X90233333Y-88278095D01*
X90233333Y-88182857D01*
X90280952Y-88087619D01*
X90328571Y-88040000D01*
X90423809Y-87992380D01*
X90661904Y-87992380D01*
X90804761Y-88040000D01*
X91233333Y-88468571D02*
X91566666Y-88468571D01*
X91709523Y-88992380D02*
X91233333Y-88992380D01*
X91233333Y-87992380D01*
X91709523Y-87992380D01*
X91995238Y-87992380D02*
X92566666Y-87992380D01*
X92280952Y-88992380D02*
X92280952Y-87992380D01*
X70699523Y-102244761D02*
X70842380Y-102292380D01*
X71080476Y-102292380D01*
X71175714Y-102244761D01*
X71223333Y-102197142D01*
X71270952Y-102101904D01*
X71270952Y-102006666D01*
X71223333Y-101911428D01*
X71175714Y-101863809D01*
X71080476Y-101816190D01*
X70890000Y-101768571D01*
X70794761Y-101720952D01*
X70747142Y-101673333D01*
X70699523Y-101578095D01*
X70699523Y-101482857D01*
X70747142Y-101387619D01*
X70794761Y-101340000D01*
X70890000Y-101292380D01*
X71128095Y-101292380D01*
X71270952Y-101340000D01*
X72270952Y-102197142D02*
X72223333Y-102244761D01*
X72080476Y-102292380D01*
X71985238Y-102292380D01*
X71842380Y-102244761D01*
X71747142Y-102149523D01*
X71699523Y-102054285D01*
X71651904Y-101863809D01*
X71651904Y-101720952D01*
X71699523Y-101530476D01*
X71747142Y-101435238D01*
X71842380Y-101340000D01*
X71985238Y-101292380D01*
X72080476Y-101292380D01*
X72223333Y-101340000D01*
X72270952Y-101387619D01*
X73175714Y-102292380D02*
X72699523Y-102292380D01*
X72699523Y-101292380D01*
X73509047Y-102292380D02*
X73509047Y-101292380D01*
X74080476Y-102292380D02*
X73651904Y-101720952D01*
X74080476Y-101292380D02*
X73509047Y-101863809D01*
D11*
X248585595Y-195397380D02*
X248585595Y-194397380D01*
X248585595Y-194873571D02*
X249157023Y-194873571D01*
X249157023Y-195397380D02*
X249157023Y-194397380D01*
X250061785Y-195397380D02*
X250061785Y-194873571D01*
X250014166Y-194778333D01*
X249918928Y-194730714D01*
X249728452Y-194730714D01*
X249633214Y-194778333D01*
X250061785Y-195349761D02*
X249966547Y-195397380D01*
X249728452Y-195397380D01*
X249633214Y-195349761D01*
X249585595Y-195254523D01*
X249585595Y-195159285D01*
X249633214Y-195064047D01*
X249728452Y-195016428D01*
X249966547Y-195016428D01*
X250061785Y-194968809D01*
X250537976Y-194730714D02*
X250537976Y-195397380D01*
X250537976Y-194825952D02*
X250585595Y-194778333D01*
X250680833Y-194730714D01*
X250823690Y-194730714D01*
X250918928Y-194778333D01*
X250966547Y-194873571D01*
X250966547Y-195397380D01*
X251871309Y-195397380D02*
X251871309Y-194397380D01*
X251871309Y-195349761D02*
X251776071Y-195397380D01*
X251585595Y-195397380D01*
X251490357Y-195349761D01*
X251442738Y-195302142D01*
X251395119Y-195206904D01*
X251395119Y-194921190D01*
X251442738Y-194825952D01*
X251490357Y-194778333D01*
X251585595Y-194730714D01*
X251776071Y-194730714D01*
X251871309Y-194778333D01*
X252252261Y-194730714D02*
X252442738Y-195397380D01*
X252633214Y-194921190D01*
X252823690Y-195397380D01*
X253014166Y-194730714D01*
X253395119Y-195397380D02*
X253395119Y-194730714D01*
X253395119Y-194397380D02*
X253347500Y-194445000D01*
X253395119Y-194492619D01*
X253442738Y-194445000D01*
X253395119Y-194397380D01*
X253395119Y-194492619D01*
X253871309Y-195397380D02*
X253871309Y-194730714D01*
X253871309Y-194921190D02*
X253918928Y-194825952D01*
X253966547Y-194778333D01*
X254061785Y-194730714D01*
X254157023Y-194730714D01*
X254871309Y-195349761D02*
X254776071Y-195397380D01*
X254585595Y-195397380D01*
X254490357Y-195349761D01*
X254442738Y-195254523D01*
X254442738Y-194873571D01*
X254490357Y-194778333D01*
X254585595Y-194730714D01*
X254776071Y-194730714D01*
X254871309Y-194778333D01*
X254918928Y-194873571D01*
X254918928Y-194968809D01*
X254442738Y-195064047D01*
X256633214Y-195397380D02*
X256061785Y-195397380D01*
X256347500Y-195397380D02*
X256347500Y-194397380D01*
X256252261Y-194540238D01*
X256157023Y-194635476D01*
X256061785Y-194683095D01*
X257061785Y-195302142D02*
X257109404Y-195349761D01*
X257061785Y-195397380D01*
X257014166Y-195349761D01*
X257061785Y-195302142D01*
X257061785Y-195397380D01*
X257728452Y-194397380D02*
X257823690Y-194397380D01*
X257918928Y-194445000D01*
X257966547Y-194492619D01*
X258014166Y-194587857D01*
X258061785Y-194778333D01*
X258061785Y-195016428D01*
X258014166Y-195206904D01*
X257966547Y-195302142D01*
X257918928Y-195349761D01*
X257823690Y-195397380D01*
X257728452Y-195397380D01*
X257633214Y-195349761D01*
X257585595Y-195302142D01*
X257537976Y-195206904D01*
X257490357Y-195016428D01*
X257490357Y-194778333D01*
X257537976Y-194587857D01*
X257585595Y-194492619D01*
X257633214Y-194445000D01*
X257728452Y-194397380D01*
X248918928Y-196483571D02*
X249061785Y-196531190D01*
X249109404Y-196578809D01*
X249157023Y-196674047D01*
X249157023Y-196816904D01*
X249109404Y-196912142D01*
X249061785Y-196959761D01*
X248966547Y-197007380D01*
X248585595Y-197007380D01*
X248585595Y-196007380D01*
X248918928Y-196007380D01*
X249014166Y-196055000D01*
X249061785Y-196102619D01*
X249109404Y-196197857D01*
X249109404Y-196293095D01*
X249061785Y-196388333D01*
X249014166Y-196435952D01*
X248918928Y-196483571D01*
X248585595Y-196483571D01*
X249490357Y-196340714D02*
X249728452Y-197007380D01*
X249966547Y-196340714D02*
X249728452Y-197007380D01*
X249633214Y-197245476D01*
X249585595Y-197293095D01*
X249490357Y-197340714D01*
X250347500Y-196912142D02*
X250395119Y-196959761D01*
X250347500Y-197007380D01*
X250299880Y-196959761D01*
X250347500Y-196912142D01*
X250347500Y-197007380D01*
X250347500Y-196388333D02*
X250395119Y-196435952D01*
X250347500Y-196483571D01*
X250299880Y-196435952D01*
X250347500Y-196388333D01*
X250347500Y-196483571D01*
X251537976Y-196721666D02*
X252014166Y-196721666D01*
X251442738Y-197007380D02*
X251776071Y-196007380D01*
X252109404Y-197007380D01*
X252442738Y-196340714D02*
X252442738Y-197007380D01*
X252442738Y-196435952D02*
X252490357Y-196388333D01*
X252585595Y-196340714D01*
X252728452Y-196340714D01*
X252823690Y-196388333D01*
X252871309Y-196483571D01*
X252871309Y-197007380D01*
X253776071Y-197007380D02*
X253776071Y-196007380D01*
X253776071Y-196959761D02*
X253680833Y-197007380D01*
X253490357Y-197007380D01*
X253395119Y-196959761D01*
X253347500Y-196912142D01*
X253299880Y-196816904D01*
X253299880Y-196531190D01*
X253347500Y-196435952D01*
X253395119Y-196388333D01*
X253490357Y-196340714D01*
X253680833Y-196340714D01*
X253776071Y-196388333D01*
X254157023Y-196340714D02*
X254395119Y-197007380D01*
X254633214Y-196340714D02*
X254395119Y-197007380D01*
X254299880Y-197245476D01*
X254252261Y-197293095D01*
X254157023Y-197340714D01*
X255633214Y-196007380D02*
X256204642Y-196007380D01*
X255918928Y-197007380D02*
X255918928Y-196007380D01*
X256490357Y-196959761D02*
X256585595Y-197007380D01*
X256776071Y-197007380D01*
X256871309Y-196959761D01*
X256918928Y-196864523D01*
X256918928Y-196816904D01*
X256871309Y-196721666D01*
X256776071Y-196674047D01*
X256633214Y-196674047D01*
X256537976Y-196626428D01*
X256490357Y-196531190D01*
X256490357Y-196483571D01*
X256537976Y-196388333D01*
X256633214Y-196340714D01*
X256776071Y-196340714D01*
X256871309Y-196388333D01*
X257776071Y-197007380D02*
X257776071Y-196483571D01*
X257728452Y-196388333D01*
X257633214Y-196340714D01*
X257442738Y-196340714D01*
X257347500Y-196388333D01*
X257776071Y-196959761D02*
X257680833Y-197007380D01*
X257442738Y-197007380D01*
X257347500Y-196959761D01*
X257299880Y-196864523D01*
X257299880Y-196769285D01*
X257347500Y-196674047D01*
X257442738Y-196626428D01*
X257680833Y-196626428D01*
X257776071Y-196578809D01*
X258252261Y-197007380D02*
X258252261Y-196340714D01*
X258252261Y-196007380D02*
X258204642Y-196055000D01*
X258252261Y-196102619D01*
X258299880Y-196055000D01*
X258252261Y-196007380D01*
X258252261Y-196102619D01*
D10*
X80596666Y-98702380D02*
X80930000Y-99702380D01*
X81263333Y-98702380D01*
X82168095Y-99607142D02*
X82120476Y-99654761D01*
X81977619Y-99702380D01*
X81882380Y-99702380D01*
X81739523Y-99654761D01*
X81644285Y-99559523D01*
X81596666Y-99464285D01*
X81549047Y-99273809D01*
X81549047Y-99130952D01*
X81596666Y-98940476D01*
X81644285Y-98845238D01*
X81739523Y-98750000D01*
X81882380Y-98702380D01*
X81977619Y-98702380D01*
X82120476Y-98750000D01*
X82168095Y-98797619D01*
X83168095Y-99607142D02*
X83120476Y-99654761D01*
X82977619Y-99702380D01*
X82882380Y-99702380D01*
X82739523Y-99654761D01*
X82644285Y-99559523D01*
X82596666Y-99464285D01*
X82549047Y-99273809D01*
X82549047Y-99130952D01*
X82596666Y-98940476D01*
X82644285Y-98845238D01*
X82739523Y-98750000D01*
X82882380Y-98702380D01*
X82977619Y-98702380D01*
X83120476Y-98750000D01*
X83168095Y-98797619D01*
D11*
X74248511Y-87668154D02*
X74248511Y-88239583D01*
X74210416Y-88353869D01*
X74134226Y-88430059D01*
X74019940Y-88468154D01*
X73943750Y-88468154D01*
X75010416Y-88468154D02*
X74629464Y-88468154D01*
X74629464Y-87668154D01*
X75734226Y-88391964D02*
X75696130Y-88430059D01*
X75581845Y-88468154D01*
X75505654Y-88468154D01*
X75391369Y-88430059D01*
X75315178Y-88353869D01*
X75277083Y-88277678D01*
X75238988Y-88125297D01*
X75238988Y-88011011D01*
X75277083Y-87858630D01*
X75315178Y-87782440D01*
X75391369Y-87706250D01*
X75505654Y-87668154D01*
X75581845Y-87668154D01*
X75696130Y-87706250D01*
X75734226Y-87744345D01*
X76305654Y-87668154D02*
X76305654Y-88239583D01*
X76267559Y-88353869D01*
X76191369Y-88430059D01*
X76077083Y-88468154D01*
X76000892Y-88468154D01*
X77067559Y-88468154D02*
X76686607Y-88468154D01*
X76686607Y-87668154D01*
X77791369Y-88391964D02*
X77753273Y-88430059D01*
X77638988Y-88468154D01*
X77562797Y-88468154D01*
X77448511Y-88430059D01*
X77372321Y-88353869D01*
X77334226Y-88277678D01*
X77296130Y-88125297D01*
X77296130Y-88011011D01*
X77334226Y-87858630D01*
X77372321Y-87782440D01*
X77448511Y-87706250D01*
X77562797Y-87668154D01*
X77638988Y-87668154D01*
X77753273Y-87706250D01*
X77791369Y-87744345D01*
X78362797Y-87668154D02*
X78362797Y-88239583D01*
X78324702Y-88353869D01*
X78248511Y-88430059D01*
X78134226Y-88468154D01*
X78058035Y-88468154D01*
X79124702Y-88468154D02*
X78743750Y-88468154D01*
X78743750Y-87668154D01*
X79848511Y-88391964D02*
X79810416Y-88430059D01*
X79696130Y-88468154D01*
X79619940Y-88468154D01*
X79505654Y-88430059D01*
X79429464Y-88353869D01*
X79391369Y-88277678D01*
X79353273Y-88125297D01*
X79353273Y-88011011D01*
X79391369Y-87858630D01*
X79429464Y-87782440D01*
X79505654Y-87706250D01*
X79619940Y-87668154D01*
X79696130Y-87668154D01*
X79810416Y-87706250D01*
X79848511Y-87744345D01*
X80419940Y-87668154D02*
X80419940Y-88239583D01*
X80381845Y-88353869D01*
X80305654Y-88430059D01*
X80191369Y-88468154D01*
X80115178Y-88468154D01*
X81181845Y-88468154D02*
X80800892Y-88468154D01*
X80800892Y-87668154D01*
X81905654Y-88391964D02*
X81867559Y-88430059D01*
X81753273Y-88468154D01*
X81677083Y-88468154D01*
X81562797Y-88430059D01*
X81486607Y-88353869D01*
X81448511Y-88277678D01*
X81410416Y-88125297D01*
X81410416Y-88011011D01*
X81448511Y-87858630D01*
X81486607Y-87782440D01*
X81562797Y-87706250D01*
X81677083Y-87668154D01*
X81753273Y-87668154D01*
X81867559Y-87706250D01*
X81905654Y-87744345D01*
D10*
X347109523Y-96904761D02*
X347252380Y-96952380D01*
X347490476Y-96952380D01*
X347585714Y-96904761D01*
X347633333Y-96857142D01*
X347680952Y-96761904D01*
X347680952Y-96666666D01*
X347633333Y-96571428D01*
X347585714Y-96523809D01*
X347490476Y-96476190D01*
X347300000Y-96428571D01*
X347204761Y-96380952D01*
X347157142Y-96333333D01*
X347109523Y-96238095D01*
X347109523Y-96142857D01*
X347157142Y-96047619D01*
X347204761Y-96000000D01*
X347300000Y-95952380D01*
X347538095Y-95952380D01*
X347680952Y-96000000D01*
X348680952Y-96857142D02*
X348633333Y-96904761D01*
X348490476Y-96952380D01*
X348395238Y-96952380D01*
X348252380Y-96904761D01*
X348157142Y-96809523D01*
X348109523Y-96714285D01*
X348061904Y-96523809D01*
X348061904Y-96380952D01*
X348109523Y-96190476D01*
X348157142Y-96095238D01*
X348252380Y-96000000D01*
X348395238Y-95952380D01*
X348490476Y-95952380D01*
X348633333Y-96000000D01*
X348680952Y-96047619D01*
X349585714Y-96952380D02*
X349109523Y-96952380D01*
X349109523Y-95952380D01*
X70948571Y-99612380D02*
X70948571Y-98612380D01*
X71281904Y-99326666D01*
X71615238Y-98612380D01*
X71615238Y-99612380D01*
X72091428Y-99612380D02*
X72091428Y-98612380D01*
X72520000Y-99564761D02*
X72662857Y-99612380D01*
X72900952Y-99612380D01*
X72996190Y-99564761D01*
X73043809Y-99517142D01*
X73091428Y-99421904D01*
X73091428Y-99326666D01*
X73043809Y-99231428D01*
X72996190Y-99183809D01*
X72900952Y-99136190D01*
X72710476Y-99088571D01*
X72615238Y-99040952D01*
X72567619Y-98993333D01*
X72520000Y-98898095D01*
X72520000Y-98802857D01*
X72567619Y-98707619D01*
X72615238Y-98660000D01*
X72710476Y-98612380D01*
X72948571Y-98612380D01*
X73091428Y-98660000D01*
X73710476Y-98612380D02*
X73900952Y-98612380D01*
X73996190Y-98660000D01*
X74091428Y-98755238D01*
X74139047Y-98945714D01*
X74139047Y-99279047D01*
X74091428Y-99469523D01*
X73996190Y-99564761D01*
X73900952Y-99612380D01*
X73710476Y-99612380D01*
X73615238Y-99564761D01*
X73520000Y-99469523D01*
X73472380Y-99279047D01*
X73472380Y-98945714D01*
X73520000Y-98755238D01*
X73615238Y-98660000D01*
X73710476Y-98612380D01*
X81118095Y-103940000D02*
X81022857Y-103892380D01*
X80880000Y-103892380D01*
X80737142Y-103940000D01*
X80641904Y-104035238D01*
X80594285Y-104130476D01*
X80546666Y-104320952D01*
X80546666Y-104463809D01*
X80594285Y-104654285D01*
X80641904Y-104749523D01*
X80737142Y-104844761D01*
X80880000Y-104892380D01*
X80975238Y-104892380D01*
X81118095Y-104844761D01*
X81165714Y-104797142D01*
X81165714Y-104463809D01*
X80975238Y-104463809D01*
X81594285Y-104892380D02*
X81594285Y-103892380D01*
X82165714Y-104892380D01*
X82165714Y-103892380D01*
X82641904Y-104892380D02*
X82641904Y-103892380D01*
X82880000Y-103892380D01*
X83022857Y-103940000D01*
X83118095Y-104035238D01*
X83165714Y-104130476D01*
X83213333Y-104320952D01*
X83213333Y-104463809D01*
X83165714Y-104654285D01*
X83118095Y-104749523D01*
X83022857Y-104844761D01*
X82880000Y-104892380D01*
X82641904Y-104892380D01*
D12*
%TO.C,D50*%
X263000000Y-94230000D02*
X263000000Y-94880000D01*
X261880000Y-94880000D02*
X261880000Y-99120000D01*
X264120000Y-99120000D02*
X264120000Y-94880000D01*
X264120000Y-94880000D02*
X261880000Y-94880000D01*
X264120000Y-95720000D02*
X261880000Y-95720000D01*
X264120000Y-95480000D02*
X261880000Y-95480000D01*
X261880000Y-99120000D02*
X264120000Y-99120000D01*
X263000000Y-99770000D02*
X263000000Y-99120000D01*
X264120000Y-95600000D02*
X261880000Y-95600000D01*
%TO.C,C8*%
X85127836Y-99870000D02*
X84912164Y-99870000D01*
X85127836Y-99150000D02*
X84912164Y-99150000D01*
%TO.C,D28*%
X286360000Y-96600000D02*
X284120000Y-96600000D01*
X284120000Y-100120000D02*
X286360000Y-100120000D01*
X284120000Y-95880000D02*
X284120000Y-100120000D01*
X285240000Y-100770000D02*
X285240000Y-100120000D01*
X286360000Y-96480000D02*
X284120000Y-96480000D01*
X286360000Y-96720000D02*
X284120000Y-96720000D01*
X285240000Y-95230000D02*
X285240000Y-95880000D01*
X286360000Y-95880000D02*
X284120000Y-95880000D01*
X286360000Y-100120000D02*
X286360000Y-95880000D01*
%TO.C,D52*%
X140120000Y-94870000D02*
X140120000Y-99110000D01*
X141240000Y-99760000D02*
X141240000Y-99110000D01*
X142360000Y-95710000D02*
X140120000Y-95710000D01*
X142360000Y-99110000D02*
X142360000Y-94870000D01*
X141240000Y-94220000D02*
X141240000Y-94870000D01*
X142360000Y-94870000D02*
X140120000Y-94870000D01*
X142360000Y-95470000D02*
X140120000Y-95470000D01*
X142360000Y-95590000D02*
X140120000Y-95590000D01*
X140120000Y-99110000D02*
X142360000Y-99110000D01*
%TO.C,D41*%
X286620000Y-99120000D02*
X288860000Y-99120000D01*
X287740000Y-94230000D02*
X287740000Y-94880000D01*
X288860000Y-95480000D02*
X286620000Y-95480000D01*
X286620000Y-94880000D02*
X286620000Y-99120000D01*
X288860000Y-99120000D02*
X288860000Y-94880000D01*
X288860000Y-95600000D02*
X286620000Y-95600000D01*
X287740000Y-99770000D02*
X287740000Y-99120000D01*
X288860000Y-95720000D02*
X286620000Y-95720000D01*
X288860000Y-94880000D02*
X286620000Y-94880000D01*
%TO.C,D27*%
X251620000Y-94600000D02*
X249380000Y-94600000D01*
X251620000Y-93880000D02*
X249380000Y-93880000D01*
X251620000Y-98120000D02*
X251620000Y-93880000D01*
X250500000Y-98770000D02*
X250500000Y-98120000D01*
X249380000Y-93880000D02*
X249380000Y-98120000D01*
X249380000Y-98120000D02*
X251620000Y-98120000D01*
X251620000Y-94480000D02*
X249380000Y-94480000D01*
X251620000Y-94720000D02*
X249380000Y-94720000D01*
X250500000Y-93230000D02*
X250500000Y-93880000D01*
%TO.C,D59*%
X147360000Y-93600000D02*
X145120000Y-93600000D01*
X147360000Y-97120000D02*
X147360000Y-92880000D01*
X145120000Y-92880000D02*
X145120000Y-97120000D01*
X147360000Y-92880000D02*
X145120000Y-92880000D01*
X146240000Y-97770000D02*
X146240000Y-97120000D01*
X146240000Y-92230000D02*
X146240000Y-92880000D01*
X147360000Y-93480000D02*
X145120000Y-93480000D01*
X147360000Y-93720000D02*
X145120000Y-93720000D01*
X145120000Y-97120000D02*
X147360000Y-97120000D01*
%TO.C,D63*%
X297770000Y-95770000D02*
X297770000Y-95120000D01*
X296650000Y-95120000D02*
X298890000Y-95120000D01*
X298890000Y-90880000D02*
X296650000Y-90880000D01*
X298890000Y-91480000D02*
X296650000Y-91480000D01*
X296650000Y-90880000D02*
X296650000Y-95120000D01*
X298890000Y-95120000D02*
X298890000Y-90880000D01*
X298890000Y-91600000D02*
X296650000Y-91600000D01*
X298890000Y-91720000D02*
X296650000Y-91720000D01*
X297770000Y-90230000D02*
X297770000Y-90880000D01*
%TO.C,D47*%
X139860000Y-100110000D02*
X139860000Y-95870000D01*
X137620000Y-95870000D02*
X137620000Y-100110000D01*
X139860000Y-96710000D02*
X137620000Y-96710000D01*
X137620000Y-100110000D02*
X139860000Y-100110000D01*
X139860000Y-95870000D02*
X137620000Y-95870000D01*
X138740000Y-100760000D02*
X138740000Y-100110000D01*
X139860000Y-96590000D02*
X137620000Y-96590000D01*
X138740000Y-95220000D02*
X138740000Y-95870000D01*
X139860000Y-96470000D02*
X137620000Y-96470000D01*
%TO.C,D55*%
X264380000Y-93880000D02*
X264380000Y-98120000D01*
X266620000Y-94720000D02*
X264380000Y-94720000D01*
X266620000Y-94480000D02*
X264380000Y-94480000D01*
X266620000Y-98120000D02*
X266620000Y-93880000D01*
X265500000Y-98770000D02*
X265500000Y-98120000D01*
X265500000Y-93230000D02*
X265500000Y-93880000D01*
X266620000Y-93880000D02*
X264380000Y-93880000D01*
X264380000Y-98120000D02*
X266620000Y-98120000D01*
X266620000Y-94600000D02*
X264380000Y-94600000D01*
%TO.C,D54*%
X225730000Y-93230000D02*
X225730000Y-93880000D01*
X225730000Y-98770000D02*
X225730000Y-98120000D01*
X226850000Y-94600000D02*
X224610000Y-94600000D01*
X224610000Y-93880000D02*
X224610000Y-98120000D01*
X226850000Y-93880000D02*
X224610000Y-93880000D01*
X226850000Y-94720000D02*
X224610000Y-94720000D01*
X226850000Y-98120000D02*
X226850000Y-93880000D01*
X224610000Y-98120000D02*
X226850000Y-98120000D01*
X226850000Y-94480000D02*
X224610000Y-94480000D01*
%TO.C,D36*%
X255500000Y-102770000D02*
X255500000Y-102120000D01*
X256620000Y-98480000D02*
X254380000Y-98480000D01*
X254380000Y-97880000D02*
X254380000Y-102120000D01*
X256620000Y-98600000D02*
X254380000Y-98600000D01*
X256620000Y-98720000D02*
X254380000Y-98720000D01*
X254380000Y-102120000D02*
X256620000Y-102120000D01*
X255500000Y-97230000D02*
X255500000Y-97880000D01*
X256620000Y-97880000D02*
X254380000Y-97880000D01*
X256620000Y-102120000D02*
X256620000Y-97880000D01*
%TO.C,D14*%
X244120000Y-97600000D02*
X241880000Y-97600000D01*
X244120000Y-97720000D02*
X241880000Y-97720000D01*
X241880000Y-96880000D02*
X241880000Y-101120000D01*
X241880000Y-101120000D02*
X244120000Y-101120000D01*
X244120000Y-97480000D02*
X241880000Y-97480000D01*
X243000000Y-96230000D02*
X243000000Y-96880000D01*
X243000000Y-101770000D02*
X243000000Y-101120000D01*
X244120000Y-101120000D02*
X244120000Y-96880000D01*
X244120000Y-96880000D02*
X241880000Y-96880000D01*
%TO.C,D53*%
X183490000Y-99670000D02*
X183490000Y-99020000D01*
X183490000Y-94130000D02*
X183490000Y-94780000D01*
X184610000Y-99020000D02*
X184610000Y-94780000D01*
X184610000Y-95380000D02*
X182370000Y-95380000D01*
X184610000Y-95500000D02*
X182370000Y-95500000D01*
X182370000Y-94780000D02*
X182370000Y-99020000D01*
X182370000Y-99020000D02*
X184610000Y-99020000D01*
X184610000Y-95620000D02*
X182370000Y-95620000D01*
X184610000Y-94780000D02*
X182370000Y-94780000D01*
%TO.C,D58*%
X187110000Y-94380000D02*
X184870000Y-94380000D01*
X187110000Y-93780000D02*
X184870000Y-93780000D01*
X184870000Y-98020000D02*
X187110000Y-98020000D01*
X187110000Y-98020000D02*
X187110000Y-93780000D01*
X185990000Y-98670000D02*
X185990000Y-98020000D01*
X187110000Y-94500000D02*
X184870000Y-94500000D01*
X184870000Y-93780000D02*
X184870000Y-98020000D01*
X185990000Y-93130000D02*
X185990000Y-93780000D01*
X187110000Y-94620000D02*
X184870000Y-94620000D01*
%TO.C,C6*%
X89342164Y-105430000D02*
X89557836Y-105430000D01*
X89342164Y-104710000D02*
X89557836Y-104710000D01*
%TO.C,C2*%
X87990000Y-108307836D02*
X87990000Y-108092164D01*
X88710000Y-108307836D02*
X88710000Y-108092164D01*
%TO.C,D20*%
X124860000Y-99110000D02*
X124860000Y-94870000D01*
X122620000Y-94870000D02*
X122620000Y-99110000D01*
X124860000Y-95590000D02*
X122620000Y-95590000D01*
X122620000Y-99110000D02*
X124860000Y-99110000D01*
X124860000Y-95470000D02*
X122620000Y-95470000D01*
X124860000Y-95710000D02*
X122620000Y-95710000D01*
X124860000Y-94870000D02*
X122620000Y-94870000D01*
X123740000Y-94220000D02*
X123740000Y-94870000D01*
X123740000Y-99760000D02*
X123740000Y-99110000D01*
%TO.C,D21*%
X165990000Y-99770000D02*
X165990000Y-99120000D01*
X167110000Y-95480000D02*
X164870000Y-95480000D01*
X167110000Y-95600000D02*
X164870000Y-95600000D01*
X167110000Y-99120000D02*
X167110000Y-94880000D01*
X165990000Y-94230000D02*
X165990000Y-94880000D01*
X164870000Y-99120000D02*
X167110000Y-99120000D01*
X164870000Y-94880000D02*
X164870000Y-99120000D01*
X167110000Y-94880000D02*
X164870000Y-94880000D01*
X167110000Y-95720000D02*
X164870000Y-95720000D01*
%TO.C,D64*%
X99814000Y-90415000D02*
X99970000Y-90415000D01*
X102130000Y-90415000D02*
X102286000Y-90415000D01*
X102130000Y-89895961D02*
G75*
G03*
X102129837Y-87813870I-1080000J1040961D01*
G01*
X99970163Y-87813870D02*
G75*
G03*
X99970000Y-89895961I1079837J-1041130D01*
G01*
X99971392Y-87182665D02*
G75*
G03*
X99814484Y-90415000I1078609J-1672335D01*
G01*
X102285516Y-90415000D02*
G75*
G03*
X102128608Y-87182665I-1235517J1560000D01*
G01*
%TO.C,C7*%
X85660000Y-96882836D02*
X85660000Y-96667164D01*
X86380000Y-96882836D02*
X86380000Y-96667164D01*
%TO.C,D43*%
X179610000Y-97480000D02*
X177370000Y-97480000D01*
X178490000Y-96230000D02*
X178490000Y-96880000D01*
X177370000Y-101120000D02*
X179610000Y-101120000D01*
X179610000Y-97720000D02*
X177370000Y-97720000D01*
X179610000Y-96880000D02*
X177370000Y-96880000D01*
X179610000Y-97600000D02*
X177370000Y-97600000D01*
X178490000Y-101770000D02*
X178490000Y-101120000D01*
X177370000Y-96880000D02*
X177370000Y-101120000D01*
X179610000Y-101120000D02*
X179610000Y-96880000D01*
%TO.C,C4*%
X96450000Y-102112164D02*
X96450000Y-102327836D01*
X95730000Y-102112164D02*
X95730000Y-102327836D01*
%TO.C,D15*%
X283860000Y-96880000D02*
X281620000Y-96880000D01*
X283860000Y-97720000D02*
X281620000Y-97720000D01*
X281620000Y-101120000D02*
X283860000Y-101120000D01*
X281620000Y-96880000D02*
X281620000Y-101120000D01*
X282740000Y-101770000D02*
X282740000Y-101120000D01*
X283860000Y-97600000D02*
X281620000Y-97600000D01*
X283860000Y-101120000D02*
X283860000Y-96880000D01*
X282740000Y-96230000D02*
X282740000Y-96880000D01*
X283860000Y-97480000D02*
X281620000Y-97480000D01*
%TO.C,U1*%
X87798750Y-96382500D02*
X87073750Y-96382500D01*
X93568750Y-96382500D02*
X94293750Y-96382500D01*
X93568750Y-103602500D02*
X94293750Y-103602500D01*
X87798750Y-103602500D02*
X87073750Y-103602500D01*
X94293750Y-103602500D02*
X94293750Y-102877500D01*
X94293750Y-96382500D02*
X94293750Y-97107500D01*
X87073750Y-103602500D02*
X87073750Y-102877500D01*
%TO.C,D16*%
X121240000Y-100760000D02*
X121240000Y-100110000D01*
X120120000Y-100110000D02*
X122360000Y-100110000D01*
X121240000Y-95220000D02*
X121240000Y-95870000D01*
X122360000Y-95870000D02*
X120120000Y-95870000D01*
X122360000Y-100110000D02*
X122360000Y-95870000D01*
X122360000Y-96470000D02*
X120120000Y-96470000D01*
X120120000Y-95870000D02*
X120120000Y-100110000D01*
X122360000Y-96590000D02*
X120120000Y-96590000D01*
X122360000Y-96710000D02*
X120120000Y-96710000D01*
%TO.C,D1*%
X112620000Y-98880000D02*
X112620000Y-103120000D01*
X114860000Y-103120000D02*
X114860000Y-98880000D01*
X113740000Y-98230000D02*
X113740000Y-98880000D01*
X114860000Y-99480000D02*
X112620000Y-99480000D01*
X112620000Y-103120000D02*
X114860000Y-103120000D01*
X113740000Y-103770000D02*
X113740000Y-103120000D01*
X114860000Y-99600000D02*
X112620000Y-99600000D01*
X114860000Y-99720000D02*
X112620000Y-99720000D01*
X114860000Y-98880000D02*
X112620000Y-98880000D01*
%TO.C,R5*%
X99980000Y-93660000D02*
X103820000Y-93660000D01*
X99980000Y-91820000D02*
X103820000Y-91820000D01*
%TO.C,R9*%
X343455000Y-94528641D02*
X343455000Y-94221359D01*
X342695000Y-94528641D02*
X342695000Y-94221359D01*
%TO.C,D61*%
X229390000Y-93740000D02*
X227150000Y-93740000D01*
X229390000Y-93500000D02*
X227150000Y-93500000D01*
X229390000Y-92900000D02*
X227150000Y-92900000D01*
X227150000Y-97140000D02*
X229390000Y-97140000D01*
X228270000Y-92250000D02*
X228270000Y-92900000D01*
X229390000Y-97140000D02*
X229390000Y-92900000D01*
X229390000Y-93620000D02*
X227150000Y-93620000D01*
X227150000Y-92900000D02*
X227150000Y-97140000D01*
X228270000Y-97790000D02*
X228270000Y-97140000D01*
%TO.C,D5*%
X278860000Y-99720000D02*
X276620000Y-99720000D01*
X277740000Y-103770000D02*
X277740000Y-103120000D01*
X276620000Y-98880000D02*
X276620000Y-103120000D01*
X278860000Y-98880000D02*
X276620000Y-98880000D01*
X278860000Y-99600000D02*
X276620000Y-99600000D01*
X276620000Y-103120000D02*
X278860000Y-103120000D01*
X278860000Y-103120000D02*
X278860000Y-98880000D01*
X278860000Y-99480000D02*
X276620000Y-99480000D01*
X277740000Y-98230000D02*
X277740000Y-98880000D01*
%TO.C,D57*%
X142620000Y-93880000D02*
X142620000Y-98120000D01*
X144860000Y-94720000D02*
X142620000Y-94720000D01*
X144860000Y-98120000D02*
X144860000Y-93880000D01*
X144860000Y-93880000D02*
X142620000Y-93880000D01*
X144860000Y-94600000D02*
X142620000Y-94600000D01*
X142620000Y-98120000D02*
X144860000Y-98120000D01*
X143740000Y-93230000D02*
X143740000Y-93880000D01*
X144860000Y-94480000D02*
X142620000Y-94480000D01*
X143740000Y-98770000D02*
X143740000Y-98120000D01*
%TO.C,D35*%
X216850000Y-98720000D02*
X214610000Y-98720000D01*
X215730000Y-102770000D02*
X215730000Y-102120000D01*
X214610000Y-102120000D02*
X216850000Y-102120000D01*
X215730000Y-97230000D02*
X215730000Y-97880000D01*
X214610000Y-97880000D02*
X214610000Y-102120000D01*
X216850000Y-98600000D02*
X214610000Y-98600000D01*
X216850000Y-97880000D02*
X214610000Y-97880000D01*
X216850000Y-98480000D02*
X214610000Y-98480000D01*
X216850000Y-102120000D02*
X216850000Y-97880000D01*
%TO.C,D25*%
X167370000Y-98120000D02*
X169610000Y-98120000D01*
X169610000Y-98120000D02*
X169610000Y-93880000D01*
X168490000Y-98770000D02*
X168490000Y-98120000D01*
X169610000Y-94480000D02*
X167370000Y-94480000D01*
X169610000Y-94600000D02*
X167370000Y-94600000D01*
X168490000Y-93230000D02*
X168490000Y-93880000D01*
X169610000Y-94720000D02*
X167370000Y-94720000D01*
X169610000Y-93880000D02*
X167370000Y-93880000D01*
X167370000Y-93880000D02*
X167370000Y-98120000D01*
%TO.C,D24*%
X127360000Y-94600000D02*
X125120000Y-94600000D01*
X127360000Y-94720000D02*
X125120000Y-94720000D01*
X127360000Y-98120000D02*
X127360000Y-93880000D01*
X127360000Y-93880000D02*
X125120000Y-93880000D01*
X125120000Y-93880000D02*
X125120000Y-98120000D01*
X126240000Y-93230000D02*
X126240000Y-93880000D01*
X127360000Y-94480000D02*
X125120000Y-94480000D01*
X125120000Y-98120000D02*
X127360000Y-98120000D01*
X126240000Y-98770000D02*
X126240000Y-98120000D01*
%TO.C,D13*%
X202110000Y-96870000D02*
X202110000Y-101110000D01*
X202110000Y-101110000D02*
X204350000Y-101110000D01*
X203230000Y-96220000D02*
X203230000Y-96870000D01*
X204350000Y-101110000D02*
X204350000Y-96870000D01*
X204350000Y-97590000D02*
X202110000Y-97590000D01*
X204350000Y-97470000D02*
X202110000Y-97470000D01*
X204350000Y-96870000D02*
X202110000Y-96870000D01*
X204350000Y-97710000D02*
X202110000Y-97710000D01*
X203230000Y-101760000D02*
X203230000Y-101110000D01*
%TO.C,J2*%
X344090000Y-92590000D02*
X344090000Y-100270000D01*
X344090000Y-91320000D02*
X344090000Y-89990000D01*
X344090000Y-92590000D02*
X346750000Y-92590000D01*
X346750000Y-92590000D02*
X346750000Y-100270000D01*
X344090000Y-100270000D02*
X346750000Y-100270000D01*
X344090000Y-89990000D02*
X345420000Y-89990000D01*
%TO.C,D2*%
X157100000Y-99480000D02*
X154860000Y-99480000D01*
X154860000Y-103120000D02*
X157100000Y-103120000D01*
X157100000Y-98880000D02*
X154860000Y-98880000D01*
X157100000Y-99600000D02*
X154860000Y-99600000D01*
X157100000Y-99720000D02*
X154860000Y-99720000D01*
X157100000Y-103120000D02*
X157100000Y-98880000D01*
X154860000Y-98880000D02*
X154860000Y-103120000D01*
X155980000Y-103770000D02*
X155980000Y-103120000D01*
X155980000Y-98230000D02*
X155980000Y-98880000D01*
%TO.C,C1*%
X93350000Y-108082164D02*
X93350000Y-108297836D01*
X94070000Y-108082164D02*
X94070000Y-108297836D01*
%TO.C,R6*%
X95831359Y-97880000D02*
X96138641Y-97880000D01*
X95831359Y-97120000D02*
X96138641Y-97120000D01*
%TO.C,D38*%
X174870000Y-102120000D02*
X177110000Y-102120000D01*
X175990000Y-97230000D02*
X175990000Y-97880000D01*
X175990000Y-102770000D02*
X175990000Y-102120000D01*
X177110000Y-98480000D02*
X174870000Y-98480000D01*
X177110000Y-98600000D02*
X174870000Y-98600000D01*
X177110000Y-98720000D02*
X174870000Y-98720000D01*
X177110000Y-102120000D02*
X177110000Y-97880000D01*
X174870000Y-97880000D02*
X174870000Y-102120000D01*
X177110000Y-97880000D02*
X174870000Y-97880000D01*
%TO.C,D39*%
X218230000Y-101770000D02*
X218230000Y-101120000D01*
X218230000Y-96230000D02*
X218230000Y-96880000D01*
X219350000Y-97480000D02*
X217110000Y-97480000D01*
X219350000Y-97720000D02*
X217110000Y-97720000D01*
X217110000Y-101120000D02*
X219350000Y-101120000D01*
X219350000Y-97600000D02*
X217110000Y-97600000D01*
X219350000Y-96880000D02*
X217110000Y-96880000D01*
X217110000Y-96880000D02*
X217110000Y-101120000D01*
X219350000Y-101120000D02*
X219350000Y-96880000D01*
%TO.C,D46*%
X289120000Y-93880000D02*
X289120000Y-98120000D01*
X291360000Y-94480000D02*
X289120000Y-94480000D01*
X290240000Y-98770000D02*
X290240000Y-98120000D01*
X290240000Y-93230000D02*
X290240000Y-93880000D01*
X289120000Y-98120000D02*
X291360000Y-98120000D01*
X291360000Y-94720000D02*
X289120000Y-94720000D01*
X291360000Y-93880000D02*
X289120000Y-93880000D01*
X291360000Y-94600000D02*
X289120000Y-94600000D01*
X291360000Y-98120000D02*
X291360000Y-93880000D01*
%TO.C,D7*%
X159610000Y-98720000D02*
X157370000Y-98720000D01*
X159610000Y-98600000D02*
X157370000Y-98600000D01*
X159610000Y-98480000D02*
X157370000Y-98480000D01*
X158490000Y-97230000D02*
X158490000Y-97880000D01*
X159610000Y-102120000D02*
X159610000Y-97880000D01*
X157370000Y-97880000D02*
X157370000Y-102120000D01*
X157370000Y-102120000D02*
X159610000Y-102120000D01*
X159610000Y-97880000D02*
X157370000Y-97880000D01*
X158490000Y-102770000D02*
X158490000Y-102120000D01*
%TO.C,J1*%
X74710000Y-100550000D02*
X77310000Y-100550000D01*
X74710000Y-99280000D02*
X74710000Y-97950000D01*
X74710000Y-105690000D02*
X79910000Y-105690000D01*
X74710000Y-100550000D02*
X74710000Y-105690000D01*
X79910000Y-97950000D02*
X79910000Y-105690000D01*
X77310000Y-100550000D02*
X77310000Y-97950000D01*
X74710000Y-97950000D02*
X76040000Y-97950000D01*
X77310000Y-97950000D02*
X79910000Y-97950000D01*
%TO.C,D10*%
X281360000Y-98600000D02*
X279120000Y-98600000D01*
X280240000Y-102770000D02*
X280240000Y-102120000D01*
X281360000Y-98480000D02*
X279120000Y-98480000D01*
X279120000Y-102120000D02*
X281360000Y-102120000D01*
X280240000Y-97230000D02*
X280240000Y-97880000D01*
X279120000Y-97880000D02*
X279120000Y-102120000D01*
X281360000Y-98720000D02*
X279120000Y-98720000D01*
X281360000Y-102120000D02*
X281360000Y-97880000D01*
X281360000Y-97880000D02*
X279120000Y-97880000D01*
%TO.C,D3*%
X197100000Y-103100000D02*
X199340000Y-103100000D01*
X199340000Y-99460000D02*
X197100000Y-99460000D01*
X199340000Y-98860000D02*
X197100000Y-98860000D01*
X199340000Y-103100000D02*
X199340000Y-98860000D01*
X198220000Y-98210000D02*
X198220000Y-98860000D01*
X197100000Y-98860000D02*
X197100000Y-103100000D01*
X199340000Y-99580000D02*
X197100000Y-99580000D01*
X199340000Y-99700000D02*
X197100000Y-99700000D01*
X198220000Y-103750000D02*
X198220000Y-103100000D01*
%TO.C,D18*%
X206850000Y-96470000D02*
X204610000Y-96470000D01*
X206850000Y-95870000D02*
X204610000Y-95870000D01*
X204610000Y-95870000D02*
X204610000Y-100110000D01*
X205730000Y-95220000D02*
X205730000Y-95870000D01*
X204610000Y-100110000D02*
X206850000Y-100110000D01*
X205730000Y-100760000D02*
X205730000Y-100110000D01*
X206850000Y-96590000D02*
X204610000Y-96590000D01*
X206850000Y-100110000D02*
X206850000Y-95870000D01*
X206850000Y-96710000D02*
X204610000Y-96710000D01*
%TO.C,D29*%
X129860000Y-93600000D02*
X127620000Y-93600000D01*
X128740000Y-92230000D02*
X128740000Y-92880000D01*
X127620000Y-97120000D02*
X129860000Y-97120000D01*
X128740000Y-97770000D02*
X128740000Y-97120000D01*
X127620000Y-92880000D02*
X127620000Y-97120000D01*
X129860000Y-92880000D02*
X127620000Y-92880000D01*
X129860000Y-97120000D02*
X129860000Y-92880000D01*
X129860000Y-93480000D02*
X127620000Y-93480000D01*
X129860000Y-93720000D02*
X127620000Y-93720000D01*
%TO.C,D4*%
X236880000Y-98880000D02*
X236880000Y-103120000D01*
X239120000Y-99600000D02*
X236880000Y-99600000D01*
X236880000Y-103120000D02*
X239120000Y-103120000D01*
X238000000Y-98230000D02*
X238000000Y-98880000D01*
X239120000Y-103120000D02*
X239120000Y-98880000D01*
X239120000Y-98880000D02*
X236880000Y-98880000D01*
X239120000Y-99480000D02*
X236880000Y-99480000D01*
X239120000Y-99720000D02*
X236880000Y-99720000D01*
X238000000Y-103770000D02*
X238000000Y-103120000D01*
%TO.C,R2*%
X76510000Y-93516359D02*
X76510000Y-93823641D01*
X77270000Y-93516359D02*
X77270000Y-93823641D01*
%TO.C,D12*%
X160990000Y-96230000D02*
X160990000Y-96880000D01*
X162110000Y-97600000D02*
X159870000Y-97600000D01*
X159870000Y-101120000D02*
X162110000Y-101120000D01*
X162110000Y-101120000D02*
X162110000Y-96880000D01*
X160990000Y-101770000D02*
X160990000Y-101120000D01*
X159870000Y-96880000D02*
X159870000Y-101120000D01*
X162110000Y-96880000D02*
X159870000Y-96880000D01*
X162110000Y-97480000D02*
X159870000Y-97480000D01*
X162110000Y-97720000D02*
X159870000Y-97720000D01*
%TO.C,D9*%
X239380000Y-97890000D02*
X239380000Y-102130000D01*
X239380000Y-102130000D02*
X241620000Y-102130000D01*
X240500000Y-97240000D02*
X240500000Y-97890000D01*
X240500000Y-102780000D02*
X240500000Y-102130000D01*
X241620000Y-97890000D02*
X239380000Y-97890000D01*
X241620000Y-102130000D02*
X241620000Y-97890000D01*
X241620000Y-98490000D02*
X239380000Y-98490000D01*
X241620000Y-98730000D02*
X239380000Y-98730000D01*
X241620000Y-98610000D02*
X239380000Y-98610000D01*
%TO.C,D40*%
X256880000Y-96880000D02*
X256880000Y-101120000D01*
X259120000Y-97600000D02*
X256880000Y-97600000D01*
X259120000Y-97480000D02*
X256880000Y-97480000D01*
X259120000Y-96880000D02*
X256880000Y-96880000D01*
X259120000Y-101120000D02*
X259120000Y-96880000D01*
X258000000Y-96230000D02*
X258000000Y-96880000D01*
X259120000Y-97720000D02*
X256880000Y-97720000D01*
X256880000Y-101120000D02*
X259120000Y-101120000D01*
X258000000Y-101770000D02*
X258000000Y-101120000D01*
%TO.C,D42*%
X137360000Y-97600000D02*
X135120000Y-97600000D01*
X137360000Y-97480000D02*
X135120000Y-97480000D01*
X136240000Y-101770000D02*
X136240000Y-101120000D01*
X135120000Y-101120000D02*
X137360000Y-101120000D01*
X137360000Y-97720000D02*
X135120000Y-97720000D01*
X137360000Y-96880000D02*
X135120000Y-96880000D01*
X135120000Y-96880000D02*
X135120000Y-101120000D01*
X137360000Y-101120000D02*
X137360000Y-96880000D01*
X136240000Y-96230000D02*
X136240000Y-96880000D01*
%TO.C,D23*%
X249120000Y-95600000D02*
X246880000Y-95600000D01*
X249120000Y-95480000D02*
X246880000Y-95480000D01*
X248000000Y-94230000D02*
X248000000Y-94880000D01*
X249120000Y-99120000D02*
X249120000Y-94880000D01*
X249120000Y-94880000D02*
X246880000Y-94880000D01*
X249120000Y-95720000D02*
X246880000Y-95720000D01*
X246880000Y-99120000D02*
X249120000Y-99120000D01*
X248000000Y-99770000D02*
X248000000Y-99120000D01*
X246880000Y-94880000D02*
X246880000Y-99120000D01*
%TO.C,R4*%
X78550000Y-93526359D02*
X78550000Y-93833641D01*
X79310000Y-93526359D02*
X79310000Y-93833641D01*
%TO.C,D8*%
X200730000Y-97230000D02*
X200730000Y-97880000D01*
X201850000Y-98480000D02*
X199610000Y-98480000D01*
X201850000Y-98720000D02*
X199610000Y-98720000D01*
X200730000Y-102770000D02*
X200730000Y-102120000D01*
X199610000Y-97880000D02*
X199610000Y-102120000D01*
X201850000Y-98600000D02*
X199610000Y-98600000D01*
X201850000Y-97880000D02*
X199610000Y-97880000D01*
X199610000Y-102120000D02*
X201850000Y-102120000D01*
X201850000Y-102120000D02*
X201850000Y-97880000D01*
%TO.C,D60*%
X188490000Y-97670000D02*
X188490000Y-97020000D01*
X189610000Y-93620000D02*
X187370000Y-93620000D01*
X189610000Y-97020000D02*
X189610000Y-92780000D01*
X189610000Y-93500000D02*
X187370000Y-93500000D01*
X187370000Y-92780000D02*
X187370000Y-97020000D01*
X187370000Y-97020000D02*
X189610000Y-97020000D01*
X189610000Y-93380000D02*
X187370000Y-93380000D01*
X188490000Y-92130000D02*
X188490000Y-92780000D01*
X189610000Y-92780000D02*
X187370000Y-92780000D01*
%TO.C,D33*%
X132360000Y-99480000D02*
X130120000Y-99480000D01*
X132360000Y-99600000D02*
X130120000Y-99600000D01*
X131240000Y-98230000D02*
X131240000Y-98880000D01*
X132360000Y-99720000D02*
X130120000Y-99720000D01*
X130120000Y-98880000D02*
X130120000Y-103120000D01*
X132360000Y-103120000D02*
X132360000Y-98880000D01*
X130120000Y-103120000D02*
X132360000Y-103120000D01*
X132360000Y-98880000D02*
X130120000Y-98880000D01*
X131240000Y-103770000D02*
X131240000Y-103120000D01*
%TO.C,D6*%
X116240000Y-102770000D02*
X116240000Y-102120000D01*
X116240000Y-97230000D02*
X116240000Y-97880000D01*
X115120000Y-102120000D02*
X117360000Y-102120000D01*
X117360000Y-98480000D02*
X115120000Y-98480000D01*
X117360000Y-97880000D02*
X115120000Y-97880000D01*
X117360000Y-98600000D02*
X115120000Y-98600000D01*
X117360000Y-98720000D02*
X115120000Y-98720000D01*
X115120000Y-97880000D02*
X115120000Y-102120000D01*
X117360000Y-102120000D02*
X117360000Y-97880000D01*
%TO.C,SW1*%
X86850000Y-87960000D02*
X86850000Y-89460000D01*
X93850000Y-89460000D02*
X93850000Y-87960000D01*
X88100000Y-91960000D02*
X92600000Y-91960000D01*
X92600000Y-85460000D02*
X88100000Y-85460000D01*
%TO.C,C5*%
X85137836Y-100860000D02*
X84922164Y-100860000D01*
X85137836Y-100140000D02*
X84922164Y-100140000D01*
%TO.C,D22*%
X209350000Y-99110000D02*
X209350000Y-94870000D01*
X209350000Y-94870000D02*
X207110000Y-94870000D01*
X208230000Y-99760000D02*
X208230000Y-99110000D01*
X209350000Y-95470000D02*
X207110000Y-95470000D01*
X207110000Y-99110000D02*
X209350000Y-99110000D01*
X209350000Y-95590000D02*
X207110000Y-95590000D01*
X207110000Y-94870000D02*
X207110000Y-99110000D01*
X209350000Y-95710000D02*
X207110000Y-95710000D01*
X208230000Y-94220000D02*
X208230000Y-94870000D01*
%TO.C,D11*%
X118740000Y-101770000D02*
X118740000Y-101120000D01*
X119860000Y-96880000D02*
X117620000Y-96880000D01*
X119860000Y-101120000D02*
X119860000Y-96880000D01*
X117620000Y-101120000D02*
X119860000Y-101120000D01*
X119860000Y-97480000D02*
X117620000Y-97480000D01*
X117620000Y-96880000D02*
X117620000Y-101120000D01*
X118740000Y-96230000D02*
X118740000Y-96880000D01*
X119860000Y-97720000D02*
X117620000Y-97720000D01*
X119860000Y-97600000D02*
X117620000Y-97600000D01*
%TO.C,D48*%
X182110000Y-95890000D02*
X179870000Y-95890000D01*
X180990000Y-95240000D02*
X180990000Y-95890000D01*
X182110000Y-96610000D02*
X179870000Y-96610000D01*
X182110000Y-96490000D02*
X179870000Y-96490000D01*
X182110000Y-96730000D02*
X179870000Y-96730000D01*
X179870000Y-100130000D02*
X182110000Y-100130000D01*
X182110000Y-100130000D02*
X182110000Y-95890000D01*
X179870000Y-95890000D02*
X179870000Y-100130000D01*
X180990000Y-100780000D02*
X180990000Y-100130000D01*
%TO.C,D26*%
X211850000Y-94710000D02*
X209610000Y-94710000D01*
X211850000Y-98110000D02*
X211850000Y-93870000D01*
X209610000Y-93870000D02*
X209610000Y-98110000D01*
X210730000Y-98760000D02*
X210730000Y-98110000D01*
X211850000Y-94470000D02*
X209610000Y-94470000D01*
X211850000Y-94590000D02*
X209610000Y-94590000D01*
X210730000Y-93220000D02*
X210730000Y-93870000D01*
X209610000Y-98110000D02*
X211850000Y-98110000D01*
X211850000Y-93870000D02*
X209610000Y-93870000D01*
%TO.C,D30*%
X172110000Y-93720000D02*
X169870000Y-93720000D01*
X170990000Y-92230000D02*
X170990000Y-92880000D01*
X172110000Y-93600000D02*
X169870000Y-93600000D01*
X170990000Y-97770000D02*
X170990000Y-97120000D01*
X169870000Y-97120000D02*
X172110000Y-97120000D01*
X169870000Y-92880000D02*
X169870000Y-97120000D01*
X172110000Y-92880000D02*
X169870000Y-92880000D01*
X172110000Y-93480000D02*
X169870000Y-93480000D01*
X172110000Y-97120000D02*
X172110000Y-92880000D01*
%TO.C,R3*%
X77520000Y-93526359D02*
X77520000Y-93833641D01*
X78280000Y-93526359D02*
X78280000Y-93833641D01*
%TO.C,D62*%
X268000000Y-97760000D02*
X268000000Y-97110000D01*
X266880000Y-97110000D02*
X269120000Y-97110000D01*
X269120000Y-92870000D02*
X266880000Y-92870000D01*
X269120000Y-93470000D02*
X266880000Y-93470000D01*
X268000000Y-92220000D02*
X268000000Y-92870000D01*
X266880000Y-92870000D02*
X266880000Y-97110000D01*
X269120000Y-93590000D02*
X266880000Y-93590000D01*
X269120000Y-93710000D02*
X266880000Y-93710000D01*
X269120000Y-97110000D02*
X269120000Y-92870000D01*
%TO.C,D32*%
X254120000Y-99600000D02*
X251880000Y-99600000D01*
X251880000Y-103120000D02*
X254120000Y-103120000D01*
X254120000Y-99480000D02*
X251880000Y-99480000D01*
X253000000Y-103770000D02*
X253000000Y-103120000D01*
X254120000Y-103120000D02*
X254120000Y-98880000D01*
X254120000Y-99720000D02*
X251880000Y-99720000D01*
X251880000Y-98880000D02*
X251880000Y-103120000D01*
X254120000Y-98880000D02*
X251880000Y-98880000D01*
X253000000Y-98230000D02*
X253000000Y-98880000D01*
%TO.C,D56*%
X296370000Y-92480000D02*
X294130000Y-92480000D01*
X296370000Y-91880000D02*
X294130000Y-91880000D01*
X296370000Y-96120000D02*
X296370000Y-91880000D01*
X295250000Y-91230000D02*
X295250000Y-91880000D01*
X296370000Y-92600000D02*
X294130000Y-92600000D01*
X294130000Y-91880000D02*
X294130000Y-96120000D01*
X294130000Y-96120000D02*
X296370000Y-96120000D01*
X296370000Y-92720000D02*
X294130000Y-92720000D01*
X295250000Y-96770000D02*
X295250000Y-96120000D01*
%TO.C,D31*%
X214350000Y-99480000D02*
X212110000Y-99480000D01*
X214350000Y-103120000D02*
X214350000Y-98880000D01*
X214350000Y-99600000D02*
X212110000Y-99600000D01*
X212110000Y-98880000D02*
X212110000Y-103120000D01*
X213230000Y-98230000D02*
X213230000Y-98880000D01*
X214350000Y-99720000D02*
X212110000Y-99720000D01*
X212110000Y-103120000D02*
X214350000Y-103120000D01*
X213230000Y-103770000D02*
X213230000Y-103120000D01*
X214350000Y-98880000D02*
X212110000Y-98880000D01*
%TO.C,R8*%
X343450000Y-96146359D02*
X343450000Y-96453641D01*
X342690000Y-96146359D02*
X342690000Y-96453641D01*
%TO.C,D19*%
X246620000Y-96480000D02*
X244380000Y-96480000D01*
X246620000Y-96600000D02*
X244380000Y-96600000D01*
X245500000Y-95230000D02*
X245500000Y-95880000D01*
X246620000Y-96720000D02*
X244380000Y-96720000D01*
X244380000Y-95880000D02*
X244380000Y-100120000D01*
X246620000Y-95880000D02*
X244380000Y-95880000D01*
X245500000Y-100770000D02*
X245500000Y-100120000D01*
X244380000Y-100120000D02*
X246620000Y-100120000D01*
X246620000Y-100120000D02*
X246620000Y-95880000D01*
%TO.C,D49*%
X224350000Y-94880000D02*
X222110000Y-94880000D01*
X224350000Y-99120000D02*
X224350000Y-94880000D01*
X222110000Y-94880000D02*
X222110000Y-99120000D01*
X224350000Y-95720000D02*
X222110000Y-95720000D01*
X222110000Y-99120000D02*
X224350000Y-99120000D01*
X224350000Y-95600000D02*
X222110000Y-95600000D01*
X224350000Y-95480000D02*
X222110000Y-95480000D01*
X223230000Y-94230000D02*
X223230000Y-94880000D01*
X223230000Y-99770000D02*
X223230000Y-99120000D01*
%TO.C,D34*%
X173490000Y-98230000D02*
X173490000Y-98880000D01*
X172370000Y-98880000D02*
X172370000Y-103120000D01*
X174610000Y-99600000D02*
X172370000Y-99600000D01*
X174610000Y-98880000D02*
X172370000Y-98880000D01*
X172370000Y-103120000D02*
X174610000Y-103120000D01*
X174610000Y-99480000D02*
X172370000Y-99480000D01*
X174610000Y-103120000D02*
X174610000Y-98880000D01*
X173490000Y-103770000D02*
X173490000Y-103120000D01*
X174610000Y-99720000D02*
X172370000Y-99720000D01*
%TO.C,D17*%
X164610000Y-96480000D02*
X162370000Y-96480000D01*
X162370000Y-100120000D02*
X164610000Y-100120000D01*
X163490000Y-95230000D02*
X163490000Y-95880000D01*
X164610000Y-100120000D02*
X164610000Y-95880000D01*
X162370000Y-95880000D02*
X162370000Y-100120000D01*
X164610000Y-96600000D02*
X162370000Y-96600000D01*
X163490000Y-100770000D02*
X163490000Y-100120000D01*
X164610000Y-95880000D02*
X162370000Y-95880000D01*
X164610000Y-96720000D02*
X162370000Y-96720000D01*
%TO.C,R7*%
X96320000Y-90700000D02*
X96320000Y-86860000D01*
X98160000Y-90700000D02*
X98160000Y-86860000D01*
%TO.C,D44*%
X221850000Y-100130000D02*
X221850000Y-95890000D01*
X220730000Y-100780000D02*
X220730000Y-100130000D01*
X220730000Y-95240000D02*
X220730000Y-95890000D01*
X221850000Y-96730000D02*
X219610000Y-96730000D01*
X219610000Y-100130000D02*
X221850000Y-100130000D01*
X221850000Y-96490000D02*
X219610000Y-96490000D01*
X221850000Y-96610000D02*
X219610000Y-96610000D01*
X221850000Y-95890000D02*
X219610000Y-95890000D01*
X219610000Y-95890000D02*
X219610000Y-100130000D01*
%TO.C,Y1*%
X93030000Y-109850000D02*
X93030000Y-106550000D01*
X93030000Y-106550000D02*
X89030000Y-106550000D01*
%TO.C,D37*%
X134860000Y-98480000D02*
X132620000Y-98480000D01*
X134860000Y-102120000D02*
X134860000Y-97880000D01*
X132620000Y-97880000D02*
X132620000Y-102120000D01*
X133740000Y-102770000D02*
X133740000Y-102120000D01*
X134860000Y-98600000D02*
X132620000Y-98600000D01*
X132620000Y-102120000D02*
X134860000Y-102120000D01*
X134860000Y-98720000D02*
X132620000Y-98720000D01*
X134860000Y-97880000D02*
X132620000Y-97880000D01*
X133740000Y-97230000D02*
X133740000Y-97880000D01*
%TO.C,R1*%
X79590000Y-93516359D02*
X79590000Y-93823641D01*
X80350000Y-93516359D02*
X80350000Y-93823641D01*
%TO.C,D45*%
X260500000Y-100770000D02*
X260500000Y-100120000D01*
X261620000Y-96720000D02*
X259380000Y-96720000D01*
X259380000Y-100120000D02*
X261620000Y-100120000D01*
X261620000Y-96480000D02*
X259380000Y-96480000D01*
X259380000Y-95880000D02*
X259380000Y-100120000D01*
X261620000Y-95880000D02*
X259380000Y-95880000D01*
X261620000Y-96600000D02*
X259380000Y-96600000D01*
X260500000Y-95230000D02*
X260500000Y-95880000D01*
X261620000Y-100120000D02*
X261620000Y-95880000D01*
%TO.C,D51*%
X293860000Y-93720000D02*
X291620000Y-93720000D01*
X293860000Y-92880000D02*
X291620000Y-92880000D01*
X293860000Y-97120000D02*
X293860000Y-92880000D01*
X292740000Y-92230000D02*
X292740000Y-92880000D01*
X291620000Y-92880000D02*
X291620000Y-97120000D01*
X293860000Y-93600000D02*
X291620000Y-93600000D01*
X293860000Y-93480000D02*
X291620000Y-93480000D01*
X292740000Y-97770000D02*
X292740000Y-97120000D01*
X291620000Y-97120000D02*
X293860000Y-97120000D01*
%TO.C,C3*%
X83980000Y-90665580D02*
X83980000Y-90384420D01*
X85000000Y-90665580D02*
X85000000Y-90384420D01*
%TD*%
%LPC*%
D13*
%TO.C,K36*%
X218440000Y-171926250D03*
X212090000Y-174466250D03*
D14*
X210820000Y-177006250D03*
X220980000Y-177006250D03*
D15*
X215900000Y-177006250D03*
%TD*%
D16*
%TO.C,D50*%
X263000000Y-93190000D03*
D17*
X263000000Y-100810000D03*
%TD*%
D14*
%TO.C,K13*%
X340042500Y-119856250D03*
D18*
X323024500Y-112871250D03*
D14*
X329882500Y-119856250D03*
D13*
X331152500Y-117316250D03*
X337502500Y-114776250D03*
D15*
X334962500Y-119856250D03*
X346900500Y-128111250D03*
X323024500Y-128111250D03*
D18*
X346900500Y-112871250D03*
%TD*%
D14*
%TO.C,K2*%
X120967500Y-119856250D03*
D15*
X115887500Y-119856250D03*
D13*
X112077500Y-117316250D03*
D14*
X110807500Y-119856250D03*
D13*
X118427500Y-114776250D03*
%TD*%
D19*
%TO.C,C8*%
X85500000Y-99510000D03*
X84540000Y-99510000D03*
%TD*%
D16*
%TO.C,D28*%
X285240000Y-94190000D03*
D17*
X285240000Y-101810000D03*
%TD*%
D16*
%TO.C,D52*%
X141240000Y-93180000D03*
D17*
X141240000Y-100800000D03*
%TD*%
D16*
%TO.C,D41*%
X287740000Y-93190000D03*
D17*
X287740000Y-100810000D03*
%TD*%
D16*
%TO.C,D27*%
X250500000Y-92190000D03*
D17*
X250500000Y-99810000D03*
%TD*%
D16*
%TO.C,D59*%
X146240000Y-91190000D03*
D17*
X146240000Y-98810000D03*
%TD*%
D16*
%TO.C,D63*%
X297770000Y-89190000D03*
D17*
X297770000Y-96810000D03*
%TD*%
D16*
%TO.C,D47*%
X138740000Y-94180000D03*
D17*
X138740000Y-101800000D03*
%TD*%
D16*
%TO.C,D55*%
X265500000Y-92190000D03*
D17*
X265500000Y-99810000D03*
%TD*%
D16*
%TO.C,D54*%
X225730000Y-92190000D03*
D17*
X225730000Y-99810000D03*
%TD*%
D16*
%TO.C,D36*%
X255500000Y-96190000D03*
D17*
X255500000Y-103810000D03*
%TD*%
D15*
%TO.C,K16*%
X201612500Y-138906250D03*
D13*
X204152500Y-133826250D03*
D14*
X196532500Y-138906250D03*
X206692500Y-138906250D03*
D13*
X197802500Y-136366250D03*
%TD*%
D14*
%TO.C,K113*%
X334645000Y-138906250D03*
D13*
X335915000Y-136366250D03*
D15*
X339725000Y-138906250D03*
D14*
X344805000Y-138906250D03*
D13*
X342265000Y-133826250D03*
%TD*%
D16*
%TO.C,D14*%
X243000000Y-95190000D03*
D17*
X243000000Y-102810000D03*
%TD*%
D14*
%TO.C,K211*%
X296545000Y-157956250D03*
D15*
X301625000Y-157956250D03*
D13*
X297815000Y-155416250D03*
X304165000Y-152876250D03*
D14*
X306705000Y-157956250D03*
%TD*%
D16*
%TO.C,D53*%
X183490000Y-93090000D03*
D17*
X183490000Y-100710000D03*
%TD*%
D16*
%TO.C,D58*%
X185990000Y-92090000D03*
D17*
X185990000Y-99710000D03*
%TD*%
D20*
%TO.C,C6*%
X88970000Y-105070000D03*
X89930000Y-105070000D03*
%TD*%
D21*
%TO.C,C2*%
X88350000Y-108680000D03*
X88350000Y-107720000D03*
%TD*%
D16*
%TO.C,D20*%
X123740000Y-93180000D03*
D17*
X123740000Y-100800000D03*
%TD*%
D16*
%TO.C,D21*%
X165990000Y-93190000D03*
D17*
X165990000Y-100810000D03*
%TD*%
D14*
%TO.C,K9*%
X244157500Y-119856250D03*
X254317500Y-119856250D03*
D13*
X245427500Y-117316250D03*
D15*
X249237500Y-119856250D03*
D13*
X251777500Y-114776250D03*
%TD*%
%TO.C,KK10*%
X85090000Y-133826250D03*
D14*
X87630000Y-138906250D03*
D13*
X78740000Y-136366250D03*
D14*
X77470000Y-138906250D03*
D15*
X82550000Y-138906250D03*
%TD*%
D22*
%TO.C,D64*%
X101050000Y-90125000D03*
D23*
X101050000Y-87585000D03*
%TD*%
D21*
%TO.C,C7*%
X86020000Y-97255000D03*
X86020000Y-96295000D03*
%TD*%
D16*
%TO.C,D43*%
X178490000Y-95190000D03*
D17*
X178490000Y-102810000D03*
%TD*%
D24*
%TO.C,C4*%
X96090000Y-101740000D03*
X96090000Y-102700000D03*
%TD*%
D13*
%TO.C,K25*%
X189865000Y-152876250D03*
D14*
X192405000Y-157956250D03*
X182245000Y-157956250D03*
D13*
X183515000Y-155416250D03*
D15*
X187325000Y-157956250D03*
%TD*%
D13*
%TO.C,K14*%
X159702500Y-136366250D03*
D14*
X168592500Y-138906250D03*
D15*
X163512500Y-138906250D03*
D14*
X158432500Y-138906250D03*
D13*
X166052500Y-133826250D03*
%TD*%
D14*
%TO.C,K38*%
X248920000Y-177006250D03*
X259080000Y-177006250D03*
D13*
X250190000Y-174466250D03*
D15*
X254000000Y-177006250D03*
D13*
X256540000Y-171926250D03*
%TD*%
D16*
%TO.C,D15*%
X282740000Y-95190000D03*
D17*
X282740000Y-102810000D03*
%TD*%
D25*
%TO.C,U1*%
X87346250Y-97492500D03*
X87346250Y-97992500D03*
X87346250Y-98492500D03*
X87346250Y-98992500D03*
X87346250Y-99492500D03*
X87346250Y-99992500D03*
X87346250Y-100492500D03*
X87346250Y-100992500D03*
X87346250Y-101492500D03*
X87346250Y-101992500D03*
X87346250Y-102492500D03*
D26*
X88183750Y-103330000D03*
X88683750Y-103330000D03*
X89183750Y-103330000D03*
X89683750Y-103330000D03*
X90183750Y-103330000D03*
X90683750Y-103330000D03*
X91183750Y-103330000D03*
X91683750Y-103330000D03*
X92183750Y-103330000D03*
X92683750Y-103330000D03*
X93183750Y-103330000D03*
D25*
X94021250Y-102492500D03*
X94021250Y-101992500D03*
X94021250Y-101492500D03*
X94021250Y-100992500D03*
X94021250Y-100492500D03*
X94021250Y-99992500D03*
X94021250Y-99492500D03*
X94021250Y-98992500D03*
X94021250Y-98492500D03*
X94021250Y-97992500D03*
X94021250Y-97492500D03*
D26*
X93183750Y-96655000D03*
X92683750Y-96655000D03*
X92183750Y-96655000D03*
X91683750Y-96655000D03*
X91183750Y-96655000D03*
X90683750Y-96655000D03*
X90183750Y-96655000D03*
X89683750Y-96655000D03*
X89183750Y-96655000D03*
X88683750Y-96655000D03*
X88183750Y-96655000D03*
D27*
X90683750Y-99992500D03*
%TD*%
D16*
%TO.C,D16*%
X121240000Y-94180000D03*
D17*
X121240000Y-101800000D03*
%TD*%
D14*
%TO.C,K39*%
X267970000Y-177006250D03*
D15*
X273050000Y-177006250D03*
D14*
X278130000Y-177006250D03*
D13*
X275590000Y-171926250D03*
X269240000Y-174466250D03*
%TD*%
D15*
%TO.C,K0*%
X77787500Y-119856250D03*
D13*
X73977500Y-117316250D03*
D14*
X82867500Y-119856250D03*
D13*
X80327500Y-114776250D03*
D14*
X72707500Y-119856250D03*
%TD*%
D16*
%TO.C,D1*%
X113740000Y-97190000D03*
D17*
X113740000Y-104810000D03*
%TD*%
D28*
%TO.C,R5*%
X99360000Y-92740000D03*
D29*
X104440000Y-92740000D03*
%TD*%
D30*
%TO.C,R9*%
X343075000Y-94885000D03*
X343075000Y-93865000D03*
%TD*%
D16*
%TO.C,D61*%
X228270000Y-91210000D03*
D17*
X228270000Y-98830000D03*
%TD*%
D14*
%TO.C,K45*%
X204311250Y-196056250D03*
D18*
X149231350Y-203041250D03*
D15*
X199231250Y-196056250D03*
X149231350Y-187801250D03*
D13*
X201771250Y-190976250D03*
D18*
X249231150Y-203041250D03*
D13*
X195421250Y-193516250D03*
D14*
X194151250Y-196056250D03*
D15*
X249231150Y-187801250D03*
%TD*%
D16*
%TO.C,D5*%
X277740000Y-97190000D03*
D17*
X277740000Y-104810000D03*
%TD*%
D13*
%TO.C,K33*%
X161290000Y-171926250D03*
D14*
X163830000Y-177006250D03*
X153670000Y-177006250D03*
D13*
X154940000Y-174466250D03*
D15*
X158750000Y-177006250D03*
%TD*%
D14*
%TO.C,K23*%
X154305000Y-157956250D03*
D15*
X149225000Y-157956250D03*
D13*
X151765000Y-152876250D03*
D14*
X144145000Y-157956250D03*
D13*
X145415000Y-155416250D03*
%TD*%
D16*
%TO.C,D57*%
X143740000Y-92190000D03*
D17*
X143740000Y-99810000D03*
%TD*%
D16*
%TO.C,D35*%
X215730000Y-96190000D03*
D17*
X215730000Y-103810000D03*
%TD*%
D13*
%TO.C,K412*%
X321627500Y-193516250D03*
X327977500Y-190976250D03*
D14*
X320357500Y-196056250D03*
X330517500Y-196056250D03*
D15*
X325437500Y-196056250D03*
%TD*%
D14*
%TO.C,K3*%
X129857500Y-119856250D03*
X140017500Y-119856250D03*
D15*
X134937500Y-119856250D03*
D13*
X137477500Y-114776250D03*
X131127500Y-117316250D03*
%TD*%
D14*
%TO.C,K29*%
X268605000Y-157956250D03*
D13*
X266065000Y-152876250D03*
D15*
X263525000Y-157956250D03*
D14*
X258445000Y-157956250D03*
D13*
X259715000Y-155416250D03*
%TD*%
D16*
%TO.C,D25*%
X168490000Y-92190000D03*
D17*
X168490000Y-99810000D03*
%TD*%
D16*
%TO.C,D24*%
X126240000Y-92190000D03*
D17*
X126240000Y-99810000D03*
%TD*%
D16*
%TO.C,D13*%
X203230000Y-95180000D03*
D17*
X203230000Y-102800000D03*
%TD*%
D31*
%TO.C,USB1*%
X75250000Y-90173750D03*
X81030000Y-90173750D03*
D32*
X81365000Y-91618750D03*
X80590000Y-91618750D03*
D33*
X79890000Y-91618750D03*
X79390000Y-91618750D03*
X78890000Y-91618750D03*
X78390000Y-91618750D03*
X77890000Y-91618750D03*
X77390000Y-91618750D03*
X76890000Y-91618750D03*
X76390000Y-91618750D03*
D32*
X75690000Y-91618750D03*
X74915000Y-91618750D03*
D34*
X82460000Y-86523750D03*
X73820000Y-86523750D03*
D35*
X82460000Y-90703750D03*
X73820000Y-90703750D03*
%TD*%
D36*
%TO.C,J2*%
X345420000Y-91320000D03*
D37*
X345420000Y-93860000D03*
X345420000Y-96400000D03*
X345420000Y-98940000D03*
%TD*%
D16*
%TO.C,D2*%
X155980000Y-97190000D03*
D17*
X155980000Y-104810000D03*
%TD*%
D24*
%TO.C,C1*%
X93710000Y-107710000D03*
X93710000Y-108670000D03*
%TD*%
D38*
%TO.C,R6*%
X96495000Y-97500000D03*
X95475000Y-97500000D03*
%TD*%
D15*
%TO.C,K5*%
X173037500Y-119856250D03*
D14*
X178117500Y-119856250D03*
D13*
X175577500Y-114776250D03*
D14*
X167957500Y-119856250D03*
D13*
X169227500Y-117316250D03*
%TD*%
D15*
%TO.C,K41*%
X103981250Y-196056250D03*
D13*
X100171250Y-193516250D03*
X106521250Y-190976250D03*
D14*
X98901250Y-196056250D03*
X109061250Y-196056250D03*
%TD*%
D16*
%TO.C,D38*%
X175990000Y-96190000D03*
D17*
X175990000Y-103810000D03*
%TD*%
D16*
%TO.C,D39*%
X218230000Y-95190000D03*
D17*
X218230000Y-102810000D03*
%TD*%
D16*
%TO.C,D46*%
X290240000Y-92190000D03*
D17*
X290240000Y-99810000D03*
%TD*%
D15*
%TO.C,K31*%
X120650000Y-177006250D03*
D13*
X123190000Y-171926250D03*
X116840000Y-174466250D03*
D14*
X115570000Y-177006250D03*
X125730000Y-177006250D03*
%TD*%
D16*
%TO.C,D7*%
X158490000Y-96190000D03*
D17*
X158490000Y-103810000D03*
%TD*%
D39*
%TO.C,H3*%
X70750000Y-203250000D03*
%TD*%
D36*
%TO.C,J1*%
X76040000Y-99280000D03*
D37*
X78580000Y-99280000D03*
X76040000Y-101820000D03*
X78580000Y-101820000D03*
X76040000Y-104360000D03*
X78580000Y-104360000D03*
%TD*%
D16*
%TO.C,D10*%
X280240000Y-96190000D03*
D17*
X280240000Y-103810000D03*
%TD*%
D16*
%TO.C,D3*%
X198220000Y-97170000D03*
D17*
X198220000Y-104790000D03*
%TD*%
D16*
%TO.C,D18*%
X205730000Y-94180000D03*
D17*
X205730000Y-101800000D03*
%TD*%
D16*
%TO.C,D29*%
X128740000Y-91190000D03*
D17*
X128740000Y-98810000D03*
%TD*%
D16*
%TO.C,D4*%
X238000000Y-97190000D03*
D17*
X238000000Y-104810000D03*
%TD*%
D40*
%TO.C,R2*%
X76890000Y-93160000D03*
X76890000Y-94180000D03*
%TD*%
D14*
%TO.C,K22*%
X125095000Y-157956250D03*
D13*
X132715000Y-152876250D03*
X126365000Y-155416250D03*
D15*
X130175000Y-157956250D03*
D14*
X135255000Y-157956250D03*
%TD*%
D16*
%TO.C,D12*%
X160990000Y-95190000D03*
D17*
X160990000Y-102810000D03*
%TD*%
D13*
%TO.C,K15*%
X178752500Y-136366250D03*
D15*
X182562500Y-138906250D03*
D13*
X185102500Y-133826250D03*
D14*
X187642500Y-138906250D03*
X177482500Y-138906250D03*
%TD*%
D16*
%TO.C,D9*%
X240500000Y-96200000D03*
D17*
X240500000Y-103820000D03*
%TD*%
D16*
%TO.C,D40*%
X258000000Y-95190000D03*
D17*
X258000000Y-102810000D03*
%TD*%
D16*
%TO.C,D42*%
X136240000Y-95190000D03*
D17*
X136240000Y-102810000D03*
%TD*%
D15*
%TO.C,K24*%
X168275000Y-157956250D03*
D13*
X170815000Y-152876250D03*
D14*
X163195000Y-157956250D03*
D13*
X164465000Y-155416250D03*
D14*
X173355000Y-157956250D03*
%TD*%
%TO.C,K11*%
X292417500Y-119856250D03*
D15*
X287337500Y-119856250D03*
D14*
X282257500Y-119856250D03*
D13*
X289877500Y-114776250D03*
X283527500Y-117316250D03*
%TD*%
D16*
%TO.C,D23*%
X248000000Y-93190000D03*
D17*
X248000000Y-100810000D03*
%TD*%
D15*
%TO.C,K310*%
X299243750Y-177006250D03*
D14*
X304323750Y-177006250D03*
D13*
X301783750Y-171926250D03*
X295433750Y-174466250D03*
D14*
X294163750Y-177006250D03*
%TD*%
%TO.C,K6*%
X187007500Y-119856250D03*
D13*
X194627500Y-114776250D03*
D14*
X197167500Y-119856250D03*
D13*
X188277500Y-117316250D03*
D15*
X192087500Y-119856250D03*
%TD*%
%TO.C,K20*%
X84931250Y-157956250D03*
D14*
X79851250Y-157956250D03*
D13*
X81121250Y-155416250D03*
X87471250Y-152876250D03*
D14*
X90011250Y-157956250D03*
%TD*%
D40*
%TO.C,R4*%
X78930000Y-93170000D03*
X78930000Y-94190000D03*
%TD*%
D13*
%TO.C,K8*%
X232727500Y-114776250D03*
X226377500Y-117316250D03*
D15*
X230187500Y-119856250D03*
D14*
X225107500Y-119856250D03*
X235267500Y-119856250D03*
%TD*%
D15*
%TO.C,K27*%
X225425000Y-157956250D03*
D13*
X221615000Y-155416250D03*
D14*
X220345000Y-157956250D03*
D13*
X227965000Y-152876250D03*
D14*
X230505000Y-157956250D03*
%TD*%
D16*
%TO.C,D8*%
X200730000Y-96190000D03*
D17*
X200730000Y-103810000D03*
%TD*%
D16*
%TO.C,D60*%
X188490000Y-91090000D03*
D17*
X188490000Y-98710000D03*
%TD*%
D16*
%TO.C,D33*%
X131240000Y-97190000D03*
D17*
X131240000Y-104810000D03*
%TD*%
D16*
%TO.C,D6*%
X116240000Y-96190000D03*
D17*
X116240000Y-103810000D03*
%TD*%
D41*
%TO.C,SW1*%
X87100000Y-86460000D03*
X93600000Y-86460000D03*
X87100000Y-90960000D03*
X93600000Y-90960000D03*
%TD*%
D14*
%TO.C,K37*%
X229870000Y-177006250D03*
D13*
X231140000Y-174466250D03*
D14*
X240030000Y-177006250D03*
D15*
X234950000Y-177006250D03*
D13*
X237490000Y-171926250D03*
%TD*%
D15*
%TO.C,K111*%
X296862500Y-138906250D03*
D13*
X299402500Y-133826250D03*
D14*
X301942500Y-138906250D03*
D13*
X293052500Y-136366250D03*
D14*
X291782500Y-138906250D03*
%TD*%
D19*
%TO.C,C5*%
X85510000Y-100500000D03*
X84550000Y-100500000D03*
%TD*%
D16*
%TO.C,D22*%
X208230000Y-93180000D03*
D17*
X208230000Y-100800000D03*
%TD*%
D14*
%TO.C,K17*%
X225742500Y-138906250D03*
D15*
X220662500Y-138906250D03*
D13*
X223202500Y-133826250D03*
X216852500Y-136366250D03*
D14*
X215582500Y-138906250D03*
%TD*%
D16*
%TO.C,D11*%
X118740000Y-95190000D03*
D17*
X118740000Y-102810000D03*
%TD*%
D13*
%TO.C,K313*%
X340677500Y-174466250D03*
D15*
X344487500Y-177006250D03*
D13*
X347027500Y-171926250D03*
D14*
X349567500Y-177006250D03*
X339407500Y-177006250D03*
%TD*%
%TO.C,KK11*%
X101282500Y-138906250D03*
D15*
X106362500Y-138906250D03*
D13*
X102552500Y-136366250D03*
X108902500Y-133826250D03*
D14*
X111442500Y-138906250D03*
%TD*%
D15*
%TO.C,K413*%
X344487500Y-196056250D03*
D14*
X339407500Y-196056250D03*
X349567500Y-196056250D03*
D13*
X347027500Y-190976250D03*
X340677500Y-193516250D03*
%TD*%
%TO.C,K7*%
X207327500Y-117316250D03*
D14*
X206057500Y-119856250D03*
D15*
X211137500Y-119856250D03*
D13*
X213677500Y-114776250D03*
D14*
X216217500Y-119856250D03*
%TD*%
D16*
%TO.C,D48*%
X180990000Y-94200000D03*
D17*
X180990000Y-101820000D03*
%TD*%
D15*
%TO.C,K213*%
X320643250Y-166211250D03*
D13*
X335121250Y-152876250D03*
D18*
X344519250Y-150971250D03*
D13*
X328771250Y-155416250D03*
D15*
X332581250Y-157956250D03*
X344519250Y-166211250D03*
D14*
X337661250Y-157956250D03*
D18*
X320643250Y-150971250D03*
D14*
X327501250Y-157956250D03*
%TD*%
%TO.C,K112*%
X310832500Y-138906250D03*
D13*
X312102500Y-136366250D03*
D15*
X315912500Y-138906250D03*
D13*
X318452500Y-133826250D03*
D14*
X320992500Y-138906250D03*
%TD*%
%TO.C,K30*%
X84613750Y-177006250D03*
D15*
X77755750Y-185261250D03*
X89693750Y-177006250D03*
D13*
X85883750Y-174466250D03*
D15*
X101631750Y-185261250D03*
D18*
X101631750Y-170021250D03*
D13*
X92233750Y-171926250D03*
D14*
X94773750Y-177006250D03*
D18*
X77755750Y-170021250D03*
%TD*%
D13*
%TO.C,K210*%
X285115000Y-152876250D03*
D15*
X282575000Y-157956250D03*
D13*
X278765000Y-155416250D03*
D14*
X287655000Y-157956250D03*
X277495000Y-157956250D03*
%TD*%
D16*
%TO.C,D26*%
X210730000Y-92180000D03*
D17*
X210730000Y-99800000D03*
%TD*%
D16*
%TO.C,D30*%
X170990000Y-91190000D03*
D17*
X170990000Y-98810000D03*
%TD*%
D40*
%TO.C,R3*%
X77900000Y-93170000D03*
X77900000Y-94190000D03*
%TD*%
D14*
%TO.C,K34*%
X172720000Y-177006250D03*
D13*
X173990000Y-174466250D03*
D14*
X182880000Y-177006250D03*
D13*
X180340000Y-171926250D03*
D15*
X177800000Y-177006250D03*
%TD*%
D16*
%TO.C,D62*%
X268000000Y-91180000D03*
D17*
X268000000Y-98800000D03*
%TD*%
D14*
%TO.C,K1*%
X91757500Y-119856250D03*
D13*
X99377500Y-114776250D03*
D14*
X101917500Y-119856250D03*
D15*
X96837500Y-119856250D03*
D13*
X93027500Y-117316250D03*
%TD*%
D39*
%TO.C,H2*%
X351750000Y-203250000D03*
%TD*%
D16*
%TO.C,D32*%
X253000000Y-97190000D03*
D17*
X253000000Y-104810000D03*
%TD*%
D16*
%TO.C,D56*%
X295250000Y-90190000D03*
D17*
X295250000Y-97810000D03*
%TD*%
D14*
%TO.C,K4*%
X159067500Y-119856250D03*
D13*
X156527500Y-114776250D03*
D14*
X148907500Y-119856250D03*
D13*
X150177500Y-117316250D03*
D15*
X153987500Y-119856250D03*
%TD*%
D16*
%TO.C,D31*%
X213230000Y-97190000D03*
D17*
X213230000Y-104810000D03*
%TD*%
D13*
%TO.C,K32*%
X142240000Y-171926250D03*
D14*
X144780000Y-177006250D03*
D13*
X135890000Y-174466250D03*
D15*
X139700000Y-177006250D03*
D14*
X134620000Y-177006250D03*
%TD*%
D40*
%TO.C,R8*%
X343070000Y-95790000D03*
X343070000Y-96810000D03*
%TD*%
D16*
%TO.C,D19*%
X245500000Y-94190000D03*
D17*
X245500000Y-101810000D03*
%TD*%
D16*
%TO.C,D49*%
X223230000Y-93190000D03*
D17*
X223230000Y-100810000D03*
%TD*%
D14*
%TO.C,K410*%
X311467500Y-196056250D03*
X301307500Y-196056250D03*
D15*
X306387500Y-196056250D03*
D13*
X308927500Y-190976250D03*
X302577500Y-193516250D03*
%TD*%
D14*
%TO.C,K28*%
X239395000Y-157956250D03*
X249555000Y-157956250D03*
D13*
X240665000Y-155416250D03*
X247015000Y-152876250D03*
D15*
X244475000Y-157956250D03*
%TD*%
%TO.C,K21*%
X111125000Y-157956250D03*
D13*
X113665000Y-152876250D03*
D14*
X106045000Y-157956250D03*
X116205000Y-157956250D03*
D13*
X107315000Y-155416250D03*
%TD*%
D16*
%TO.C,D34*%
X173490000Y-97190000D03*
D17*
X173490000Y-104810000D03*
%TD*%
D13*
%TO.C,K18*%
X235902500Y-136366250D03*
D14*
X234632500Y-138906250D03*
D13*
X242252500Y-133826250D03*
D15*
X239712500Y-138906250D03*
D14*
X244792500Y-138906250D03*
%TD*%
D15*
%TO.C,K49*%
X287337500Y-196056250D03*
D13*
X283527500Y-193516250D03*
D14*
X282257500Y-196056250D03*
X292417500Y-196056250D03*
D13*
X289877500Y-190976250D03*
%TD*%
D39*
%TO.C,H4*%
X70750000Y-86500000D03*
%TD*%
D16*
%TO.C,D17*%
X163490000Y-94190000D03*
D17*
X163490000Y-101810000D03*
%TD*%
D13*
%TO.C,KK12*%
X127952500Y-133826250D03*
D15*
X125412500Y-138906250D03*
D13*
X121602500Y-136366250D03*
D14*
X120332500Y-138906250D03*
X130492500Y-138906250D03*
%TD*%
%TO.C,K42*%
X122713750Y-196056250D03*
D13*
X123983750Y-193516250D03*
D15*
X127793750Y-196056250D03*
D14*
X132873750Y-196056250D03*
D13*
X130333750Y-190976250D03*
%TD*%
D28*
%TO.C,R7*%
X97240000Y-91320000D03*
D29*
X97240000Y-86240000D03*
%TD*%
D14*
%TO.C,K19*%
X263842500Y-138906250D03*
X253682500Y-138906250D03*
D15*
X258762500Y-138906250D03*
D13*
X254952500Y-136366250D03*
X261302500Y-133826250D03*
%TD*%
%TO.C,K48*%
X264477500Y-193516250D03*
D14*
X263207500Y-196056250D03*
D15*
X268287500Y-196056250D03*
D13*
X270827500Y-190976250D03*
D14*
X273367500Y-196056250D03*
%TD*%
D13*
%TO.C,K35*%
X199390000Y-171926250D03*
D15*
X196850000Y-177006250D03*
D13*
X193040000Y-174466250D03*
D14*
X191770000Y-177006250D03*
X201930000Y-177006250D03*
%TD*%
D15*
%TO.C,K26*%
X206375000Y-157956250D03*
D14*
X201295000Y-157956250D03*
D13*
X208915000Y-152876250D03*
D14*
X211455000Y-157956250D03*
D13*
X202565000Y-155416250D03*
%TD*%
D15*
%TO.C,K40*%
X80168750Y-196056250D03*
D14*
X75088750Y-196056250D03*
X85248750Y-196056250D03*
D13*
X76358750Y-193516250D03*
X82708750Y-190976250D03*
%TD*%
D16*
%TO.C,D44*%
X220730000Y-94200000D03*
D17*
X220730000Y-101820000D03*
%TD*%
D14*
%TO.C,K312*%
X320357500Y-177006250D03*
D13*
X321627500Y-174466250D03*
D15*
X325437500Y-177006250D03*
D13*
X327977500Y-171926250D03*
D14*
X330517500Y-177006250D03*
%TD*%
D15*
%TO.C,K12*%
X306387500Y-119856250D03*
D14*
X311467500Y-119856250D03*
D13*
X302577500Y-117316250D03*
D14*
X301307500Y-119856250D03*
D13*
X308927500Y-114776250D03*
%TD*%
D42*
%TO.C,Y1*%
X92130000Y-107350000D03*
X89930000Y-107350000D03*
X89930000Y-109050000D03*
X92130000Y-109050000D03*
%TD*%
D16*
%TO.C,D37*%
X133740000Y-96190000D03*
D17*
X133740000Y-103810000D03*
%TD*%
D40*
%TO.C,R1*%
X79970000Y-93160000D03*
X79970000Y-94180000D03*
%TD*%
D16*
%TO.C,D45*%
X260500000Y-94190000D03*
D17*
X260500000Y-101810000D03*
%TD*%
D16*
%TO.C,D51*%
X292740000Y-91190000D03*
D17*
X292740000Y-98810000D03*
%TD*%
D39*
%TO.C,H1*%
X351750000Y-86500000D03*
%TD*%
D15*
%TO.C,K10*%
X268287500Y-119856250D03*
D13*
X264477500Y-117316250D03*
X270827500Y-114776250D03*
D14*
X263207500Y-119856250D03*
X273367500Y-119856250D03*
%TD*%
D15*
%TO.C,KK13*%
X144462500Y-138906250D03*
D14*
X149542500Y-138906250D03*
D13*
X147002500Y-133826250D03*
D14*
X139382500Y-138906250D03*
D13*
X140652500Y-136366250D03*
%TD*%
D43*
%TO.C,C3*%
X84490000Y-91300000D03*
X84490000Y-89750000D03*
%TD*%
D13*
%TO.C,K110*%
X274002500Y-136366250D03*
D14*
X282892500Y-138906250D03*
D13*
X280352500Y-133826250D03*
D15*
X277812500Y-138906250D03*
D14*
X272732500Y-138906250D03*
%TD*%
M02*
