%TF.GenerationSoftware,KiCad,Pcbnew,(6.0.0)*%
%TF.CreationDate,2022-08-26T03:08:24-07:00*%
%TF.ProjectId,HandwireCustom,48616e64-7769-4726-9543-7573746f6d2e,rev?*%
%TF.SameCoordinates,Original*%
%TF.FileFunction,Legend,Bot*%
%TF.FilePolarity,Positive*%
%FSLAX46Y46*%
G04 Gerber Fmt 4.6, Leading zero omitted, Abs format (unit mm)*
G04 Created by KiCad (PCBNEW (6.0.0)) date 2022-08-26 03:08:24*
%MOMM*%
%LPD*%
G01*
G04 APERTURE LIST*
%ADD10C,0.150000*%
%ADD11C,3.000000*%
%ADD12C,1.750000*%
%ADD13C,3.987800*%
%ADD14R,2.550000X2.500000*%
%ADD15R,1.600000X1.600000*%
%ADD16O,1.600000X1.600000*%
%ADD17C,3.048000*%
%ADD18R,1.800000X1.800000*%
%ADD19C,1.800000*%
%ADD20C,1.400000*%
%ADD21O,1.400000X1.400000*%
%ADD22C,0.650000*%
%ADD23O,1.000000X1.600000*%
%ADD24O,1.000000X2.100000*%
%ADD25R,1.700000X1.700000*%
%ADD26O,1.700000X1.700000*%
%ADD27C,2.200000*%
%ADD28C,2.000000*%
G04 APERTURE END LIST*
D10*
%TO.C,K36*%
X217114285Y-180506630D02*
X217114285Y-179506630D01*
X216542857Y-180506630D02*
X216971428Y-179935202D01*
X216542857Y-179506630D02*
X217114285Y-180078059D01*
X216209523Y-179506630D02*
X215590476Y-179506630D01*
X215923809Y-179887583D01*
X215780952Y-179887583D01*
X215685714Y-179935202D01*
X215638095Y-179982821D01*
X215590476Y-180078059D01*
X215590476Y-180316154D01*
X215638095Y-180411392D01*
X215685714Y-180459011D01*
X215780952Y-180506630D01*
X216066666Y-180506630D01*
X216161904Y-180459011D01*
X216209523Y-180411392D01*
X214733333Y-179506630D02*
X214923809Y-179506630D01*
X215019047Y-179554250D01*
X215066666Y-179601869D01*
X215161904Y-179744726D01*
X215209523Y-179935202D01*
X215209523Y-180316154D01*
X215161904Y-180411392D01*
X215114285Y-180459011D01*
X215019047Y-180506630D01*
X214828571Y-180506630D01*
X214733333Y-180459011D01*
X214685714Y-180411392D01*
X214638095Y-180316154D01*
X214638095Y-180078059D01*
X214685714Y-179982821D01*
X214733333Y-179935202D01*
X214828571Y-179887583D01*
X215019047Y-179887583D01*
X215114285Y-179935202D01*
X215161904Y-179982821D01*
X215209523Y-180078059D01*
%TO.C,K13*%
X336176785Y-123356630D02*
X336176785Y-122356630D01*
X335605357Y-123356630D02*
X336033928Y-122785202D01*
X335605357Y-122356630D02*
X336176785Y-122928059D01*
X334652976Y-123356630D02*
X335224404Y-123356630D01*
X334938690Y-123356630D02*
X334938690Y-122356630D01*
X335033928Y-122499488D01*
X335129166Y-122594726D01*
X335224404Y-122642345D01*
X334319642Y-122356630D02*
X333700595Y-122356630D01*
X334033928Y-122737583D01*
X333891071Y-122737583D01*
X333795833Y-122785202D01*
X333748214Y-122832821D01*
X333700595Y-122928059D01*
X333700595Y-123166154D01*
X333748214Y-123261392D01*
X333795833Y-123309011D01*
X333891071Y-123356630D01*
X334176785Y-123356630D01*
X334272023Y-123309011D01*
X334319642Y-123261392D01*
%TO.C,K2*%
X116625595Y-123356630D02*
X116625595Y-122356630D01*
X116054166Y-123356630D02*
X116482738Y-122785202D01*
X116054166Y-122356630D02*
X116625595Y-122928059D01*
X115673214Y-122451869D02*
X115625595Y-122404250D01*
X115530357Y-122356630D01*
X115292261Y-122356630D01*
X115197023Y-122404250D01*
X115149404Y-122451869D01*
X115101785Y-122547107D01*
X115101785Y-122642345D01*
X115149404Y-122785202D01*
X115720833Y-123356630D01*
X115101785Y-123356630D01*
%TO.C,K16*%
X202826785Y-142406630D02*
X202826785Y-141406630D01*
X202255357Y-142406630D02*
X202683928Y-141835202D01*
X202255357Y-141406630D02*
X202826785Y-141978059D01*
X201302976Y-142406630D02*
X201874404Y-142406630D01*
X201588690Y-142406630D02*
X201588690Y-141406630D01*
X201683928Y-141549488D01*
X201779166Y-141644726D01*
X201874404Y-141692345D01*
X200445833Y-141406630D02*
X200636309Y-141406630D01*
X200731547Y-141454250D01*
X200779166Y-141501869D01*
X200874404Y-141644726D01*
X200922023Y-141835202D01*
X200922023Y-142216154D01*
X200874404Y-142311392D01*
X200826785Y-142359011D01*
X200731547Y-142406630D01*
X200541071Y-142406630D01*
X200445833Y-142359011D01*
X200398214Y-142311392D01*
X200350595Y-142216154D01*
X200350595Y-141978059D01*
X200398214Y-141882821D01*
X200445833Y-141835202D01*
X200541071Y-141787583D01*
X200731547Y-141787583D01*
X200826785Y-141835202D01*
X200874404Y-141882821D01*
X200922023Y-141978059D01*
%TO.C,K113*%
X341415476Y-142406630D02*
X341415476Y-141406630D01*
X340844047Y-142406630D02*
X341272619Y-141835202D01*
X340844047Y-141406630D02*
X341415476Y-141978059D01*
X339891666Y-142406630D02*
X340463095Y-142406630D01*
X340177380Y-142406630D02*
X340177380Y-141406630D01*
X340272619Y-141549488D01*
X340367857Y-141644726D01*
X340463095Y-141692345D01*
X338939285Y-142406630D02*
X339510714Y-142406630D01*
X339225000Y-142406630D02*
X339225000Y-141406630D01*
X339320238Y-141549488D01*
X339415476Y-141644726D01*
X339510714Y-141692345D01*
X338605952Y-141406630D02*
X337986904Y-141406630D01*
X338320238Y-141787583D01*
X338177380Y-141787583D01*
X338082142Y-141835202D01*
X338034523Y-141882821D01*
X337986904Y-141978059D01*
X337986904Y-142216154D01*
X338034523Y-142311392D01*
X338082142Y-142359011D01*
X338177380Y-142406630D01*
X338463095Y-142406630D01*
X338558333Y-142359011D01*
X338605952Y-142311392D01*
%TO.C,K25*%
X188539285Y-161456630D02*
X188539285Y-160456630D01*
X187967857Y-161456630D02*
X188396428Y-160885202D01*
X187967857Y-160456630D02*
X188539285Y-161028059D01*
X187586904Y-160551869D02*
X187539285Y-160504250D01*
X187444047Y-160456630D01*
X187205952Y-160456630D01*
X187110714Y-160504250D01*
X187063095Y-160551869D01*
X187015476Y-160647107D01*
X187015476Y-160742345D01*
X187063095Y-160885202D01*
X187634523Y-161456630D01*
X187015476Y-161456630D01*
X186110714Y-160456630D02*
X186586904Y-160456630D01*
X186634523Y-160932821D01*
X186586904Y-160885202D01*
X186491666Y-160837583D01*
X186253571Y-160837583D01*
X186158333Y-160885202D01*
X186110714Y-160932821D01*
X186063095Y-161028059D01*
X186063095Y-161266154D01*
X186110714Y-161361392D01*
X186158333Y-161409011D01*
X186253571Y-161456630D01*
X186491666Y-161456630D01*
X186586904Y-161409011D01*
X186634523Y-161361392D01*
%TO.C,K14*%
X164726785Y-142406630D02*
X164726785Y-141406630D01*
X164155357Y-142406630D02*
X164583928Y-141835202D01*
X164155357Y-141406630D02*
X164726785Y-141978059D01*
X163202976Y-142406630D02*
X163774404Y-142406630D01*
X163488690Y-142406630D02*
X163488690Y-141406630D01*
X163583928Y-141549488D01*
X163679166Y-141644726D01*
X163774404Y-141692345D01*
X162345833Y-141739964D02*
X162345833Y-142406630D01*
X162583928Y-141359011D02*
X162822023Y-142073297D01*
X162202976Y-142073297D01*
%TO.C,K38*%
X255214285Y-180506630D02*
X255214285Y-179506630D01*
X254642857Y-180506630D02*
X255071428Y-179935202D01*
X254642857Y-179506630D02*
X255214285Y-180078059D01*
X254309523Y-179506630D02*
X253690476Y-179506630D01*
X254023809Y-179887583D01*
X253880952Y-179887583D01*
X253785714Y-179935202D01*
X253738095Y-179982821D01*
X253690476Y-180078059D01*
X253690476Y-180316154D01*
X253738095Y-180411392D01*
X253785714Y-180459011D01*
X253880952Y-180506630D01*
X254166666Y-180506630D01*
X254261904Y-180459011D01*
X254309523Y-180411392D01*
X253119047Y-179935202D02*
X253214285Y-179887583D01*
X253261904Y-179839964D01*
X253309523Y-179744726D01*
X253309523Y-179697107D01*
X253261904Y-179601869D01*
X253214285Y-179554250D01*
X253119047Y-179506630D01*
X252928571Y-179506630D01*
X252833333Y-179554250D01*
X252785714Y-179601869D01*
X252738095Y-179697107D01*
X252738095Y-179744726D01*
X252785714Y-179839964D01*
X252833333Y-179887583D01*
X252928571Y-179935202D01*
X253119047Y-179935202D01*
X253214285Y-179982821D01*
X253261904Y-180030440D01*
X253309523Y-180125678D01*
X253309523Y-180316154D01*
X253261904Y-180411392D01*
X253214285Y-180459011D01*
X253119047Y-180506630D01*
X252928571Y-180506630D01*
X252833333Y-180459011D01*
X252785714Y-180411392D01*
X252738095Y-180316154D01*
X252738095Y-180125678D01*
X252785714Y-180030440D01*
X252833333Y-179982821D01*
X252928571Y-179935202D01*
%TO.C,K0*%
X78525595Y-123356630D02*
X78525595Y-122356630D01*
X77954166Y-123356630D02*
X78382738Y-122785202D01*
X77954166Y-122356630D02*
X78525595Y-122928059D01*
X77335119Y-122356630D02*
X77239880Y-122356630D01*
X77144642Y-122404250D01*
X77097023Y-122451869D01*
X77049404Y-122547107D01*
X77001785Y-122737583D01*
X77001785Y-122975678D01*
X77049404Y-123166154D01*
X77097023Y-123261392D01*
X77144642Y-123309011D01*
X77239880Y-123356630D01*
X77335119Y-123356630D01*
X77430357Y-123309011D01*
X77477976Y-123261392D01*
X77525595Y-123166154D01*
X77573214Y-122975678D01*
X77573214Y-122737583D01*
X77525595Y-122547107D01*
X77477976Y-122451869D01*
X77430357Y-122404250D01*
X77335119Y-122356630D01*
%TO.C,K45*%
X200445535Y-199556630D02*
X200445535Y-198556630D01*
X199874107Y-199556630D02*
X200302678Y-198985202D01*
X199874107Y-198556630D02*
X200445535Y-199128059D01*
X199016964Y-198889964D02*
X199016964Y-199556630D01*
X199255059Y-198509011D02*
X199493154Y-199223297D01*
X198874107Y-199223297D01*
X198016964Y-198556630D02*
X198493154Y-198556630D01*
X198540773Y-199032821D01*
X198493154Y-198985202D01*
X198397916Y-198937583D01*
X198159821Y-198937583D01*
X198064583Y-198985202D01*
X198016964Y-199032821D01*
X197969345Y-199128059D01*
X197969345Y-199366154D01*
X198016964Y-199461392D01*
X198064583Y-199509011D01*
X198159821Y-199556630D01*
X198397916Y-199556630D01*
X198493154Y-199509011D01*
X198540773Y-199461392D01*
%TO.C,K33*%
X159964285Y-180506630D02*
X159964285Y-179506630D01*
X159392857Y-180506630D02*
X159821428Y-179935202D01*
X159392857Y-179506630D02*
X159964285Y-180078059D01*
X159059523Y-179506630D02*
X158440476Y-179506630D01*
X158773809Y-179887583D01*
X158630952Y-179887583D01*
X158535714Y-179935202D01*
X158488095Y-179982821D01*
X158440476Y-180078059D01*
X158440476Y-180316154D01*
X158488095Y-180411392D01*
X158535714Y-180459011D01*
X158630952Y-180506630D01*
X158916666Y-180506630D01*
X159011904Y-180459011D01*
X159059523Y-180411392D01*
X158107142Y-179506630D02*
X157488095Y-179506630D01*
X157821428Y-179887583D01*
X157678571Y-179887583D01*
X157583333Y-179935202D01*
X157535714Y-179982821D01*
X157488095Y-180078059D01*
X157488095Y-180316154D01*
X157535714Y-180411392D01*
X157583333Y-180459011D01*
X157678571Y-180506630D01*
X157964285Y-180506630D01*
X158059523Y-180459011D01*
X158107142Y-180411392D01*
%TO.C,K412*%
X327127976Y-199556630D02*
X327127976Y-198556630D01*
X326556547Y-199556630D02*
X326985119Y-198985202D01*
X326556547Y-198556630D02*
X327127976Y-199128059D01*
X325699404Y-198889964D02*
X325699404Y-199556630D01*
X325937500Y-198509011D02*
X326175595Y-199223297D01*
X325556547Y-199223297D01*
X324651785Y-199556630D02*
X325223214Y-199556630D01*
X324937500Y-199556630D02*
X324937500Y-198556630D01*
X325032738Y-198699488D01*
X325127976Y-198794726D01*
X325223214Y-198842345D01*
X324270833Y-198651869D02*
X324223214Y-198604250D01*
X324127976Y-198556630D01*
X323889880Y-198556630D01*
X323794642Y-198604250D01*
X323747023Y-198651869D01*
X323699404Y-198747107D01*
X323699404Y-198842345D01*
X323747023Y-198985202D01*
X324318452Y-199556630D01*
X323699404Y-199556630D01*
%TO.C,K3*%
X135675595Y-123356630D02*
X135675595Y-122356630D01*
X135104166Y-123356630D02*
X135532738Y-122785202D01*
X135104166Y-122356630D02*
X135675595Y-122928059D01*
X134770833Y-122356630D02*
X134151785Y-122356630D01*
X134485119Y-122737583D01*
X134342261Y-122737583D01*
X134247023Y-122785202D01*
X134199404Y-122832821D01*
X134151785Y-122928059D01*
X134151785Y-123166154D01*
X134199404Y-123261392D01*
X134247023Y-123309011D01*
X134342261Y-123356630D01*
X134627976Y-123356630D01*
X134723214Y-123309011D01*
X134770833Y-123261392D01*
%TO.C,K5*%
X173775595Y-123356630D02*
X173775595Y-122356630D01*
X173204166Y-123356630D02*
X173632738Y-122785202D01*
X173204166Y-122356630D02*
X173775595Y-122928059D01*
X172299404Y-122356630D02*
X172775595Y-122356630D01*
X172823214Y-122832821D01*
X172775595Y-122785202D01*
X172680357Y-122737583D01*
X172442261Y-122737583D01*
X172347023Y-122785202D01*
X172299404Y-122832821D01*
X172251785Y-122928059D01*
X172251785Y-123166154D01*
X172299404Y-123261392D01*
X172347023Y-123309011D01*
X172442261Y-123356630D01*
X172680357Y-123356630D01*
X172775595Y-123309011D01*
X172823214Y-123261392D01*
%TO.C,K15*%
X183776785Y-142406630D02*
X183776785Y-141406630D01*
X183205357Y-142406630D02*
X183633928Y-141835202D01*
X183205357Y-141406630D02*
X183776785Y-141978059D01*
X182252976Y-142406630D02*
X182824404Y-142406630D01*
X182538690Y-142406630D02*
X182538690Y-141406630D01*
X182633928Y-141549488D01*
X182729166Y-141644726D01*
X182824404Y-141692345D01*
X181348214Y-141406630D02*
X181824404Y-141406630D01*
X181872023Y-141882821D01*
X181824404Y-141835202D01*
X181729166Y-141787583D01*
X181491071Y-141787583D01*
X181395833Y-141835202D01*
X181348214Y-141882821D01*
X181300595Y-141978059D01*
X181300595Y-142216154D01*
X181348214Y-142311392D01*
X181395833Y-142359011D01*
X181491071Y-142406630D01*
X181729166Y-142406630D01*
X181824404Y-142359011D01*
X181872023Y-142311392D01*
%TO.C,K11*%
X288551785Y-123356630D02*
X288551785Y-122356630D01*
X287980357Y-123356630D02*
X288408928Y-122785202D01*
X287980357Y-122356630D02*
X288551785Y-122928059D01*
X287027976Y-123356630D02*
X287599404Y-123356630D01*
X287313690Y-123356630D02*
X287313690Y-122356630D01*
X287408928Y-122499488D01*
X287504166Y-122594726D01*
X287599404Y-122642345D01*
X286075595Y-123356630D02*
X286647023Y-123356630D01*
X286361309Y-123356630D02*
X286361309Y-122356630D01*
X286456547Y-122499488D01*
X286551785Y-122594726D01*
X286647023Y-122642345D01*
%TO.C,K310*%
X300934226Y-180506630D02*
X300934226Y-179506630D01*
X300362797Y-180506630D02*
X300791369Y-179935202D01*
X300362797Y-179506630D02*
X300934226Y-180078059D01*
X300029464Y-179506630D02*
X299410416Y-179506630D01*
X299743750Y-179887583D01*
X299600892Y-179887583D01*
X299505654Y-179935202D01*
X299458035Y-179982821D01*
X299410416Y-180078059D01*
X299410416Y-180316154D01*
X299458035Y-180411392D01*
X299505654Y-180459011D01*
X299600892Y-180506630D01*
X299886607Y-180506630D01*
X299981845Y-180459011D01*
X300029464Y-180411392D01*
X298458035Y-180506630D02*
X299029464Y-180506630D01*
X298743750Y-180506630D02*
X298743750Y-179506630D01*
X298838988Y-179649488D01*
X298934226Y-179744726D01*
X299029464Y-179792345D01*
X297838988Y-179506630D02*
X297743750Y-179506630D01*
X297648511Y-179554250D01*
X297600892Y-179601869D01*
X297553273Y-179697107D01*
X297505654Y-179887583D01*
X297505654Y-180125678D01*
X297553273Y-180316154D01*
X297600892Y-180411392D01*
X297648511Y-180459011D01*
X297743750Y-180506630D01*
X297838988Y-180506630D01*
X297934226Y-180459011D01*
X297981845Y-180411392D01*
X298029464Y-180316154D01*
X298077083Y-180125678D01*
X298077083Y-179887583D01*
X298029464Y-179697107D01*
X297981845Y-179601869D01*
X297934226Y-179554250D01*
X297838988Y-179506630D01*
%TO.C,K37*%
X236164285Y-180506630D02*
X236164285Y-179506630D01*
X235592857Y-180506630D02*
X236021428Y-179935202D01*
X235592857Y-179506630D02*
X236164285Y-180078059D01*
X235259523Y-179506630D02*
X234640476Y-179506630D01*
X234973809Y-179887583D01*
X234830952Y-179887583D01*
X234735714Y-179935202D01*
X234688095Y-179982821D01*
X234640476Y-180078059D01*
X234640476Y-180316154D01*
X234688095Y-180411392D01*
X234735714Y-180459011D01*
X234830952Y-180506630D01*
X235116666Y-180506630D01*
X235211904Y-180459011D01*
X235259523Y-180411392D01*
X234307142Y-179506630D02*
X233640476Y-179506630D01*
X234069047Y-180506630D01*
%TO.C,K17*%
X221876785Y-142406630D02*
X221876785Y-141406630D01*
X221305357Y-142406630D02*
X221733928Y-141835202D01*
X221305357Y-141406630D02*
X221876785Y-141978059D01*
X220352976Y-142406630D02*
X220924404Y-142406630D01*
X220638690Y-142406630D02*
X220638690Y-141406630D01*
X220733928Y-141549488D01*
X220829166Y-141644726D01*
X220924404Y-141692345D01*
X220019642Y-141406630D02*
X219352976Y-141406630D01*
X219781547Y-142406630D01*
%TO.C,K313*%
X346177976Y-180506630D02*
X346177976Y-179506630D01*
X345606547Y-180506630D02*
X346035119Y-179935202D01*
X345606547Y-179506630D02*
X346177976Y-180078059D01*
X345273214Y-179506630D02*
X344654166Y-179506630D01*
X344987500Y-179887583D01*
X344844642Y-179887583D01*
X344749404Y-179935202D01*
X344701785Y-179982821D01*
X344654166Y-180078059D01*
X344654166Y-180316154D01*
X344701785Y-180411392D01*
X344749404Y-180459011D01*
X344844642Y-180506630D01*
X345130357Y-180506630D01*
X345225595Y-180459011D01*
X345273214Y-180411392D01*
X343701785Y-180506630D02*
X344273214Y-180506630D01*
X343987500Y-180506630D02*
X343987500Y-179506630D01*
X344082738Y-179649488D01*
X344177976Y-179744726D01*
X344273214Y-179792345D01*
X343368452Y-179506630D02*
X342749404Y-179506630D01*
X343082738Y-179887583D01*
X342939880Y-179887583D01*
X342844642Y-179935202D01*
X342797023Y-179982821D01*
X342749404Y-180078059D01*
X342749404Y-180316154D01*
X342797023Y-180411392D01*
X342844642Y-180459011D01*
X342939880Y-180506630D01*
X343225595Y-180506630D01*
X343320833Y-180459011D01*
X343368452Y-180411392D01*
%TO.C,KK11*%
X108076785Y-142406630D02*
X108076785Y-141406630D01*
X107505357Y-142406630D02*
X107933928Y-141835202D01*
X107505357Y-141406630D02*
X108076785Y-141978059D01*
X107076785Y-142406630D02*
X107076785Y-141406630D01*
X106505357Y-142406630D02*
X106933928Y-141835202D01*
X106505357Y-141406630D02*
X107076785Y-141978059D01*
X105552976Y-142406630D02*
X106124404Y-142406630D01*
X105838690Y-142406630D02*
X105838690Y-141406630D01*
X105933928Y-141549488D01*
X106029166Y-141644726D01*
X106124404Y-141692345D01*
X104600595Y-142406630D02*
X105172023Y-142406630D01*
X104886309Y-142406630D02*
X104886309Y-141406630D01*
X104981547Y-141549488D01*
X105076785Y-141644726D01*
X105172023Y-141692345D01*
%TO.C,K413*%
X346177976Y-199556630D02*
X346177976Y-198556630D01*
X345606547Y-199556630D02*
X346035119Y-198985202D01*
X345606547Y-198556630D02*
X346177976Y-199128059D01*
X344749404Y-198889964D02*
X344749404Y-199556630D01*
X344987500Y-198509011D02*
X345225595Y-199223297D01*
X344606547Y-199223297D01*
X343701785Y-199556630D02*
X344273214Y-199556630D01*
X343987500Y-199556630D02*
X343987500Y-198556630D01*
X344082738Y-198699488D01*
X344177976Y-198794726D01*
X344273214Y-198842345D01*
X343368452Y-198556630D02*
X342749404Y-198556630D01*
X343082738Y-198937583D01*
X342939880Y-198937583D01*
X342844642Y-198985202D01*
X342797023Y-199032821D01*
X342749404Y-199128059D01*
X342749404Y-199366154D01*
X342797023Y-199461392D01*
X342844642Y-199509011D01*
X342939880Y-199556630D01*
X343225595Y-199556630D01*
X343320833Y-199509011D01*
X343368452Y-199461392D01*
%TO.C,K213*%
X334271726Y-161456630D02*
X334271726Y-160456630D01*
X333700297Y-161456630D02*
X334128869Y-160885202D01*
X333700297Y-160456630D02*
X334271726Y-161028059D01*
X333319345Y-160551869D02*
X333271726Y-160504250D01*
X333176488Y-160456630D01*
X332938392Y-160456630D01*
X332843154Y-160504250D01*
X332795535Y-160551869D01*
X332747916Y-160647107D01*
X332747916Y-160742345D01*
X332795535Y-160885202D01*
X333366964Y-161456630D01*
X332747916Y-161456630D01*
X331795535Y-161456630D02*
X332366964Y-161456630D01*
X332081250Y-161456630D02*
X332081250Y-160456630D01*
X332176488Y-160599488D01*
X332271726Y-160694726D01*
X332366964Y-160742345D01*
X331462202Y-160456630D02*
X330843154Y-160456630D01*
X331176488Y-160837583D01*
X331033630Y-160837583D01*
X330938392Y-160885202D01*
X330890773Y-160932821D01*
X330843154Y-161028059D01*
X330843154Y-161266154D01*
X330890773Y-161361392D01*
X330938392Y-161409011D01*
X331033630Y-161456630D01*
X331319345Y-161456630D01*
X331414583Y-161409011D01*
X331462202Y-161361392D01*
%TO.C,K210*%
X284265476Y-161456630D02*
X284265476Y-160456630D01*
X283694047Y-161456630D02*
X284122619Y-160885202D01*
X283694047Y-160456630D02*
X284265476Y-161028059D01*
X283313095Y-160551869D02*
X283265476Y-160504250D01*
X283170238Y-160456630D01*
X282932142Y-160456630D01*
X282836904Y-160504250D01*
X282789285Y-160551869D01*
X282741666Y-160647107D01*
X282741666Y-160742345D01*
X282789285Y-160885202D01*
X283360714Y-161456630D01*
X282741666Y-161456630D01*
X281789285Y-161456630D02*
X282360714Y-161456630D01*
X282075000Y-161456630D02*
X282075000Y-160456630D01*
X282170238Y-160599488D01*
X282265476Y-160694726D01*
X282360714Y-160742345D01*
X281170238Y-160456630D02*
X281075000Y-160456630D01*
X280979761Y-160504250D01*
X280932142Y-160551869D01*
X280884523Y-160647107D01*
X280836904Y-160837583D01*
X280836904Y-161075678D01*
X280884523Y-161266154D01*
X280932142Y-161361392D01*
X280979761Y-161409011D01*
X281075000Y-161456630D01*
X281170238Y-161456630D01*
X281265476Y-161409011D01*
X281313095Y-161361392D01*
X281360714Y-161266154D01*
X281408333Y-161075678D01*
X281408333Y-160837583D01*
X281360714Y-160647107D01*
X281313095Y-160551869D01*
X281265476Y-160504250D01*
X281170238Y-160456630D01*
%TO.C,K34*%
X179014285Y-180506630D02*
X179014285Y-179506630D01*
X178442857Y-180506630D02*
X178871428Y-179935202D01*
X178442857Y-179506630D02*
X179014285Y-180078059D01*
X178109523Y-179506630D02*
X177490476Y-179506630D01*
X177823809Y-179887583D01*
X177680952Y-179887583D01*
X177585714Y-179935202D01*
X177538095Y-179982821D01*
X177490476Y-180078059D01*
X177490476Y-180316154D01*
X177538095Y-180411392D01*
X177585714Y-180459011D01*
X177680952Y-180506630D01*
X177966666Y-180506630D01*
X178061904Y-180459011D01*
X178109523Y-180411392D01*
X176633333Y-179839964D02*
X176633333Y-180506630D01*
X176871428Y-179459011D02*
X177109523Y-180173297D01*
X176490476Y-180173297D01*
%TO.C,K1*%
X97575595Y-123356630D02*
X97575595Y-122356630D01*
X97004166Y-123356630D02*
X97432738Y-122785202D01*
X97004166Y-122356630D02*
X97575595Y-122928059D01*
X96051785Y-123356630D02*
X96623214Y-123356630D01*
X96337500Y-123356630D02*
X96337500Y-122356630D01*
X96432738Y-122499488D01*
X96527976Y-122594726D01*
X96623214Y-122642345D01*
%TO.C,K32*%
X140914285Y-180506630D02*
X140914285Y-179506630D01*
X140342857Y-180506630D02*
X140771428Y-179935202D01*
X140342857Y-179506630D02*
X140914285Y-180078059D01*
X140009523Y-179506630D02*
X139390476Y-179506630D01*
X139723809Y-179887583D01*
X139580952Y-179887583D01*
X139485714Y-179935202D01*
X139438095Y-179982821D01*
X139390476Y-180078059D01*
X139390476Y-180316154D01*
X139438095Y-180411392D01*
X139485714Y-180459011D01*
X139580952Y-180506630D01*
X139866666Y-180506630D01*
X139961904Y-180459011D01*
X140009523Y-180411392D01*
X139009523Y-179601869D02*
X138961904Y-179554250D01*
X138866666Y-179506630D01*
X138628571Y-179506630D01*
X138533333Y-179554250D01*
X138485714Y-179601869D01*
X138438095Y-179697107D01*
X138438095Y-179792345D01*
X138485714Y-179935202D01*
X139057142Y-180506630D01*
X138438095Y-180506630D01*
%TO.C,K410*%
X308077976Y-199556630D02*
X308077976Y-198556630D01*
X307506547Y-199556630D02*
X307935119Y-198985202D01*
X307506547Y-198556630D02*
X308077976Y-199128059D01*
X306649404Y-198889964D02*
X306649404Y-199556630D01*
X306887500Y-198509011D02*
X307125595Y-199223297D01*
X306506547Y-199223297D01*
X305601785Y-199556630D02*
X306173214Y-199556630D01*
X305887500Y-199556630D02*
X305887500Y-198556630D01*
X305982738Y-198699488D01*
X306077976Y-198794726D01*
X306173214Y-198842345D01*
X304982738Y-198556630D02*
X304887500Y-198556630D01*
X304792261Y-198604250D01*
X304744642Y-198651869D01*
X304697023Y-198747107D01*
X304649404Y-198937583D01*
X304649404Y-199175678D01*
X304697023Y-199366154D01*
X304744642Y-199461392D01*
X304792261Y-199509011D01*
X304887500Y-199556630D01*
X304982738Y-199556630D01*
X305077976Y-199509011D01*
X305125595Y-199461392D01*
X305173214Y-199366154D01*
X305220833Y-199175678D01*
X305220833Y-198937583D01*
X305173214Y-198747107D01*
X305125595Y-198651869D01*
X305077976Y-198604250D01*
X304982738Y-198556630D01*
%TO.C,K18*%
X240926785Y-142406630D02*
X240926785Y-141406630D01*
X240355357Y-142406630D02*
X240783928Y-141835202D01*
X240355357Y-141406630D02*
X240926785Y-141978059D01*
X239402976Y-142406630D02*
X239974404Y-142406630D01*
X239688690Y-142406630D02*
X239688690Y-141406630D01*
X239783928Y-141549488D01*
X239879166Y-141644726D01*
X239974404Y-141692345D01*
X238831547Y-141835202D02*
X238926785Y-141787583D01*
X238974404Y-141739964D01*
X239022023Y-141644726D01*
X239022023Y-141597107D01*
X238974404Y-141501869D01*
X238926785Y-141454250D01*
X238831547Y-141406630D01*
X238641071Y-141406630D01*
X238545833Y-141454250D01*
X238498214Y-141501869D01*
X238450595Y-141597107D01*
X238450595Y-141644726D01*
X238498214Y-141739964D01*
X238545833Y-141787583D01*
X238641071Y-141835202D01*
X238831547Y-141835202D01*
X238926785Y-141882821D01*
X238974404Y-141930440D01*
X239022023Y-142025678D01*
X239022023Y-142216154D01*
X238974404Y-142311392D01*
X238926785Y-142359011D01*
X238831547Y-142406630D01*
X238641071Y-142406630D01*
X238545833Y-142359011D01*
X238498214Y-142311392D01*
X238450595Y-142216154D01*
X238450595Y-142025678D01*
X238498214Y-141930440D01*
X238545833Y-141882821D01*
X238641071Y-141835202D01*
%TO.C,K49*%
X288551785Y-199556630D02*
X288551785Y-198556630D01*
X287980357Y-199556630D02*
X288408928Y-198985202D01*
X287980357Y-198556630D02*
X288551785Y-199128059D01*
X287123214Y-198889964D02*
X287123214Y-199556630D01*
X287361309Y-198509011D02*
X287599404Y-199223297D01*
X286980357Y-199223297D01*
X286551785Y-199556630D02*
X286361309Y-199556630D01*
X286266071Y-199509011D01*
X286218452Y-199461392D01*
X286123214Y-199318535D01*
X286075595Y-199128059D01*
X286075595Y-198747107D01*
X286123214Y-198651869D01*
X286170833Y-198604250D01*
X286266071Y-198556630D01*
X286456547Y-198556630D01*
X286551785Y-198604250D01*
X286599404Y-198651869D01*
X286647023Y-198747107D01*
X286647023Y-198985202D01*
X286599404Y-199080440D01*
X286551785Y-199128059D01*
X286456547Y-199175678D01*
X286266071Y-199175678D01*
X286170833Y-199128059D01*
X286123214Y-199080440D01*
X286075595Y-198985202D01*
%TO.C,KK12*%
X127126785Y-142406630D02*
X127126785Y-141406630D01*
X126555357Y-142406630D02*
X126983928Y-141835202D01*
X126555357Y-141406630D02*
X127126785Y-141978059D01*
X126126785Y-142406630D02*
X126126785Y-141406630D01*
X125555357Y-142406630D02*
X125983928Y-141835202D01*
X125555357Y-141406630D02*
X126126785Y-141978059D01*
X124602976Y-142406630D02*
X125174404Y-142406630D01*
X124888690Y-142406630D02*
X124888690Y-141406630D01*
X124983928Y-141549488D01*
X125079166Y-141644726D01*
X125174404Y-141692345D01*
X124222023Y-141501869D02*
X124174404Y-141454250D01*
X124079166Y-141406630D01*
X123841071Y-141406630D01*
X123745833Y-141454250D01*
X123698214Y-141501869D01*
X123650595Y-141597107D01*
X123650595Y-141692345D01*
X123698214Y-141835202D01*
X124269642Y-142406630D01*
X123650595Y-142406630D01*
%TO.C,K19*%
X259976785Y-142406630D02*
X259976785Y-141406630D01*
X259405357Y-142406630D02*
X259833928Y-141835202D01*
X259405357Y-141406630D02*
X259976785Y-141978059D01*
X258452976Y-142406630D02*
X259024404Y-142406630D01*
X258738690Y-142406630D02*
X258738690Y-141406630D01*
X258833928Y-141549488D01*
X258929166Y-141644726D01*
X259024404Y-141692345D01*
X257976785Y-142406630D02*
X257786309Y-142406630D01*
X257691071Y-142359011D01*
X257643452Y-142311392D01*
X257548214Y-142168535D01*
X257500595Y-141978059D01*
X257500595Y-141597107D01*
X257548214Y-141501869D01*
X257595833Y-141454250D01*
X257691071Y-141406630D01*
X257881547Y-141406630D01*
X257976785Y-141454250D01*
X258024404Y-141501869D01*
X258072023Y-141597107D01*
X258072023Y-141835202D01*
X258024404Y-141930440D01*
X257976785Y-141978059D01*
X257881547Y-142025678D01*
X257691071Y-142025678D01*
X257595833Y-141978059D01*
X257548214Y-141930440D01*
X257500595Y-141835202D01*
%TO.C,K48*%
X269501785Y-199556630D02*
X269501785Y-198556630D01*
X268930357Y-199556630D02*
X269358928Y-198985202D01*
X268930357Y-198556630D02*
X269501785Y-199128059D01*
X268073214Y-198889964D02*
X268073214Y-199556630D01*
X268311309Y-198509011D02*
X268549404Y-199223297D01*
X267930357Y-199223297D01*
X267406547Y-198985202D02*
X267501785Y-198937583D01*
X267549404Y-198889964D01*
X267597023Y-198794726D01*
X267597023Y-198747107D01*
X267549404Y-198651869D01*
X267501785Y-198604250D01*
X267406547Y-198556630D01*
X267216071Y-198556630D01*
X267120833Y-198604250D01*
X267073214Y-198651869D01*
X267025595Y-198747107D01*
X267025595Y-198794726D01*
X267073214Y-198889964D01*
X267120833Y-198937583D01*
X267216071Y-198985202D01*
X267406547Y-198985202D01*
X267501785Y-199032821D01*
X267549404Y-199080440D01*
X267597023Y-199175678D01*
X267597023Y-199366154D01*
X267549404Y-199461392D01*
X267501785Y-199509011D01*
X267406547Y-199556630D01*
X267216071Y-199556630D01*
X267120833Y-199509011D01*
X267073214Y-199461392D01*
X267025595Y-199366154D01*
X267025595Y-199175678D01*
X267073214Y-199080440D01*
X267120833Y-199032821D01*
X267216071Y-198985202D01*
%TO.C,K35*%
X198064285Y-180506630D02*
X198064285Y-179506630D01*
X197492857Y-180506630D02*
X197921428Y-179935202D01*
X197492857Y-179506630D02*
X198064285Y-180078059D01*
X197159523Y-179506630D02*
X196540476Y-179506630D01*
X196873809Y-179887583D01*
X196730952Y-179887583D01*
X196635714Y-179935202D01*
X196588095Y-179982821D01*
X196540476Y-180078059D01*
X196540476Y-180316154D01*
X196588095Y-180411392D01*
X196635714Y-180459011D01*
X196730952Y-180506630D01*
X197016666Y-180506630D01*
X197111904Y-180459011D01*
X197159523Y-180411392D01*
X195635714Y-179506630D02*
X196111904Y-179506630D01*
X196159523Y-179982821D01*
X196111904Y-179935202D01*
X196016666Y-179887583D01*
X195778571Y-179887583D01*
X195683333Y-179935202D01*
X195635714Y-179982821D01*
X195588095Y-180078059D01*
X195588095Y-180316154D01*
X195635714Y-180411392D01*
X195683333Y-180459011D01*
X195778571Y-180506630D01*
X196016666Y-180506630D01*
X196111904Y-180459011D01*
X196159523Y-180411392D01*
%TO.C,K26*%
X207589285Y-161456630D02*
X207589285Y-160456630D01*
X207017857Y-161456630D02*
X207446428Y-160885202D01*
X207017857Y-160456630D02*
X207589285Y-161028059D01*
X206636904Y-160551869D02*
X206589285Y-160504250D01*
X206494047Y-160456630D01*
X206255952Y-160456630D01*
X206160714Y-160504250D01*
X206113095Y-160551869D01*
X206065476Y-160647107D01*
X206065476Y-160742345D01*
X206113095Y-160885202D01*
X206684523Y-161456630D01*
X206065476Y-161456630D01*
X205208333Y-160456630D02*
X205398809Y-160456630D01*
X205494047Y-160504250D01*
X205541666Y-160551869D01*
X205636904Y-160694726D01*
X205684523Y-160885202D01*
X205684523Y-161266154D01*
X205636904Y-161361392D01*
X205589285Y-161409011D01*
X205494047Y-161456630D01*
X205303571Y-161456630D01*
X205208333Y-161409011D01*
X205160714Y-161361392D01*
X205113095Y-161266154D01*
X205113095Y-161028059D01*
X205160714Y-160932821D01*
X205208333Y-160885202D01*
X205303571Y-160837583D01*
X205494047Y-160837583D01*
X205589285Y-160885202D01*
X205636904Y-160932821D01*
X205684523Y-161028059D01*
%TO.C,K40*%
X81383035Y-199556630D02*
X81383035Y-198556630D01*
X80811607Y-199556630D02*
X81240178Y-198985202D01*
X80811607Y-198556630D02*
X81383035Y-199128059D01*
X79954464Y-198889964D02*
X79954464Y-199556630D01*
X80192559Y-198509011D02*
X80430654Y-199223297D01*
X79811607Y-199223297D01*
X79240178Y-198556630D02*
X79144940Y-198556630D01*
X79049702Y-198604250D01*
X79002083Y-198651869D01*
X78954464Y-198747107D01*
X78906845Y-198937583D01*
X78906845Y-199175678D01*
X78954464Y-199366154D01*
X79002083Y-199461392D01*
X79049702Y-199509011D01*
X79144940Y-199556630D01*
X79240178Y-199556630D01*
X79335416Y-199509011D01*
X79383035Y-199461392D01*
X79430654Y-199366154D01*
X79478273Y-199175678D01*
X79478273Y-198937583D01*
X79430654Y-198747107D01*
X79383035Y-198651869D01*
X79335416Y-198604250D01*
X79240178Y-198556630D01*
%TO.C,K312*%
X327127976Y-180506630D02*
X327127976Y-179506630D01*
X326556547Y-180506630D02*
X326985119Y-179935202D01*
X326556547Y-179506630D02*
X327127976Y-180078059D01*
X326223214Y-179506630D02*
X325604166Y-179506630D01*
X325937500Y-179887583D01*
X325794642Y-179887583D01*
X325699404Y-179935202D01*
X325651785Y-179982821D01*
X325604166Y-180078059D01*
X325604166Y-180316154D01*
X325651785Y-180411392D01*
X325699404Y-180459011D01*
X325794642Y-180506630D01*
X326080357Y-180506630D01*
X326175595Y-180459011D01*
X326223214Y-180411392D01*
X324651785Y-180506630D02*
X325223214Y-180506630D01*
X324937500Y-180506630D02*
X324937500Y-179506630D01*
X325032738Y-179649488D01*
X325127976Y-179744726D01*
X325223214Y-179792345D01*
X324270833Y-179601869D02*
X324223214Y-179554250D01*
X324127976Y-179506630D01*
X323889880Y-179506630D01*
X323794642Y-179554250D01*
X323747023Y-179601869D01*
X323699404Y-179697107D01*
X323699404Y-179792345D01*
X323747023Y-179935202D01*
X324318452Y-180506630D01*
X323699404Y-180506630D01*
%TO.C,K12*%
X307601785Y-123356630D02*
X307601785Y-122356630D01*
X307030357Y-123356630D02*
X307458928Y-122785202D01*
X307030357Y-122356630D02*
X307601785Y-122928059D01*
X306077976Y-123356630D02*
X306649404Y-123356630D01*
X306363690Y-123356630D02*
X306363690Y-122356630D01*
X306458928Y-122499488D01*
X306554166Y-122594726D01*
X306649404Y-122642345D01*
X305697023Y-122451869D02*
X305649404Y-122404250D01*
X305554166Y-122356630D01*
X305316071Y-122356630D01*
X305220833Y-122404250D01*
X305173214Y-122451869D01*
X305125595Y-122547107D01*
X305125595Y-122642345D01*
X305173214Y-122785202D01*
X305744642Y-123356630D01*
X305125595Y-123356630D01*
%TO.C,KK13*%
X146176785Y-142406630D02*
X146176785Y-141406630D01*
X145605357Y-142406630D02*
X146033928Y-141835202D01*
X145605357Y-141406630D02*
X146176785Y-141978059D01*
X145176785Y-142406630D02*
X145176785Y-141406630D01*
X144605357Y-142406630D02*
X145033928Y-141835202D01*
X144605357Y-141406630D02*
X145176785Y-141978059D01*
X143652976Y-142406630D02*
X144224404Y-142406630D01*
X143938690Y-142406630D02*
X143938690Y-141406630D01*
X144033928Y-141549488D01*
X144129166Y-141644726D01*
X144224404Y-141692345D01*
X143319642Y-141406630D02*
X142700595Y-141406630D01*
X143033928Y-141787583D01*
X142891071Y-141787583D01*
X142795833Y-141835202D01*
X142748214Y-141882821D01*
X142700595Y-141978059D01*
X142700595Y-142216154D01*
X142748214Y-142311392D01*
X142795833Y-142359011D01*
X142891071Y-142406630D01*
X143176785Y-142406630D01*
X143272023Y-142359011D01*
X143319642Y-142311392D01*
%TO.C,K110*%
X279502976Y-142406630D02*
X279502976Y-141406630D01*
X278931547Y-142406630D02*
X279360119Y-141835202D01*
X278931547Y-141406630D02*
X279502976Y-141978059D01*
X277979166Y-142406630D02*
X278550595Y-142406630D01*
X278264880Y-142406630D02*
X278264880Y-141406630D01*
X278360119Y-141549488D01*
X278455357Y-141644726D01*
X278550595Y-141692345D01*
X277026785Y-142406630D02*
X277598214Y-142406630D01*
X277312500Y-142406630D02*
X277312500Y-141406630D01*
X277407738Y-141549488D01*
X277502976Y-141644726D01*
X277598214Y-141692345D01*
X276407738Y-141406630D02*
X276312500Y-141406630D01*
X276217261Y-141454250D01*
X276169642Y-141501869D01*
X276122023Y-141597107D01*
X276074404Y-141787583D01*
X276074404Y-142025678D01*
X276122023Y-142216154D01*
X276169642Y-142311392D01*
X276217261Y-142359011D01*
X276312500Y-142406630D01*
X276407738Y-142406630D01*
X276502976Y-142359011D01*
X276550595Y-142311392D01*
X276598214Y-142216154D01*
X276645833Y-142025678D01*
X276645833Y-141787583D01*
X276598214Y-141597107D01*
X276550595Y-141501869D01*
X276502976Y-141454250D01*
X276407738Y-141406630D01*
%TD*%
%LPC*%
D11*
%TO.C,K36*%
X218440000Y-171926250D03*
X212090000Y-174466250D03*
D12*
X210820000Y-177006250D03*
X220980000Y-177006250D03*
D13*
X215900000Y-177006250D03*
D14*
X208815000Y-174466250D03*
X221742000Y-171926250D03*
%TD*%
D15*
%TO.C,D50*%
X263000000Y-93190000D03*
D16*
X263000000Y-100810000D03*
%TD*%
D12*
%TO.C,K13*%
X340042500Y-119856250D03*
D17*
X323024500Y-112871250D03*
D12*
X329882500Y-119856250D03*
D11*
X331152500Y-117316250D03*
X337502500Y-114776250D03*
D13*
X334962500Y-119856250D03*
X346900500Y-128111250D03*
X323024500Y-128111250D03*
D17*
X346900500Y-112871250D03*
D14*
X327877500Y-117316250D03*
X340804500Y-114776250D03*
%TD*%
D12*
%TO.C,K2*%
X120967500Y-119856250D03*
D13*
X115887500Y-119856250D03*
D11*
X112077500Y-117316250D03*
D12*
X110807500Y-119856250D03*
D11*
X118427500Y-114776250D03*
D14*
X108802500Y-117316250D03*
X121729500Y-114776250D03*
%TD*%
D15*
%TO.C,D28*%
X285240000Y-94190000D03*
D16*
X285240000Y-101810000D03*
%TD*%
D15*
%TO.C,D52*%
X141240000Y-93180000D03*
D16*
X141240000Y-100800000D03*
%TD*%
D15*
%TO.C,D41*%
X287740000Y-93190000D03*
D16*
X287740000Y-100810000D03*
%TD*%
D15*
%TO.C,D27*%
X250500000Y-92190000D03*
D16*
X250500000Y-99810000D03*
%TD*%
D15*
%TO.C,D59*%
X146240000Y-91190000D03*
D16*
X146240000Y-98810000D03*
%TD*%
D15*
%TO.C,D63*%
X297770000Y-89190000D03*
D16*
X297770000Y-96810000D03*
%TD*%
D15*
%TO.C,D47*%
X138740000Y-94180000D03*
D16*
X138740000Y-101800000D03*
%TD*%
D15*
%TO.C,D55*%
X265500000Y-92190000D03*
D16*
X265500000Y-99810000D03*
%TD*%
D15*
%TO.C,D54*%
X225730000Y-92190000D03*
D16*
X225730000Y-99810000D03*
%TD*%
D15*
%TO.C,D36*%
X255500000Y-96190000D03*
D16*
X255500000Y-103810000D03*
%TD*%
D13*
%TO.C,K16*%
X201612500Y-138906250D03*
D11*
X204152500Y-133826250D03*
D12*
X196532500Y-138906250D03*
X206692500Y-138906250D03*
D11*
X197802500Y-136366250D03*
D14*
X194527500Y-136366250D03*
X207454500Y-133826250D03*
%TD*%
D12*
%TO.C,K113*%
X334645000Y-138906250D03*
D11*
X335915000Y-136366250D03*
D13*
X339725000Y-138906250D03*
D12*
X344805000Y-138906250D03*
D11*
X342265000Y-133826250D03*
D14*
X332640000Y-136366250D03*
X345567000Y-133826250D03*
%TD*%
D15*
%TO.C,D14*%
X243000000Y-95190000D03*
D16*
X243000000Y-102810000D03*
%TD*%
D12*
%TO.C,K211*%
X296545000Y-157956250D03*
D13*
X301625000Y-157956250D03*
D11*
X297815000Y-155416250D03*
X304165000Y-152876250D03*
D12*
X306705000Y-157956250D03*
D14*
X294540000Y-155416250D03*
X307467000Y-152876250D03*
%TD*%
D15*
%TO.C,D53*%
X183490000Y-93090000D03*
D16*
X183490000Y-100710000D03*
%TD*%
D15*
%TO.C,D58*%
X185990000Y-92090000D03*
D16*
X185990000Y-99710000D03*
%TD*%
D15*
%TO.C,D20*%
X123740000Y-93180000D03*
D16*
X123740000Y-100800000D03*
%TD*%
D15*
%TO.C,D21*%
X165990000Y-93190000D03*
D16*
X165990000Y-100810000D03*
%TD*%
D12*
%TO.C,K9*%
X244157500Y-119856250D03*
X254317500Y-119856250D03*
D11*
X245427500Y-117316250D03*
D13*
X249237500Y-119856250D03*
D11*
X251777500Y-114776250D03*
D14*
X242152500Y-117316250D03*
X255079500Y-114776250D03*
%TD*%
D11*
%TO.C,KK10*%
X85090000Y-133826250D03*
D12*
X87630000Y-138906250D03*
D11*
X78740000Y-136366250D03*
D12*
X77470000Y-138906250D03*
D13*
X82550000Y-138906250D03*
D14*
X75465000Y-136366250D03*
X88392000Y-133826250D03*
%TD*%
D18*
%TO.C,D64*%
X101050000Y-90125000D03*
D19*
X101050000Y-87585000D03*
%TD*%
D15*
%TO.C,D43*%
X178490000Y-95190000D03*
D16*
X178490000Y-102810000D03*
%TD*%
D11*
%TO.C,K25*%
X189865000Y-152876250D03*
D12*
X192405000Y-157956250D03*
X182245000Y-157956250D03*
D11*
X183515000Y-155416250D03*
D13*
X187325000Y-157956250D03*
D14*
X180240000Y-155416250D03*
X193167000Y-152876250D03*
%TD*%
D11*
%TO.C,K14*%
X159702500Y-136366250D03*
D12*
X168592500Y-138906250D03*
D13*
X163512500Y-138906250D03*
D12*
X158432500Y-138906250D03*
D11*
X166052500Y-133826250D03*
D14*
X156427500Y-136366250D03*
X169354500Y-133826250D03*
%TD*%
D12*
%TO.C,K38*%
X248920000Y-177006250D03*
X259080000Y-177006250D03*
D11*
X250190000Y-174466250D03*
D13*
X254000000Y-177006250D03*
D11*
X256540000Y-171926250D03*
D14*
X246915000Y-174466250D03*
X259842000Y-171926250D03*
%TD*%
D15*
%TO.C,D15*%
X282740000Y-95190000D03*
D16*
X282740000Y-102810000D03*
%TD*%
D15*
%TO.C,D16*%
X121240000Y-94180000D03*
D16*
X121240000Y-101800000D03*
%TD*%
D12*
%TO.C,K39*%
X267970000Y-177006250D03*
D13*
X273050000Y-177006250D03*
D12*
X278130000Y-177006250D03*
D11*
X275590000Y-171926250D03*
X269240000Y-174466250D03*
D14*
X265965000Y-174466250D03*
X278892000Y-171926250D03*
%TD*%
D13*
%TO.C,K0*%
X77787500Y-119856250D03*
D11*
X73977500Y-117316250D03*
D12*
X82867500Y-119856250D03*
D11*
X80327500Y-114776250D03*
D12*
X72707500Y-119856250D03*
D14*
X70702500Y-117316250D03*
X83629500Y-114776250D03*
%TD*%
D15*
%TO.C,D1*%
X113740000Y-97190000D03*
D16*
X113740000Y-104810000D03*
%TD*%
D20*
%TO.C,R5*%
X99360000Y-92740000D03*
D21*
X104440000Y-92740000D03*
%TD*%
D15*
%TO.C,D61*%
X228270000Y-91210000D03*
D16*
X228270000Y-98830000D03*
%TD*%
D12*
%TO.C,K45*%
X204311250Y-196056250D03*
D17*
X149231350Y-203041250D03*
D13*
X199231250Y-196056250D03*
X149231350Y-187801250D03*
D11*
X201771250Y-190976250D03*
D17*
X249231150Y-203041250D03*
D11*
X195421250Y-193516250D03*
D12*
X194151250Y-196056250D03*
D13*
X249231150Y-187801250D03*
D14*
X192146250Y-193516250D03*
X205073250Y-190976250D03*
%TD*%
D15*
%TO.C,D5*%
X277740000Y-97190000D03*
D16*
X277740000Y-104810000D03*
%TD*%
D11*
%TO.C,K33*%
X161290000Y-171926250D03*
D12*
X163830000Y-177006250D03*
X153670000Y-177006250D03*
D11*
X154940000Y-174466250D03*
D13*
X158750000Y-177006250D03*
D14*
X151665000Y-174466250D03*
X164592000Y-171926250D03*
%TD*%
D12*
%TO.C,K23*%
X154305000Y-157956250D03*
D13*
X149225000Y-157956250D03*
D11*
X151765000Y-152876250D03*
D12*
X144145000Y-157956250D03*
D11*
X145415000Y-155416250D03*
D14*
X142140000Y-155416250D03*
X155067000Y-152876250D03*
%TD*%
D15*
%TO.C,D57*%
X143740000Y-92190000D03*
D16*
X143740000Y-99810000D03*
%TD*%
D15*
%TO.C,D35*%
X215730000Y-96190000D03*
D16*
X215730000Y-103810000D03*
%TD*%
D11*
%TO.C,K412*%
X321627500Y-193516250D03*
X327977500Y-190976250D03*
D12*
X320357500Y-196056250D03*
X330517500Y-196056250D03*
D13*
X325437500Y-196056250D03*
D14*
X318352500Y-193516250D03*
X331279500Y-190976250D03*
%TD*%
D12*
%TO.C,K3*%
X129857500Y-119856250D03*
X140017500Y-119856250D03*
D13*
X134937500Y-119856250D03*
D11*
X137477500Y-114776250D03*
X131127500Y-117316250D03*
D14*
X127852500Y-117316250D03*
X140779500Y-114776250D03*
%TD*%
D12*
%TO.C,K29*%
X268605000Y-157956250D03*
D11*
X266065000Y-152876250D03*
D13*
X263525000Y-157956250D03*
D12*
X258445000Y-157956250D03*
D11*
X259715000Y-155416250D03*
D14*
X256440000Y-155416250D03*
X269367000Y-152876250D03*
%TD*%
D15*
%TO.C,D25*%
X168490000Y-92190000D03*
D16*
X168490000Y-99810000D03*
%TD*%
D15*
%TO.C,D24*%
X126240000Y-92190000D03*
D16*
X126240000Y-99810000D03*
%TD*%
D15*
%TO.C,D13*%
X203230000Y-95180000D03*
D16*
X203230000Y-102800000D03*
%TD*%
D22*
%TO.C,USB1*%
X75250000Y-90173750D03*
X81030000Y-90173750D03*
D23*
X82460000Y-86523750D03*
X73820000Y-86523750D03*
D24*
X82460000Y-90703750D03*
X73820000Y-90703750D03*
%TD*%
D25*
%TO.C,J2*%
X345420000Y-91320000D03*
D26*
X345420000Y-93860000D03*
X345420000Y-96400000D03*
X345420000Y-98940000D03*
%TD*%
D15*
%TO.C,D2*%
X155980000Y-97190000D03*
D16*
X155980000Y-104810000D03*
%TD*%
D13*
%TO.C,K5*%
X173037500Y-119856250D03*
D12*
X178117500Y-119856250D03*
D11*
X175577500Y-114776250D03*
D12*
X167957500Y-119856250D03*
D11*
X169227500Y-117316250D03*
D14*
X165952500Y-117316250D03*
X178879500Y-114776250D03*
%TD*%
D13*
%TO.C,K41*%
X103981250Y-196056250D03*
D11*
X100171250Y-193516250D03*
X106521250Y-190976250D03*
D12*
X98901250Y-196056250D03*
X109061250Y-196056250D03*
D14*
X96896250Y-193516250D03*
X109823250Y-190976250D03*
%TD*%
D15*
%TO.C,D38*%
X175990000Y-96190000D03*
D16*
X175990000Y-103810000D03*
%TD*%
D15*
%TO.C,D39*%
X218230000Y-95190000D03*
D16*
X218230000Y-102810000D03*
%TD*%
D15*
%TO.C,D46*%
X290240000Y-92190000D03*
D16*
X290240000Y-99810000D03*
%TD*%
D13*
%TO.C,K31*%
X120650000Y-177006250D03*
D11*
X123190000Y-171926250D03*
X116840000Y-174466250D03*
D12*
X115570000Y-177006250D03*
X125730000Y-177006250D03*
D14*
X113565000Y-174466250D03*
X126492000Y-171926250D03*
%TD*%
D15*
%TO.C,D7*%
X158490000Y-96190000D03*
D16*
X158490000Y-103810000D03*
%TD*%
D27*
%TO.C,H3*%
X70750000Y-203250000D03*
%TD*%
D25*
%TO.C,J1*%
X76040000Y-99280000D03*
D26*
X78580000Y-99280000D03*
X76040000Y-101820000D03*
X78580000Y-101820000D03*
X76040000Y-104360000D03*
X78580000Y-104360000D03*
%TD*%
D15*
%TO.C,D10*%
X280240000Y-96190000D03*
D16*
X280240000Y-103810000D03*
%TD*%
D15*
%TO.C,D3*%
X198220000Y-97170000D03*
D16*
X198220000Y-104790000D03*
%TD*%
D15*
%TO.C,D18*%
X205730000Y-94180000D03*
D16*
X205730000Y-101800000D03*
%TD*%
D15*
%TO.C,D29*%
X128740000Y-91190000D03*
D16*
X128740000Y-98810000D03*
%TD*%
D15*
%TO.C,D4*%
X238000000Y-97190000D03*
D16*
X238000000Y-104810000D03*
%TD*%
D12*
%TO.C,K22*%
X125095000Y-157956250D03*
D11*
X132715000Y-152876250D03*
X126365000Y-155416250D03*
D13*
X130175000Y-157956250D03*
D12*
X135255000Y-157956250D03*
D14*
X123090000Y-155416250D03*
X136017000Y-152876250D03*
%TD*%
D15*
%TO.C,D12*%
X160990000Y-95190000D03*
D16*
X160990000Y-102810000D03*
%TD*%
D11*
%TO.C,K15*%
X178752500Y-136366250D03*
D13*
X182562500Y-138906250D03*
D11*
X185102500Y-133826250D03*
D12*
X187642500Y-138906250D03*
X177482500Y-138906250D03*
D14*
X175477500Y-136366250D03*
X188404500Y-133826250D03*
%TD*%
D15*
%TO.C,D9*%
X240500000Y-96200000D03*
D16*
X240500000Y-103820000D03*
%TD*%
D15*
%TO.C,D40*%
X258000000Y-95190000D03*
D16*
X258000000Y-102810000D03*
%TD*%
D15*
%TO.C,D42*%
X136240000Y-95190000D03*
D16*
X136240000Y-102810000D03*
%TD*%
D13*
%TO.C,K24*%
X168275000Y-157956250D03*
D11*
X170815000Y-152876250D03*
D12*
X163195000Y-157956250D03*
D11*
X164465000Y-155416250D03*
D12*
X173355000Y-157956250D03*
D14*
X161190000Y-155416250D03*
X174117000Y-152876250D03*
%TD*%
D12*
%TO.C,K11*%
X292417500Y-119856250D03*
D13*
X287337500Y-119856250D03*
D12*
X282257500Y-119856250D03*
D11*
X289877500Y-114776250D03*
X283527500Y-117316250D03*
D14*
X280252500Y-117316250D03*
X293179500Y-114776250D03*
%TD*%
D15*
%TO.C,D23*%
X248000000Y-93190000D03*
D16*
X248000000Y-100810000D03*
%TD*%
D13*
%TO.C,K310*%
X299243750Y-177006250D03*
D12*
X304323750Y-177006250D03*
D11*
X301783750Y-171926250D03*
X295433750Y-174466250D03*
D12*
X294163750Y-177006250D03*
D14*
X292158750Y-174466250D03*
X305085750Y-171926250D03*
%TD*%
D12*
%TO.C,K6*%
X187007500Y-119856250D03*
D11*
X194627500Y-114776250D03*
D12*
X197167500Y-119856250D03*
D11*
X188277500Y-117316250D03*
D13*
X192087500Y-119856250D03*
D14*
X185002500Y-117316250D03*
X197929500Y-114776250D03*
%TD*%
D13*
%TO.C,K20*%
X84931250Y-157956250D03*
D12*
X79851250Y-157956250D03*
D11*
X81121250Y-155416250D03*
X87471250Y-152876250D03*
D12*
X90011250Y-157956250D03*
D14*
X77846250Y-155416250D03*
X90773250Y-152876250D03*
%TD*%
D11*
%TO.C,K8*%
X232727500Y-114776250D03*
X226377500Y-117316250D03*
D13*
X230187500Y-119856250D03*
D12*
X225107500Y-119856250D03*
X235267500Y-119856250D03*
D14*
X223102500Y-117316250D03*
X236029500Y-114776250D03*
%TD*%
D13*
%TO.C,K27*%
X225425000Y-157956250D03*
D11*
X221615000Y-155416250D03*
D12*
X220345000Y-157956250D03*
D11*
X227965000Y-152876250D03*
D12*
X230505000Y-157956250D03*
D14*
X218340000Y-155416250D03*
X231267000Y-152876250D03*
%TD*%
D15*
%TO.C,D8*%
X200730000Y-96190000D03*
D16*
X200730000Y-103810000D03*
%TD*%
D15*
%TO.C,D60*%
X188490000Y-91090000D03*
D16*
X188490000Y-98710000D03*
%TD*%
D15*
%TO.C,D33*%
X131240000Y-97190000D03*
D16*
X131240000Y-104810000D03*
%TD*%
D15*
%TO.C,D6*%
X116240000Y-96190000D03*
D16*
X116240000Y-103810000D03*
%TD*%
D28*
%TO.C,SW1*%
X87100000Y-86460000D03*
X93600000Y-86460000D03*
X87100000Y-90960000D03*
X93600000Y-90960000D03*
%TD*%
D12*
%TO.C,K37*%
X229870000Y-177006250D03*
D11*
X231140000Y-174466250D03*
D12*
X240030000Y-177006250D03*
D13*
X234950000Y-177006250D03*
D11*
X237490000Y-171926250D03*
D14*
X227865000Y-174466250D03*
X240792000Y-171926250D03*
%TD*%
D13*
%TO.C,K111*%
X296862500Y-138906250D03*
D11*
X299402500Y-133826250D03*
D12*
X301942500Y-138906250D03*
D11*
X293052500Y-136366250D03*
D12*
X291782500Y-138906250D03*
D14*
X289777500Y-136366250D03*
X302704500Y-133826250D03*
%TD*%
D15*
%TO.C,D22*%
X208230000Y-93180000D03*
D16*
X208230000Y-100800000D03*
%TD*%
D12*
%TO.C,K17*%
X225742500Y-138906250D03*
D13*
X220662500Y-138906250D03*
D11*
X223202500Y-133826250D03*
X216852500Y-136366250D03*
D12*
X215582500Y-138906250D03*
D14*
X213577500Y-136366250D03*
X226504500Y-133826250D03*
%TD*%
D15*
%TO.C,D11*%
X118740000Y-95190000D03*
D16*
X118740000Y-102810000D03*
%TD*%
D11*
%TO.C,K313*%
X340677500Y-174466250D03*
D13*
X344487500Y-177006250D03*
D11*
X347027500Y-171926250D03*
D12*
X349567500Y-177006250D03*
X339407500Y-177006250D03*
D14*
X337402500Y-174466250D03*
X350329500Y-171926250D03*
%TD*%
D12*
%TO.C,KK11*%
X101282500Y-138906250D03*
D13*
X106362500Y-138906250D03*
D11*
X102552500Y-136366250D03*
X108902500Y-133826250D03*
D12*
X111442500Y-138906250D03*
D14*
X99277500Y-136366250D03*
X112204500Y-133826250D03*
%TD*%
D13*
%TO.C,K413*%
X344487500Y-196056250D03*
D12*
X339407500Y-196056250D03*
X349567500Y-196056250D03*
D11*
X347027500Y-190976250D03*
X340677500Y-193516250D03*
D14*
X337402500Y-193516250D03*
X350329500Y-190976250D03*
%TD*%
D11*
%TO.C,K7*%
X207327500Y-117316250D03*
D12*
X206057500Y-119856250D03*
D13*
X211137500Y-119856250D03*
D11*
X213677500Y-114776250D03*
D12*
X216217500Y-119856250D03*
D14*
X204052500Y-117316250D03*
X216979500Y-114776250D03*
%TD*%
D15*
%TO.C,D48*%
X180990000Y-94200000D03*
D16*
X180990000Y-101820000D03*
%TD*%
D13*
%TO.C,K213*%
X320643250Y-166211250D03*
D11*
X335121250Y-152876250D03*
D17*
X344519250Y-150971250D03*
D11*
X328771250Y-155416250D03*
D13*
X332581250Y-157956250D03*
X344519250Y-166211250D03*
D12*
X337661250Y-157956250D03*
D17*
X320643250Y-150971250D03*
D12*
X327501250Y-157956250D03*
D14*
X325496250Y-155416250D03*
X338423250Y-152876250D03*
%TD*%
D12*
%TO.C,K112*%
X310832500Y-138906250D03*
D11*
X312102500Y-136366250D03*
D13*
X315912500Y-138906250D03*
D11*
X318452500Y-133826250D03*
D12*
X320992500Y-138906250D03*
D14*
X308827500Y-136366250D03*
X321754500Y-133826250D03*
%TD*%
D12*
%TO.C,K30*%
X84613750Y-177006250D03*
D13*
X77755750Y-185261250D03*
X89693750Y-177006250D03*
D11*
X85883750Y-174466250D03*
D13*
X101631750Y-185261250D03*
D17*
X101631750Y-170021250D03*
D11*
X92233750Y-171926250D03*
D12*
X94773750Y-177006250D03*
D17*
X77755750Y-170021250D03*
D14*
X82608750Y-174466250D03*
X95535750Y-171926250D03*
%TD*%
D11*
%TO.C,K210*%
X285115000Y-152876250D03*
D13*
X282575000Y-157956250D03*
D11*
X278765000Y-155416250D03*
D12*
X287655000Y-157956250D03*
X277495000Y-157956250D03*
D14*
X275490000Y-155416250D03*
X288417000Y-152876250D03*
%TD*%
D15*
%TO.C,D26*%
X210730000Y-92180000D03*
D16*
X210730000Y-99800000D03*
%TD*%
D15*
%TO.C,D30*%
X170990000Y-91190000D03*
D16*
X170990000Y-98810000D03*
%TD*%
D12*
%TO.C,K34*%
X172720000Y-177006250D03*
D11*
X173990000Y-174466250D03*
D12*
X182880000Y-177006250D03*
D11*
X180340000Y-171926250D03*
D13*
X177800000Y-177006250D03*
D14*
X170715000Y-174466250D03*
X183642000Y-171926250D03*
%TD*%
D15*
%TO.C,D62*%
X268000000Y-91180000D03*
D16*
X268000000Y-98800000D03*
%TD*%
D12*
%TO.C,K1*%
X91757500Y-119856250D03*
D11*
X99377500Y-114776250D03*
D12*
X101917500Y-119856250D03*
D13*
X96837500Y-119856250D03*
D11*
X93027500Y-117316250D03*
D14*
X89752500Y-117316250D03*
X102679500Y-114776250D03*
%TD*%
D27*
%TO.C,H2*%
X351750000Y-203250000D03*
%TD*%
D15*
%TO.C,D32*%
X253000000Y-97190000D03*
D16*
X253000000Y-104810000D03*
%TD*%
D15*
%TO.C,D56*%
X295250000Y-90190000D03*
D16*
X295250000Y-97810000D03*
%TD*%
D12*
%TO.C,K4*%
X159067500Y-119856250D03*
D11*
X156527500Y-114776250D03*
D12*
X148907500Y-119856250D03*
D11*
X150177500Y-117316250D03*
D13*
X153987500Y-119856250D03*
D14*
X146902500Y-117316250D03*
X159829500Y-114776250D03*
%TD*%
D15*
%TO.C,D31*%
X213230000Y-97190000D03*
D16*
X213230000Y-104810000D03*
%TD*%
D11*
%TO.C,K32*%
X142240000Y-171926250D03*
D12*
X144780000Y-177006250D03*
D11*
X135890000Y-174466250D03*
D13*
X139700000Y-177006250D03*
D12*
X134620000Y-177006250D03*
D14*
X132615000Y-174466250D03*
X145542000Y-171926250D03*
%TD*%
D15*
%TO.C,D19*%
X245500000Y-94190000D03*
D16*
X245500000Y-101810000D03*
%TD*%
D15*
%TO.C,D49*%
X223230000Y-93190000D03*
D16*
X223230000Y-100810000D03*
%TD*%
D12*
%TO.C,K410*%
X311467500Y-196056250D03*
X301307500Y-196056250D03*
D13*
X306387500Y-196056250D03*
D11*
X308927500Y-190976250D03*
X302577500Y-193516250D03*
D14*
X299302500Y-193516250D03*
X312229500Y-190976250D03*
%TD*%
D12*
%TO.C,K28*%
X239395000Y-157956250D03*
X249555000Y-157956250D03*
D11*
X240665000Y-155416250D03*
X247015000Y-152876250D03*
D13*
X244475000Y-157956250D03*
D14*
X237390000Y-155416250D03*
X250317000Y-152876250D03*
%TD*%
D13*
%TO.C,K21*%
X111125000Y-157956250D03*
D11*
X113665000Y-152876250D03*
D12*
X106045000Y-157956250D03*
X116205000Y-157956250D03*
D11*
X107315000Y-155416250D03*
D14*
X104040000Y-155416250D03*
X116967000Y-152876250D03*
%TD*%
D15*
%TO.C,D34*%
X173490000Y-97190000D03*
D16*
X173490000Y-104810000D03*
%TD*%
D11*
%TO.C,K18*%
X235902500Y-136366250D03*
D12*
X234632500Y-138906250D03*
D11*
X242252500Y-133826250D03*
D13*
X239712500Y-138906250D03*
D12*
X244792500Y-138906250D03*
D14*
X232627500Y-136366250D03*
X245554500Y-133826250D03*
%TD*%
D13*
%TO.C,K49*%
X287337500Y-196056250D03*
D11*
X283527500Y-193516250D03*
D12*
X282257500Y-196056250D03*
X292417500Y-196056250D03*
D11*
X289877500Y-190976250D03*
D14*
X280252500Y-193516250D03*
X293179500Y-190976250D03*
%TD*%
D27*
%TO.C,H4*%
X70750000Y-86500000D03*
%TD*%
D15*
%TO.C,D17*%
X163490000Y-94190000D03*
D16*
X163490000Y-101810000D03*
%TD*%
D11*
%TO.C,KK12*%
X127952500Y-133826250D03*
D13*
X125412500Y-138906250D03*
D11*
X121602500Y-136366250D03*
D12*
X120332500Y-138906250D03*
X130492500Y-138906250D03*
D14*
X118327500Y-136366250D03*
X131254500Y-133826250D03*
%TD*%
D12*
%TO.C,K42*%
X122713750Y-196056250D03*
D11*
X123983750Y-193516250D03*
D13*
X127793750Y-196056250D03*
D12*
X132873750Y-196056250D03*
D11*
X130333750Y-190976250D03*
D14*
X120708750Y-193516250D03*
X133635750Y-190976250D03*
%TD*%
D20*
%TO.C,R7*%
X97240000Y-91320000D03*
D21*
X97240000Y-86240000D03*
%TD*%
D12*
%TO.C,K19*%
X263842500Y-138906250D03*
X253682500Y-138906250D03*
D13*
X258762500Y-138906250D03*
D11*
X254952500Y-136366250D03*
X261302500Y-133826250D03*
D14*
X251677500Y-136366250D03*
X264604500Y-133826250D03*
%TD*%
D11*
%TO.C,K48*%
X264477500Y-193516250D03*
D12*
X263207500Y-196056250D03*
D13*
X268287500Y-196056250D03*
D11*
X270827500Y-190976250D03*
D12*
X273367500Y-196056250D03*
D14*
X261202500Y-193516250D03*
X274129500Y-190976250D03*
%TD*%
D11*
%TO.C,K35*%
X199390000Y-171926250D03*
D13*
X196850000Y-177006250D03*
D11*
X193040000Y-174466250D03*
D12*
X191770000Y-177006250D03*
X201930000Y-177006250D03*
D14*
X189765000Y-174466250D03*
X202692000Y-171926250D03*
%TD*%
D13*
%TO.C,K26*%
X206375000Y-157956250D03*
D12*
X201295000Y-157956250D03*
D11*
X208915000Y-152876250D03*
D12*
X211455000Y-157956250D03*
D11*
X202565000Y-155416250D03*
D14*
X199290000Y-155416250D03*
X212217000Y-152876250D03*
%TD*%
D13*
%TO.C,K40*%
X80168750Y-196056250D03*
D12*
X75088750Y-196056250D03*
X85248750Y-196056250D03*
D11*
X76358750Y-193516250D03*
X82708750Y-190976250D03*
D14*
X73083750Y-193516250D03*
X86010750Y-190976250D03*
%TD*%
D15*
%TO.C,D44*%
X220730000Y-94200000D03*
D16*
X220730000Y-101820000D03*
%TD*%
D12*
%TO.C,K312*%
X320357500Y-177006250D03*
D11*
X321627500Y-174466250D03*
D13*
X325437500Y-177006250D03*
D11*
X327977500Y-171926250D03*
D12*
X330517500Y-177006250D03*
D14*
X318352500Y-174466250D03*
X331279500Y-171926250D03*
%TD*%
D13*
%TO.C,K12*%
X306387500Y-119856250D03*
D12*
X311467500Y-119856250D03*
D11*
X302577500Y-117316250D03*
D12*
X301307500Y-119856250D03*
D11*
X308927500Y-114776250D03*
D14*
X299302500Y-117316250D03*
X312229500Y-114776250D03*
%TD*%
D15*
%TO.C,D37*%
X133740000Y-96190000D03*
D16*
X133740000Y-103810000D03*
%TD*%
D15*
%TO.C,D45*%
X260500000Y-94190000D03*
D16*
X260500000Y-101810000D03*
%TD*%
D15*
%TO.C,D51*%
X292740000Y-91190000D03*
D16*
X292740000Y-98810000D03*
%TD*%
D27*
%TO.C,H1*%
X351750000Y-86500000D03*
%TD*%
D13*
%TO.C,K10*%
X268287500Y-119856250D03*
D11*
X264477500Y-117316250D03*
X270827500Y-114776250D03*
D12*
X263207500Y-119856250D03*
X273367500Y-119856250D03*
D14*
X261202500Y-117316250D03*
X274129500Y-114776250D03*
%TD*%
D13*
%TO.C,KK13*%
X144462500Y-138906250D03*
D12*
X149542500Y-138906250D03*
D11*
X147002500Y-133826250D03*
D12*
X139382500Y-138906250D03*
D11*
X140652500Y-136366250D03*
D14*
X137377500Y-136366250D03*
X150304500Y-133826250D03*
%TD*%
D11*
%TO.C,K110*%
X274002500Y-136366250D03*
D12*
X282892500Y-138906250D03*
D11*
X280352500Y-133826250D03*
D13*
X277812500Y-138906250D03*
D12*
X272732500Y-138906250D03*
D14*
X270727500Y-136366250D03*
X283654500Y-133826250D03*
%TD*%
M02*
