%TF.GenerationSoftware,KiCad,Pcbnew,(6.0.0)*%
%TF.CreationDate,2022-09-10T03:34:01-07:00*%
%TF.ProjectId,HandwireCustom,48616e64-7769-4726-9543-7573746f6d2e,rev?*%
%TF.SameCoordinates,Original*%
%TF.FileFunction,Legend,Bot*%
%TF.FilePolarity,Positive*%
%FSLAX46Y46*%
G04 Gerber Fmt 4.6, Leading zero omitted, Abs format (unit mm)*
G04 Created by KiCad (PCBNEW (6.0.0)) date 2022-09-10 03:34:01*
%MOMM*%
%LPD*%
G01*
G04 APERTURE LIST*
G04 Aperture macros list*
%AMRoundRect*
0 Rectangle with rounded corners*
0 $1 Rounding radius*
0 $2 $3 $4 $5 $6 $7 $8 $9 X,Y pos of 4 corners*
0 Add a 4 corners polygon primitive as box body*
4,1,4,$2,$3,$4,$5,$6,$7,$8,$9,$2,$3,0*
0 Add four circle primitives for the rounded corners*
1,1,$1+$1,$2,$3*
1,1,$1+$1,$4,$5*
1,1,$1+$1,$6,$7*
1,1,$1+$1,$8,$9*
0 Add four rect primitives between the rounded corners*
20,1,$1+$1,$2,$3,$4,$5,0*
20,1,$1+$1,$4,$5,$6,$7,0*
20,1,$1+$1,$6,$7,$8,$9,0*
20,1,$1+$1,$8,$9,$2,$3,0*%
G04 Aperture macros list end*
%ADD10C,0.150000*%
%ADD11C,0.120000*%
%ADD12R,1.800000X2.500000*%
%ADD13C,1.750000*%
%ADD14C,3.000000*%
%ADD15C,3.987800*%
%ADD16R,2.550000X2.500000*%
%ADD17R,1.600000X1.600000*%
%ADD18O,1.600000X1.600000*%
%ADD19C,3.048000*%
%ADD20R,1.700000X1.700000*%
%ADD21O,1.700000X1.700000*%
%ADD22C,2.000000*%
%ADD23C,2.200000*%
%ADD24R,1.800000X1.800000*%
%ADD25C,1.800000*%
%ADD26RoundRect,0.135000X-0.135000X-0.185000X0.135000X-0.185000X0.135000X0.185000X-0.135000X0.185000X0*%
%ADD27RoundRect,0.135000X0.135000X0.185000X-0.135000X0.185000X-0.135000X-0.185000X0.135000X-0.185000X0*%
%ADD28RoundRect,0.140000X0.170000X-0.140000X0.170000X0.140000X-0.170000X0.140000X-0.170000X-0.140000X0*%
%ADD29RoundRect,0.140000X-0.170000X0.140000X-0.170000X-0.140000X0.170000X-0.140000X0.170000X0.140000X0*%
%ADD30RoundRect,0.062500X-0.062500X0.475000X-0.062500X-0.475000X0.062500X-0.475000X0.062500X0.475000X0*%
%ADD31RoundRect,0.062500X-0.475000X0.062500X-0.475000X-0.062500X0.475000X-0.062500X0.475000X0.062500X0*%
%ADD32R,5.200000X5.200000*%
%ADD33RoundRect,0.140000X-0.140000X-0.170000X0.140000X-0.170000X0.140000X0.170000X-0.140000X0.170000X0*%
%ADD34RoundRect,0.225000X-0.225000X-0.250000X0.225000X-0.250000X0.225000X0.250000X-0.225000X0.250000X0*%
%ADD35R,1.905000X2.000000*%
%ADD36O,1.905000X2.000000*%
%ADD37R,1.200000X1.400000*%
%ADD38RoundRect,0.135000X-0.185000X0.135000X-0.185000X-0.135000X0.185000X-0.135000X0.185000X0.135000X0*%
%ADD39RoundRect,0.140000X0.140000X0.170000X-0.140000X0.170000X-0.140000X-0.170000X0.140000X-0.170000X0*%
%ADD40RoundRect,0.200000X-0.200000X-0.275000X0.200000X-0.275000X0.200000X0.275000X-0.200000X0.275000X0*%
%ADD41C,0.650000*%
%ADD42R,0.600000X1.450000*%
%ADD43R,0.300000X1.450000*%
%ADD44O,1.000000X2.100000*%
%ADD45O,1.000000X1.600000*%
G04 APERTURE END LIST*
D10*
X84595238Y-87086904D02*
X84595238Y-87658333D01*
X84633333Y-87772619D01*
X84709523Y-87848809D01*
X84823809Y-87886904D01*
X84900000Y-87886904D01*
X83833333Y-87886904D02*
X84214285Y-87886904D01*
X84214285Y-87086904D01*
X83109523Y-87810714D02*
X83147619Y-87848809D01*
X83261904Y-87886904D01*
X83338095Y-87886904D01*
X83452380Y-87848809D01*
X83528571Y-87772619D01*
X83566666Y-87696428D01*
X83604761Y-87544047D01*
X83604761Y-87429761D01*
X83566666Y-87277380D01*
X83528571Y-87201190D01*
X83452380Y-87125000D01*
X83338095Y-87086904D01*
X83261904Y-87086904D01*
X83147619Y-87125000D01*
X83109523Y-87163095D01*
X82538095Y-87086904D02*
X82538095Y-87658333D01*
X82576190Y-87772619D01*
X82652380Y-87848809D01*
X82766666Y-87886904D01*
X82842857Y-87886904D01*
X81776190Y-87886904D02*
X82157142Y-87886904D01*
X82157142Y-87086904D01*
X81052380Y-87810714D02*
X81090476Y-87848809D01*
X81204761Y-87886904D01*
X81280952Y-87886904D01*
X81395238Y-87848809D01*
X81471428Y-87772619D01*
X81509523Y-87696428D01*
X81547619Y-87544047D01*
X81547619Y-87429761D01*
X81509523Y-87277380D01*
X81471428Y-87201190D01*
X81395238Y-87125000D01*
X81280952Y-87086904D01*
X81204761Y-87086904D01*
X81090476Y-87125000D01*
X81052380Y-87163095D01*
X80480952Y-87086904D02*
X80480952Y-87658333D01*
X80519047Y-87772619D01*
X80595238Y-87848809D01*
X80709523Y-87886904D01*
X80785714Y-87886904D01*
X79719047Y-87886904D02*
X80100000Y-87886904D01*
X80100000Y-87086904D01*
X78995238Y-87810714D02*
X79033333Y-87848809D01*
X79147619Y-87886904D01*
X79223809Y-87886904D01*
X79338095Y-87848809D01*
X79414285Y-87772619D01*
X79452380Y-87696428D01*
X79490476Y-87544047D01*
X79490476Y-87429761D01*
X79452380Y-87277380D01*
X79414285Y-87201190D01*
X79338095Y-87125000D01*
X79223809Y-87086904D01*
X79147619Y-87086904D01*
X79033333Y-87125000D01*
X78995238Y-87163095D01*
X78423809Y-87086904D02*
X78423809Y-87658333D01*
X78461904Y-87772619D01*
X78538095Y-87848809D01*
X78652380Y-87886904D01*
X78728571Y-87886904D01*
X77661904Y-87886904D02*
X78042857Y-87886904D01*
X78042857Y-87086904D01*
X76938095Y-87810714D02*
X76976190Y-87848809D01*
X77090476Y-87886904D01*
X77166666Y-87886904D01*
X77280952Y-87848809D01*
X77357142Y-87772619D01*
X77395238Y-87696428D01*
X77433333Y-87544047D01*
X77433333Y-87429761D01*
X77395238Y-87277380D01*
X77357142Y-87201190D01*
X77280952Y-87125000D01*
X77166666Y-87086904D01*
X77090476Y-87086904D01*
X76976190Y-87125000D01*
X76938095Y-87163095D01*
X76552380Y-92235714D02*
X75552380Y-92235714D01*
X75552380Y-92473809D01*
X75600000Y-92616666D01*
X75695238Y-92711904D01*
X75790476Y-92759523D01*
X75980952Y-92807142D01*
X76123809Y-92807142D01*
X76314285Y-92759523D01*
X76409523Y-92711904D01*
X76504761Y-92616666D01*
X76552380Y-92473809D01*
X76552380Y-92235714D01*
X75552380Y-93664285D02*
X75552380Y-93473809D01*
X75600000Y-93378571D01*
X75647619Y-93330952D01*
X75790476Y-93235714D01*
X75980952Y-93188095D01*
X76361904Y-93188095D01*
X76457142Y-93235714D01*
X76504761Y-93283333D01*
X76552380Y-93378571D01*
X76552380Y-93569047D01*
X76504761Y-93664285D01*
X76457142Y-93711904D01*
X76361904Y-93759523D01*
X76123809Y-93759523D01*
X76028571Y-93711904D01*
X75980952Y-93664285D01*
X75933333Y-93569047D01*
X75933333Y-93378571D01*
X75980952Y-93283333D01*
X76028571Y-93235714D01*
X76123809Y-93188095D01*
X75552380Y-94664285D02*
X75552380Y-94188095D01*
X76028571Y-94140476D01*
X75980952Y-94188095D01*
X75933333Y-94283333D01*
X75933333Y-94521428D01*
X75980952Y-94616666D01*
X76028571Y-94664285D01*
X76123809Y-94711904D01*
X76361904Y-94711904D01*
X76457142Y-94664285D01*
X76504761Y-94616666D01*
X76552380Y-94521428D01*
X76552380Y-94283333D01*
X76504761Y-94188095D01*
X76457142Y-94140476D01*
X217114285Y-180506630D02*
X217114285Y-179506630D01*
X216542857Y-180506630D02*
X216971428Y-179935202D01*
X216542857Y-179506630D02*
X217114285Y-180078059D01*
X216209523Y-179506630D02*
X215590476Y-179506630D01*
X215923809Y-179887583D01*
X215780952Y-179887583D01*
X215685714Y-179935202D01*
X215638095Y-179982821D01*
X215590476Y-180078059D01*
X215590476Y-180316154D01*
X215638095Y-180411392D01*
X215685714Y-180459011D01*
X215780952Y-180506630D01*
X216066666Y-180506630D01*
X216161904Y-180459011D01*
X216209523Y-180411392D01*
X214733333Y-179506630D02*
X214923809Y-179506630D01*
X215019047Y-179554250D01*
X215066666Y-179601869D01*
X215161904Y-179744726D01*
X215209523Y-179935202D01*
X215209523Y-180316154D01*
X215161904Y-180411392D01*
X215114285Y-180459011D01*
X215019047Y-180506630D01*
X214828571Y-180506630D01*
X214733333Y-180459011D01*
X214685714Y-180411392D01*
X214638095Y-180316154D01*
X214638095Y-180078059D01*
X214685714Y-179982821D01*
X214733333Y-179935202D01*
X214828571Y-179887583D01*
X215019047Y-179887583D01*
X215114285Y-179935202D01*
X215161904Y-179982821D01*
X215209523Y-180078059D01*
X336176785Y-123356630D02*
X336176785Y-122356630D01*
X335605357Y-123356630D02*
X336033928Y-122785202D01*
X335605357Y-122356630D02*
X336176785Y-122928059D01*
X334652976Y-123356630D02*
X335224404Y-123356630D01*
X334938690Y-123356630D02*
X334938690Y-122356630D01*
X335033928Y-122499488D01*
X335129166Y-122594726D01*
X335224404Y-122642345D01*
X334319642Y-122356630D02*
X333700595Y-122356630D01*
X334033928Y-122737583D01*
X333891071Y-122737583D01*
X333795833Y-122785202D01*
X333748214Y-122832821D01*
X333700595Y-122928059D01*
X333700595Y-123166154D01*
X333748214Y-123261392D01*
X333795833Y-123309011D01*
X333891071Y-123356630D01*
X334176785Y-123356630D01*
X334272023Y-123309011D01*
X334319642Y-123261392D01*
X116625595Y-123356630D02*
X116625595Y-122356630D01*
X116054166Y-123356630D02*
X116482738Y-122785202D01*
X116054166Y-122356630D02*
X116625595Y-122928059D01*
X115673214Y-122451869D02*
X115625595Y-122404250D01*
X115530357Y-122356630D01*
X115292261Y-122356630D01*
X115197023Y-122404250D01*
X115149404Y-122451869D01*
X115101785Y-122547107D01*
X115101785Y-122642345D01*
X115149404Y-122785202D01*
X115720833Y-123356630D01*
X115101785Y-123356630D01*
X202826785Y-142406630D02*
X202826785Y-141406630D01*
X202255357Y-142406630D02*
X202683928Y-141835202D01*
X202255357Y-141406630D02*
X202826785Y-141978059D01*
X201302976Y-142406630D02*
X201874404Y-142406630D01*
X201588690Y-142406630D02*
X201588690Y-141406630D01*
X201683928Y-141549488D01*
X201779166Y-141644726D01*
X201874404Y-141692345D01*
X200445833Y-141406630D02*
X200636309Y-141406630D01*
X200731547Y-141454250D01*
X200779166Y-141501869D01*
X200874404Y-141644726D01*
X200922023Y-141835202D01*
X200922023Y-142216154D01*
X200874404Y-142311392D01*
X200826785Y-142359011D01*
X200731547Y-142406630D01*
X200541071Y-142406630D01*
X200445833Y-142359011D01*
X200398214Y-142311392D01*
X200350595Y-142216154D01*
X200350595Y-141978059D01*
X200398214Y-141882821D01*
X200445833Y-141835202D01*
X200541071Y-141787583D01*
X200731547Y-141787583D01*
X200826785Y-141835202D01*
X200874404Y-141882821D01*
X200922023Y-141978059D01*
X341415476Y-142406630D02*
X341415476Y-141406630D01*
X340844047Y-142406630D02*
X341272619Y-141835202D01*
X340844047Y-141406630D02*
X341415476Y-141978059D01*
X339891666Y-142406630D02*
X340463095Y-142406630D01*
X340177380Y-142406630D02*
X340177380Y-141406630D01*
X340272619Y-141549488D01*
X340367857Y-141644726D01*
X340463095Y-141692345D01*
X338939285Y-142406630D02*
X339510714Y-142406630D01*
X339225000Y-142406630D02*
X339225000Y-141406630D01*
X339320238Y-141549488D01*
X339415476Y-141644726D01*
X339510714Y-141692345D01*
X338605952Y-141406630D02*
X337986904Y-141406630D01*
X338320238Y-141787583D01*
X338177380Y-141787583D01*
X338082142Y-141835202D01*
X338034523Y-141882821D01*
X337986904Y-141978059D01*
X337986904Y-142216154D01*
X338034523Y-142311392D01*
X338082142Y-142359011D01*
X338177380Y-142406630D01*
X338463095Y-142406630D01*
X338558333Y-142359011D01*
X338605952Y-142311392D01*
X303315476Y-161456630D02*
X303315476Y-160456630D01*
X302744047Y-161456630D02*
X303172619Y-160885202D01*
X302744047Y-160456630D02*
X303315476Y-161028059D01*
X302363095Y-160551869D02*
X302315476Y-160504250D01*
X302220238Y-160456630D01*
X301982142Y-160456630D01*
X301886904Y-160504250D01*
X301839285Y-160551869D01*
X301791666Y-160647107D01*
X301791666Y-160742345D01*
X301839285Y-160885202D01*
X302410714Y-161456630D01*
X301791666Y-161456630D01*
X300839285Y-161456630D02*
X301410714Y-161456630D01*
X301125000Y-161456630D02*
X301125000Y-160456630D01*
X301220238Y-160599488D01*
X301315476Y-160694726D01*
X301410714Y-160742345D01*
X299886904Y-161456630D02*
X300458333Y-161456630D01*
X300172619Y-161456630D02*
X300172619Y-160456630D01*
X300267857Y-160599488D01*
X300363095Y-160694726D01*
X300458333Y-160742345D01*
X249975595Y-123356630D02*
X249975595Y-122356630D01*
X249404166Y-123356630D02*
X249832738Y-122785202D01*
X249404166Y-122356630D02*
X249975595Y-122928059D01*
X248927976Y-123356630D02*
X248737500Y-123356630D01*
X248642261Y-123309011D01*
X248594642Y-123261392D01*
X248499404Y-123118535D01*
X248451785Y-122928059D01*
X248451785Y-122547107D01*
X248499404Y-122451869D01*
X248547023Y-122404250D01*
X248642261Y-122356630D01*
X248832738Y-122356630D01*
X248927976Y-122404250D01*
X248975595Y-122451869D01*
X249023214Y-122547107D01*
X249023214Y-122785202D01*
X248975595Y-122880440D01*
X248927976Y-122928059D01*
X248832738Y-122975678D01*
X248642261Y-122975678D01*
X248547023Y-122928059D01*
X248499404Y-122880440D01*
X248451785Y-122785202D01*
X84264285Y-142406630D02*
X84264285Y-141406630D01*
X83692857Y-142406630D02*
X84121428Y-141835202D01*
X83692857Y-141406630D02*
X84264285Y-141978059D01*
X83264285Y-142406630D02*
X83264285Y-141406630D01*
X82692857Y-142406630D02*
X83121428Y-141835202D01*
X82692857Y-141406630D02*
X83264285Y-141978059D01*
X81740476Y-142406630D02*
X82311904Y-142406630D01*
X82026190Y-142406630D02*
X82026190Y-141406630D01*
X82121428Y-141549488D01*
X82216666Y-141644726D01*
X82311904Y-141692345D01*
X81121428Y-141406630D02*
X81026190Y-141406630D01*
X80930952Y-141454250D01*
X80883333Y-141501869D01*
X80835714Y-141597107D01*
X80788095Y-141787583D01*
X80788095Y-142025678D01*
X80835714Y-142216154D01*
X80883333Y-142311392D01*
X80930952Y-142359011D01*
X81026190Y-142406630D01*
X81121428Y-142406630D01*
X81216666Y-142359011D01*
X81264285Y-142311392D01*
X81311904Y-142216154D01*
X81359523Y-142025678D01*
X81359523Y-141787583D01*
X81311904Y-141597107D01*
X81264285Y-141501869D01*
X81216666Y-141454250D01*
X81121428Y-141406630D01*
X188539285Y-161456630D02*
X188539285Y-160456630D01*
X187967857Y-161456630D02*
X188396428Y-160885202D01*
X187967857Y-160456630D02*
X188539285Y-161028059D01*
X187586904Y-160551869D02*
X187539285Y-160504250D01*
X187444047Y-160456630D01*
X187205952Y-160456630D01*
X187110714Y-160504250D01*
X187063095Y-160551869D01*
X187015476Y-160647107D01*
X187015476Y-160742345D01*
X187063095Y-160885202D01*
X187634523Y-161456630D01*
X187015476Y-161456630D01*
X186110714Y-160456630D02*
X186586904Y-160456630D01*
X186634523Y-160932821D01*
X186586904Y-160885202D01*
X186491666Y-160837583D01*
X186253571Y-160837583D01*
X186158333Y-160885202D01*
X186110714Y-160932821D01*
X186063095Y-161028059D01*
X186063095Y-161266154D01*
X186110714Y-161361392D01*
X186158333Y-161409011D01*
X186253571Y-161456630D01*
X186491666Y-161456630D01*
X186586904Y-161409011D01*
X186634523Y-161361392D01*
X164726785Y-142406630D02*
X164726785Y-141406630D01*
X164155357Y-142406630D02*
X164583928Y-141835202D01*
X164155357Y-141406630D02*
X164726785Y-141978059D01*
X163202976Y-142406630D02*
X163774404Y-142406630D01*
X163488690Y-142406630D02*
X163488690Y-141406630D01*
X163583928Y-141549488D01*
X163679166Y-141644726D01*
X163774404Y-141692345D01*
X162345833Y-141739964D02*
X162345833Y-142406630D01*
X162583928Y-141359011D02*
X162822023Y-142073297D01*
X162202976Y-142073297D01*
X255214285Y-180506630D02*
X255214285Y-179506630D01*
X254642857Y-180506630D02*
X255071428Y-179935202D01*
X254642857Y-179506630D02*
X255214285Y-180078059D01*
X254309523Y-179506630D02*
X253690476Y-179506630D01*
X254023809Y-179887583D01*
X253880952Y-179887583D01*
X253785714Y-179935202D01*
X253738095Y-179982821D01*
X253690476Y-180078059D01*
X253690476Y-180316154D01*
X253738095Y-180411392D01*
X253785714Y-180459011D01*
X253880952Y-180506630D01*
X254166666Y-180506630D01*
X254261904Y-180459011D01*
X254309523Y-180411392D01*
X253119047Y-179935202D02*
X253214285Y-179887583D01*
X253261904Y-179839964D01*
X253309523Y-179744726D01*
X253309523Y-179697107D01*
X253261904Y-179601869D01*
X253214285Y-179554250D01*
X253119047Y-179506630D01*
X252928571Y-179506630D01*
X252833333Y-179554250D01*
X252785714Y-179601869D01*
X252738095Y-179697107D01*
X252738095Y-179744726D01*
X252785714Y-179839964D01*
X252833333Y-179887583D01*
X252928571Y-179935202D01*
X253119047Y-179935202D01*
X253214285Y-179982821D01*
X253261904Y-180030440D01*
X253309523Y-180125678D01*
X253309523Y-180316154D01*
X253261904Y-180411392D01*
X253214285Y-180459011D01*
X253119047Y-180506630D01*
X252928571Y-180506630D01*
X252833333Y-180459011D01*
X252785714Y-180411392D01*
X252738095Y-180316154D01*
X252738095Y-180125678D01*
X252785714Y-180030440D01*
X252833333Y-179982821D01*
X252928571Y-179935202D01*
X274264285Y-180506630D02*
X274264285Y-179506630D01*
X273692857Y-180506630D02*
X274121428Y-179935202D01*
X273692857Y-179506630D02*
X274264285Y-180078059D01*
X273359523Y-179506630D02*
X272740476Y-179506630D01*
X273073809Y-179887583D01*
X272930952Y-179887583D01*
X272835714Y-179935202D01*
X272788095Y-179982821D01*
X272740476Y-180078059D01*
X272740476Y-180316154D01*
X272788095Y-180411392D01*
X272835714Y-180459011D01*
X272930952Y-180506630D01*
X273216666Y-180506630D01*
X273311904Y-180459011D01*
X273359523Y-180411392D01*
X272264285Y-180506630D02*
X272073809Y-180506630D01*
X271978571Y-180459011D01*
X271930952Y-180411392D01*
X271835714Y-180268535D01*
X271788095Y-180078059D01*
X271788095Y-179697107D01*
X271835714Y-179601869D01*
X271883333Y-179554250D01*
X271978571Y-179506630D01*
X272169047Y-179506630D01*
X272264285Y-179554250D01*
X272311904Y-179601869D01*
X272359523Y-179697107D01*
X272359523Y-179935202D01*
X272311904Y-180030440D01*
X272264285Y-180078059D01*
X272169047Y-180125678D01*
X271978571Y-180125678D01*
X271883333Y-180078059D01*
X271835714Y-180030440D01*
X271788095Y-179935202D01*
X78525595Y-123356630D02*
X78525595Y-122356630D01*
X77954166Y-123356630D02*
X78382738Y-122785202D01*
X77954166Y-122356630D02*
X78525595Y-122928059D01*
X77335119Y-122356630D02*
X77239880Y-122356630D01*
X77144642Y-122404250D01*
X77097023Y-122451869D01*
X77049404Y-122547107D01*
X77001785Y-122737583D01*
X77001785Y-122975678D01*
X77049404Y-123166154D01*
X77097023Y-123261392D01*
X77144642Y-123309011D01*
X77239880Y-123356630D01*
X77335119Y-123356630D01*
X77430357Y-123309011D01*
X77477976Y-123261392D01*
X77525595Y-123166154D01*
X77573214Y-122975678D01*
X77573214Y-122737583D01*
X77525595Y-122547107D01*
X77477976Y-122451869D01*
X77430357Y-122404250D01*
X77335119Y-122356630D01*
X200445535Y-199556630D02*
X200445535Y-198556630D01*
X199874107Y-199556630D02*
X200302678Y-198985202D01*
X199874107Y-198556630D02*
X200445535Y-199128059D01*
X199016964Y-198889964D02*
X199016964Y-199556630D01*
X199255059Y-198509011D02*
X199493154Y-199223297D01*
X198874107Y-199223297D01*
X198016964Y-198556630D02*
X198493154Y-198556630D01*
X198540773Y-199032821D01*
X198493154Y-198985202D01*
X198397916Y-198937583D01*
X198159821Y-198937583D01*
X198064583Y-198985202D01*
X198016964Y-199032821D01*
X197969345Y-199128059D01*
X197969345Y-199366154D01*
X198016964Y-199461392D01*
X198064583Y-199509011D01*
X198159821Y-199556630D01*
X198397916Y-199556630D01*
X198493154Y-199509011D01*
X198540773Y-199461392D01*
X159964285Y-180506630D02*
X159964285Y-179506630D01*
X159392857Y-180506630D02*
X159821428Y-179935202D01*
X159392857Y-179506630D02*
X159964285Y-180078059D01*
X159059523Y-179506630D02*
X158440476Y-179506630D01*
X158773809Y-179887583D01*
X158630952Y-179887583D01*
X158535714Y-179935202D01*
X158488095Y-179982821D01*
X158440476Y-180078059D01*
X158440476Y-180316154D01*
X158488095Y-180411392D01*
X158535714Y-180459011D01*
X158630952Y-180506630D01*
X158916666Y-180506630D01*
X159011904Y-180459011D01*
X159059523Y-180411392D01*
X158107142Y-179506630D02*
X157488095Y-179506630D01*
X157821428Y-179887583D01*
X157678571Y-179887583D01*
X157583333Y-179935202D01*
X157535714Y-179982821D01*
X157488095Y-180078059D01*
X157488095Y-180316154D01*
X157535714Y-180411392D01*
X157583333Y-180459011D01*
X157678571Y-180506630D01*
X157964285Y-180506630D01*
X158059523Y-180459011D01*
X158107142Y-180411392D01*
X150439285Y-161456630D02*
X150439285Y-160456630D01*
X149867857Y-161456630D02*
X150296428Y-160885202D01*
X149867857Y-160456630D02*
X150439285Y-161028059D01*
X149486904Y-160551869D02*
X149439285Y-160504250D01*
X149344047Y-160456630D01*
X149105952Y-160456630D01*
X149010714Y-160504250D01*
X148963095Y-160551869D01*
X148915476Y-160647107D01*
X148915476Y-160742345D01*
X148963095Y-160885202D01*
X149534523Y-161456630D01*
X148915476Y-161456630D01*
X148582142Y-160456630D02*
X147963095Y-160456630D01*
X148296428Y-160837583D01*
X148153571Y-160837583D01*
X148058333Y-160885202D01*
X148010714Y-160932821D01*
X147963095Y-161028059D01*
X147963095Y-161266154D01*
X148010714Y-161361392D01*
X148058333Y-161409011D01*
X148153571Y-161456630D01*
X148439285Y-161456630D01*
X148534523Y-161409011D01*
X148582142Y-161361392D01*
X327127976Y-199556630D02*
X327127976Y-198556630D01*
X326556547Y-199556630D02*
X326985119Y-198985202D01*
X326556547Y-198556630D02*
X327127976Y-199128059D01*
X325699404Y-198889964D02*
X325699404Y-199556630D01*
X325937500Y-198509011D02*
X326175595Y-199223297D01*
X325556547Y-199223297D01*
X324651785Y-199556630D02*
X325223214Y-199556630D01*
X324937500Y-199556630D02*
X324937500Y-198556630D01*
X325032738Y-198699488D01*
X325127976Y-198794726D01*
X325223214Y-198842345D01*
X324270833Y-198651869D02*
X324223214Y-198604250D01*
X324127976Y-198556630D01*
X323889880Y-198556630D01*
X323794642Y-198604250D01*
X323747023Y-198651869D01*
X323699404Y-198747107D01*
X323699404Y-198842345D01*
X323747023Y-198985202D01*
X324318452Y-199556630D01*
X323699404Y-199556630D01*
X135675595Y-123356630D02*
X135675595Y-122356630D01*
X135104166Y-123356630D02*
X135532738Y-122785202D01*
X135104166Y-122356630D02*
X135675595Y-122928059D01*
X134770833Y-122356630D02*
X134151785Y-122356630D01*
X134485119Y-122737583D01*
X134342261Y-122737583D01*
X134247023Y-122785202D01*
X134199404Y-122832821D01*
X134151785Y-122928059D01*
X134151785Y-123166154D01*
X134199404Y-123261392D01*
X134247023Y-123309011D01*
X134342261Y-123356630D01*
X134627976Y-123356630D01*
X134723214Y-123309011D01*
X134770833Y-123261392D01*
X264739285Y-161456630D02*
X264739285Y-160456630D01*
X264167857Y-161456630D02*
X264596428Y-160885202D01*
X264167857Y-160456630D02*
X264739285Y-161028059D01*
X263786904Y-160551869D02*
X263739285Y-160504250D01*
X263644047Y-160456630D01*
X263405952Y-160456630D01*
X263310714Y-160504250D01*
X263263095Y-160551869D01*
X263215476Y-160647107D01*
X263215476Y-160742345D01*
X263263095Y-160885202D01*
X263834523Y-161456630D01*
X263215476Y-161456630D01*
X262739285Y-161456630D02*
X262548809Y-161456630D01*
X262453571Y-161409011D01*
X262405952Y-161361392D01*
X262310714Y-161218535D01*
X262263095Y-161028059D01*
X262263095Y-160647107D01*
X262310714Y-160551869D01*
X262358333Y-160504250D01*
X262453571Y-160456630D01*
X262644047Y-160456630D01*
X262739285Y-160504250D01*
X262786904Y-160551869D01*
X262834523Y-160647107D01*
X262834523Y-160885202D01*
X262786904Y-160980440D01*
X262739285Y-161028059D01*
X262644047Y-161075678D01*
X262453571Y-161075678D01*
X262358333Y-161028059D01*
X262310714Y-160980440D01*
X262263095Y-160885202D01*
X173775595Y-123356630D02*
X173775595Y-122356630D01*
X173204166Y-123356630D02*
X173632738Y-122785202D01*
X173204166Y-122356630D02*
X173775595Y-122928059D01*
X172299404Y-122356630D02*
X172775595Y-122356630D01*
X172823214Y-122832821D01*
X172775595Y-122785202D01*
X172680357Y-122737583D01*
X172442261Y-122737583D01*
X172347023Y-122785202D01*
X172299404Y-122832821D01*
X172251785Y-122928059D01*
X172251785Y-123166154D01*
X172299404Y-123261392D01*
X172347023Y-123309011D01*
X172442261Y-123356630D01*
X172680357Y-123356630D01*
X172775595Y-123309011D01*
X172823214Y-123261392D01*
X105195535Y-199556630D02*
X105195535Y-198556630D01*
X104624107Y-199556630D02*
X105052678Y-198985202D01*
X104624107Y-198556630D02*
X105195535Y-199128059D01*
X103766964Y-198889964D02*
X103766964Y-199556630D01*
X104005059Y-198509011D02*
X104243154Y-199223297D01*
X103624107Y-199223297D01*
X102719345Y-199556630D02*
X103290773Y-199556630D01*
X103005059Y-199556630D02*
X103005059Y-198556630D01*
X103100297Y-198699488D01*
X103195535Y-198794726D01*
X103290773Y-198842345D01*
X121864285Y-180506630D02*
X121864285Y-179506630D01*
X121292857Y-180506630D02*
X121721428Y-179935202D01*
X121292857Y-179506630D02*
X121864285Y-180078059D01*
X120959523Y-179506630D02*
X120340476Y-179506630D01*
X120673809Y-179887583D01*
X120530952Y-179887583D01*
X120435714Y-179935202D01*
X120388095Y-179982821D01*
X120340476Y-180078059D01*
X120340476Y-180316154D01*
X120388095Y-180411392D01*
X120435714Y-180459011D01*
X120530952Y-180506630D01*
X120816666Y-180506630D01*
X120911904Y-180459011D01*
X120959523Y-180411392D01*
X119388095Y-180506630D02*
X119959523Y-180506630D01*
X119673809Y-180506630D02*
X119673809Y-179506630D01*
X119769047Y-179649488D01*
X119864285Y-179744726D01*
X119959523Y-179792345D01*
X131389285Y-161456630D02*
X131389285Y-160456630D01*
X130817857Y-161456630D02*
X131246428Y-160885202D01*
X130817857Y-160456630D02*
X131389285Y-161028059D01*
X130436904Y-160551869D02*
X130389285Y-160504250D01*
X130294047Y-160456630D01*
X130055952Y-160456630D01*
X129960714Y-160504250D01*
X129913095Y-160551869D01*
X129865476Y-160647107D01*
X129865476Y-160742345D01*
X129913095Y-160885202D01*
X130484523Y-161456630D01*
X129865476Y-161456630D01*
X129484523Y-160551869D02*
X129436904Y-160504250D01*
X129341666Y-160456630D01*
X129103571Y-160456630D01*
X129008333Y-160504250D01*
X128960714Y-160551869D01*
X128913095Y-160647107D01*
X128913095Y-160742345D01*
X128960714Y-160885202D01*
X129532142Y-161456630D01*
X128913095Y-161456630D01*
X183776785Y-142406630D02*
X183776785Y-141406630D01*
X183205357Y-142406630D02*
X183633928Y-141835202D01*
X183205357Y-141406630D02*
X183776785Y-141978059D01*
X182252976Y-142406630D02*
X182824404Y-142406630D01*
X182538690Y-142406630D02*
X182538690Y-141406630D01*
X182633928Y-141549488D01*
X182729166Y-141644726D01*
X182824404Y-141692345D01*
X181348214Y-141406630D02*
X181824404Y-141406630D01*
X181872023Y-141882821D01*
X181824404Y-141835202D01*
X181729166Y-141787583D01*
X181491071Y-141787583D01*
X181395833Y-141835202D01*
X181348214Y-141882821D01*
X181300595Y-141978059D01*
X181300595Y-142216154D01*
X181348214Y-142311392D01*
X181395833Y-142359011D01*
X181491071Y-142406630D01*
X181729166Y-142406630D01*
X181824404Y-142359011D01*
X181872023Y-142311392D01*
X169489285Y-161456630D02*
X169489285Y-160456630D01*
X168917857Y-161456630D02*
X169346428Y-160885202D01*
X168917857Y-160456630D02*
X169489285Y-161028059D01*
X168536904Y-160551869D02*
X168489285Y-160504250D01*
X168394047Y-160456630D01*
X168155952Y-160456630D01*
X168060714Y-160504250D01*
X168013095Y-160551869D01*
X167965476Y-160647107D01*
X167965476Y-160742345D01*
X168013095Y-160885202D01*
X168584523Y-161456630D01*
X167965476Y-161456630D01*
X167108333Y-160789964D02*
X167108333Y-161456630D01*
X167346428Y-160409011D02*
X167584523Y-161123297D01*
X166965476Y-161123297D01*
X288551785Y-123356630D02*
X288551785Y-122356630D01*
X287980357Y-123356630D02*
X288408928Y-122785202D01*
X287980357Y-122356630D02*
X288551785Y-122928059D01*
X287027976Y-123356630D02*
X287599404Y-123356630D01*
X287313690Y-123356630D02*
X287313690Y-122356630D01*
X287408928Y-122499488D01*
X287504166Y-122594726D01*
X287599404Y-122642345D01*
X286075595Y-123356630D02*
X286647023Y-123356630D01*
X286361309Y-123356630D02*
X286361309Y-122356630D01*
X286456547Y-122499488D01*
X286551785Y-122594726D01*
X286647023Y-122642345D01*
X300934226Y-180506630D02*
X300934226Y-179506630D01*
X300362797Y-180506630D02*
X300791369Y-179935202D01*
X300362797Y-179506630D02*
X300934226Y-180078059D01*
X300029464Y-179506630D02*
X299410416Y-179506630D01*
X299743750Y-179887583D01*
X299600892Y-179887583D01*
X299505654Y-179935202D01*
X299458035Y-179982821D01*
X299410416Y-180078059D01*
X299410416Y-180316154D01*
X299458035Y-180411392D01*
X299505654Y-180459011D01*
X299600892Y-180506630D01*
X299886607Y-180506630D01*
X299981845Y-180459011D01*
X300029464Y-180411392D01*
X298458035Y-180506630D02*
X299029464Y-180506630D01*
X298743750Y-180506630D02*
X298743750Y-179506630D01*
X298838988Y-179649488D01*
X298934226Y-179744726D01*
X299029464Y-179792345D01*
X297838988Y-179506630D02*
X297743750Y-179506630D01*
X297648511Y-179554250D01*
X297600892Y-179601869D01*
X297553273Y-179697107D01*
X297505654Y-179887583D01*
X297505654Y-180125678D01*
X297553273Y-180316154D01*
X297600892Y-180411392D01*
X297648511Y-180459011D01*
X297743750Y-180506630D01*
X297838988Y-180506630D01*
X297934226Y-180459011D01*
X297981845Y-180411392D01*
X298029464Y-180316154D01*
X298077083Y-180125678D01*
X298077083Y-179887583D01*
X298029464Y-179697107D01*
X297981845Y-179601869D01*
X297934226Y-179554250D01*
X297838988Y-179506630D01*
X192825595Y-123356630D02*
X192825595Y-122356630D01*
X192254166Y-123356630D02*
X192682738Y-122785202D01*
X192254166Y-122356630D02*
X192825595Y-122928059D01*
X191397023Y-122356630D02*
X191587500Y-122356630D01*
X191682738Y-122404250D01*
X191730357Y-122451869D01*
X191825595Y-122594726D01*
X191873214Y-122785202D01*
X191873214Y-123166154D01*
X191825595Y-123261392D01*
X191777976Y-123309011D01*
X191682738Y-123356630D01*
X191492261Y-123356630D01*
X191397023Y-123309011D01*
X191349404Y-123261392D01*
X191301785Y-123166154D01*
X191301785Y-122928059D01*
X191349404Y-122832821D01*
X191397023Y-122785202D01*
X191492261Y-122737583D01*
X191682738Y-122737583D01*
X191777976Y-122785202D01*
X191825595Y-122832821D01*
X191873214Y-122928059D01*
X86145535Y-161456630D02*
X86145535Y-160456630D01*
X85574107Y-161456630D02*
X86002678Y-160885202D01*
X85574107Y-160456630D02*
X86145535Y-161028059D01*
X85193154Y-160551869D02*
X85145535Y-160504250D01*
X85050297Y-160456630D01*
X84812202Y-160456630D01*
X84716964Y-160504250D01*
X84669345Y-160551869D01*
X84621726Y-160647107D01*
X84621726Y-160742345D01*
X84669345Y-160885202D01*
X85240773Y-161456630D01*
X84621726Y-161456630D01*
X84002678Y-160456630D02*
X83907440Y-160456630D01*
X83812202Y-160504250D01*
X83764583Y-160551869D01*
X83716964Y-160647107D01*
X83669345Y-160837583D01*
X83669345Y-161075678D01*
X83716964Y-161266154D01*
X83764583Y-161361392D01*
X83812202Y-161409011D01*
X83907440Y-161456630D01*
X84002678Y-161456630D01*
X84097916Y-161409011D01*
X84145535Y-161361392D01*
X84193154Y-161266154D01*
X84240773Y-161075678D01*
X84240773Y-160837583D01*
X84193154Y-160647107D01*
X84145535Y-160551869D01*
X84097916Y-160504250D01*
X84002678Y-160456630D01*
X230925595Y-123356630D02*
X230925595Y-122356630D01*
X230354166Y-123356630D02*
X230782738Y-122785202D01*
X230354166Y-122356630D02*
X230925595Y-122928059D01*
X229782738Y-122785202D02*
X229877976Y-122737583D01*
X229925595Y-122689964D01*
X229973214Y-122594726D01*
X229973214Y-122547107D01*
X229925595Y-122451869D01*
X229877976Y-122404250D01*
X229782738Y-122356630D01*
X229592261Y-122356630D01*
X229497023Y-122404250D01*
X229449404Y-122451869D01*
X229401785Y-122547107D01*
X229401785Y-122594726D01*
X229449404Y-122689964D01*
X229497023Y-122737583D01*
X229592261Y-122785202D01*
X229782738Y-122785202D01*
X229877976Y-122832821D01*
X229925595Y-122880440D01*
X229973214Y-122975678D01*
X229973214Y-123166154D01*
X229925595Y-123261392D01*
X229877976Y-123309011D01*
X229782738Y-123356630D01*
X229592261Y-123356630D01*
X229497023Y-123309011D01*
X229449404Y-123261392D01*
X229401785Y-123166154D01*
X229401785Y-122975678D01*
X229449404Y-122880440D01*
X229497023Y-122832821D01*
X229592261Y-122785202D01*
X226639285Y-161456630D02*
X226639285Y-160456630D01*
X226067857Y-161456630D02*
X226496428Y-160885202D01*
X226067857Y-160456630D02*
X226639285Y-161028059D01*
X225686904Y-160551869D02*
X225639285Y-160504250D01*
X225544047Y-160456630D01*
X225305952Y-160456630D01*
X225210714Y-160504250D01*
X225163095Y-160551869D01*
X225115476Y-160647107D01*
X225115476Y-160742345D01*
X225163095Y-160885202D01*
X225734523Y-161456630D01*
X225115476Y-161456630D01*
X224782142Y-160456630D02*
X224115476Y-160456630D01*
X224544047Y-161456630D01*
X236164285Y-180506630D02*
X236164285Y-179506630D01*
X235592857Y-180506630D02*
X236021428Y-179935202D01*
X235592857Y-179506630D02*
X236164285Y-180078059D01*
X235259523Y-179506630D02*
X234640476Y-179506630D01*
X234973809Y-179887583D01*
X234830952Y-179887583D01*
X234735714Y-179935202D01*
X234688095Y-179982821D01*
X234640476Y-180078059D01*
X234640476Y-180316154D01*
X234688095Y-180411392D01*
X234735714Y-180459011D01*
X234830952Y-180506630D01*
X235116666Y-180506630D01*
X235211904Y-180459011D01*
X235259523Y-180411392D01*
X234307142Y-179506630D02*
X233640476Y-179506630D01*
X234069047Y-180506630D01*
X298552976Y-142406630D02*
X298552976Y-141406630D01*
X297981547Y-142406630D02*
X298410119Y-141835202D01*
X297981547Y-141406630D02*
X298552976Y-141978059D01*
X297029166Y-142406630D02*
X297600595Y-142406630D01*
X297314880Y-142406630D02*
X297314880Y-141406630D01*
X297410119Y-141549488D01*
X297505357Y-141644726D01*
X297600595Y-141692345D01*
X296076785Y-142406630D02*
X296648214Y-142406630D01*
X296362500Y-142406630D02*
X296362500Y-141406630D01*
X296457738Y-141549488D01*
X296552976Y-141644726D01*
X296648214Y-141692345D01*
X295124404Y-142406630D02*
X295695833Y-142406630D01*
X295410119Y-142406630D02*
X295410119Y-141406630D01*
X295505357Y-141549488D01*
X295600595Y-141644726D01*
X295695833Y-141692345D01*
X221876785Y-142406630D02*
X221876785Y-141406630D01*
X221305357Y-142406630D02*
X221733928Y-141835202D01*
X221305357Y-141406630D02*
X221876785Y-141978059D01*
X220352976Y-142406630D02*
X220924404Y-142406630D01*
X220638690Y-142406630D02*
X220638690Y-141406630D01*
X220733928Y-141549488D01*
X220829166Y-141644726D01*
X220924404Y-141692345D01*
X220019642Y-141406630D02*
X219352976Y-141406630D01*
X219781547Y-142406630D01*
X346177976Y-180506630D02*
X346177976Y-179506630D01*
X345606547Y-180506630D02*
X346035119Y-179935202D01*
X345606547Y-179506630D02*
X346177976Y-180078059D01*
X345273214Y-179506630D02*
X344654166Y-179506630D01*
X344987500Y-179887583D01*
X344844642Y-179887583D01*
X344749404Y-179935202D01*
X344701785Y-179982821D01*
X344654166Y-180078059D01*
X344654166Y-180316154D01*
X344701785Y-180411392D01*
X344749404Y-180459011D01*
X344844642Y-180506630D01*
X345130357Y-180506630D01*
X345225595Y-180459011D01*
X345273214Y-180411392D01*
X343701785Y-180506630D02*
X344273214Y-180506630D01*
X343987500Y-180506630D02*
X343987500Y-179506630D01*
X344082738Y-179649488D01*
X344177976Y-179744726D01*
X344273214Y-179792345D01*
X343368452Y-179506630D02*
X342749404Y-179506630D01*
X343082738Y-179887583D01*
X342939880Y-179887583D01*
X342844642Y-179935202D01*
X342797023Y-179982821D01*
X342749404Y-180078059D01*
X342749404Y-180316154D01*
X342797023Y-180411392D01*
X342844642Y-180459011D01*
X342939880Y-180506630D01*
X343225595Y-180506630D01*
X343320833Y-180459011D01*
X343368452Y-180411392D01*
X108076785Y-142406630D02*
X108076785Y-141406630D01*
X107505357Y-142406630D02*
X107933928Y-141835202D01*
X107505357Y-141406630D02*
X108076785Y-141978059D01*
X107076785Y-142406630D02*
X107076785Y-141406630D01*
X106505357Y-142406630D02*
X106933928Y-141835202D01*
X106505357Y-141406630D02*
X107076785Y-141978059D01*
X105552976Y-142406630D02*
X106124404Y-142406630D01*
X105838690Y-142406630D02*
X105838690Y-141406630D01*
X105933928Y-141549488D01*
X106029166Y-141644726D01*
X106124404Y-141692345D01*
X104600595Y-142406630D02*
X105172023Y-142406630D01*
X104886309Y-142406630D02*
X104886309Y-141406630D01*
X104981547Y-141549488D01*
X105076785Y-141644726D01*
X105172023Y-141692345D01*
X346177976Y-199556630D02*
X346177976Y-198556630D01*
X345606547Y-199556630D02*
X346035119Y-198985202D01*
X345606547Y-198556630D02*
X346177976Y-199128059D01*
X344749404Y-198889964D02*
X344749404Y-199556630D01*
X344987500Y-198509011D02*
X345225595Y-199223297D01*
X344606547Y-199223297D01*
X343701785Y-199556630D02*
X344273214Y-199556630D01*
X343987500Y-199556630D02*
X343987500Y-198556630D01*
X344082738Y-198699488D01*
X344177976Y-198794726D01*
X344273214Y-198842345D01*
X343368452Y-198556630D02*
X342749404Y-198556630D01*
X343082738Y-198937583D01*
X342939880Y-198937583D01*
X342844642Y-198985202D01*
X342797023Y-199032821D01*
X342749404Y-199128059D01*
X342749404Y-199366154D01*
X342797023Y-199461392D01*
X342844642Y-199509011D01*
X342939880Y-199556630D01*
X343225595Y-199556630D01*
X343320833Y-199509011D01*
X343368452Y-199461392D01*
X211875595Y-123356630D02*
X211875595Y-122356630D01*
X211304166Y-123356630D02*
X211732738Y-122785202D01*
X211304166Y-122356630D02*
X211875595Y-122928059D01*
X210970833Y-122356630D02*
X210304166Y-122356630D01*
X210732738Y-123356630D01*
X334271726Y-161456630D02*
X334271726Y-160456630D01*
X333700297Y-161456630D02*
X334128869Y-160885202D01*
X333700297Y-160456630D02*
X334271726Y-161028059D01*
X333319345Y-160551869D02*
X333271726Y-160504250D01*
X333176488Y-160456630D01*
X332938392Y-160456630D01*
X332843154Y-160504250D01*
X332795535Y-160551869D01*
X332747916Y-160647107D01*
X332747916Y-160742345D01*
X332795535Y-160885202D01*
X333366964Y-161456630D01*
X332747916Y-161456630D01*
X331795535Y-161456630D02*
X332366964Y-161456630D01*
X332081250Y-161456630D02*
X332081250Y-160456630D01*
X332176488Y-160599488D01*
X332271726Y-160694726D01*
X332366964Y-160742345D01*
X331462202Y-160456630D02*
X330843154Y-160456630D01*
X331176488Y-160837583D01*
X331033630Y-160837583D01*
X330938392Y-160885202D01*
X330890773Y-160932821D01*
X330843154Y-161028059D01*
X330843154Y-161266154D01*
X330890773Y-161361392D01*
X330938392Y-161409011D01*
X331033630Y-161456630D01*
X331319345Y-161456630D01*
X331414583Y-161409011D01*
X331462202Y-161361392D01*
X317602976Y-142406630D02*
X317602976Y-141406630D01*
X317031547Y-142406630D02*
X317460119Y-141835202D01*
X317031547Y-141406630D02*
X317602976Y-141978059D01*
X316079166Y-142406630D02*
X316650595Y-142406630D01*
X316364880Y-142406630D02*
X316364880Y-141406630D01*
X316460119Y-141549488D01*
X316555357Y-141644726D01*
X316650595Y-141692345D01*
X315126785Y-142406630D02*
X315698214Y-142406630D01*
X315412500Y-142406630D02*
X315412500Y-141406630D01*
X315507738Y-141549488D01*
X315602976Y-141644726D01*
X315698214Y-141692345D01*
X314745833Y-141501869D02*
X314698214Y-141454250D01*
X314602976Y-141406630D01*
X314364880Y-141406630D01*
X314269642Y-141454250D01*
X314222023Y-141501869D01*
X314174404Y-141597107D01*
X314174404Y-141692345D01*
X314222023Y-141835202D01*
X314793452Y-142406630D01*
X314174404Y-142406630D01*
X90908035Y-180506630D02*
X90908035Y-179506630D01*
X90336607Y-180506630D02*
X90765178Y-179935202D01*
X90336607Y-179506630D02*
X90908035Y-180078059D01*
X90003273Y-179506630D02*
X89384226Y-179506630D01*
X89717559Y-179887583D01*
X89574702Y-179887583D01*
X89479464Y-179935202D01*
X89431845Y-179982821D01*
X89384226Y-180078059D01*
X89384226Y-180316154D01*
X89431845Y-180411392D01*
X89479464Y-180459011D01*
X89574702Y-180506630D01*
X89860416Y-180506630D01*
X89955654Y-180459011D01*
X90003273Y-180411392D01*
X88765178Y-179506630D02*
X88669940Y-179506630D01*
X88574702Y-179554250D01*
X88527083Y-179601869D01*
X88479464Y-179697107D01*
X88431845Y-179887583D01*
X88431845Y-180125678D01*
X88479464Y-180316154D01*
X88527083Y-180411392D01*
X88574702Y-180459011D01*
X88669940Y-180506630D01*
X88765178Y-180506630D01*
X88860416Y-180459011D01*
X88908035Y-180411392D01*
X88955654Y-180316154D01*
X89003273Y-180125678D01*
X89003273Y-179887583D01*
X88955654Y-179697107D01*
X88908035Y-179601869D01*
X88860416Y-179554250D01*
X88765178Y-179506630D01*
X284265476Y-161456630D02*
X284265476Y-160456630D01*
X283694047Y-161456630D02*
X284122619Y-160885202D01*
X283694047Y-160456630D02*
X284265476Y-161028059D01*
X283313095Y-160551869D02*
X283265476Y-160504250D01*
X283170238Y-160456630D01*
X282932142Y-160456630D01*
X282836904Y-160504250D01*
X282789285Y-160551869D01*
X282741666Y-160647107D01*
X282741666Y-160742345D01*
X282789285Y-160885202D01*
X283360714Y-161456630D01*
X282741666Y-161456630D01*
X281789285Y-161456630D02*
X282360714Y-161456630D01*
X282075000Y-161456630D02*
X282075000Y-160456630D01*
X282170238Y-160599488D01*
X282265476Y-160694726D01*
X282360714Y-160742345D01*
X281170238Y-160456630D02*
X281075000Y-160456630D01*
X280979761Y-160504250D01*
X280932142Y-160551869D01*
X280884523Y-160647107D01*
X280836904Y-160837583D01*
X280836904Y-161075678D01*
X280884523Y-161266154D01*
X280932142Y-161361392D01*
X280979761Y-161409011D01*
X281075000Y-161456630D01*
X281170238Y-161456630D01*
X281265476Y-161409011D01*
X281313095Y-161361392D01*
X281360714Y-161266154D01*
X281408333Y-161075678D01*
X281408333Y-160837583D01*
X281360714Y-160647107D01*
X281313095Y-160551869D01*
X281265476Y-160504250D01*
X281170238Y-160456630D01*
X179014285Y-180506630D02*
X179014285Y-179506630D01*
X178442857Y-180506630D02*
X178871428Y-179935202D01*
X178442857Y-179506630D02*
X179014285Y-180078059D01*
X178109523Y-179506630D02*
X177490476Y-179506630D01*
X177823809Y-179887583D01*
X177680952Y-179887583D01*
X177585714Y-179935202D01*
X177538095Y-179982821D01*
X177490476Y-180078059D01*
X177490476Y-180316154D01*
X177538095Y-180411392D01*
X177585714Y-180459011D01*
X177680952Y-180506630D01*
X177966666Y-180506630D01*
X178061904Y-180459011D01*
X178109523Y-180411392D01*
X176633333Y-179839964D02*
X176633333Y-180506630D01*
X176871428Y-179459011D02*
X177109523Y-180173297D01*
X176490476Y-180173297D01*
X97575595Y-123356630D02*
X97575595Y-122356630D01*
X97004166Y-123356630D02*
X97432738Y-122785202D01*
X97004166Y-122356630D02*
X97575595Y-122928059D01*
X96051785Y-123356630D02*
X96623214Y-123356630D01*
X96337500Y-123356630D02*
X96337500Y-122356630D01*
X96432738Y-122499488D01*
X96527976Y-122594726D01*
X96623214Y-122642345D01*
X154725595Y-123356630D02*
X154725595Y-122356630D01*
X154154166Y-123356630D02*
X154582738Y-122785202D01*
X154154166Y-122356630D02*
X154725595Y-122928059D01*
X153297023Y-122689964D02*
X153297023Y-123356630D01*
X153535119Y-122309011D02*
X153773214Y-123023297D01*
X153154166Y-123023297D01*
X140914285Y-180506630D02*
X140914285Y-179506630D01*
X140342857Y-180506630D02*
X140771428Y-179935202D01*
X140342857Y-179506630D02*
X140914285Y-180078059D01*
X140009523Y-179506630D02*
X139390476Y-179506630D01*
X139723809Y-179887583D01*
X139580952Y-179887583D01*
X139485714Y-179935202D01*
X139438095Y-179982821D01*
X139390476Y-180078059D01*
X139390476Y-180316154D01*
X139438095Y-180411392D01*
X139485714Y-180459011D01*
X139580952Y-180506630D01*
X139866666Y-180506630D01*
X139961904Y-180459011D01*
X140009523Y-180411392D01*
X139009523Y-179601869D02*
X138961904Y-179554250D01*
X138866666Y-179506630D01*
X138628571Y-179506630D01*
X138533333Y-179554250D01*
X138485714Y-179601869D01*
X138438095Y-179697107D01*
X138438095Y-179792345D01*
X138485714Y-179935202D01*
X139057142Y-180506630D01*
X138438095Y-180506630D01*
X308077976Y-199556630D02*
X308077976Y-198556630D01*
X307506547Y-199556630D02*
X307935119Y-198985202D01*
X307506547Y-198556630D02*
X308077976Y-199128059D01*
X306649404Y-198889964D02*
X306649404Y-199556630D01*
X306887500Y-198509011D02*
X307125595Y-199223297D01*
X306506547Y-199223297D01*
X305601785Y-199556630D02*
X306173214Y-199556630D01*
X305887500Y-199556630D02*
X305887500Y-198556630D01*
X305982738Y-198699488D01*
X306077976Y-198794726D01*
X306173214Y-198842345D01*
X304982738Y-198556630D02*
X304887500Y-198556630D01*
X304792261Y-198604250D01*
X304744642Y-198651869D01*
X304697023Y-198747107D01*
X304649404Y-198937583D01*
X304649404Y-199175678D01*
X304697023Y-199366154D01*
X304744642Y-199461392D01*
X304792261Y-199509011D01*
X304887500Y-199556630D01*
X304982738Y-199556630D01*
X305077976Y-199509011D01*
X305125595Y-199461392D01*
X305173214Y-199366154D01*
X305220833Y-199175678D01*
X305220833Y-198937583D01*
X305173214Y-198747107D01*
X305125595Y-198651869D01*
X305077976Y-198604250D01*
X304982738Y-198556630D01*
X245689285Y-161456630D02*
X245689285Y-160456630D01*
X245117857Y-161456630D02*
X245546428Y-160885202D01*
X245117857Y-160456630D02*
X245689285Y-161028059D01*
X244736904Y-160551869D02*
X244689285Y-160504250D01*
X244594047Y-160456630D01*
X244355952Y-160456630D01*
X244260714Y-160504250D01*
X244213095Y-160551869D01*
X244165476Y-160647107D01*
X244165476Y-160742345D01*
X244213095Y-160885202D01*
X244784523Y-161456630D01*
X244165476Y-161456630D01*
X243594047Y-160885202D02*
X243689285Y-160837583D01*
X243736904Y-160789964D01*
X243784523Y-160694726D01*
X243784523Y-160647107D01*
X243736904Y-160551869D01*
X243689285Y-160504250D01*
X243594047Y-160456630D01*
X243403571Y-160456630D01*
X243308333Y-160504250D01*
X243260714Y-160551869D01*
X243213095Y-160647107D01*
X243213095Y-160694726D01*
X243260714Y-160789964D01*
X243308333Y-160837583D01*
X243403571Y-160885202D01*
X243594047Y-160885202D01*
X243689285Y-160932821D01*
X243736904Y-160980440D01*
X243784523Y-161075678D01*
X243784523Y-161266154D01*
X243736904Y-161361392D01*
X243689285Y-161409011D01*
X243594047Y-161456630D01*
X243403571Y-161456630D01*
X243308333Y-161409011D01*
X243260714Y-161361392D01*
X243213095Y-161266154D01*
X243213095Y-161075678D01*
X243260714Y-160980440D01*
X243308333Y-160932821D01*
X243403571Y-160885202D01*
X112339285Y-161456630D02*
X112339285Y-160456630D01*
X111767857Y-161456630D02*
X112196428Y-160885202D01*
X111767857Y-160456630D02*
X112339285Y-161028059D01*
X111386904Y-160551869D02*
X111339285Y-160504250D01*
X111244047Y-160456630D01*
X111005952Y-160456630D01*
X110910714Y-160504250D01*
X110863095Y-160551869D01*
X110815476Y-160647107D01*
X110815476Y-160742345D01*
X110863095Y-160885202D01*
X111434523Y-161456630D01*
X110815476Y-161456630D01*
X109863095Y-161456630D02*
X110434523Y-161456630D01*
X110148809Y-161456630D02*
X110148809Y-160456630D01*
X110244047Y-160599488D01*
X110339285Y-160694726D01*
X110434523Y-160742345D01*
X240926785Y-142406630D02*
X240926785Y-141406630D01*
X240355357Y-142406630D02*
X240783928Y-141835202D01*
X240355357Y-141406630D02*
X240926785Y-141978059D01*
X239402976Y-142406630D02*
X239974404Y-142406630D01*
X239688690Y-142406630D02*
X239688690Y-141406630D01*
X239783928Y-141549488D01*
X239879166Y-141644726D01*
X239974404Y-141692345D01*
X238831547Y-141835202D02*
X238926785Y-141787583D01*
X238974404Y-141739964D01*
X239022023Y-141644726D01*
X239022023Y-141597107D01*
X238974404Y-141501869D01*
X238926785Y-141454250D01*
X238831547Y-141406630D01*
X238641071Y-141406630D01*
X238545833Y-141454250D01*
X238498214Y-141501869D01*
X238450595Y-141597107D01*
X238450595Y-141644726D01*
X238498214Y-141739964D01*
X238545833Y-141787583D01*
X238641071Y-141835202D01*
X238831547Y-141835202D01*
X238926785Y-141882821D01*
X238974404Y-141930440D01*
X239022023Y-142025678D01*
X239022023Y-142216154D01*
X238974404Y-142311392D01*
X238926785Y-142359011D01*
X238831547Y-142406630D01*
X238641071Y-142406630D01*
X238545833Y-142359011D01*
X238498214Y-142311392D01*
X238450595Y-142216154D01*
X238450595Y-142025678D01*
X238498214Y-141930440D01*
X238545833Y-141882821D01*
X238641071Y-141835202D01*
X288551785Y-199556630D02*
X288551785Y-198556630D01*
X287980357Y-199556630D02*
X288408928Y-198985202D01*
X287980357Y-198556630D02*
X288551785Y-199128059D01*
X287123214Y-198889964D02*
X287123214Y-199556630D01*
X287361309Y-198509011D02*
X287599404Y-199223297D01*
X286980357Y-199223297D01*
X286551785Y-199556630D02*
X286361309Y-199556630D01*
X286266071Y-199509011D01*
X286218452Y-199461392D01*
X286123214Y-199318535D01*
X286075595Y-199128059D01*
X286075595Y-198747107D01*
X286123214Y-198651869D01*
X286170833Y-198604250D01*
X286266071Y-198556630D01*
X286456547Y-198556630D01*
X286551785Y-198604250D01*
X286599404Y-198651869D01*
X286647023Y-198747107D01*
X286647023Y-198985202D01*
X286599404Y-199080440D01*
X286551785Y-199128059D01*
X286456547Y-199175678D01*
X286266071Y-199175678D01*
X286170833Y-199128059D01*
X286123214Y-199080440D01*
X286075595Y-198985202D01*
X127126785Y-142406630D02*
X127126785Y-141406630D01*
X126555357Y-142406630D02*
X126983928Y-141835202D01*
X126555357Y-141406630D02*
X127126785Y-141978059D01*
X126126785Y-142406630D02*
X126126785Y-141406630D01*
X125555357Y-142406630D02*
X125983928Y-141835202D01*
X125555357Y-141406630D02*
X126126785Y-141978059D01*
X124602976Y-142406630D02*
X125174404Y-142406630D01*
X124888690Y-142406630D02*
X124888690Y-141406630D01*
X124983928Y-141549488D01*
X125079166Y-141644726D01*
X125174404Y-141692345D01*
X124222023Y-141501869D02*
X124174404Y-141454250D01*
X124079166Y-141406630D01*
X123841071Y-141406630D01*
X123745833Y-141454250D01*
X123698214Y-141501869D01*
X123650595Y-141597107D01*
X123650595Y-141692345D01*
X123698214Y-141835202D01*
X124269642Y-142406630D01*
X123650595Y-142406630D01*
X129008035Y-199556630D02*
X129008035Y-198556630D01*
X128436607Y-199556630D02*
X128865178Y-198985202D01*
X128436607Y-198556630D02*
X129008035Y-199128059D01*
X127579464Y-198889964D02*
X127579464Y-199556630D01*
X127817559Y-198509011D02*
X128055654Y-199223297D01*
X127436607Y-199223297D01*
X127103273Y-198651869D02*
X127055654Y-198604250D01*
X126960416Y-198556630D01*
X126722321Y-198556630D01*
X126627083Y-198604250D01*
X126579464Y-198651869D01*
X126531845Y-198747107D01*
X126531845Y-198842345D01*
X126579464Y-198985202D01*
X127150892Y-199556630D01*
X126531845Y-199556630D01*
X259976785Y-142406630D02*
X259976785Y-141406630D01*
X259405357Y-142406630D02*
X259833928Y-141835202D01*
X259405357Y-141406630D02*
X259976785Y-141978059D01*
X258452976Y-142406630D02*
X259024404Y-142406630D01*
X258738690Y-142406630D02*
X258738690Y-141406630D01*
X258833928Y-141549488D01*
X258929166Y-141644726D01*
X259024404Y-141692345D01*
X257976785Y-142406630D02*
X257786309Y-142406630D01*
X257691071Y-142359011D01*
X257643452Y-142311392D01*
X257548214Y-142168535D01*
X257500595Y-141978059D01*
X257500595Y-141597107D01*
X257548214Y-141501869D01*
X257595833Y-141454250D01*
X257691071Y-141406630D01*
X257881547Y-141406630D01*
X257976785Y-141454250D01*
X258024404Y-141501869D01*
X258072023Y-141597107D01*
X258072023Y-141835202D01*
X258024404Y-141930440D01*
X257976785Y-141978059D01*
X257881547Y-142025678D01*
X257691071Y-142025678D01*
X257595833Y-141978059D01*
X257548214Y-141930440D01*
X257500595Y-141835202D01*
X269501785Y-199556630D02*
X269501785Y-198556630D01*
X268930357Y-199556630D02*
X269358928Y-198985202D01*
X268930357Y-198556630D02*
X269501785Y-199128059D01*
X268073214Y-198889964D02*
X268073214Y-199556630D01*
X268311309Y-198509011D02*
X268549404Y-199223297D01*
X267930357Y-199223297D01*
X267406547Y-198985202D02*
X267501785Y-198937583D01*
X267549404Y-198889964D01*
X267597023Y-198794726D01*
X267597023Y-198747107D01*
X267549404Y-198651869D01*
X267501785Y-198604250D01*
X267406547Y-198556630D01*
X267216071Y-198556630D01*
X267120833Y-198604250D01*
X267073214Y-198651869D01*
X267025595Y-198747107D01*
X267025595Y-198794726D01*
X267073214Y-198889964D01*
X267120833Y-198937583D01*
X267216071Y-198985202D01*
X267406547Y-198985202D01*
X267501785Y-199032821D01*
X267549404Y-199080440D01*
X267597023Y-199175678D01*
X267597023Y-199366154D01*
X267549404Y-199461392D01*
X267501785Y-199509011D01*
X267406547Y-199556630D01*
X267216071Y-199556630D01*
X267120833Y-199509011D01*
X267073214Y-199461392D01*
X267025595Y-199366154D01*
X267025595Y-199175678D01*
X267073214Y-199080440D01*
X267120833Y-199032821D01*
X267216071Y-198985202D01*
X198064285Y-180506630D02*
X198064285Y-179506630D01*
X197492857Y-180506630D02*
X197921428Y-179935202D01*
X197492857Y-179506630D02*
X198064285Y-180078059D01*
X197159523Y-179506630D02*
X196540476Y-179506630D01*
X196873809Y-179887583D01*
X196730952Y-179887583D01*
X196635714Y-179935202D01*
X196588095Y-179982821D01*
X196540476Y-180078059D01*
X196540476Y-180316154D01*
X196588095Y-180411392D01*
X196635714Y-180459011D01*
X196730952Y-180506630D01*
X197016666Y-180506630D01*
X197111904Y-180459011D01*
X197159523Y-180411392D01*
X195635714Y-179506630D02*
X196111904Y-179506630D01*
X196159523Y-179982821D01*
X196111904Y-179935202D01*
X196016666Y-179887583D01*
X195778571Y-179887583D01*
X195683333Y-179935202D01*
X195635714Y-179982821D01*
X195588095Y-180078059D01*
X195588095Y-180316154D01*
X195635714Y-180411392D01*
X195683333Y-180459011D01*
X195778571Y-180506630D01*
X196016666Y-180506630D01*
X196111904Y-180459011D01*
X196159523Y-180411392D01*
X207589285Y-161456630D02*
X207589285Y-160456630D01*
X207017857Y-161456630D02*
X207446428Y-160885202D01*
X207017857Y-160456630D02*
X207589285Y-161028059D01*
X206636904Y-160551869D02*
X206589285Y-160504250D01*
X206494047Y-160456630D01*
X206255952Y-160456630D01*
X206160714Y-160504250D01*
X206113095Y-160551869D01*
X206065476Y-160647107D01*
X206065476Y-160742345D01*
X206113095Y-160885202D01*
X206684523Y-161456630D01*
X206065476Y-161456630D01*
X205208333Y-160456630D02*
X205398809Y-160456630D01*
X205494047Y-160504250D01*
X205541666Y-160551869D01*
X205636904Y-160694726D01*
X205684523Y-160885202D01*
X205684523Y-161266154D01*
X205636904Y-161361392D01*
X205589285Y-161409011D01*
X205494047Y-161456630D01*
X205303571Y-161456630D01*
X205208333Y-161409011D01*
X205160714Y-161361392D01*
X205113095Y-161266154D01*
X205113095Y-161028059D01*
X205160714Y-160932821D01*
X205208333Y-160885202D01*
X205303571Y-160837583D01*
X205494047Y-160837583D01*
X205589285Y-160885202D01*
X205636904Y-160932821D01*
X205684523Y-161028059D01*
X81383035Y-199556630D02*
X81383035Y-198556630D01*
X80811607Y-199556630D02*
X81240178Y-198985202D01*
X80811607Y-198556630D02*
X81383035Y-199128059D01*
X79954464Y-198889964D02*
X79954464Y-199556630D01*
X80192559Y-198509011D02*
X80430654Y-199223297D01*
X79811607Y-199223297D01*
X79240178Y-198556630D02*
X79144940Y-198556630D01*
X79049702Y-198604250D01*
X79002083Y-198651869D01*
X78954464Y-198747107D01*
X78906845Y-198937583D01*
X78906845Y-199175678D01*
X78954464Y-199366154D01*
X79002083Y-199461392D01*
X79049702Y-199509011D01*
X79144940Y-199556630D01*
X79240178Y-199556630D01*
X79335416Y-199509011D01*
X79383035Y-199461392D01*
X79430654Y-199366154D01*
X79478273Y-199175678D01*
X79478273Y-198937583D01*
X79430654Y-198747107D01*
X79383035Y-198651869D01*
X79335416Y-198604250D01*
X79240178Y-198556630D01*
X327127976Y-180506630D02*
X327127976Y-179506630D01*
X326556547Y-180506630D02*
X326985119Y-179935202D01*
X326556547Y-179506630D02*
X327127976Y-180078059D01*
X326223214Y-179506630D02*
X325604166Y-179506630D01*
X325937500Y-179887583D01*
X325794642Y-179887583D01*
X325699404Y-179935202D01*
X325651785Y-179982821D01*
X325604166Y-180078059D01*
X325604166Y-180316154D01*
X325651785Y-180411392D01*
X325699404Y-180459011D01*
X325794642Y-180506630D01*
X326080357Y-180506630D01*
X326175595Y-180459011D01*
X326223214Y-180411392D01*
X324651785Y-180506630D02*
X325223214Y-180506630D01*
X324937500Y-180506630D02*
X324937500Y-179506630D01*
X325032738Y-179649488D01*
X325127976Y-179744726D01*
X325223214Y-179792345D01*
X324270833Y-179601869D02*
X324223214Y-179554250D01*
X324127976Y-179506630D01*
X323889880Y-179506630D01*
X323794642Y-179554250D01*
X323747023Y-179601869D01*
X323699404Y-179697107D01*
X323699404Y-179792345D01*
X323747023Y-179935202D01*
X324318452Y-180506630D01*
X323699404Y-180506630D01*
X307601785Y-123356630D02*
X307601785Y-122356630D01*
X307030357Y-123356630D02*
X307458928Y-122785202D01*
X307030357Y-122356630D02*
X307601785Y-122928059D01*
X306077976Y-123356630D02*
X306649404Y-123356630D01*
X306363690Y-123356630D02*
X306363690Y-122356630D01*
X306458928Y-122499488D01*
X306554166Y-122594726D01*
X306649404Y-122642345D01*
X305697023Y-122451869D02*
X305649404Y-122404250D01*
X305554166Y-122356630D01*
X305316071Y-122356630D01*
X305220833Y-122404250D01*
X305173214Y-122451869D01*
X305125595Y-122547107D01*
X305125595Y-122642345D01*
X305173214Y-122785202D01*
X305744642Y-123356630D01*
X305125595Y-123356630D01*
X269501785Y-123356630D02*
X269501785Y-122356630D01*
X268930357Y-123356630D02*
X269358928Y-122785202D01*
X268930357Y-122356630D02*
X269501785Y-122928059D01*
X267977976Y-123356630D02*
X268549404Y-123356630D01*
X268263690Y-123356630D02*
X268263690Y-122356630D01*
X268358928Y-122499488D01*
X268454166Y-122594726D01*
X268549404Y-122642345D01*
X267358928Y-122356630D02*
X267263690Y-122356630D01*
X267168452Y-122404250D01*
X267120833Y-122451869D01*
X267073214Y-122547107D01*
X267025595Y-122737583D01*
X267025595Y-122975678D01*
X267073214Y-123166154D01*
X267120833Y-123261392D01*
X267168452Y-123309011D01*
X267263690Y-123356630D01*
X267358928Y-123356630D01*
X267454166Y-123309011D01*
X267501785Y-123261392D01*
X267549404Y-123166154D01*
X267597023Y-122975678D01*
X267597023Y-122737583D01*
X267549404Y-122547107D01*
X267501785Y-122451869D01*
X267454166Y-122404250D01*
X267358928Y-122356630D01*
X146176785Y-142406630D02*
X146176785Y-141406630D01*
X145605357Y-142406630D02*
X146033928Y-141835202D01*
X145605357Y-141406630D02*
X146176785Y-141978059D01*
X145176785Y-142406630D02*
X145176785Y-141406630D01*
X144605357Y-142406630D02*
X145033928Y-141835202D01*
X144605357Y-141406630D02*
X145176785Y-141978059D01*
X143652976Y-142406630D02*
X144224404Y-142406630D01*
X143938690Y-142406630D02*
X143938690Y-141406630D01*
X144033928Y-141549488D01*
X144129166Y-141644726D01*
X144224404Y-141692345D01*
X143319642Y-141406630D02*
X142700595Y-141406630D01*
X143033928Y-141787583D01*
X142891071Y-141787583D01*
X142795833Y-141835202D01*
X142748214Y-141882821D01*
X142700595Y-141978059D01*
X142700595Y-142216154D01*
X142748214Y-142311392D01*
X142795833Y-142359011D01*
X142891071Y-142406630D01*
X143176785Y-142406630D01*
X143272023Y-142359011D01*
X143319642Y-142311392D01*
X279502976Y-142406630D02*
X279502976Y-141406630D01*
X278931547Y-142406630D02*
X279360119Y-141835202D01*
X278931547Y-141406630D02*
X279502976Y-141978059D01*
X277979166Y-142406630D02*
X278550595Y-142406630D01*
X278264880Y-142406630D02*
X278264880Y-141406630D01*
X278360119Y-141549488D01*
X278455357Y-141644726D01*
X278550595Y-141692345D01*
X277026785Y-142406630D02*
X277598214Y-142406630D01*
X277312500Y-142406630D02*
X277312500Y-141406630D01*
X277407738Y-141549488D01*
X277502976Y-141644726D01*
X277598214Y-141692345D01*
X276407738Y-141406630D02*
X276312500Y-141406630D01*
X276217261Y-141454250D01*
X276169642Y-141501869D01*
X276122023Y-141597107D01*
X276074404Y-141787583D01*
X276074404Y-142025678D01*
X276122023Y-142216154D01*
X276169642Y-142311392D01*
X276217261Y-142359011D01*
X276312500Y-142406630D01*
X276407738Y-142406630D01*
X276502976Y-142359011D01*
X276550595Y-142311392D01*
X276598214Y-142216154D01*
X276645833Y-142025678D01*
X276645833Y-141787583D01*
X276598214Y-141597107D01*
X276550595Y-141501869D01*
X276502976Y-141454250D01*
X276407738Y-141406630D01*
X87966666Y-91922380D02*
X88300000Y-91446190D01*
X88538095Y-91922380D02*
X88538095Y-90922380D01*
X88157142Y-90922380D01*
X88061904Y-90970000D01*
X88014285Y-91017619D01*
X87966666Y-91112857D01*
X87966666Y-91255714D01*
X88014285Y-91350952D01*
X88061904Y-91398571D01*
X88157142Y-91446190D01*
X88538095Y-91446190D01*
X87633333Y-90922380D02*
X86966666Y-90922380D01*
X87395238Y-91922380D01*
X98366666Y-93402380D02*
X98700000Y-92926190D01*
X98938095Y-93402380D02*
X98938095Y-92402380D01*
X98557142Y-92402380D01*
X98461904Y-92450000D01*
X98414285Y-92497619D01*
X98366666Y-92592857D01*
X98366666Y-92735714D01*
X98414285Y-92830952D01*
X98461904Y-92878571D01*
X98557142Y-92926190D01*
X98938095Y-92926190D01*
X97461904Y-92402380D02*
X97938095Y-92402380D01*
X97985714Y-92878571D01*
X97938095Y-92830952D01*
X97842857Y-92783333D01*
X97604761Y-92783333D01*
X97509523Y-92830952D01*
X97461904Y-92878571D01*
X97414285Y-92973809D01*
X97414285Y-93211904D01*
X97461904Y-93307142D01*
X97509523Y-93354761D01*
X97604761Y-93402380D01*
X97842857Y-93402380D01*
X97938095Y-93354761D01*
X97985714Y-93307142D01*
X75607142Y-102833333D02*
X75654761Y-102785714D01*
X75702380Y-102642857D01*
X75702380Y-102547619D01*
X75654761Y-102404761D01*
X75559523Y-102309523D01*
X75464285Y-102261904D01*
X75273809Y-102214285D01*
X75130952Y-102214285D01*
X74940476Y-102261904D01*
X74845238Y-102309523D01*
X74750000Y-102404761D01*
X74702380Y-102547619D01*
X74702380Y-102642857D01*
X74750000Y-102785714D01*
X74797619Y-102833333D01*
X74702380Y-103166666D02*
X74702380Y-103833333D01*
X75702380Y-103404761D01*
X84441666Y-106588392D02*
X84489285Y-106636011D01*
X84632142Y-106683630D01*
X84727380Y-106683630D01*
X84870238Y-106636011D01*
X84965476Y-106540773D01*
X85013095Y-106445535D01*
X85060714Y-106255059D01*
X85060714Y-106112202D01*
X85013095Y-105921726D01*
X84965476Y-105826488D01*
X84870238Y-105731250D01*
X84727380Y-105683630D01*
X84632142Y-105683630D01*
X84489285Y-105731250D01*
X84441666Y-105778869D01*
X83584523Y-105683630D02*
X83775000Y-105683630D01*
X83870238Y-105731250D01*
X83917857Y-105778869D01*
X84013095Y-105921726D01*
X84060714Y-106112202D01*
X84060714Y-106493154D01*
X84013095Y-106588392D01*
X83965476Y-106636011D01*
X83870238Y-106683630D01*
X83679761Y-106683630D01*
X83584523Y-106636011D01*
X83536904Y-106588392D01*
X83489285Y-106493154D01*
X83489285Y-106255059D01*
X83536904Y-106159821D01*
X83584523Y-106112202D01*
X83679761Y-106064583D01*
X83870238Y-106064583D01*
X83965476Y-106112202D01*
X84013095Y-106159821D01*
X84060714Y-106255059D01*
X107270238Y-103077619D02*
X107365476Y-103030000D01*
X107460714Y-102934761D01*
X107603571Y-102791904D01*
X107698809Y-102744285D01*
X107794047Y-102744285D01*
X107746428Y-102982380D02*
X107841666Y-102934761D01*
X107936904Y-102839523D01*
X107984523Y-102649047D01*
X107984523Y-102315714D01*
X107936904Y-102125238D01*
X107841666Y-102030000D01*
X107746428Y-101982380D01*
X107555952Y-101982380D01*
X107460714Y-102030000D01*
X107365476Y-102125238D01*
X107317857Y-102315714D01*
X107317857Y-102649047D01*
X107365476Y-102839523D01*
X107460714Y-102934761D01*
X107555952Y-102982380D01*
X107746428Y-102982380D01*
X106365476Y-102982380D02*
X106936904Y-102982380D01*
X106651190Y-102982380D02*
X106651190Y-101982380D01*
X106746428Y-102125238D01*
X106841666Y-102220476D01*
X106936904Y-102268095D01*
X90876190Y-103051190D02*
X90876190Y-103527380D01*
X91209523Y-102527380D02*
X90876190Y-103051190D01*
X90542857Y-102527380D01*
X89685714Y-103527380D02*
X90257142Y-103527380D01*
X89971428Y-103527380D02*
X89971428Y-102527380D01*
X90066666Y-102670238D01*
X90161904Y-102765476D01*
X90257142Y-102813095D01*
X78541666Y-106677380D02*
X78875000Y-106201190D01*
X79113095Y-106677380D02*
X79113095Y-105677380D01*
X78732142Y-105677380D01*
X78636904Y-105725000D01*
X78589285Y-105772619D01*
X78541666Y-105867857D01*
X78541666Y-106010714D01*
X78589285Y-106105952D01*
X78636904Y-106153571D01*
X78732142Y-106201190D01*
X79113095Y-106201190D01*
X77684523Y-105677380D02*
X77875000Y-105677380D01*
X77970238Y-105725000D01*
X78017857Y-105772619D01*
X78113095Y-105915476D01*
X78160714Y-106105952D01*
X78160714Y-106486904D01*
X78113095Y-106582142D01*
X78065476Y-106629761D01*
X77970238Y-106677380D01*
X77779761Y-106677380D01*
X77684523Y-106629761D01*
X77636904Y-106582142D01*
X77589285Y-106486904D01*
X77589285Y-106248809D01*
X77636904Y-106153571D01*
X77684523Y-106105952D01*
X77779761Y-106058333D01*
X77970238Y-106058333D01*
X78065476Y-106105952D01*
X78113095Y-106153571D01*
X78160714Y-106248809D01*
X99541666Y-105258630D02*
X99875000Y-104782440D01*
X100113095Y-105258630D02*
X100113095Y-104258630D01*
X99732142Y-104258630D01*
X99636904Y-104306250D01*
X99589285Y-104353869D01*
X99541666Y-104449107D01*
X99541666Y-104591964D01*
X99589285Y-104687202D01*
X99636904Y-104734821D01*
X99732142Y-104782440D01*
X100113095Y-104782440D01*
X98970238Y-104687202D02*
X99065476Y-104639583D01*
X99113095Y-104591964D01*
X99160714Y-104496726D01*
X99160714Y-104449107D01*
X99113095Y-104353869D01*
X99065476Y-104306250D01*
X98970238Y-104258630D01*
X98779761Y-104258630D01*
X98684523Y-104306250D01*
X98636904Y-104353869D01*
X98589285Y-104449107D01*
X98589285Y-104496726D01*
X98636904Y-104591964D01*
X98684523Y-104639583D01*
X98779761Y-104687202D01*
X98970238Y-104687202D01*
X99065476Y-104734821D01*
X99113095Y-104782440D01*
X99160714Y-104877678D01*
X99160714Y-105068154D01*
X99113095Y-105163392D01*
X99065476Y-105211011D01*
X98970238Y-105258630D01*
X98779761Y-105258630D01*
X98684523Y-105211011D01*
X98636904Y-105163392D01*
X98589285Y-105068154D01*
X98589285Y-104877678D01*
X98636904Y-104782440D01*
X98684523Y-104734821D01*
X98779761Y-104687202D01*
D11*
X75250000Y-96850000D02*
X71950000Y-96850000D01*
X71950000Y-96850000D02*
X71950000Y-91450000D01*
X75250000Y-96850000D02*
X75250000Y-91450000D01*
X87646359Y-90680000D02*
X87953641Y-90680000D01*
X87646359Y-89920000D02*
X87953641Y-89920000D01*
X98378641Y-92155000D02*
X98071359Y-92155000D01*
X98378641Y-91395000D02*
X98071359Y-91395000D01*
X77285000Y-103154086D02*
X77285000Y-102938414D01*
X76565000Y-103154086D02*
X76565000Y-102938414D01*
X87135000Y-98788414D02*
X87135000Y-99004086D01*
X86415000Y-98788414D02*
X86415000Y-99004086D01*
X85235000Y-97536250D02*
X85235000Y-96811250D01*
X85235000Y-96811250D02*
X84510000Y-96811250D01*
X85235000Y-104031250D02*
X84510000Y-104031250D01*
X78015000Y-104031250D02*
X78740000Y-104031250D01*
X78015000Y-103306250D02*
X78015000Y-104031250D01*
X85235000Y-103306250D02*
X85235000Y-104031250D01*
X78015000Y-97536250D02*
X78015000Y-96811250D01*
X84167164Y-105431250D02*
X84382836Y-105431250D01*
X84167164Y-104711250D02*
X84382836Y-104711250D01*
X88025000Y-99579086D02*
X88025000Y-99363414D01*
X88745000Y-99579086D02*
X88745000Y-99363414D01*
X84234420Y-93015000D02*
X84515580Y-93015000D01*
X84234420Y-94035000D02*
X84515580Y-94035000D01*
X112295000Y-108171000D02*
X102055000Y-108171000D01*
X112295000Y-105040000D02*
X102055000Y-105040000D01*
X105324000Y-103530000D02*
X105324000Y-105040000D01*
X112295000Y-103530000D02*
X102055000Y-103530000D01*
X102055000Y-103530000D02*
X102055000Y-108171000D01*
X109025000Y-103530000D02*
X109025000Y-105040000D01*
X112295000Y-103530000D02*
X112295000Y-108171000D01*
X88745000Y-101454086D02*
X88745000Y-101238414D01*
X88025000Y-101454086D02*
X88025000Y-101238414D01*
X92265000Y-102151250D02*
X88965000Y-102151250D01*
X88965000Y-102151250D02*
X88965000Y-98151250D01*
X78470000Y-93167609D02*
X78470000Y-93474891D01*
X79230000Y-93167609D02*
X79230000Y-93474891D01*
X80470000Y-93167609D02*
X80470000Y-93474891D01*
X81230000Y-93167609D02*
X81230000Y-93474891D01*
X81807836Y-94511250D02*
X81592164Y-94511250D01*
X81807836Y-95231250D02*
X81592164Y-95231250D01*
X77335000Y-97613414D02*
X77335000Y-97829086D01*
X76615000Y-97613414D02*
X76615000Y-97829086D01*
X78578641Y-104720000D02*
X78271359Y-104720000D01*
X78578641Y-105480000D02*
X78271359Y-105480000D01*
X99137742Y-106972500D02*
X99612258Y-106972500D01*
X99137742Y-105927500D02*
X99612258Y-105927500D01*
X82730000Y-92617609D02*
X82730000Y-92924891D01*
X81970000Y-92617609D02*
X81970000Y-92924891D01*
X80230000Y-93172609D02*
X80230000Y-93479891D01*
X79470000Y-93172609D02*
X79470000Y-93479891D01*
%LPC*%
D12*
X73600000Y-95450000D03*
X73600000Y-91450000D03*
D13*
X210820000Y-177006250D03*
D14*
X218440000Y-171926250D03*
D15*
X215900000Y-177006250D03*
D13*
X220980000Y-177006250D03*
D14*
X212090000Y-174466250D03*
D16*
X208815000Y-174466250D03*
X221742000Y-171926250D03*
D17*
X263000000Y-93190000D03*
D18*
X263000000Y-100810000D03*
D15*
X346900500Y-128111250D03*
D13*
X329882500Y-119856250D03*
D15*
X323024500Y-128111250D03*
D13*
X340042500Y-119856250D03*
D14*
X337502500Y-114776250D03*
D19*
X346900500Y-112871250D03*
D15*
X334962500Y-119856250D03*
D19*
X323024500Y-112871250D03*
D14*
X331152500Y-117316250D03*
D16*
X327877500Y-117316250D03*
X340804500Y-114776250D03*
D14*
X118427500Y-114776250D03*
D13*
X120967500Y-119856250D03*
X110807500Y-119856250D03*
D15*
X115887500Y-119856250D03*
D14*
X112077500Y-117316250D03*
D16*
X108802500Y-117316250D03*
X121729500Y-114776250D03*
D17*
X285240000Y-94190000D03*
D18*
X285240000Y-101810000D03*
D17*
X141240000Y-93180000D03*
D18*
X141240000Y-100800000D03*
D17*
X287740000Y-93190000D03*
D18*
X287740000Y-100810000D03*
D17*
X250500000Y-92190000D03*
D18*
X250500000Y-99810000D03*
D17*
X146240000Y-91190000D03*
D18*
X146240000Y-98810000D03*
D17*
X297770000Y-89190000D03*
D18*
X297770000Y-96810000D03*
D17*
X138740000Y-94180000D03*
D18*
X138740000Y-101800000D03*
D17*
X265500000Y-92190000D03*
D18*
X265500000Y-99810000D03*
D17*
X225730000Y-92190000D03*
D18*
X225730000Y-99810000D03*
D17*
X255500000Y-96190000D03*
D18*
X255500000Y-103810000D03*
D14*
X204152500Y-133826250D03*
D13*
X196532500Y-138906250D03*
D15*
X201612500Y-138906250D03*
D14*
X197802500Y-136366250D03*
D13*
X206692500Y-138906250D03*
D16*
X194527500Y-136366250D03*
X207454500Y-133826250D03*
D14*
X342265000Y-133826250D03*
D15*
X339725000Y-138906250D03*
D13*
X334645000Y-138906250D03*
X344805000Y-138906250D03*
D14*
X335915000Y-136366250D03*
D16*
X332640000Y-136366250D03*
X345567000Y-133826250D03*
D17*
X243000000Y-95190000D03*
D18*
X243000000Y-102810000D03*
D13*
X306705000Y-157956250D03*
X296545000Y-157956250D03*
D14*
X297815000Y-155416250D03*
D15*
X301625000Y-157956250D03*
D14*
X304165000Y-152876250D03*
D16*
X294540000Y-155416250D03*
X307467000Y-152876250D03*
D17*
X183490000Y-93090000D03*
D18*
X183490000Y-100710000D03*
D17*
X185990000Y-92090000D03*
D18*
X185990000Y-99710000D03*
D17*
X123740000Y-93180000D03*
D18*
X123740000Y-100800000D03*
D17*
X165990000Y-93190000D03*
D18*
X165990000Y-100810000D03*
D15*
X249237500Y-119856250D03*
D14*
X251777500Y-114776250D03*
D13*
X244157500Y-119856250D03*
D14*
X245427500Y-117316250D03*
D13*
X254317500Y-119856250D03*
D16*
X242152500Y-117316250D03*
X255079500Y-114776250D03*
D13*
X87630000Y-138906250D03*
D14*
X78740000Y-136366250D03*
D15*
X82550000Y-138906250D03*
D14*
X85090000Y-133826250D03*
D13*
X77470000Y-138906250D03*
D16*
X75465000Y-136366250D03*
X88392000Y-133826250D03*
D17*
X178490000Y-95190000D03*
D18*
X178490000Y-102810000D03*
D13*
X182245000Y-157956250D03*
D14*
X189865000Y-152876250D03*
D13*
X192405000Y-157956250D03*
D15*
X187325000Y-157956250D03*
D14*
X183515000Y-155416250D03*
D16*
X180240000Y-155416250D03*
X193167000Y-152876250D03*
D14*
X159702500Y-136366250D03*
D13*
X158432500Y-138906250D03*
D15*
X163512500Y-138906250D03*
D13*
X168592500Y-138906250D03*
D14*
X166052500Y-133826250D03*
D16*
X156427500Y-136366250D03*
X169354500Y-133826250D03*
D13*
X259080000Y-177006250D03*
X248920000Y-177006250D03*
D14*
X250190000Y-174466250D03*
X256540000Y-171926250D03*
D15*
X254000000Y-177006250D03*
D16*
X246915000Y-174466250D03*
X259842000Y-171926250D03*
D17*
X282740000Y-95190000D03*
D18*
X282740000Y-102810000D03*
D17*
X121240000Y-94180000D03*
D18*
X121240000Y-101800000D03*
D14*
X269240000Y-174466250D03*
X275590000Y-171926250D03*
D13*
X278130000Y-177006250D03*
D15*
X273050000Y-177006250D03*
D13*
X267970000Y-177006250D03*
D16*
X265965000Y-174466250D03*
X278892000Y-171926250D03*
D13*
X82867500Y-119856250D03*
D14*
X73977500Y-117316250D03*
D13*
X72707500Y-119856250D03*
D14*
X80327500Y-114776250D03*
D15*
X77787500Y-119856250D03*
D16*
X70702500Y-117316250D03*
X83629500Y-114776250D03*
D20*
X97900000Y-86625000D03*
D21*
X97900000Y-89165000D03*
X95360000Y-86625000D03*
X95360000Y-89165000D03*
X92820000Y-86625000D03*
X92820000Y-89165000D03*
D17*
X113740000Y-97190000D03*
D18*
X113740000Y-104810000D03*
D17*
X228270000Y-91210000D03*
D18*
X228270000Y-98830000D03*
D15*
X199231250Y-196056250D03*
D19*
X149231350Y-203041250D03*
D14*
X201771250Y-190976250D03*
D13*
X194151250Y-196056250D03*
D15*
X149231350Y-187801250D03*
D19*
X249231150Y-203041250D03*
D15*
X249231150Y-187801250D03*
D14*
X195421250Y-193516250D03*
D13*
X204311250Y-196056250D03*
D16*
X192146250Y-193516250D03*
X205073250Y-190976250D03*
D17*
X277740000Y-97190000D03*
D18*
X277740000Y-104810000D03*
D13*
X153670000Y-177006250D03*
D14*
X154940000Y-174466250D03*
D15*
X158750000Y-177006250D03*
D14*
X161290000Y-171926250D03*
D13*
X163830000Y-177006250D03*
D16*
X151665000Y-174466250D03*
X164592000Y-171926250D03*
D15*
X149225000Y-157956250D03*
D13*
X144145000Y-157956250D03*
D14*
X151765000Y-152876250D03*
X145415000Y-155416250D03*
D13*
X154305000Y-157956250D03*
D16*
X142140000Y-155416250D03*
X155067000Y-152876250D03*
D17*
X143740000Y-92190000D03*
D18*
X143740000Y-99810000D03*
D17*
X215730000Y-96190000D03*
D18*
X215730000Y-103810000D03*
D13*
X320357500Y-196056250D03*
D14*
X321627500Y-193516250D03*
D13*
X330517500Y-196056250D03*
D14*
X327977500Y-190976250D03*
D15*
X325437500Y-196056250D03*
D16*
X318352500Y-193516250D03*
X331279500Y-190976250D03*
D14*
X131127500Y-117316250D03*
X137477500Y-114776250D03*
D13*
X129857500Y-119856250D03*
D15*
X134937500Y-119856250D03*
D13*
X140017500Y-119856250D03*
D16*
X127852500Y-117316250D03*
X140779500Y-114776250D03*
D15*
X263525000Y-157956250D03*
D13*
X268605000Y-157956250D03*
D14*
X259715000Y-155416250D03*
D13*
X258445000Y-157956250D03*
D14*
X266065000Y-152876250D03*
D16*
X256440000Y-155416250D03*
X269367000Y-152876250D03*
D17*
X168490000Y-92190000D03*
D18*
X168490000Y-99810000D03*
D17*
X126240000Y-92190000D03*
D18*
X126240000Y-99810000D03*
D17*
X203230000Y-95180000D03*
D18*
X203230000Y-102800000D03*
D20*
X345650000Y-92925000D03*
D21*
X345650000Y-95465000D03*
X345650000Y-98005000D03*
X345650000Y-100545000D03*
D17*
X155980000Y-97190000D03*
D18*
X155980000Y-104810000D03*
D13*
X167957500Y-119856250D03*
D14*
X175577500Y-114776250D03*
X169227500Y-117316250D03*
D13*
X178117500Y-119856250D03*
D15*
X173037500Y-119856250D03*
D16*
X165952500Y-117316250D03*
X178879500Y-114776250D03*
D14*
X106521250Y-190976250D03*
D15*
X103981250Y-196056250D03*
D13*
X98901250Y-196056250D03*
D14*
X100171250Y-193516250D03*
D13*
X109061250Y-196056250D03*
D16*
X96896250Y-193516250D03*
X109823250Y-190976250D03*
D17*
X175990000Y-96190000D03*
D18*
X175990000Y-103810000D03*
D22*
X107775000Y-86325000D03*
X101275000Y-86325000D03*
X101275000Y-90825000D03*
X107775000Y-90825000D03*
D17*
X218230000Y-95190000D03*
D18*
X218230000Y-102810000D03*
D17*
X290240000Y-92190000D03*
D18*
X290240000Y-99810000D03*
D13*
X125730000Y-177006250D03*
D15*
X120650000Y-177006250D03*
D13*
X115570000Y-177006250D03*
D14*
X116840000Y-174466250D03*
X123190000Y-171926250D03*
D16*
X113565000Y-174466250D03*
X126492000Y-171926250D03*
D17*
X158490000Y-96190000D03*
D18*
X158490000Y-103810000D03*
D23*
X70750000Y-203250000D03*
D17*
X280240000Y-96190000D03*
D18*
X280240000Y-103810000D03*
D17*
X198220000Y-97170000D03*
D18*
X198220000Y-104790000D03*
D17*
X205730000Y-94180000D03*
D18*
X205730000Y-101800000D03*
D17*
X128740000Y-91190000D03*
D18*
X128740000Y-98810000D03*
D17*
X238000000Y-97190000D03*
D18*
X238000000Y-104810000D03*
D15*
X130175000Y-157956250D03*
D14*
X126365000Y-155416250D03*
X132715000Y-152876250D03*
D13*
X135255000Y-157956250D03*
X125095000Y-157956250D03*
D16*
X123090000Y-155416250D03*
X136017000Y-152876250D03*
D17*
X160990000Y-95190000D03*
D18*
X160990000Y-102810000D03*
D13*
X177482500Y-138906250D03*
D14*
X178752500Y-136366250D03*
D13*
X187642500Y-138906250D03*
D14*
X185102500Y-133826250D03*
D15*
X182562500Y-138906250D03*
D16*
X175477500Y-136366250D03*
X188404500Y-133826250D03*
D17*
X240500000Y-96200000D03*
D18*
X240500000Y-103820000D03*
D17*
X258000000Y-95190000D03*
D18*
X258000000Y-102810000D03*
D17*
X136240000Y-95190000D03*
D18*
X136240000Y-102810000D03*
D15*
X168275000Y-157956250D03*
D14*
X164465000Y-155416250D03*
X170815000Y-152876250D03*
D13*
X163195000Y-157956250D03*
X173355000Y-157956250D03*
D16*
X161190000Y-155416250D03*
X174117000Y-152876250D03*
D13*
X282257500Y-119856250D03*
D15*
X287337500Y-119856250D03*
D13*
X292417500Y-119856250D03*
D14*
X283527500Y-117316250D03*
X289877500Y-114776250D03*
D16*
X280252500Y-117316250D03*
X293179500Y-114776250D03*
D17*
X248000000Y-93190000D03*
D18*
X248000000Y-100810000D03*
D13*
X304323750Y-177006250D03*
D14*
X301783750Y-171926250D03*
D15*
X299243750Y-177006250D03*
D13*
X294163750Y-177006250D03*
D14*
X295433750Y-174466250D03*
D16*
X292158750Y-174466250D03*
X305085750Y-171926250D03*
D13*
X187007500Y-119856250D03*
D15*
X192087500Y-119856250D03*
D14*
X194627500Y-114776250D03*
X188277500Y-117316250D03*
D13*
X197167500Y-119856250D03*
D16*
X185002500Y-117316250D03*
X197929500Y-114776250D03*
D14*
X87471250Y-152876250D03*
X81121250Y-155416250D03*
D13*
X79851250Y-157956250D03*
D15*
X84931250Y-157956250D03*
D13*
X90011250Y-157956250D03*
D16*
X77846250Y-155416250D03*
X90773250Y-152876250D03*
D14*
X226377500Y-117316250D03*
X232727500Y-114776250D03*
D15*
X230187500Y-119856250D03*
D13*
X225107500Y-119856250D03*
X235267500Y-119856250D03*
D16*
X223102500Y-117316250D03*
X236029500Y-114776250D03*
D13*
X220345000Y-157956250D03*
D15*
X225425000Y-157956250D03*
D13*
X230505000Y-157956250D03*
D14*
X221615000Y-155416250D03*
X227965000Y-152876250D03*
D16*
X218340000Y-155416250D03*
X231267000Y-152876250D03*
D17*
X200730000Y-96190000D03*
D18*
X200730000Y-103810000D03*
D17*
X188490000Y-91090000D03*
D18*
X188490000Y-98710000D03*
D17*
X131240000Y-97190000D03*
D18*
X131240000Y-104810000D03*
D17*
X116240000Y-96190000D03*
D18*
X116240000Y-103810000D03*
D13*
X229870000Y-177006250D03*
D14*
X237490000Y-171926250D03*
D13*
X240030000Y-177006250D03*
D14*
X231140000Y-174466250D03*
D15*
X234950000Y-177006250D03*
D16*
X227865000Y-174466250D03*
X240792000Y-171926250D03*
D13*
X291782500Y-138906250D03*
D14*
X299402500Y-133826250D03*
X293052500Y-136366250D03*
D13*
X301942500Y-138906250D03*
D15*
X296862500Y-138906250D03*
D16*
X289777500Y-136366250D03*
X302704500Y-133826250D03*
D17*
X208230000Y-93180000D03*
D18*
X208230000Y-100800000D03*
D14*
X223202500Y-133826250D03*
D13*
X215582500Y-138906250D03*
D14*
X216852500Y-136366250D03*
D15*
X220662500Y-138906250D03*
D13*
X225742500Y-138906250D03*
D16*
X213577500Y-136366250D03*
X226504500Y-133826250D03*
D17*
X118740000Y-95190000D03*
D18*
X118740000Y-102810000D03*
D14*
X347027500Y-171926250D03*
D15*
X344487500Y-177006250D03*
D13*
X349567500Y-177006250D03*
X339407500Y-177006250D03*
D14*
X340677500Y-174466250D03*
D16*
X337402500Y-174466250D03*
X350329500Y-171926250D03*
D13*
X111442500Y-138906250D03*
X101282500Y-138906250D03*
D14*
X102552500Y-136366250D03*
X108902500Y-133826250D03*
D15*
X106362500Y-138906250D03*
D16*
X99277500Y-136366250D03*
X112204500Y-133826250D03*
D14*
X340677500Y-193516250D03*
X347027500Y-190976250D03*
D13*
X349567500Y-196056250D03*
D15*
X344487500Y-196056250D03*
D13*
X339407500Y-196056250D03*
D16*
X337402500Y-193516250D03*
X350329500Y-190976250D03*
D15*
X211137500Y-119856250D03*
D14*
X213677500Y-114776250D03*
X207327500Y-117316250D03*
D13*
X206057500Y-119856250D03*
X216217500Y-119856250D03*
D16*
X204052500Y-117316250D03*
X216979500Y-114776250D03*
D17*
X180990000Y-94200000D03*
D18*
X180990000Y-101820000D03*
D14*
X335121250Y-152876250D03*
D13*
X327501250Y-157956250D03*
D14*
X328771250Y-155416250D03*
D19*
X344519250Y-150971250D03*
X320643250Y-150971250D03*
D15*
X320643250Y-166211250D03*
D13*
X337661250Y-157956250D03*
D15*
X332581250Y-157956250D03*
X344519250Y-166211250D03*
D16*
X325496250Y-155416250D03*
X338423250Y-152876250D03*
D15*
X315912500Y-138906250D03*
D14*
X318452500Y-133826250D03*
D13*
X320992500Y-138906250D03*
X310832500Y-138906250D03*
D14*
X312102500Y-136366250D03*
D16*
X308827500Y-136366250D03*
X321754500Y-133826250D03*
D13*
X94773750Y-177006250D03*
D15*
X101631750Y-185261250D03*
D14*
X85883750Y-174466250D03*
D19*
X101631750Y-170021250D03*
X77755750Y-170021250D03*
D15*
X77755750Y-185261250D03*
D14*
X92233750Y-171926250D03*
D15*
X89693750Y-177006250D03*
D13*
X84613750Y-177006250D03*
D16*
X82608750Y-174466250D03*
X95535750Y-171926250D03*
D14*
X285115000Y-152876250D03*
X278765000Y-155416250D03*
D13*
X277495000Y-157956250D03*
D15*
X282575000Y-157956250D03*
D13*
X287655000Y-157956250D03*
D16*
X275490000Y-155416250D03*
X288417000Y-152876250D03*
D20*
X71375000Y-99000000D03*
D21*
X71375000Y-101540000D03*
D17*
X210730000Y-92180000D03*
D18*
X210730000Y-99800000D03*
D17*
X170990000Y-91190000D03*
D18*
X170990000Y-98810000D03*
D15*
X177800000Y-177006250D03*
D13*
X172720000Y-177006250D03*
D14*
X173990000Y-174466250D03*
X180340000Y-171926250D03*
D13*
X182880000Y-177006250D03*
D16*
X170715000Y-174466250D03*
X183642000Y-171926250D03*
D17*
X268000000Y-91180000D03*
D18*
X268000000Y-98800000D03*
D13*
X91757500Y-119856250D03*
D15*
X96837500Y-119856250D03*
D14*
X93027500Y-117316250D03*
D13*
X101917500Y-119856250D03*
D14*
X99377500Y-114776250D03*
D16*
X89752500Y-117316250D03*
X102679500Y-114776250D03*
D23*
X351750000Y-203250000D03*
D17*
X253000000Y-97190000D03*
D18*
X253000000Y-104810000D03*
D17*
X295250000Y-90190000D03*
D18*
X295250000Y-97810000D03*
D13*
X148907500Y-119856250D03*
D14*
X156527500Y-114776250D03*
X150177500Y-117316250D03*
D13*
X159067500Y-119856250D03*
D15*
X153987500Y-119856250D03*
D16*
X146902500Y-117316250D03*
X159829500Y-114776250D03*
D17*
X213230000Y-97190000D03*
D18*
X213230000Y-104810000D03*
D13*
X134620000Y-177006250D03*
D14*
X142240000Y-171926250D03*
D15*
X139700000Y-177006250D03*
D13*
X144780000Y-177006250D03*
D14*
X135890000Y-174466250D03*
D16*
X132615000Y-174466250D03*
X145542000Y-171926250D03*
D17*
X245500000Y-94190000D03*
D18*
X245500000Y-101810000D03*
D17*
X223230000Y-93190000D03*
D18*
X223230000Y-100810000D03*
D15*
X306387500Y-196056250D03*
D14*
X302577500Y-193516250D03*
X308927500Y-190976250D03*
D13*
X311467500Y-196056250D03*
X301307500Y-196056250D03*
D16*
X299302500Y-193516250D03*
X312229500Y-190976250D03*
D13*
X239395000Y-157956250D03*
D14*
X247015000Y-152876250D03*
D13*
X249555000Y-157956250D03*
D15*
X244475000Y-157956250D03*
D14*
X240665000Y-155416250D03*
D16*
X237390000Y-155416250D03*
X250317000Y-152876250D03*
D14*
X107315000Y-155416250D03*
D13*
X116205000Y-157956250D03*
D14*
X113665000Y-152876250D03*
D13*
X106045000Y-157956250D03*
D15*
X111125000Y-157956250D03*
D16*
X104040000Y-155416250D03*
X116967000Y-152876250D03*
D17*
X173490000Y-97190000D03*
D18*
X173490000Y-104810000D03*
D15*
X239712500Y-138906250D03*
D13*
X244792500Y-138906250D03*
D14*
X235902500Y-136366250D03*
X242252500Y-133826250D03*
D13*
X234632500Y-138906250D03*
D16*
X232627500Y-136366250D03*
X245554500Y-133826250D03*
D13*
X282257500Y-196056250D03*
D15*
X287337500Y-196056250D03*
D14*
X289877500Y-190976250D03*
X283527500Y-193516250D03*
D13*
X292417500Y-196056250D03*
D16*
X280252500Y-193516250D03*
X293179500Y-190976250D03*
D23*
X70750000Y-86500000D03*
D17*
X163490000Y-94190000D03*
D18*
X163490000Y-101810000D03*
D14*
X121602500Y-136366250D03*
D13*
X130492500Y-138906250D03*
X120332500Y-138906250D03*
D14*
X127952500Y-133826250D03*
D15*
X125412500Y-138906250D03*
D16*
X118327500Y-136366250D03*
X131254500Y-133826250D03*
D13*
X122713750Y-196056250D03*
D14*
X130333750Y-190976250D03*
X123983750Y-193516250D03*
D15*
X127793750Y-196056250D03*
D13*
X132873750Y-196056250D03*
D16*
X120708750Y-193516250D03*
X133635750Y-190976250D03*
D24*
X88550000Y-86000000D03*
D25*
X88550000Y-88540000D03*
D13*
X253682500Y-138906250D03*
D14*
X254952500Y-136366250D03*
D13*
X263842500Y-138906250D03*
D15*
X258762500Y-138906250D03*
D14*
X261302500Y-133826250D03*
D16*
X251677500Y-136366250D03*
X264604500Y-133826250D03*
D13*
X263207500Y-196056250D03*
D14*
X264477500Y-193516250D03*
D15*
X268287500Y-196056250D03*
D13*
X273367500Y-196056250D03*
D14*
X270827500Y-190976250D03*
D16*
X261202500Y-193516250D03*
X274129500Y-190976250D03*
D13*
X201930000Y-177006250D03*
D15*
X196850000Y-177006250D03*
D13*
X191770000Y-177006250D03*
D14*
X193040000Y-174466250D03*
X199390000Y-171926250D03*
D16*
X189765000Y-174466250D03*
X202692000Y-171926250D03*
D13*
X211455000Y-157956250D03*
D14*
X208915000Y-152876250D03*
X202565000Y-155416250D03*
D13*
X201295000Y-157956250D03*
D15*
X206375000Y-157956250D03*
D16*
X199290000Y-155416250D03*
X212217000Y-152876250D03*
D14*
X82708750Y-190976250D03*
X76358750Y-193516250D03*
D13*
X75088750Y-196056250D03*
D15*
X80168750Y-196056250D03*
D13*
X85248750Y-196056250D03*
D16*
X73083750Y-193516250D03*
X86010750Y-190976250D03*
D17*
X220730000Y-94200000D03*
D18*
X220730000Y-101820000D03*
D13*
X320357500Y-177006250D03*
D14*
X327977500Y-171926250D03*
X321627500Y-174466250D03*
D15*
X325437500Y-177006250D03*
D13*
X330517500Y-177006250D03*
D16*
X318352500Y-174466250D03*
X331279500Y-171926250D03*
D15*
X306387500Y-119856250D03*
D13*
X301307500Y-119856250D03*
D14*
X308927500Y-114776250D03*
X302577500Y-117316250D03*
D13*
X311467500Y-119856250D03*
D16*
X299302500Y-117316250D03*
X312229500Y-114776250D03*
D17*
X133740000Y-96190000D03*
D18*
X133740000Y-103810000D03*
D17*
X260500000Y-94190000D03*
D18*
X260500000Y-101810000D03*
D17*
X292740000Y-91190000D03*
D18*
X292740000Y-98810000D03*
D23*
X351750000Y-86500000D03*
D14*
X264477500Y-117316250D03*
D15*
X268287500Y-119856250D03*
D13*
X273367500Y-119856250D03*
X263207500Y-119856250D03*
D14*
X270827500Y-114776250D03*
D16*
X261202500Y-117316250D03*
X274129500Y-114776250D03*
D15*
X144462500Y-138906250D03*
D13*
X139382500Y-138906250D03*
D14*
X140652500Y-136366250D03*
X147002500Y-133826250D03*
D13*
X149542500Y-138906250D03*
D16*
X137377500Y-136366250D03*
X150304500Y-133826250D03*
D14*
X280352500Y-133826250D03*
D15*
X277812500Y-138906250D03*
D13*
X282892500Y-138906250D03*
D14*
X274002500Y-136366250D03*
D13*
X272732500Y-138906250D03*
D16*
X270727500Y-136366250D03*
X283654500Y-133826250D03*
D26*
X87290000Y-90300000D03*
X88310000Y-90300000D03*
D27*
X98735000Y-91775000D03*
X97715000Y-91775000D03*
D28*
X76925000Y-103526250D03*
X76925000Y-102566250D03*
D29*
X86775000Y-98416250D03*
X86775000Y-99376250D03*
D30*
X79125000Y-97083750D03*
X79625000Y-97083750D03*
X80125000Y-97083750D03*
X80625000Y-97083750D03*
X81125000Y-97083750D03*
X81625000Y-97083750D03*
X82125000Y-97083750D03*
X82625000Y-97083750D03*
X83125000Y-97083750D03*
X83625000Y-97083750D03*
X84125000Y-97083750D03*
D31*
X84962500Y-97921250D03*
X84962500Y-98421250D03*
X84962500Y-98921250D03*
X84962500Y-99421250D03*
X84962500Y-99921250D03*
X84962500Y-100421250D03*
X84962500Y-100921250D03*
X84962500Y-101421250D03*
X84962500Y-101921250D03*
X84962500Y-102421250D03*
X84962500Y-102921250D03*
D30*
X84125000Y-103758750D03*
X83625000Y-103758750D03*
X83125000Y-103758750D03*
X82625000Y-103758750D03*
X82125000Y-103758750D03*
X81625000Y-103758750D03*
X81125000Y-103758750D03*
X80625000Y-103758750D03*
X80125000Y-103758750D03*
X79625000Y-103758750D03*
X79125000Y-103758750D03*
D31*
X78287500Y-102921250D03*
X78287500Y-102421250D03*
X78287500Y-101921250D03*
X78287500Y-101421250D03*
X78287500Y-100921250D03*
X78287500Y-100421250D03*
X78287500Y-99921250D03*
X78287500Y-99421250D03*
X78287500Y-98921250D03*
X78287500Y-98421250D03*
X78287500Y-97921250D03*
D32*
X81625000Y-100421250D03*
D33*
X83795000Y-105071250D03*
X84755000Y-105071250D03*
D28*
X88385000Y-99951250D03*
X88385000Y-98991250D03*
D34*
X83600000Y-93525000D03*
X85150000Y-93525000D03*
D35*
X109715000Y-106800000D03*
D36*
X107175000Y-106800000D03*
X104635000Y-106800000D03*
D28*
X88385000Y-101826250D03*
X88385000Y-100866250D03*
D37*
X89765000Y-101251250D03*
X89765000Y-99051250D03*
X91465000Y-99051250D03*
X91465000Y-101251250D03*
D38*
X78850000Y-92811250D03*
X78850000Y-93831250D03*
X80850000Y-92811250D03*
X80850000Y-93831250D03*
D39*
X82180000Y-94871250D03*
X81220000Y-94871250D03*
D29*
X76975000Y-97241250D03*
X76975000Y-98201250D03*
D27*
X78935000Y-105100000D03*
X77915000Y-105100000D03*
D40*
X98550000Y-106450000D03*
X100200000Y-106450000D03*
D38*
X82350000Y-92261250D03*
X82350000Y-93281250D03*
X79850000Y-92816250D03*
X79850000Y-93836250D03*
D41*
X83840000Y-89461250D03*
X78060000Y-89461250D03*
D42*
X77725000Y-90906250D03*
X78500000Y-90906250D03*
D43*
X79200000Y-90906250D03*
X79700000Y-90906250D03*
X80200000Y-90906250D03*
X80700000Y-90906250D03*
X81200000Y-90906250D03*
X81700000Y-90906250D03*
X82200000Y-90906250D03*
X82700000Y-90906250D03*
D42*
X83400000Y-90906250D03*
X84175000Y-90906250D03*
D44*
X85270000Y-89991250D03*
X76630000Y-89991250D03*
D45*
X76630000Y-85811250D03*
X85270000Y-85811250D03*
M02*
