M48
; DRILL file {KiCad (6.0.0)} date Sat Sep 10 03:34:02 2022
; FORMAT={-:-/ absolute / metric / decimal}
; #@! TF.CreationDate,2022-09-10T03:34:02-07:00
; #@! TF.GenerationSoftware,Kicad,Pcbnew,(6.0.0)
; #@! TF.FileFunction,NonPlated,1,2,NPTH
FMAT,2
METRIC
; #@! TA.AperFunction,NonPlated,NPTH,ComponentDrill
T1C0.650
; #@! TA.AperFunction,NonPlated,NPTH,ComponentDrill
T2C1.750
; #@! TA.AperFunction,NonPlated,NPTH,ComponentDrill
T3C2.200
; #@! TA.AperFunction,NonPlated,NPTH,ComponentDrill
T4C3.000
; #@! TA.AperFunction,NonPlated,NPTH,ComponentDrill
T5C3.048
; #@! TA.AperFunction,NonPlated,NPTH,ComponentDrill
T6C3.988
%
G90
G05
T1
X78.06Y-89.461
X83.84Y-89.461
T2
X72.707Y-119.856
X75.089Y-196.056
X77.47Y-138.906
X79.851Y-157.956
X82.867Y-119.856
X84.614Y-177.006
X85.249Y-196.056
X87.63Y-138.906
X90.011Y-157.956
X91.757Y-119.856
X94.774Y-177.006
X98.901Y-196.056
X101.282Y-138.906
X101.917Y-119.856
X106.045Y-157.956
X109.061Y-196.056
X110.807Y-119.856
X111.442Y-138.906
X115.57Y-177.006
X116.205Y-157.956
X120.332Y-138.906
X120.968Y-119.856
X122.714Y-196.056
X125.095Y-157.956
X125.73Y-177.006
X129.857Y-119.856
X130.493Y-138.906
X132.874Y-196.056
X134.62Y-177.006
X135.255Y-157.956
X139.382Y-138.906
X140.017Y-119.856
X144.145Y-157.956
X144.78Y-177.006
X148.907Y-119.856
X149.542Y-138.906
X153.67Y-177.006
X154.305Y-157.956
X158.433Y-138.906
X159.067Y-119.856
X163.195Y-157.956
X163.83Y-177.006
X167.957Y-119.856
X168.593Y-138.906
X172.72Y-177.006
X173.355Y-157.956
X177.482Y-138.906
X178.117Y-119.856
X182.245Y-157.956
X182.88Y-177.006
X187.007Y-119.856
X187.642Y-138.906
X191.77Y-177.006
X192.405Y-157.956
X194.151Y-196.056
X196.532Y-138.906
X197.167Y-119.856
X201.295Y-157.956
X201.93Y-177.006
X204.311Y-196.056
X206.058Y-119.856
X206.692Y-138.906
X210.82Y-177.006
X211.455Y-157.956
X215.582Y-138.906
X216.218Y-119.856
X220.345Y-157.956
X220.98Y-177.006
X225.107Y-119.856
X225.742Y-138.906
X229.87Y-177.006
X230.505Y-157.956
X234.632Y-138.906
X235.267Y-119.856
X239.395Y-157.956
X240.03Y-177.006
X244.157Y-119.856
X244.792Y-138.906
X248.92Y-177.006
X249.555Y-157.956
X253.682Y-138.906
X254.317Y-119.856
X258.445Y-157.956
X259.08Y-177.006
X263.207Y-119.856
X263.207Y-196.056
X263.842Y-138.906
X267.97Y-177.006
X268.605Y-157.956
X272.733Y-138.906
X273.368Y-119.856
X273.368Y-196.056
X277.495Y-157.956
X278.13Y-177.006
X282.257Y-119.856
X282.257Y-196.056
X282.892Y-138.906
X287.655Y-157.956
X291.782Y-138.906
X292.417Y-119.856
X292.417Y-196.056
X294.164Y-177.006
X296.545Y-157.956
X301.308Y-119.856
X301.308Y-196.056
X301.942Y-138.906
X304.324Y-177.006
X306.705Y-157.956
X310.832Y-138.906
X311.467Y-119.856
X311.467Y-196.056
X320.357Y-177.006
X320.357Y-196.056
X320.993Y-138.906
X327.501Y-157.956
X329.882Y-119.856
X330.517Y-177.006
X330.517Y-196.056
X334.645Y-138.906
X337.661Y-157.956
X339.407Y-177.006
X339.407Y-196.056
X340.042Y-119.856
X344.805Y-138.906
X349.567Y-177.006
X349.567Y-196.056
T3
X70.75Y-86.5
X70.75Y-203.25
X351.75Y-86.5
X351.75Y-203.25
T4
X73.977Y-117.316
X76.359Y-193.516
X78.74Y-136.366
X80.328Y-114.776
X81.121Y-155.416
X82.709Y-190.976
X85.09Y-133.826
X85.884Y-174.466
X87.471Y-152.876
X92.234Y-171.926
X93.027Y-117.316
X99.377Y-114.776
X100.171Y-193.516
X102.552Y-136.366
X106.521Y-190.976
X107.315Y-155.416
X108.902Y-133.826
X112.078Y-117.316
X113.665Y-152.876
X116.84Y-174.466
X118.427Y-114.776
X121.602Y-136.366
X123.19Y-171.926
X123.984Y-193.516
X126.365Y-155.416
X127.953Y-133.826
X130.334Y-190.976
X131.127Y-117.316
X132.715Y-152.876
X135.89Y-174.466
X137.477Y-114.776
X140.653Y-136.366
X142.24Y-171.926
X145.415Y-155.416
X147.002Y-133.826
X150.177Y-117.316
X151.765Y-152.876
X154.94Y-174.466
X156.528Y-114.776
X159.702Y-136.366
X161.29Y-171.926
X164.465Y-155.416
X166.052Y-133.826
X169.227Y-117.316
X170.815Y-152.876
X173.99Y-174.466
X175.577Y-114.776
X178.752Y-136.366
X180.34Y-171.926
X183.515Y-155.416
X185.102Y-133.826
X188.278Y-117.316
X189.865Y-152.876
X193.04Y-174.466
X194.627Y-114.776
X195.421Y-193.516
X197.802Y-136.366
X199.39Y-171.926
X201.771Y-190.976
X202.565Y-155.416
X204.153Y-133.826
X207.327Y-117.316
X208.915Y-152.876
X212.09Y-174.466
X213.677Y-114.776
X216.852Y-136.366
X218.44Y-171.926
X221.615Y-155.416
X223.202Y-133.826
X226.377Y-117.316
X227.965Y-152.876
X231.14Y-174.466
X232.727Y-114.776
X235.903Y-136.366
X237.49Y-171.926
X240.665Y-155.416
X242.252Y-133.826
X245.427Y-117.316
X247.015Y-152.876
X250.19Y-174.466
X251.777Y-114.776
X254.952Y-136.366
X256.54Y-171.926
X259.715Y-155.416
X261.303Y-133.826
X264.477Y-117.316
X264.477Y-193.516
X266.065Y-152.876
X269.24Y-174.466
X270.827Y-114.776
X270.827Y-190.976
X274.002Y-136.366
X275.59Y-171.926
X278.765Y-155.416
X280.352Y-133.826
X283.527Y-117.316
X283.527Y-193.516
X285.115Y-152.876
X289.877Y-114.776
X289.877Y-190.976
X293.053Y-136.366
X295.434Y-174.466
X297.815Y-155.416
X299.402Y-133.826
X301.784Y-171.926
X302.577Y-117.316
X302.577Y-193.516
X304.165Y-152.876
X308.928Y-114.776
X308.928Y-190.976
X312.102Y-136.366
X318.452Y-133.826
X321.627Y-174.466
X321.627Y-193.516
X327.977Y-171.926
X327.977Y-190.976
X328.771Y-155.416
X331.152Y-117.316
X335.121Y-152.876
X335.915Y-136.366
X337.502Y-114.776
X340.678Y-174.466
X340.678Y-193.516
X342.265Y-133.826
X347.027Y-171.926
X347.027Y-190.976
T5
X77.756Y-170.021
X101.632Y-170.021
X149.231Y-203.041
X249.231Y-203.041
X320.643Y-150.971
X323.024Y-112.871
X344.519Y-150.971
X346.9Y-112.871
T6
X77.756Y-185.261
X77.787Y-119.856
X80.169Y-196.056
X82.55Y-138.906
X84.931Y-157.956
X89.694Y-177.006
X96.837Y-119.856
X101.632Y-185.261
X103.981Y-196.056
X106.362Y-138.906
X111.125Y-157.956
X115.887Y-119.856
X120.65Y-177.006
X125.412Y-138.906
X127.794Y-196.056
X130.175Y-157.956
X134.938Y-119.856
X139.7Y-177.006
X144.463Y-138.906
X149.225Y-157.956
X149.231Y-187.801
X153.987Y-119.856
X158.75Y-177.006
X163.512Y-138.906
X168.275Y-157.956
X173.037Y-119.856
X177.8Y-177.006
X182.562Y-138.906
X187.325Y-157.956
X192.087Y-119.856
X196.85Y-177.006
X199.231Y-196.056
X201.612Y-138.906
X206.375Y-157.956
X211.137Y-119.856
X215.9Y-177.006
X220.662Y-138.906
X225.425Y-157.956
X230.188Y-119.856
X234.95Y-177.006
X239.712Y-138.906
X244.475Y-157.956
X249.231Y-187.801
X249.237Y-119.856
X254.0Y-177.006
X258.762Y-138.906
X263.525Y-157.956
X268.287Y-119.856
X268.287Y-196.056
X273.05Y-177.006
X277.812Y-138.906
X282.575Y-157.956
X287.337Y-119.856
X287.337Y-196.056
X296.863Y-138.906
X299.244Y-177.006
X301.625Y-157.956
X306.387Y-119.856
X306.387Y-196.056
X315.912Y-138.906
X320.643Y-166.211
X323.024Y-128.111
X325.438Y-177.006
X325.438Y-196.056
X332.581Y-157.956
X334.962Y-119.856
X339.725Y-138.906
X344.488Y-177.006
X344.488Y-196.056
X344.519Y-166.211
X346.9Y-128.111
T0
M30
