%TF.GenerationSoftware,KiCad,Pcbnew,(6.0.0)*%
%TF.CreationDate,2022-09-10T03:34:01-07:00*%
%TF.ProjectId,HandwireCustom,48616e64-7769-4726-9543-7573746f6d2e,rev?*%
%TF.SameCoordinates,Original*%
%TF.FileFunction,Soldermask,Bot*%
%TF.FilePolarity,Negative*%
%FSLAX46Y46*%
G04 Gerber Fmt 4.6, Leading zero omitted, Abs format (unit mm)*
G04 Created by KiCad (PCBNEW (6.0.0)) date 2022-09-10 03:34:01*
%MOMM*%
%LPD*%
G01*
G04 APERTURE LIST*
G04 Aperture macros list*
%AMRoundRect*
0 Rectangle with rounded corners*
0 $1 Rounding radius*
0 $2 $3 $4 $5 $6 $7 $8 $9 X,Y pos of 4 corners*
0 Add a 4 corners polygon primitive as box body*
4,1,4,$2,$3,$4,$5,$6,$7,$8,$9,$2,$3,0*
0 Add four circle primitives for the rounded corners*
1,1,$1+$1,$2,$3*
1,1,$1+$1,$4,$5*
1,1,$1+$1,$6,$7*
1,1,$1+$1,$8,$9*
0 Add four rect primitives between the rounded corners*
20,1,$1+$1,$2,$3,$4,$5,0*
20,1,$1+$1,$4,$5,$6,$7,0*
20,1,$1+$1,$6,$7,$8,$9,0*
20,1,$1+$1,$8,$9,$2,$3,0*%
G04 Aperture macros list end*
%ADD10R,1.800000X2.500000*%
%ADD11C,1.750000*%
%ADD12C,3.000000*%
%ADD13C,3.987800*%
%ADD14R,2.550000X2.500000*%
%ADD15R,1.600000X1.600000*%
%ADD16O,1.600000X1.600000*%
%ADD17C,3.048000*%
%ADD18R,1.700000X1.700000*%
%ADD19O,1.700000X1.700000*%
%ADD20C,2.000000*%
%ADD21C,2.200000*%
%ADD22R,1.800000X1.800000*%
%ADD23C,1.800000*%
%ADD24RoundRect,0.135000X-0.135000X-0.185000X0.135000X-0.185000X0.135000X0.185000X-0.135000X0.185000X0*%
%ADD25RoundRect,0.135000X0.135000X0.185000X-0.135000X0.185000X-0.135000X-0.185000X0.135000X-0.185000X0*%
%ADD26RoundRect,0.140000X0.170000X-0.140000X0.170000X0.140000X-0.170000X0.140000X-0.170000X-0.140000X0*%
%ADD27RoundRect,0.140000X-0.170000X0.140000X-0.170000X-0.140000X0.170000X-0.140000X0.170000X0.140000X0*%
%ADD28RoundRect,0.062500X-0.062500X0.475000X-0.062500X-0.475000X0.062500X-0.475000X0.062500X0.475000X0*%
%ADD29RoundRect,0.062500X-0.475000X0.062500X-0.475000X-0.062500X0.475000X-0.062500X0.475000X0.062500X0*%
%ADD30R,5.200000X5.200000*%
%ADD31RoundRect,0.140000X-0.140000X-0.170000X0.140000X-0.170000X0.140000X0.170000X-0.140000X0.170000X0*%
%ADD32RoundRect,0.225000X-0.225000X-0.250000X0.225000X-0.250000X0.225000X0.250000X-0.225000X0.250000X0*%
%ADD33R,1.905000X2.000000*%
%ADD34O,1.905000X2.000000*%
%ADD35R,1.200000X1.400000*%
%ADD36RoundRect,0.135000X-0.185000X0.135000X-0.185000X-0.135000X0.185000X-0.135000X0.185000X0.135000X0*%
%ADD37RoundRect,0.140000X0.140000X0.170000X-0.140000X0.170000X-0.140000X-0.170000X0.140000X-0.170000X0*%
%ADD38RoundRect,0.200000X-0.200000X-0.275000X0.200000X-0.275000X0.200000X0.275000X-0.200000X0.275000X0*%
%ADD39C,0.650000*%
%ADD40R,0.600000X1.450000*%
%ADD41R,0.300000X1.450000*%
%ADD42O,1.000000X2.100000*%
%ADD43O,1.000000X1.600000*%
G04 APERTURE END LIST*
D10*
X73600000Y-95450000D03*
X73600000Y-91450000D03*
D11*
X210820000Y-177006250D03*
D12*
X218440000Y-171926250D03*
D13*
X215900000Y-177006250D03*
D11*
X220980000Y-177006250D03*
D12*
X212090000Y-174466250D03*
D14*
X208815000Y-174466250D03*
X221742000Y-171926250D03*
D15*
X263000000Y-93190000D03*
D16*
X263000000Y-100810000D03*
D13*
X346900500Y-128111250D03*
D11*
X329882500Y-119856250D03*
D13*
X323024500Y-128111250D03*
D11*
X340042500Y-119856250D03*
D12*
X337502500Y-114776250D03*
D17*
X346900500Y-112871250D03*
D13*
X334962500Y-119856250D03*
D17*
X323024500Y-112871250D03*
D12*
X331152500Y-117316250D03*
D14*
X327877500Y-117316250D03*
X340804500Y-114776250D03*
D12*
X118427500Y-114776250D03*
D11*
X120967500Y-119856250D03*
X110807500Y-119856250D03*
D13*
X115887500Y-119856250D03*
D12*
X112077500Y-117316250D03*
D14*
X108802500Y-117316250D03*
X121729500Y-114776250D03*
D15*
X285240000Y-94190000D03*
D16*
X285240000Y-101810000D03*
D15*
X141240000Y-93180000D03*
D16*
X141240000Y-100800000D03*
D15*
X287740000Y-93190000D03*
D16*
X287740000Y-100810000D03*
D15*
X250500000Y-92190000D03*
D16*
X250500000Y-99810000D03*
D15*
X146240000Y-91190000D03*
D16*
X146240000Y-98810000D03*
D15*
X297770000Y-89190000D03*
D16*
X297770000Y-96810000D03*
D15*
X138740000Y-94180000D03*
D16*
X138740000Y-101800000D03*
D15*
X265500000Y-92190000D03*
D16*
X265500000Y-99810000D03*
D15*
X225730000Y-92190000D03*
D16*
X225730000Y-99810000D03*
D15*
X255500000Y-96190000D03*
D16*
X255500000Y-103810000D03*
D12*
X204152500Y-133826250D03*
D11*
X196532500Y-138906250D03*
D13*
X201612500Y-138906250D03*
D12*
X197802500Y-136366250D03*
D11*
X206692500Y-138906250D03*
D14*
X194527500Y-136366250D03*
X207454500Y-133826250D03*
D12*
X342265000Y-133826250D03*
D13*
X339725000Y-138906250D03*
D11*
X334645000Y-138906250D03*
X344805000Y-138906250D03*
D12*
X335915000Y-136366250D03*
D14*
X332640000Y-136366250D03*
X345567000Y-133826250D03*
D15*
X243000000Y-95190000D03*
D16*
X243000000Y-102810000D03*
D11*
X306705000Y-157956250D03*
X296545000Y-157956250D03*
D12*
X297815000Y-155416250D03*
D13*
X301625000Y-157956250D03*
D12*
X304165000Y-152876250D03*
D14*
X294540000Y-155416250D03*
X307467000Y-152876250D03*
D15*
X183490000Y-93090000D03*
D16*
X183490000Y-100710000D03*
D15*
X185990000Y-92090000D03*
D16*
X185990000Y-99710000D03*
D15*
X123740000Y-93180000D03*
D16*
X123740000Y-100800000D03*
D15*
X165990000Y-93190000D03*
D16*
X165990000Y-100810000D03*
D13*
X249237500Y-119856250D03*
D12*
X251777500Y-114776250D03*
D11*
X244157500Y-119856250D03*
D12*
X245427500Y-117316250D03*
D11*
X254317500Y-119856250D03*
D14*
X242152500Y-117316250D03*
X255079500Y-114776250D03*
D11*
X87630000Y-138906250D03*
D12*
X78740000Y-136366250D03*
D13*
X82550000Y-138906250D03*
D12*
X85090000Y-133826250D03*
D11*
X77470000Y-138906250D03*
D14*
X75465000Y-136366250D03*
X88392000Y-133826250D03*
D15*
X178490000Y-95190000D03*
D16*
X178490000Y-102810000D03*
D11*
X182245000Y-157956250D03*
D12*
X189865000Y-152876250D03*
D11*
X192405000Y-157956250D03*
D13*
X187325000Y-157956250D03*
D12*
X183515000Y-155416250D03*
D14*
X180240000Y-155416250D03*
X193167000Y-152876250D03*
D12*
X159702500Y-136366250D03*
D11*
X158432500Y-138906250D03*
D13*
X163512500Y-138906250D03*
D11*
X168592500Y-138906250D03*
D12*
X166052500Y-133826250D03*
D14*
X156427500Y-136366250D03*
X169354500Y-133826250D03*
D11*
X259080000Y-177006250D03*
X248920000Y-177006250D03*
D12*
X250190000Y-174466250D03*
X256540000Y-171926250D03*
D13*
X254000000Y-177006250D03*
D14*
X246915000Y-174466250D03*
X259842000Y-171926250D03*
D15*
X282740000Y-95190000D03*
D16*
X282740000Y-102810000D03*
D15*
X121240000Y-94180000D03*
D16*
X121240000Y-101800000D03*
D12*
X269240000Y-174466250D03*
X275590000Y-171926250D03*
D11*
X278130000Y-177006250D03*
D13*
X273050000Y-177006250D03*
D11*
X267970000Y-177006250D03*
D14*
X265965000Y-174466250D03*
X278892000Y-171926250D03*
D11*
X82867500Y-119856250D03*
D12*
X73977500Y-117316250D03*
D11*
X72707500Y-119856250D03*
D12*
X80327500Y-114776250D03*
D13*
X77787500Y-119856250D03*
D14*
X70702500Y-117316250D03*
X83629500Y-114776250D03*
D18*
X97900000Y-86625000D03*
D19*
X97900000Y-89165000D03*
X95360000Y-86625000D03*
X95360000Y-89165000D03*
X92820000Y-86625000D03*
X92820000Y-89165000D03*
D15*
X113740000Y-97190000D03*
D16*
X113740000Y-104810000D03*
D15*
X228270000Y-91210000D03*
D16*
X228270000Y-98830000D03*
D13*
X199231250Y-196056250D03*
D17*
X149231350Y-203041250D03*
D12*
X201771250Y-190976250D03*
D11*
X194151250Y-196056250D03*
D13*
X149231350Y-187801250D03*
D17*
X249231150Y-203041250D03*
D13*
X249231150Y-187801250D03*
D12*
X195421250Y-193516250D03*
D11*
X204311250Y-196056250D03*
D14*
X192146250Y-193516250D03*
X205073250Y-190976250D03*
D15*
X277740000Y-97190000D03*
D16*
X277740000Y-104810000D03*
D11*
X153670000Y-177006250D03*
D12*
X154940000Y-174466250D03*
D13*
X158750000Y-177006250D03*
D12*
X161290000Y-171926250D03*
D11*
X163830000Y-177006250D03*
D14*
X151665000Y-174466250D03*
X164592000Y-171926250D03*
D13*
X149225000Y-157956250D03*
D11*
X144145000Y-157956250D03*
D12*
X151765000Y-152876250D03*
X145415000Y-155416250D03*
D11*
X154305000Y-157956250D03*
D14*
X142140000Y-155416250D03*
X155067000Y-152876250D03*
D15*
X143740000Y-92190000D03*
D16*
X143740000Y-99810000D03*
D15*
X215730000Y-96190000D03*
D16*
X215730000Y-103810000D03*
D11*
X320357500Y-196056250D03*
D12*
X321627500Y-193516250D03*
D11*
X330517500Y-196056250D03*
D12*
X327977500Y-190976250D03*
D13*
X325437500Y-196056250D03*
D14*
X318352500Y-193516250D03*
X331279500Y-190976250D03*
D12*
X131127500Y-117316250D03*
X137477500Y-114776250D03*
D11*
X129857500Y-119856250D03*
D13*
X134937500Y-119856250D03*
D11*
X140017500Y-119856250D03*
D14*
X127852500Y-117316250D03*
X140779500Y-114776250D03*
D13*
X263525000Y-157956250D03*
D11*
X268605000Y-157956250D03*
D12*
X259715000Y-155416250D03*
D11*
X258445000Y-157956250D03*
D12*
X266065000Y-152876250D03*
D14*
X256440000Y-155416250D03*
X269367000Y-152876250D03*
D15*
X168490000Y-92190000D03*
D16*
X168490000Y-99810000D03*
D15*
X126240000Y-92190000D03*
D16*
X126240000Y-99810000D03*
D15*
X203230000Y-95180000D03*
D16*
X203230000Y-102800000D03*
D18*
X345650000Y-92925000D03*
D19*
X345650000Y-95465000D03*
X345650000Y-98005000D03*
X345650000Y-100545000D03*
D15*
X155980000Y-97190000D03*
D16*
X155980000Y-104810000D03*
D11*
X167957500Y-119856250D03*
D12*
X175577500Y-114776250D03*
X169227500Y-117316250D03*
D11*
X178117500Y-119856250D03*
D13*
X173037500Y-119856250D03*
D14*
X165952500Y-117316250D03*
X178879500Y-114776250D03*
D12*
X106521250Y-190976250D03*
D13*
X103981250Y-196056250D03*
D11*
X98901250Y-196056250D03*
D12*
X100171250Y-193516250D03*
D11*
X109061250Y-196056250D03*
D14*
X96896250Y-193516250D03*
X109823250Y-190976250D03*
D15*
X175990000Y-96190000D03*
D16*
X175990000Y-103810000D03*
D20*
X107775000Y-86325000D03*
X101275000Y-86325000D03*
X101275000Y-90825000D03*
X107775000Y-90825000D03*
D15*
X218230000Y-95190000D03*
D16*
X218230000Y-102810000D03*
D15*
X290240000Y-92190000D03*
D16*
X290240000Y-99810000D03*
D11*
X125730000Y-177006250D03*
D13*
X120650000Y-177006250D03*
D11*
X115570000Y-177006250D03*
D12*
X116840000Y-174466250D03*
X123190000Y-171926250D03*
D14*
X113565000Y-174466250D03*
X126492000Y-171926250D03*
D15*
X158490000Y-96190000D03*
D16*
X158490000Y-103810000D03*
D21*
X70750000Y-203250000D03*
D15*
X280240000Y-96190000D03*
D16*
X280240000Y-103810000D03*
D15*
X198220000Y-97170000D03*
D16*
X198220000Y-104790000D03*
D15*
X205730000Y-94180000D03*
D16*
X205730000Y-101800000D03*
D15*
X128740000Y-91190000D03*
D16*
X128740000Y-98810000D03*
D15*
X238000000Y-97190000D03*
D16*
X238000000Y-104810000D03*
D13*
X130175000Y-157956250D03*
D12*
X126365000Y-155416250D03*
X132715000Y-152876250D03*
D11*
X135255000Y-157956250D03*
X125095000Y-157956250D03*
D14*
X123090000Y-155416250D03*
X136017000Y-152876250D03*
D15*
X160990000Y-95190000D03*
D16*
X160990000Y-102810000D03*
D11*
X177482500Y-138906250D03*
D12*
X178752500Y-136366250D03*
D11*
X187642500Y-138906250D03*
D12*
X185102500Y-133826250D03*
D13*
X182562500Y-138906250D03*
D14*
X175477500Y-136366250D03*
X188404500Y-133826250D03*
D15*
X240500000Y-96200000D03*
D16*
X240500000Y-103820000D03*
D15*
X258000000Y-95190000D03*
D16*
X258000000Y-102810000D03*
D15*
X136240000Y-95190000D03*
D16*
X136240000Y-102810000D03*
D13*
X168275000Y-157956250D03*
D12*
X164465000Y-155416250D03*
X170815000Y-152876250D03*
D11*
X163195000Y-157956250D03*
X173355000Y-157956250D03*
D14*
X161190000Y-155416250D03*
X174117000Y-152876250D03*
D11*
X282257500Y-119856250D03*
D13*
X287337500Y-119856250D03*
D11*
X292417500Y-119856250D03*
D12*
X283527500Y-117316250D03*
X289877500Y-114776250D03*
D14*
X280252500Y-117316250D03*
X293179500Y-114776250D03*
D15*
X248000000Y-93190000D03*
D16*
X248000000Y-100810000D03*
D11*
X304323750Y-177006250D03*
D12*
X301783750Y-171926250D03*
D13*
X299243750Y-177006250D03*
D11*
X294163750Y-177006250D03*
D12*
X295433750Y-174466250D03*
D14*
X292158750Y-174466250D03*
X305085750Y-171926250D03*
D11*
X187007500Y-119856250D03*
D13*
X192087500Y-119856250D03*
D12*
X194627500Y-114776250D03*
X188277500Y-117316250D03*
D11*
X197167500Y-119856250D03*
D14*
X185002500Y-117316250D03*
X197929500Y-114776250D03*
D12*
X87471250Y-152876250D03*
X81121250Y-155416250D03*
D11*
X79851250Y-157956250D03*
D13*
X84931250Y-157956250D03*
D11*
X90011250Y-157956250D03*
D14*
X77846250Y-155416250D03*
X90773250Y-152876250D03*
D12*
X226377500Y-117316250D03*
X232727500Y-114776250D03*
D13*
X230187500Y-119856250D03*
D11*
X225107500Y-119856250D03*
X235267500Y-119856250D03*
D14*
X223102500Y-117316250D03*
X236029500Y-114776250D03*
D11*
X220345000Y-157956250D03*
D13*
X225425000Y-157956250D03*
D11*
X230505000Y-157956250D03*
D12*
X221615000Y-155416250D03*
X227965000Y-152876250D03*
D14*
X218340000Y-155416250D03*
X231267000Y-152876250D03*
D15*
X200730000Y-96190000D03*
D16*
X200730000Y-103810000D03*
D15*
X188490000Y-91090000D03*
D16*
X188490000Y-98710000D03*
D15*
X131240000Y-97190000D03*
D16*
X131240000Y-104810000D03*
D15*
X116240000Y-96190000D03*
D16*
X116240000Y-103810000D03*
D11*
X229870000Y-177006250D03*
D12*
X237490000Y-171926250D03*
D11*
X240030000Y-177006250D03*
D12*
X231140000Y-174466250D03*
D13*
X234950000Y-177006250D03*
D14*
X227865000Y-174466250D03*
X240792000Y-171926250D03*
D11*
X291782500Y-138906250D03*
D12*
X299402500Y-133826250D03*
X293052500Y-136366250D03*
D11*
X301942500Y-138906250D03*
D13*
X296862500Y-138906250D03*
D14*
X289777500Y-136366250D03*
X302704500Y-133826250D03*
D15*
X208230000Y-93180000D03*
D16*
X208230000Y-100800000D03*
D12*
X223202500Y-133826250D03*
D11*
X215582500Y-138906250D03*
D12*
X216852500Y-136366250D03*
D13*
X220662500Y-138906250D03*
D11*
X225742500Y-138906250D03*
D14*
X213577500Y-136366250D03*
X226504500Y-133826250D03*
D15*
X118740000Y-95190000D03*
D16*
X118740000Y-102810000D03*
D12*
X347027500Y-171926250D03*
D13*
X344487500Y-177006250D03*
D11*
X349567500Y-177006250D03*
X339407500Y-177006250D03*
D12*
X340677500Y-174466250D03*
D14*
X337402500Y-174466250D03*
X350329500Y-171926250D03*
D11*
X111442500Y-138906250D03*
X101282500Y-138906250D03*
D12*
X102552500Y-136366250D03*
X108902500Y-133826250D03*
D13*
X106362500Y-138906250D03*
D14*
X99277500Y-136366250D03*
X112204500Y-133826250D03*
D12*
X340677500Y-193516250D03*
X347027500Y-190976250D03*
D11*
X349567500Y-196056250D03*
D13*
X344487500Y-196056250D03*
D11*
X339407500Y-196056250D03*
D14*
X337402500Y-193516250D03*
X350329500Y-190976250D03*
D13*
X211137500Y-119856250D03*
D12*
X213677500Y-114776250D03*
X207327500Y-117316250D03*
D11*
X206057500Y-119856250D03*
X216217500Y-119856250D03*
D14*
X204052500Y-117316250D03*
X216979500Y-114776250D03*
D15*
X180990000Y-94200000D03*
D16*
X180990000Y-101820000D03*
D12*
X335121250Y-152876250D03*
D11*
X327501250Y-157956250D03*
D12*
X328771250Y-155416250D03*
D17*
X344519250Y-150971250D03*
X320643250Y-150971250D03*
D13*
X320643250Y-166211250D03*
D11*
X337661250Y-157956250D03*
D13*
X332581250Y-157956250D03*
X344519250Y-166211250D03*
D14*
X325496250Y-155416250D03*
X338423250Y-152876250D03*
D13*
X315912500Y-138906250D03*
D12*
X318452500Y-133826250D03*
D11*
X320992500Y-138906250D03*
X310832500Y-138906250D03*
D12*
X312102500Y-136366250D03*
D14*
X308827500Y-136366250D03*
X321754500Y-133826250D03*
D11*
X94773750Y-177006250D03*
D13*
X101631750Y-185261250D03*
D12*
X85883750Y-174466250D03*
D17*
X101631750Y-170021250D03*
X77755750Y-170021250D03*
D13*
X77755750Y-185261250D03*
D12*
X92233750Y-171926250D03*
D13*
X89693750Y-177006250D03*
D11*
X84613750Y-177006250D03*
D14*
X82608750Y-174466250D03*
X95535750Y-171926250D03*
D12*
X285115000Y-152876250D03*
X278765000Y-155416250D03*
D11*
X277495000Y-157956250D03*
D13*
X282575000Y-157956250D03*
D11*
X287655000Y-157956250D03*
D14*
X275490000Y-155416250D03*
X288417000Y-152876250D03*
D18*
X71375000Y-99000000D03*
D19*
X71375000Y-101540000D03*
D15*
X210730000Y-92180000D03*
D16*
X210730000Y-99800000D03*
D15*
X170990000Y-91190000D03*
D16*
X170990000Y-98810000D03*
D13*
X177800000Y-177006250D03*
D11*
X172720000Y-177006250D03*
D12*
X173990000Y-174466250D03*
X180340000Y-171926250D03*
D11*
X182880000Y-177006250D03*
D14*
X170715000Y-174466250D03*
X183642000Y-171926250D03*
D15*
X268000000Y-91180000D03*
D16*
X268000000Y-98800000D03*
D11*
X91757500Y-119856250D03*
D13*
X96837500Y-119856250D03*
D12*
X93027500Y-117316250D03*
D11*
X101917500Y-119856250D03*
D12*
X99377500Y-114776250D03*
D14*
X89752500Y-117316250D03*
X102679500Y-114776250D03*
D21*
X351750000Y-203250000D03*
D15*
X253000000Y-97190000D03*
D16*
X253000000Y-104810000D03*
D15*
X295250000Y-90190000D03*
D16*
X295250000Y-97810000D03*
D11*
X148907500Y-119856250D03*
D12*
X156527500Y-114776250D03*
X150177500Y-117316250D03*
D11*
X159067500Y-119856250D03*
D13*
X153987500Y-119856250D03*
D14*
X146902500Y-117316250D03*
X159829500Y-114776250D03*
D15*
X213230000Y-97190000D03*
D16*
X213230000Y-104810000D03*
D11*
X134620000Y-177006250D03*
D12*
X142240000Y-171926250D03*
D13*
X139700000Y-177006250D03*
D11*
X144780000Y-177006250D03*
D12*
X135890000Y-174466250D03*
D14*
X132615000Y-174466250D03*
X145542000Y-171926250D03*
D15*
X245500000Y-94190000D03*
D16*
X245500000Y-101810000D03*
D15*
X223230000Y-93190000D03*
D16*
X223230000Y-100810000D03*
D13*
X306387500Y-196056250D03*
D12*
X302577500Y-193516250D03*
X308927500Y-190976250D03*
D11*
X311467500Y-196056250D03*
X301307500Y-196056250D03*
D14*
X299302500Y-193516250D03*
X312229500Y-190976250D03*
D11*
X239395000Y-157956250D03*
D12*
X247015000Y-152876250D03*
D11*
X249555000Y-157956250D03*
D13*
X244475000Y-157956250D03*
D12*
X240665000Y-155416250D03*
D14*
X237390000Y-155416250D03*
X250317000Y-152876250D03*
D12*
X107315000Y-155416250D03*
D11*
X116205000Y-157956250D03*
D12*
X113665000Y-152876250D03*
D11*
X106045000Y-157956250D03*
D13*
X111125000Y-157956250D03*
D14*
X104040000Y-155416250D03*
X116967000Y-152876250D03*
D15*
X173490000Y-97190000D03*
D16*
X173490000Y-104810000D03*
D13*
X239712500Y-138906250D03*
D11*
X244792500Y-138906250D03*
D12*
X235902500Y-136366250D03*
X242252500Y-133826250D03*
D11*
X234632500Y-138906250D03*
D14*
X232627500Y-136366250D03*
X245554500Y-133826250D03*
D11*
X282257500Y-196056250D03*
D13*
X287337500Y-196056250D03*
D12*
X289877500Y-190976250D03*
X283527500Y-193516250D03*
D11*
X292417500Y-196056250D03*
D14*
X280252500Y-193516250D03*
X293179500Y-190976250D03*
D21*
X70750000Y-86500000D03*
D15*
X163490000Y-94190000D03*
D16*
X163490000Y-101810000D03*
D12*
X121602500Y-136366250D03*
D11*
X130492500Y-138906250D03*
X120332500Y-138906250D03*
D12*
X127952500Y-133826250D03*
D13*
X125412500Y-138906250D03*
D14*
X118327500Y-136366250D03*
X131254500Y-133826250D03*
D11*
X122713750Y-196056250D03*
D12*
X130333750Y-190976250D03*
X123983750Y-193516250D03*
D13*
X127793750Y-196056250D03*
D11*
X132873750Y-196056250D03*
D14*
X120708750Y-193516250D03*
X133635750Y-190976250D03*
D22*
X88550000Y-86000000D03*
D23*
X88550000Y-88540000D03*
D11*
X253682500Y-138906250D03*
D12*
X254952500Y-136366250D03*
D11*
X263842500Y-138906250D03*
D13*
X258762500Y-138906250D03*
D12*
X261302500Y-133826250D03*
D14*
X251677500Y-136366250D03*
X264604500Y-133826250D03*
D11*
X263207500Y-196056250D03*
D12*
X264477500Y-193516250D03*
D13*
X268287500Y-196056250D03*
D11*
X273367500Y-196056250D03*
D12*
X270827500Y-190976250D03*
D14*
X261202500Y-193516250D03*
X274129500Y-190976250D03*
D11*
X201930000Y-177006250D03*
D13*
X196850000Y-177006250D03*
D11*
X191770000Y-177006250D03*
D12*
X193040000Y-174466250D03*
X199390000Y-171926250D03*
D14*
X189765000Y-174466250D03*
X202692000Y-171926250D03*
D11*
X211455000Y-157956250D03*
D12*
X208915000Y-152876250D03*
X202565000Y-155416250D03*
D11*
X201295000Y-157956250D03*
D13*
X206375000Y-157956250D03*
D14*
X199290000Y-155416250D03*
X212217000Y-152876250D03*
D12*
X82708750Y-190976250D03*
X76358750Y-193516250D03*
D11*
X75088750Y-196056250D03*
D13*
X80168750Y-196056250D03*
D11*
X85248750Y-196056250D03*
D14*
X73083750Y-193516250D03*
X86010750Y-190976250D03*
D15*
X220730000Y-94200000D03*
D16*
X220730000Y-101820000D03*
D11*
X320357500Y-177006250D03*
D12*
X327977500Y-171926250D03*
X321627500Y-174466250D03*
D13*
X325437500Y-177006250D03*
D11*
X330517500Y-177006250D03*
D14*
X318352500Y-174466250D03*
X331279500Y-171926250D03*
D13*
X306387500Y-119856250D03*
D11*
X301307500Y-119856250D03*
D12*
X308927500Y-114776250D03*
X302577500Y-117316250D03*
D11*
X311467500Y-119856250D03*
D14*
X299302500Y-117316250D03*
X312229500Y-114776250D03*
D15*
X133740000Y-96190000D03*
D16*
X133740000Y-103810000D03*
D15*
X260500000Y-94190000D03*
D16*
X260500000Y-101810000D03*
D15*
X292740000Y-91190000D03*
D16*
X292740000Y-98810000D03*
D21*
X351750000Y-86500000D03*
D12*
X264477500Y-117316250D03*
D13*
X268287500Y-119856250D03*
D11*
X273367500Y-119856250D03*
X263207500Y-119856250D03*
D12*
X270827500Y-114776250D03*
D14*
X261202500Y-117316250D03*
X274129500Y-114776250D03*
D13*
X144462500Y-138906250D03*
D11*
X139382500Y-138906250D03*
D12*
X140652500Y-136366250D03*
X147002500Y-133826250D03*
D11*
X149542500Y-138906250D03*
D14*
X137377500Y-136366250D03*
X150304500Y-133826250D03*
D12*
X280352500Y-133826250D03*
D13*
X277812500Y-138906250D03*
D11*
X282892500Y-138906250D03*
D12*
X274002500Y-136366250D03*
D11*
X272732500Y-138906250D03*
D14*
X270727500Y-136366250D03*
X283654500Y-133826250D03*
D24*
X87290000Y-90300000D03*
X88310000Y-90300000D03*
D25*
X98735000Y-91775000D03*
X97715000Y-91775000D03*
D26*
X76925000Y-103526250D03*
X76925000Y-102566250D03*
D27*
X86775000Y-98416250D03*
X86775000Y-99376250D03*
D28*
X79125000Y-97083750D03*
X79625000Y-97083750D03*
X80125000Y-97083750D03*
X80625000Y-97083750D03*
X81125000Y-97083750D03*
X81625000Y-97083750D03*
X82125000Y-97083750D03*
X82625000Y-97083750D03*
X83125000Y-97083750D03*
X83625000Y-97083750D03*
X84125000Y-97083750D03*
D29*
X84962500Y-97921250D03*
X84962500Y-98421250D03*
X84962500Y-98921250D03*
X84962500Y-99421250D03*
X84962500Y-99921250D03*
X84962500Y-100421250D03*
X84962500Y-100921250D03*
X84962500Y-101421250D03*
X84962500Y-101921250D03*
X84962500Y-102421250D03*
X84962500Y-102921250D03*
D28*
X84125000Y-103758750D03*
X83625000Y-103758750D03*
X83125000Y-103758750D03*
X82625000Y-103758750D03*
X82125000Y-103758750D03*
X81625000Y-103758750D03*
X81125000Y-103758750D03*
X80625000Y-103758750D03*
X80125000Y-103758750D03*
X79625000Y-103758750D03*
X79125000Y-103758750D03*
D29*
X78287500Y-102921250D03*
X78287500Y-102421250D03*
X78287500Y-101921250D03*
X78287500Y-101421250D03*
X78287500Y-100921250D03*
X78287500Y-100421250D03*
X78287500Y-99921250D03*
X78287500Y-99421250D03*
X78287500Y-98921250D03*
X78287500Y-98421250D03*
X78287500Y-97921250D03*
D30*
X81625000Y-100421250D03*
D31*
X83795000Y-105071250D03*
X84755000Y-105071250D03*
D26*
X88385000Y-99951250D03*
X88385000Y-98991250D03*
D32*
X83600000Y-93525000D03*
X85150000Y-93525000D03*
D33*
X109715000Y-106800000D03*
D34*
X107175000Y-106800000D03*
X104635000Y-106800000D03*
D26*
X88385000Y-101826250D03*
X88385000Y-100866250D03*
D35*
X89765000Y-101251250D03*
X89765000Y-99051250D03*
X91465000Y-99051250D03*
X91465000Y-101251250D03*
D36*
X78850000Y-92811250D03*
X78850000Y-93831250D03*
X80850000Y-92811250D03*
X80850000Y-93831250D03*
D37*
X82180000Y-94871250D03*
X81220000Y-94871250D03*
D27*
X76975000Y-97241250D03*
X76975000Y-98201250D03*
D25*
X78935000Y-105100000D03*
X77915000Y-105100000D03*
D38*
X98550000Y-106450000D03*
X100200000Y-106450000D03*
D36*
X82350000Y-92261250D03*
X82350000Y-93281250D03*
X79850000Y-92816250D03*
X79850000Y-93836250D03*
D39*
X83840000Y-89461250D03*
X78060000Y-89461250D03*
D40*
X77725000Y-90906250D03*
X78500000Y-90906250D03*
D41*
X79200000Y-90906250D03*
X79700000Y-90906250D03*
X80200000Y-90906250D03*
X80700000Y-90906250D03*
X81200000Y-90906250D03*
X81700000Y-90906250D03*
X82200000Y-90906250D03*
X82700000Y-90906250D03*
D40*
X83400000Y-90906250D03*
X84175000Y-90906250D03*
D42*
X85270000Y-89991250D03*
X76630000Y-89991250D03*
D43*
X76630000Y-85811250D03*
X85270000Y-85811250D03*
M02*
